%TF.GenerationSoftware,KiCad,Pcbnew,9.0.3*%
%TF.CreationDate,2025-08-24T19:50:47+03:00*%
%TF.ProjectId,stm32f103ret6,73746d33-3266-4313-9033-726574362e6b,rev?*%
%TF.SameCoordinates,Original*%
%TF.FileFunction,Copper,L2,Bot*%
%TF.FilePolarity,Positive*%
%FSLAX46Y46*%
G04 Gerber Fmt 4.6, Leading zero omitted, Abs format (unit mm)*
G04 Created by KiCad (PCBNEW 9.0.3) date 2025-08-24 19:50:47*
%MOMM*%
%LPD*%
G01*
G04 APERTURE LIST*
G04 Aperture macros list*
%AMRoundRect*
0 Rectangle with rounded corners*
0 $1 Rounding radius*
0 $2 $3 $4 $5 $6 $7 $8 $9 X,Y pos of 4 corners*
0 Add a 4 corners polygon primitive as box body*
4,1,4,$2,$3,$4,$5,$6,$7,$8,$9,$2,$3,0*
0 Add four circle primitives for the rounded corners*
1,1,$1+$1,$2,$3*
1,1,$1+$1,$4,$5*
1,1,$1+$1,$6,$7*
1,1,$1+$1,$8,$9*
0 Add four rect primitives between the rounded corners*
20,1,$1+$1,$2,$3,$4,$5,0*
20,1,$1+$1,$4,$5,$6,$7,0*
20,1,$1+$1,$6,$7,$8,$9,0*
20,1,$1+$1,$8,$9,$2,$3,0*%
G04 Aperture macros list end*
%TA.AperFunction,ComponentPad*%
%ADD10RoundRect,0.250000X-1.050000X-1.050000X1.050000X-1.050000X1.050000X1.050000X-1.050000X1.050000X0*%
%TD*%
%TA.AperFunction,ComponentPad*%
%ADD11C,2.600000*%
%TD*%
%TA.AperFunction,ComponentPad*%
%ADD12R,2.000000X2.000000*%
%TD*%
%TA.AperFunction,ComponentPad*%
%ADD13C,2.000000*%
%TD*%
%TA.AperFunction,ComponentPad*%
%ADD14R,2.500000X2.500000*%
%TD*%
%TA.AperFunction,ComponentPad*%
%ADD15O,2.500000X2.500000*%
%TD*%
%TA.AperFunction,ComponentPad*%
%ADD16R,1.700000X1.700000*%
%TD*%
%TA.AperFunction,ComponentPad*%
%ADD17C,1.700000*%
%TD*%
%TA.AperFunction,ComponentPad*%
%ADD18RoundRect,0.250000X0.600000X0.600000X-0.600000X0.600000X-0.600000X-0.600000X0.600000X-0.600000X0*%
%TD*%
%TA.AperFunction,ViaPad*%
%ADD19C,0.600000*%
%TD*%
%TA.AperFunction,Conductor*%
%ADD20C,0.254000*%
%TD*%
%TA.AperFunction,Conductor*%
%ADD21C,0.381000*%
%TD*%
%TA.AperFunction,Conductor*%
%ADD22C,0.508000*%
%TD*%
G04 APERTURE END LIST*
D10*
%TO.P,J2,1,Pin_1*%
%TO.N,GND*%
X38955000Y-91000000D03*
D11*
%TO.P,J2,2,Pin_2*%
%TO.N,VCC*%
X44035000Y-91000000D03*
%TD*%
D12*
%TO.P,BT1,1,+*%
%TO.N,Net-(BT1-+)*%
X31642546Y-28000000D03*
D13*
%TO.P,BT1,2,-*%
%TO.N,GND*%
X52442546Y-28000000D03*
%TD*%
D14*
%TO.P,RL1,1*%
%TO.N,Net-(D5-A)*%
X48000000Y-80687500D03*
D15*
%TO.P,RL1,2*%
%TO.N,RELAY_NC*%
X63000000Y-80687500D03*
%TO.P,RL1,3*%
%TO.N,INA226_VIN-*%
X68000000Y-80687500D03*
%TO.P,RL1,4*%
%TO.N,RELAY_NO*%
X73000000Y-80687500D03*
%TO.P,RL1,5*%
X73000000Y-73187500D03*
%TO.P,RL1,6*%
%TO.N,INA226_VIN-*%
X68000000Y-73187500D03*
%TO.P,RL1,7*%
%TO.N,RELAY_NC*%
X63000000Y-73187500D03*
%TO.P,RL1,8*%
%TO.N,+5V*%
X48000000Y-73187500D03*
%TD*%
D10*
%TO.P,J1,1,Pin_1*%
%TO.N,INA226_VIN+*%
X62840000Y-90500000D03*
D11*
%TO.P,J1,2,Pin_2*%
%TO.N,RELAY_NC*%
X67920000Y-90500000D03*
%TO.P,J1,3,Pin_3*%
%TO.N,RELAY_NO*%
X73000000Y-90500000D03*
%TD*%
D16*
%TO.P,J4,1,Pin_1*%
%TO.N,GND*%
X109500000Y-26880000D03*
D17*
%TO.P,J4,2,Pin_2*%
%TO.N,JTCK_SWDIO*%
X109500000Y-29420000D03*
%TO.P,J4,3,Pin_3*%
%TO.N,JTCK_SWDCLK*%
X109500000Y-31960000D03*
%TO.P,J4,4,Pin_4*%
%TO.N,+3.3V*%
X109500000Y-34500000D03*
%TO.P,J4,5,Pin_5*%
%TO.N,+5V*%
X109500000Y-37040000D03*
%TD*%
D18*
%TO.P,J5,1,Pin_1*%
%TO.N,+3.3V*%
X82540000Y-66000000D03*
D17*
%TO.P,J5,2,Pin_2*%
%TO.N,GND*%
X80000000Y-66000000D03*
%TO.P,J5,3,Pin_3*%
%TO.N,PB6_SCL*%
X82540000Y-63460000D03*
%TO.P,J5,4,Pin_4*%
%TO.N,PB7_SDA*%
X80000000Y-63460000D03*
%TO.P,J5,5,Pin_5*%
%TO.N,LED1*%
X82540000Y-60920000D03*
%TO.P,J5,6,Pin_6*%
%TO.N,BTN4*%
X80000000Y-60920000D03*
%TO.P,J5,7,Pin_7*%
%TO.N,LED2*%
X82540000Y-58380000D03*
%TO.P,J5,8,Pin_8*%
%TO.N,BTN3*%
X80000000Y-58380000D03*
%TO.P,J5,9,Pin_9*%
%TO.N,LED3*%
X82540000Y-55840000D03*
%TO.P,J5,10,Pin_10*%
%TO.N,BTN2*%
X80000000Y-55840000D03*
%TO.P,J5,11,Pin_11*%
%TO.N,LED4*%
X82540000Y-53300000D03*
%TO.P,J5,12,Pin_12*%
%TO.N,BTN1*%
X80000000Y-53300000D03*
%TD*%
D10*
%TO.P,J3,1,Pin_1*%
%TO.N,MAX485E_A*%
X80915000Y-90500000D03*
D11*
%TO.P,J3,2,Pin_2*%
%TO.N,MAX485E_B*%
X85995000Y-90500000D03*
%TO.P,J3,3,Pin_3*%
%TO.N,GND*%
X91075000Y-90500000D03*
%TD*%
D19*
%TO.N,GND*%
X89000000Y-38500000D03*
X83500000Y-38000000D03*
X102500000Y-78000000D03*
X63500000Y-33000000D03*
X64500000Y-27000000D03*
X93500000Y-68000000D03*
X104000000Y-33000000D03*
X85500000Y-40500000D03*
X86000000Y-34500000D03*
X101000000Y-31000000D03*
X87000000Y-28500000D03*
X81000000Y-37000000D03*
X59500000Y-36500000D03*
X59000000Y-28500000D03*
X100500000Y-62000000D03*
X90000000Y-51000000D03*
X56500000Y-51000000D03*
%TO.N,+3.3V*%
X84500000Y-35425000D03*
X67032000Y-42500000D03*
X72000000Y-65500000D03*
X65323000Y-42500000D03*
X87000000Y-38052000D03*
X61980000Y-62480000D03*
%TO.N,+5V*%
X55500000Y-45500000D03*
X59000000Y-23000000D03*
X76000000Y-68000000D03*
X58750000Y-61250000D03*
%TO.N,JTCK_SWDCLK*%
X100250000Y-33250000D03*
X92500000Y-42052000D03*
%TO.N,JTCK_SWDIO*%
X97000000Y-33000000D03*
X88250000Y-41750000D03*
%TO.N,AT24_WP*%
X65323000Y-44500000D03*
X77500000Y-45500000D03*
%TO.N,PA11_MAX485E_RD*%
X80250000Y-73250000D03*
X79193356Y-71806644D03*
%TO.N,PC8_RELAY_O*%
X67000000Y-55000000D03*
X75627000Y-52500000D03*
%TO.N,PC7_INA286_ALE*%
X70000000Y-56500000D03*
X75127000Y-54500000D03*
%TD*%
D20*
%TO.N,+3.3V*%
X65323000Y-42500000D02*
X67032000Y-42500000D01*
D21*
X81626250Y-66913750D02*
X82540000Y-66000000D01*
X64000000Y-64500000D02*
X61980000Y-62480000D01*
X75191500Y-68691500D02*
X80561000Y-68691500D01*
X72000000Y-65500000D02*
X71000000Y-64500000D01*
X80561000Y-68691500D02*
X81626250Y-67626250D01*
X71000000Y-64500000D02*
X64000000Y-64500000D01*
D20*
X87000000Y-37925000D02*
X84500000Y-35425000D01*
D21*
X81626250Y-67626250D02*
X81626250Y-66913750D01*
X72000000Y-65500000D02*
X75191500Y-68691500D01*
D20*
X87000000Y-38052000D02*
X87000000Y-37925000D01*
D22*
%TO.N,+5V*%
X63000000Y-17500000D02*
X105000000Y-17500000D01*
X55500000Y-45500000D02*
X55500000Y-25000000D01*
X55500000Y-25000000D02*
X57500000Y-23000000D01*
X76000000Y-68000000D02*
X69500000Y-61500000D01*
X105000000Y-17500000D02*
X111500000Y-24000000D01*
X111500000Y-24000000D02*
X111500000Y-35040000D01*
X69500000Y-61500000D02*
X59000000Y-61500000D01*
X57500000Y-23000000D02*
X59000000Y-23000000D01*
X59000000Y-61500000D02*
X58750000Y-61250000D01*
X57500000Y-23000000D02*
X63000000Y-17500000D01*
X111500000Y-35040000D02*
X109500000Y-37040000D01*
D20*
%TO.N,JTCK_SWDCLK*%
X99000000Y-34500000D02*
X99000000Y-41000000D01*
X99000000Y-41000000D02*
X97948000Y-42052000D01*
X97948000Y-42052000D02*
X92500000Y-42052000D01*
X100250000Y-33250000D02*
X99000000Y-34500000D01*
%TO.N,JTCK_SWDIO*%
X88250000Y-41750000D02*
X97000000Y-33000000D01*
%TO.N,AT24_WP*%
X77500000Y-45500000D02*
X68000000Y-45500000D01*
X67000000Y-44500000D02*
X65323000Y-44500000D01*
X68000000Y-45500000D02*
X67000000Y-44500000D01*
%TO.N,PA11_MAX485E_RD*%
X79193356Y-71806644D02*
X79193356Y-72193356D01*
X79193356Y-72193356D02*
X80250000Y-73250000D01*
%TO.N,PC8_RELAY_O*%
X69500000Y-52500000D02*
X67000000Y-55000000D01*
X75627000Y-52500000D02*
X69500000Y-52500000D01*
%TO.N,PC7_INA286_ALE*%
X72000000Y-54500000D02*
X70000000Y-56500000D01*
X75127000Y-54500000D02*
X72000000Y-54500000D01*
%TD*%
%TA.AperFunction,Conductor*%
%TO.N,GND*%
G36*
X81341444Y-64113999D02*
G01*
X81380486Y-64159056D01*
X81384951Y-64167820D01*
X81509890Y-64339786D01*
X81660209Y-64490105D01*
X81665106Y-64493663D01*
X81707771Y-64548994D01*
X81713750Y-64618607D01*
X81681144Y-64680402D01*
X81631229Y-64711685D01*
X81620673Y-64715183D01*
X81620663Y-64715187D01*
X81471342Y-64807289D01*
X81347289Y-64931342D01*
X81255187Y-65080663D01*
X81255186Y-65080666D01*
X81231293Y-65152771D01*
X81191520Y-65210215D01*
X81127004Y-65237038D01*
X81116354Y-65237197D01*
X80482962Y-65870590D01*
X80465925Y-65807007D01*
X80400099Y-65692993D01*
X80307007Y-65599901D01*
X80192993Y-65534075D01*
X80129409Y-65517037D01*
X80761716Y-64884728D01*
X80707547Y-64845373D01*
X80707547Y-64845372D01*
X80698500Y-64840763D01*
X80647706Y-64792788D01*
X80630912Y-64724966D01*
X80653451Y-64658832D01*
X80698508Y-64619793D01*
X80707816Y-64615051D01*
X80813014Y-64538621D01*
X80879786Y-64490109D01*
X80879788Y-64490106D01*
X80879792Y-64490104D01*
X81030104Y-64339792D01*
X81030106Y-64339788D01*
X81030109Y-64339786D01*
X81155048Y-64167820D01*
X81155047Y-64167820D01*
X81155051Y-64167816D01*
X81159514Y-64159054D01*
X81207488Y-64108259D01*
X81275308Y-64091463D01*
X81341444Y-64113999D01*
G37*
%TD.AperFunction*%
%TA.AperFunction,Conductor*%
G36*
X113442539Y-15020185D02*
G01*
X113488294Y-15072989D01*
X113499500Y-15124500D01*
X113499500Y-95648788D01*
X113479815Y-95715827D01*
X113427011Y-95761582D01*
X113375788Y-95772788D01*
X15715385Y-95999500D01*
X15624500Y-95999500D01*
X15557461Y-95979815D01*
X15511706Y-95927011D01*
X15500500Y-95875500D01*
X15500500Y-90368872D01*
X26999500Y-90368872D01*
X26999500Y-90631127D01*
X27026123Y-90833339D01*
X27033730Y-90891116D01*
X27101602Y-91144418D01*
X27101605Y-91144428D01*
X27201953Y-91386690D01*
X27201958Y-91386700D01*
X27333075Y-91613803D01*
X27492718Y-91821851D01*
X27492726Y-91821860D01*
X27678140Y-92007274D01*
X27678148Y-92007281D01*
X27886196Y-92166924D01*
X28113299Y-92298041D01*
X28113309Y-92298046D01*
X28284895Y-92369119D01*
X28355581Y-92398398D01*
X28608884Y-92466270D01*
X28857188Y-92498960D01*
X28867155Y-92500273D01*
X28868880Y-92500500D01*
X28868887Y-92500500D01*
X29131113Y-92500500D01*
X29131120Y-92500500D01*
X29391116Y-92466270D01*
X29644419Y-92398398D01*
X29821340Y-92325114D01*
X29886690Y-92298046D01*
X29886691Y-92298045D01*
X29886697Y-92298043D01*
X30113803Y-92166924D01*
X30321851Y-92007282D01*
X30321855Y-92007277D01*
X30321860Y-92007274D01*
X30507274Y-91821860D01*
X30507277Y-91821855D01*
X30507282Y-91821851D01*
X30666924Y-91613803D01*
X30798043Y-91386697D01*
X30830686Y-91307890D01*
X30895596Y-91151185D01*
X30895596Y-91151184D01*
X30898392Y-91144433D01*
X30898394Y-91144428D01*
X30898398Y-91144419D01*
X30966270Y-90891116D01*
X31000500Y-90631120D01*
X31000500Y-90368880D01*
X30966270Y-90108884D01*
X30910303Y-89900013D01*
X37155000Y-89900013D01*
X37155000Y-90750000D01*
X38354999Y-90750000D01*
X38329979Y-90810402D01*
X38305000Y-90935981D01*
X38305000Y-91064019D01*
X38329979Y-91189598D01*
X38354999Y-91250000D01*
X37155001Y-91250000D01*
X37155001Y-92099986D01*
X37165494Y-92202697D01*
X37220641Y-92369119D01*
X37220643Y-92369124D01*
X37312684Y-92518345D01*
X37436654Y-92642315D01*
X37585875Y-92734356D01*
X37585880Y-92734358D01*
X37752302Y-92789505D01*
X37752309Y-92789506D01*
X37855019Y-92799999D01*
X38704999Y-92799999D01*
X38705000Y-92799998D01*
X38705000Y-91600001D01*
X38765402Y-91625021D01*
X38890981Y-91650000D01*
X39019019Y-91650000D01*
X39144598Y-91625021D01*
X39205000Y-91600001D01*
X39205000Y-92799999D01*
X40054972Y-92799999D01*
X40054986Y-92799998D01*
X40157697Y-92789505D01*
X40324119Y-92734358D01*
X40324124Y-92734356D01*
X40473345Y-92642315D01*
X40597315Y-92518345D01*
X40689356Y-92369124D01*
X40689358Y-92369119D01*
X40744505Y-92202697D01*
X40744506Y-92202690D01*
X40754999Y-92099986D01*
X40755000Y-92099973D01*
X40755000Y-91250000D01*
X39555001Y-91250000D01*
X39580021Y-91189598D01*
X39605000Y-91064019D01*
X39605000Y-90935981D01*
X39594262Y-90881995D01*
X42234500Y-90881995D01*
X42234500Y-91118004D01*
X42234501Y-91118020D01*
X42265306Y-91352010D01*
X42326394Y-91579993D01*
X42416714Y-91798045D01*
X42416719Y-91798056D01*
X42487677Y-91920957D01*
X42534727Y-92002450D01*
X42534729Y-92002453D01*
X42534730Y-92002454D01*
X42678406Y-92189697D01*
X42678412Y-92189704D01*
X42845295Y-92356587D01*
X42845302Y-92356593D01*
X42899782Y-92398397D01*
X43032550Y-92500273D01*
X43163918Y-92576118D01*
X43236943Y-92618280D01*
X43236948Y-92618282D01*
X43236951Y-92618284D01*
X43455007Y-92708606D01*
X43682986Y-92769693D01*
X43916989Y-92800500D01*
X43916996Y-92800500D01*
X44153004Y-92800500D01*
X44153011Y-92800500D01*
X44387014Y-92769693D01*
X44614993Y-92708606D01*
X44833049Y-92618284D01*
X45037450Y-92500273D01*
X45224699Y-92356592D01*
X45391592Y-92189699D01*
X45535273Y-92002450D01*
X45653284Y-91798049D01*
X45743606Y-91579993D01*
X45804693Y-91352014D01*
X45835500Y-91118011D01*
X45835500Y-90881989D01*
X45804693Y-90647986D01*
X45743606Y-90420007D01*
X45653284Y-90201951D01*
X45653282Y-90201948D01*
X45653280Y-90201943D01*
X45586137Y-90085649D01*
X45535273Y-89997550D01*
X45391592Y-89810301D01*
X45391587Y-89810295D01*
X45224704Y-89643412D01*
X45224697Y-89643406D01*
X45037454Y-89499730D01*
X45037453Y-89499729D01*
X45037450Y-89499727D01*
X44955957Y-89452677D01*
X44864690Y-89399983D01*
X61039500Y-89399983D01*
X61039500Y-91600001D01*
X61039501Y-91600018D01*
X61050000Y-91702796D01*
X61050001Y-91702799D01*
X61100962Y-91856587D01*
X61105186Y-91869334D01*
X61197288Y-92018656D01*
X61321344Y-92142712D01*
X61470666Y-92234814D01*
X61637203Y-92289999D01*
X61739991Y-92300500D01*
X63940008Y-92300499D01*
X64042797Y-92289999D01*
X64209334Y-92234814D01*
X64358656Y-92142712D01*
X64482712Y-92018656D01*
X64574814Y-91869334D01*
X64629999Y-91702797D01*
X64640500Y-91600009D01*
X64640499Y-90381995D01*
X66119500Y-90381995D01*
X66119500Y-90618004D01*
X66119501Y-90618020D01*
X66150306Y-90852010D01*
X66211394Y-91079993D01*
X66301714Y-91298045D01*
X66301719Y-91298056D01*
X66368863Y-91414351D01*
X66419727Y-91502450D01*
X66419729Y-91502453D01*
X66419730Y-91502454D01*
X66563406Y-91689697D01*
X66563412Y-91689704D01*
X66730295Y-91856587D01*
X66730302Y-91856593D01*
X66840306Y-91941001D01*
X66917550Y-92000273D01*
X67048918Y-92076118D01*
X67121943Y-92118280D01*
X67121948Y-92118282D01*
X67121951Y-92118284D01*
X67340007Y-92208606D01*
X67567986Y-92269693D01*
X67801989Y-92300500D01*
X67801996Y-92300500D01*
X68038004Y-92300500D01*
X68038011Y-92300500D01*
X68272014Y-92269693D01*
X68499993Y-92208606D01*
X68718049Y-92118284D01*
X68922450Y-92000273D01*
X69109699Y-91856592D01*
X69276592Y-91689699D01*
X69420273Y-91502450D01*
X69538284Y-91298049D01*
X69628606Y-91079993D01*
X69689693Y-90852014D01*
X69720500Y-90618011D01*
X69720500Y-90381995D01*
X71199500Y-90381995D01*
X71199500Y-90618004D01*
X71199501Y-90618020D01*
X71230306Y-90852010D01*
X71291394Y-91079993D01*
X71381714Y-91298045D01*
X71381719Y-91298056D01*
X71448863Y-91414351D01*
X71499727Y-91502450D01*
X71499729Y-91502453D01*
X71499730Y-91502454D01*
X71643406Y-91689697D01*
X71643412Y-91689704D01*
X71810295Y-91856587D01*
X71810302Y-91856593D01*
X71920306Y-91941001D01*
X71997550Y-92000273D01*
X72128918Y-92076118D01*
X72201943Y-92118280D01*
X72201948Y-92118282D01*
X72201951Y-92118284D01*
X72420007Y-92208606D01*
X72647986Y-92269693D01*
X72881989Y-92300500D01*
X72881996Y-92300500D01*
X73118004Y-92300500D01*
X73118011Y-92300500D01*
X73352014Y-92269693D01*
X73579993Y-92208606D01*
X73798049Y-92118284D01*
X74002450Y-92000273D01*
X74189699Y-91856592D01*
X74356592Y-91689699D01*
X74500273Y-91502450D01*
X74618284Y-91298049D01*
X74708606Y-91079993D01*
X74769693Y-90852014D01*
X74800500Y-90618011D01*
X74800500Y-90381989D01*
X74769693Y-90147986D01*
X74708606Y-89920007D01*
X74618284Y-89701951D01*
X74618282Y-89701948D01*
X74618280Y-89701943D01*
X74562510Y-89605348D01*
X74500273Y-89497550D01*
X74425414Y-89399992D01*
X74425407Y-89399983D01*
X79114500Y-89399983D01*
X79114500Y-91600001D01*
X79114501Y-91600018D01*
X79125000Y-91702796D01*
X79125001Y-91702799D01*
X79175962Y-91856587D01*
X79180186Y-91869334D01*
X79272288Y-92018656D01*
X79396344Y-92142712D01*
X79545666Y-92234814D01*
X79712203Y-92289999D01*
X79814991Y-92300500D01*
X82015008Y-92300499D01*
X82117797Y-92289999D01*
X82284334Y-92234814D01*
X82433656Y-92142712D01*
X82557712Y-92018656D01*
X82649814Y-91869334D01*
X82704999Y-91702797D01*
X82715500Y-91600009D01*
X82715499Y-90381995D01*
X84194500Y-90381995D01*
X84194500Y-90618004D01*
X84194501Y-90618020D01*
X84225306Y-90852010D01*
X84286394Y-91079993D01*
X84376714Y-91298045D01*
X84376719Y-91298056D01*
X84443863Y-91414351D01*
X84494727Y-91502450D01*
X84494729Y-91502453D01*
X84494730Y-91502454D01*
X84638406Y-91689697D01*
X84638412Y-91689704D01*
X84805295Y-91856587D01*
X84805302Y-91856593D01*
X84915306Y-91941001D01*
X84992550Y-92000273D01*
X85123918Y-92076118D01*
X85196943Y-92118280D01*
X85196948Y-92118282D01*
X85196951Y-92118284D01*
X85415007Y-92208606D01*
X85642986Y-92269693D01*
X85876989Y-92300500D01*
X85876996Y-92300500D01*
X86113004Y-92300500D01*
X86113011Y-92300500D01*
X86347014Y-92269693D01*
X86574993Y-92208606D01*
X86793049Y-92118284D01*
X86997450Y-92000273D01*
X87184699Y-91856592D01*
X87184704Y-91856587D01*
X87239648Y-91801644D01*
X87351587Y-91689704D01*
X87351592Y-91689699D01*
X87495273Y-91502450D01*
X87613284Y-91298049D01*
X87703606Y-91079993D01*
X87764693Y-90852014D01*
X87795500Y-90618011D01*
X87795500Y-90382014D01*
X89275000Y-90382014D01*
X89275000Y-90617985D01*
X89305799Y-90851914D01*
X89366870Y-91079837D01*
X89457160Y-91297819D01*
X89457165Y-91297828D01*
X89575144Y-91502171D01*
X89575145Y-91502172D01*
X89637721Y-91583723D01*
X90473958Y-90747487D01*
X90498978Y-90807890D01*
X90570112Y-90914351D01*
X90660649Y-91004888D01*
X90767110Y-91076022D01*
X90827511Y-91101041D01*
X89991275Y-91937277D01*
X90072827Y-91999854D01*
X90072828Y-91999855D01*
X90277171Y-92117834D01*
X90277180Y-92117839D01*
X90495163Y-92208129D01*
X90495161Y-92208129D01*
X90723085Y-92269200D01*
X90957014Y-92299999D01*
X90957029Y-92300000D01*
X91192971Y-92300000D01*
X91192985Y-92299999D01*
X91426914Y-92269200D01*
X91654837Y-92208129D01*
X91872819Y-92117839D01*
X91872828Y-92117834D01*
X92077181Y-91999850D01*
X92158723Y-91937279D01*
X92158723Y-91937276D01*
X91322487Y-91101041D01*
X91382890Y-91076022D01*
X91489351Y-91004888D01*
X91579888Y-90914351D01*
X91651022Y-90807890D01*
X91676041Y-90747488D01*
X92512276Y-91583723D01*
X92512279Y-91583723D01*
X92574850Y-91502181D01*
X92692834Y-91297828D01*
X92692839Y-91297819D01*
X92783129Y-91079837D01*
X92844200Y-90851914D01*
X92874999Y-90617985D01*
X92875000Y-90617971D01*
X92875000Y-90382028D01*
X92874999Y-90382026D01*
X92874867Y-90381018D01*
X92874867Y-90381012D01*
X92874866Y-90381006D01*
X92873269Y-90368872D01*
X96999500Y-90368872D01*
X96999500Y-90631127D01*
X97026123Y-90833339D01*
X97033730Y-90891116D01*
X97101602Y-91144418D01*
X97101605Y-91144428D01*
X97201953Y-91386690D01*
X97201958Y-91386700D01*
X97333075Y-91613803D01*
X97492718Y-91821851D01*
X97492726Y-91821860D01*
X97678140Y-92007274D01*
X97678148Y-92007281D01*
X97886196Y-92166924D01*
X98113299Y-92298041D01*
X98113309Y-92298046D01*
X98284895Y-92369119D01*
X98355581Y-92398398D01*
X98608884Y-92466270D01*
X98857188Y-92498960D01*
X98867155Y-92500273D01*
X98868880Y-92500500D01*
X98868887Y-92500500D01*
X99131113Y-92500500D01*
X99131120Y-92500500D01*
X99391116Y-92466270D01*
X99644419Y-92398398D01*
X99821340Y-92325114D01*
X99886690Y-92298046D01*
X99886691Y-92298045D01*
X99886697Y-92298043D01*
X100113803Y-92166924D01*
X100321851Y-92007282D01*
X100321855Y-92007277D01*
X100321860Y-92007274D01*
X100507274Y-91821860D01*
X100507277Y-91821855D01*
X100507282Y-91821851D01*
X100666924Y-91613803D01*
X100798043Y-91386697D01*
X100898398Y-91144419D01*
X100966270Y-90891116D01*
X101000500Y-90631120D01*
X101000500Y-90368880D01*
X100966270Y-90108884D01*
X100898398Y-89855581D01*
X100879643Y-89810302D01*
X100798046Y-89613309D01*
X100798041Y-89613299D01*
X100666924Y-89386196D01*
X100507281Y-89178148D01*
X100507274Y-89178140D01*
X100321860Y-88992726D01*
X100321851Y-88992718D01*
X100113803Y-88833075D01*
X99886700Y-88701958D01*
X99886690Y-88701953D01*
X99644428Y-88601605D01*
X99644421Y-88601603D01*
X99644419Y-88601602D01*
X99391116Y-88533730D01*
X99333339Y-88526123D01*
X99131127Y-88499500D01*
X99131120Y-88499500D01*
X98868880Y-88499500D01*
X98868872Y-88499500D01*
X98637772Y-88529926D01*
X98608884Y-88533730D01*
X98355581Y-88601602D01*
X98355571Y-88601605D01*
X98113309Y-88701953D01*
X98113299Y-88701958D01*
X97886196Y-88833075D01*
X97678148Y-88992718D01*
X97492718Y-89178148D01*
X97333075Y-89386196D01*
X97201958Y-89613299D01*
X97201953Y-89613309D01*
X97101605Y-89855571D01*
X97101603Y-89855578D01*
X97101602Y-89855581D01*
X97084340Y-89920006D01*
X97033730Y-90108885D01*
X96999500Y-90368872D01*
X92873269Y-90368872D01*
X92844201Y-90148085D01*
X92783129Y-89920162D01*
X92692839Y-89702180D01*
X92692834Y-89702171D01*
X92574855Y-89497828D01*
X92574854Y-89497827D01*
X92512277Y-89416275D01*
X91676041Y-90252511D01*
X91651022Y-90192110D01*
X91579888Y-90085649D01*
X91489351Y-89995112D01*
X91382890Y-89923978D01*
X91322488Y-89898958D01*
X92158723Y-89062721D01*
X92077172Y-89000145D01*
X92077171Y-89000144D01*
X91872828Y-88882165D01*
X91872819Y-88882160D01*
X91654836Y-88791870D01*
X91654838Y-88791870D01*
X91426914Y-88730799D01*
X91192985Y-88700000D01*
X90957014Y-88700000D01*
X90723085Y-88730799D01*
X90495162Y-88791870D01*
X90277180Y-88882160D01*
X90277171Y-88882165D01*
X90072828Y-89000144D01*
X90072818Y-89000150D01*
X89991275Y-89062720D01*
X89991275Y-89062721D01*
X90827512Y-89898958D01*
X90767110Y-89923978D01*
X90660649Y-89995112D01*
X90570112Y-90085649D01*
X90498978Y-90192110D01*
X90473958Y-90252512D01*
X89637721Y-89416275D01*
X89637720Y-89416275D01*
X89575150Y-89497818D01*
X89575144Y-89497828D01*
X89457165Y-89702171D01*
X89457160Y-89702180D01*
X89366870Y-89920162D01*
X89305799Y-90148085D01*
X89275000Y-90382014D01*
X87795500Y-90382014D01*
X87795500Y-90381989D01*
X87764693Y-90147986D01*
X87703606Y-89920007D01*
X87613284Y-89701951D01*
X87613282Y-89701948D01*
X87613280Y-89701943D01*
X87571118Y-89628918D01*
X87495273Y-89497550D01*
X87351592Y-89310301D01*
X87351587Y-89310295D01*
X87184704Y-89143412D01*
X87184697Y-89143406D01*
X86997454Y-88999730D01*
X86997453Y-88999729D01*
X86997450Y-88999727D01*
X86915957Y-88952677D01*
X86793056Y-88881719D01*
X86793045Y-88881714D01*
X86574993Y-88791394D01*
X86347010Y-88730306D01*
X86113020Y-88699501D01*
X86113017Y-88699500D01*
X86113011Y-88699500D01*
X85876989Y-88699500D01*
X85876983Y-88699500D01*
X85876979Y-88699501D01*
X85642989Y-88730306D01*
X85415006Y-88791394D01*
X85196954Y-88881714D01*
X85196943Y-88881719D01*
X84992545Y-88999730D01*
X84805302Y-89143406D01*
X84805295Y-89143412D01*
X84638412Y-89310295D01*
X84638406Y-89310302D01*
X84494730Y-89497545D01*
X84494727Y-89497549D01*
X84494727Y-89497550D01*
X84493470Y-89499727D01*
X84376719Y-89701943D01*
X84376714Y-89701954D01*
X84286394Y-89920006D01*
X84225306Y-90147989D01*
X84194501Y-90381979D01*
X84194500Y-90381995D01*
X82715499Y-90381995D01*
X82715499Y-89399992D01*
X82704999Y-89297203D01*
X82649814Y-89130666D01*
X82557712Y-88981344D01*
X82433656Y-88857288D01*
X82284334Y-88765186D01*
X82117797Y-88710001D01*
X82117795Y-88710000D01*
X82015010Y-88699500D01*
X79814998Y-88699500D01*
X79814981Y-88699501D01*
X79712203Y-88710000D01*
X79712200Y-88710001D01*
X79545668Y-88765185D01*
X79545663Y-88765187D01*
X79396342Y-88857289D01*
X79272289Y-88981342D01*
X79180187Y-89130663D01*
X79180185Y-89130668D01*
X79164452Y-89178148D01*
X79125001Y-89297203D01*
X79125001Y-89297204D01*
X79125000Y-89297204D01*
X79114500Y-89399983D01*
X74425407Y-89399983D01*
X74356593Y-89310302D01*
X74356587Y-89310295D01*
X74189704Y-89143412D01*
X74189697Y-89143406D01*
X74002454Y-88999730D01*
X74002453Y-88999729D01*
X74002450Y-88999727D01*
X73920957Y-88952677D01*
X73798056Y-88881719D01*
X73798045Y-88881714D01*
X73579993Y-88791394D01*
X73352010Y-88730306D01*
X73118020Y-88699501D01*
X73118017Y-88699500D01*
X73118011Y-88699500D01*
X72881989Y-88699500D01*
X72881983Y-88699500D01*
X72881979Y-88699501D01*
X72647989Y-88730306D01*
X72420006Y-88791394D01*
X72201954Y-88881714D01*
X72201943Y-88881719D01*
X71997545Y-88999730D01*
X71810302Y-89143406D01*
X71810295Y-89143412D01*
X71643412Y-89310295D01*
X71643406Y-89310302D01*
X71499730Y-89497545D01*
X71499727Y-89497549D01*
X71499727Y-89497550D01*
X71498470Y-89499727D01*
X71381719Y-89701943D01*
X71381714Y-89701954D01*
X71291394Y-89920006D01*
X71230306Y-90147989D01*
X71199501Y-90381979D01*
X71199500Y-90381995D01*
X69720500Y-90381995D01*
X69720500Y-90381989D01*
X69689693Y-90147986D01*
X69628606Y-89920007D01*
X69538284Y-89701951D01*
X69538282Y-89701948D01*
X69538280Y-89701943D01*
X69496118Y-89628918D01*
X69420273Y-89497550D01*
X69276592Y-89310301D01*
X69276587Y-89310295D01*
X69109704Y-89143412D01*
X69109697Y-89143406D01*
X68922454Y-88999730D01*
X68922453Y-88999729D01*
X68922450Y-88999727D01*
X68840957Y-88952677D01*
X68718056Y-88881719D01*
X68718045Y-88881714D01*
X68499993Y-88791394D01*
X68272010Y-88730306D01*
X68038020Y-88699501D01*
X68038017Y-88699500D01*
X68038011Y-88699500D01*
X67801989Y-88699500D01*
X67801983Y-88699500D01*
X67801979Y-88699501D01*
X67567989Y-88730306D01*
X67340006Y-88791394D01*
X67121954Y-88881714D01*
X67121943Y-88881719D01*
X66917545Y-88999730D01*
X66730302Y-89143406D01*
X66730295Y-89143412D01*
X66563412Y-89310295D01*
X66563406Y-89310302D01*
X66419730Y-89497545D01*
X66419727Y-89497549D01*
X66419727Y-89497550D01*
X66418470Y-89499727D01*
X66301719Y-89701943D01*
X66301714Y-89701954D01*
X66211394Y-89920006D01*
X66150306Y-90147989D01*
X66119501Y-90381979D01*
X66119500Y-90381995D01*
X64640499Y-90381995D01*
X64640499Y-89399992D01*
X64629999Y-89297203D01*
X64574814Y-89130666D01*
X64482712Y-88981344D01*
X64358656Y-88857288D01*
X64209334Y-88765186D01*
X64042797Y-88710001D01*
X64042795Y-88710000D01*
X63940010Y-88699500D01*
X61739998Y-88699500D01*
X61739981Y-88699501D01*
X61637203Y-88710000D01*
X61637200Y-88710001D01*
X61470668Y-88765185D01*
X61470663Y-88765187D01*
X61321342Y-88857289D01*
X61197289Y-88981342D01*
X61105187Y-89130663D01*
X61105185Y-89130668D01*
X61089452Y-89178148D01*
X61050001Y-89297203D01*
X61050001Y-89297204D01*
X61050000Y-89297204D01*
X61039500Y-89399983D01*
X44864690Y-89399983D01*
X44833056Y-89381719D01*
X44833045Y-89381714D01*
X44614993Y-89291394D01*
X44387010Y-89230306D01*
X44153020Y-89199501D01*
X44153017Y-89199500D01*
X44153011Y-89199500D01*
X43916989Y-89199500D01*
X43916983Y-89199500D01*
X43916979Y-89199501D01*
X43682989Y-89230306D01*
X43455006Y-89291394D01*
X43236954Y-89381714D01*
X43236943Y-89381719D01*
X43080022Y-89472319D01*
X43035857Y-89497818D01*
X43032545Y-89499730D01*
X42845302Y-89643406D01*
X42845295Y-89643412D01*
X42678412Y-89810295D01*
X42678406Y-89810302D01*
X42534730Y-89997545D01*
X42416719Y-90201943D01*
X42416714Y-90201954D01*
X42326394Y-90420006D01*
X42265306Y-90647989D01*
X42234501Y-90881979D01*
X42234500Y-90881995D01*
X39594262Y-90881995D01*
X39580021Y-90810402D01*
X39555001Y-90750000D01*
X40754999Y-90750000D01*
X40754999Y-89900028D01*
X40754998Y-89900013D01*
X40744505Y-89797302D01*
X40689358Y-89630880D01*
X40689356Y-89630875D01*
X40597315Y-89481654D01*
X40473345Y-89357684D01*
X40324124Y-89265643D01*
X40324119Y-89265641D01*
X40157697Y-89210494D01*
X40157690Y-89210493D01*
X40054986Y-89200000D01*
X39205000Y-89200000D01*
X39205000Y-90399998D01*
X39144598Y-90374979D01*
X39019019Y-90350000D01*
X38890981Y-90350000D01*
X38765402Y-90374979D01*
X38705000Y-90399998D01*
X38705000Y-89200000D01*
X37855028Y-89200000D01*
X37855012Y-89200001D01*
X37752302Y-89210494D01*
X37585880Y-89265641D01*
X37585875Y-89265643D01*
X37436654Y-89357684D01*
X37312684Y-89481654D01*
X37220643Y-89630875D01*
X37220641Y-89630880D01*
X37165494Y-89797302D01*
X37165493Y-89797309D01*
X37155000Y-89900013D01*
X30910303Y-89900013D01*
X30898398Y-89855581D01*
X30879643Y-89810302D01*
X30798046Y-89613309D01*
X30798041Y-89613299D01*
X30666924Y-89386196D01*
X30507281Y-89178148D01*
X30507274Y-89178140D01*
X30321860Y-88992726D01*
X30321851Y-88992718D01*
X30113803Y-88833075D01*
X29886700Y-88701958D01*
X29886690Y-88701953D01*
X29644428Y-88601605D01*
X29644421Y-88601603D01*
X29644419Y-88601602D01*
X29391116Y-88533730D01*
X29333339Y-88526123D01*
X29131127Y-88499500D01*
X29131120Y-88499500D01*
X28868880Y-88499500D01*
X28868872Y-88499500D01*
X28637772Y-88529926D01*
X28608884Y-88533730D01*
X28355581Y-88601602D01*
X28355571Y-88601605D01*
X28113309Y-88701953D01*
X28113299Y-88701958D01*
X27886196Y-88833075D01*
X27678148Y-88992718D01*
X27492718Y-89178148D01*
X27333075Y-89386196D01*
X27201958Y-89613299D01*
X27201953Y-89613309D01*
X27101605Y-89855571D01*
X27101603Y-89855578D01*
X27101602Y-89855581D01*
X27084340Y-89920006D01*
X27033730Y-90108885D01*
X26999500Y-90368872D01*
X15500500Y-90368872D01*
X15500500Y-79389635D01*
X46249500Y-79389635D01*
X46249500Y-81985370D01*
X46249501Y-81985376D01*
X46255908Y-82044983D01*
X46306202Y-82179828D01*
X46306206Y-82179835D01*
X46392452Y-82295044D01*
X46392455Y-82295047D01*
X46507664Y-82381293D01*
X46507671Y-82381297D01*
X46642517Y-82431591D01*
X46642516Y-82431591D01*
X46649444Y-82432335D01*
X46702127Y-82438000D01*
X49297872Y-82437999D01*
X49357483Y-82431591D01*
X49492331Y-82381296D01*
X49607546Y-82295046D01*
X49693796Y-82179831D01*
X49744091Y-82044983D01*
X49750500Y-81985373D01*
X49750499Y-80572758D01*
X61249500Y-80572758D01*
X61249500Y-80802241D01*
X61274446Y-80991715D01*
X61279452Y-81029738D01*
X61279453Y-81029740D01*
X61338842Y-81251387D01*
X61426650Y-81463376D01*
X61426657Y-81463390D01*
X61541392Y-81662117D01*
X61681081Y-81844161D01*
X61681089Y-81844170D01*
X61843330Y-82006411D01*
X61843338Y-82006418D01*
X62025382Y-82146107D01*
X62025385Y-82146108D01*
X62025388Y-82146111D01*
X62224112Y-82260844D01*
X62224117Y-82260846D01*
X62224123Y-82260849D01*
X62306678Y-82295044D01*
X62436113Y-82348658D01*
X62657762Y-82408048D01*
X62874312Y-82436557D01*
X62885250Y-82437998D01*
X62885266Y-82438000D01*
X62885273Y-82438000D01*
X63114727Y-82438000D01*
X63114734Y-82438000D01*
X63342238Y-82408048D01*
X63563887Y-82348658D01*
X63775888Y-82260844D01*
X63974612Y-82146111D01*
X64156661Y-82006419D01*
X64156665Y-82006414D01*
X64156670Y-82006411D01*
X64318911Y-81844170D01*
X64318914Y-81844165D01*
X64318919Y-81844161D01*
X64458611Y-81662112D01*
X64573344Y-81463388D01*
X64661158Y-81251387D01*
X64720548Y-81029738D01*
X64750500Y-80802234D01*
X64750500Y-80572766D01*
X64750499Y-80572758D01*
X66249500Y-80572758D01*
X66249500Y-80802241D01*
X66274446Y-80991715D01*
X66279452Y-81029738D01*
X66279453Y-81029740D01*
X66338842Y-81251387D01*
X66426650Y-81463376D01*
X66426657Y-81463390D01*
X66541392Y-81662117D01*
X66681081Y-81844161D01*
X66681089Y-81844170D01*
X66843330Y-82006411D01*
X66843338Y-82006418D01*
X67025382Y-82146107D01*
X67025385Y-82146108D01*
X67025388Y-82146111D01*
X67224112Y-82260844D01*
X67224117Y-82260846D01*
X67224123Y-82260849D01*
X67306678Y-82295044D01*
X67436113Y-82348658D01*
X67657762Y-82408048D01*
X67874312Y-82436557D01*
X67885250Y-82437998D01*
X67885266Y-82438000D01*
X67885273Y-82438000D01*
X68114727Y-82438000D01*
X68114734Y-82438000D01*
X68342238Y-82408048D01*
X68563887Y-82348658D01*
X68775888Y-82260844D01*
X68974612Y-82146111D01*
X69156661Y-82006419D01*
X69156665Y-82006414D01*
X69156670Y-82006411D01*
X69318911Y-81844170D01*
X69318914Y-81844165D01*
X69318919Y-81844161D01*
X69458611Y-81662112D01*
X69573344Y-81463388D01*
X69661158Y-81251387D01*
X69720548Y-81029738D01*
X69750500Y-80802234D01*
X69750500Y-80572766D01*
X69750499Y-80572758D01*
X71249500Y-80572758D01*
X71249500Y-80802241D01*
X71274446Y-80991715D01*
X71279452Y-81029738D01*
X71279453Y-81029740D01*
X71338842Y-81251387D01*
X71426650Y-81463376D01*
X71426657Y-81463390D01*
X71541392Y-81662117D01*
X71681081Y-81844161D01*
X71681089Y-81844170D01*
X71843330Y-82006411D01*
X71843338Y-82006418D01*
X72025382Y-82146107D01*
X72025385Y-82146108D01*
X72025388Y-82146111D01*
X72224112Y-82260844D01*
X72224117Y-82260846D01*
X72224123Y-82260849D01*
X72306678Y-82295044D01*
X72436113Y-82348658D01*
X72657762Y-82408048D01*
X72874312Y-82436557D01*
X72885250Y-82437998D01*
X72885266Y-82438000D01*
X72885273Y-82438000D01*
X73114727Y-82438000D01*
X73114734Y-82438000D01*
X73342238Y-82408048D01*
X73563887Y-82348658D01*
X73775888Y-82260844D01*
X73974612Y-82146111D01*
X74156661Y-82006419D01*
X74156665Y-82006414D01*
X74156670Y-82006411D01*
X74318911Y-81844170D01*
X74318914Y-81844165D01*
X74318919Y-81844161D01*
X74458611Y-81662112D01*
X74573344Y-81463388D01*
X74661158Y-81251387D01*
X74720548Y-81029738D01*
X74750500Y-80802234D01*
X74750500Y-80572766D01*
X74720548Y-80345262D01*
X74661158Y-80123613D01*
X74573344Y-79911612D01*
X74458611Y-79712888D01*
X74458608Y-79712885D01*
X74458607Y-79712882D01*
X74318918Y-79530838D01*
X74318911Y-79530830D01*
X74156670Y-79368589D01*
X74156661Y-79368581D01*
X73974617Y-79228892D01*
X73916210Y-79195171D01*
X73775888Y-79114156D01*
X73775876Y-79114150D01*
X73563887Y-79026342D01*
X73342238Y-78966952D01*
X73304215Y-78961946D01*
X73114741Y-78937000D01*
X73114734Y-78937000D01*
X72885266Y-78937000D01*
X72885258Y-78937000D01*
X72668715Y-78965509D01*
X72657762Y-78966952D01*
X72564076Y-78992054D01*
X72436112Y-79026342D01*
X72224123Y-79114150D01*
X72224109Y-79114157D01*
X72025382Y-79228892D01*
X71843338Y-79368581D01*
X71681081Y-79530838D01*
X71541392Y-79712882D01*
X71426657Y-79911609D01*
X71426650Y-79911623D01*
X71338842Y-80123612D01*
X71279453Y-80345259D01*
X71279451Y-80345270D01*
X71249500Y-80572758D01*
X69750499Y-80572758D01*
X69720548Y-80345262D01*
X69661158Y-80123613D01*
X69573344Y-79911612D01*
X69458611Y-79712888D01*
X69458608Y-79712885D01*
X69458607Y-79712882D01*
X69318918Y-79530838D01*
X69318911Y-79530830D01*
X69156670Y-79368589D01*
X69156661Y-79368581D01*
X68974617Y-79228892D01*
X68916210Y-79195171D01*
X68775888Y-79114156D01*
X68775876Y-79114150D01*
X68563887Y-79026342D01*
X68342238Y-78966952D01*
X68304215Y-78961946D01*
X68114741Y-78937000D01*
X68114734Y-78937000D01*
X67885266Y-78937000D01*
X67885258Y-78937000D01*
X67668715Y-78965509D01*
X67657762Y-78966952D01*
X67564076Y-78992054D01*
X67436112Y-79026342D01*
X67224123Y-79114150D01*
X67224109Y-79114157D01*
X67025382Y-79228892D01*
X66843338Y-79368581D01*
X66681081Y-79530838D01*
X66541392Y-79712882D01*
X66426657Y-79911609D01*
X66426650Y-79911623D01*
X66338842Y-80123612D01*
X66279453Y-80345259D01*
X66279451Y-80345270D01*
X66249500Y-80572758D01*
X64750499Y-80572758D01*
X64720548Y-80345262D01*
X64661158Y-80123613D01*
X64573344Y-79911612D01*
X64458611Y-79712888D01*
X64458608Y-79712885D01*
X64458607Y-79712882D01*
X64318918Y-79530838D01*
X64318911Y-79530830D01*
X64156670Y-79368589D01*
X64156661Y-79368581D01*
X63974617Y-79228892D01*
X63916210Y-79195171D01*
X63775888Y-79114156D01*
X63775876Y-79114150D01*
X63563887Y-79026342D01*
X63342238Y-78966952D01*
X63304215Y-78961946D01*
X63114741Y-78937000D01*
X63114734Y-78937000D01*
X62885266Y-78937000D01*
X62885258Y-78937000D01*
X62668715Y-78965509D01*
X62657762Y-78966952D01*
X62564076Y-78992054D01*
X62436112Y-79026342D01*
X62224123Y-79114150D01*
X62224109Y-79114157D01*
X62025382Y-79228892D01*
X61843338Y-79368581D01*
X61681081Y-79530838D01*
X61541392Y-79712882D01*
X61426657Y-79911609D01*
X61426650Y-79911623D01*
X61338842Y-80123612D01*
X61279453Y-80345259D01*
X61279451Y-80345270D01*
X61249500Y-80572758D01*
X49750499Y-80572758D01*
X49750499Y-79389628D01*
X49744091Y-79330017D01*
X49693796Y-79195169D01*
X49693795Y-79195168D01*
X49693793Y-79195164D01*
X49607547Y-79079955D01*
X49607544Y-79079952D01*
X49492335Y-78993706D01*
X49492328Y-78993702D01*
X49357482Y-78943408D01*
X49357483Y-78943408D01*
X49297883Y-78937001D01*
X49297881Y-78937000D01*
X49297873Y-78937000D01*
X49297864Y-78937000D01*
X46702129Y-78937000D01*
X46702123Y-78937001D01*
X46642516Y-78943408D01*
X46507671Y-78993702D01*
X46507664Y-78993706D01*
X46392455Y-79079952D01*
X46392452Y-79079955D01*
X46306206Y-79195164D01*
X46306202Y-79195171D01*
X46255908Y-79330017D01*
X46249501Y-79389616D01*
X46249501Y-79389623D01*
X46249500Y-79389635D01*
X15500500Y-79389635D01*
X15500500Y-73072758D01*
X46249500Y-73072758D01*
X46249500Y-73302241D01*
X46254330Y-73338924D01*
X46279452Y-73529738D01*
X46338842Y-73751387D01*
X46426650Y-73963376D01*
X46426657Y-73963390D01*
X46541392Y-74162117D01*
X46681081Y-74344161D01*
X46681089Y-74344170D01*
X46843330Y-74506411D01*
X46843338Y-74506418D01*
X47025382Y-74646107D01*
X47025385Y-74646108D01*
X47025388Y-74646111D01*
X47224112Y-74760844D01*
X47224117Y-74760846D01*
X47224123Y-74760849D01*
X47315480Y-74798690D01*
X47436113Y-74848658D01*
X47657762Y-74908048D01*
X47885266Y-74938000D01*
X47885273Y-74938000D01*
X48114727Y-74938000D01*
X48114734Y-74938000D01*
X48342238Y-74908048D01*
X48563887Y-74848658D01*
X48775888Y-74760844D01*
X48974612Y-74646111D01*
X49156661Y-74506419D01*
X49156665Y-74506414D01*
X49156670Y-74506411D01*
X49318911Y-74344170D01*
X49318914Y-74344165D01*
X49318919Y-74344161D01*
X49458611Y-74162112D01*
X49573344Y-73963388D01*
X49661158Y-73751387D01*
X49720548Y-73529738D01*
X49750500Y-73302234D01*
X49750500Y-73072766D01*
X49750499Y-73072758D01*
X61249500Y-73072758D01*
X61249500Y-73302241D01*
X61254330Y-73338924D01*
X61279452Y-73529738D01*
X61338842Y-73751387D01*
X61426650Y-73963376D01*
X61426657Y-73963390D01*
X61541392Y-74162117D01*
X61681081Y-74344161D01*
X61681089Y-74344170D01*
X61843330Y-74506411D01*
X61843338Y-74506418D01*
X62025382Y-74646107D01*
X62025385Y-74646108D01*
X62025388Y-74646111D01*
X62224112Y-74760844D01*
X62224117Y-74760846D01*
X62224123Y-74760849D01*
X62315480Y-74798690D01*
X62436113Y-74848658D01*
X62657762Y-74908048D01*
X62885266Y-74938000D01*
X62885273Y-74938000D01*
X63114727Y-74938000D01*
X63114734Y-74938000D01*
X63342238Y-74908048D01*
X63563887Y-74848658D01*
X63775888Y-74760844D01*
X63974612Y-74646111D01*
X64156661Y-74506419D01*
X64156665Y-74506414D01*
X64156670Y-74506411D01*
X64318911Y-74344170D01*
X64318914Y-74344165D01*
X64318919Y-74344161D01*
X64458611Y-74162112D01*
X64573344Y-73963388D01*
X64661158Y-73751387D01*
X64720548Y-73529738D01*
X64750500Y-73302234D01*
X64750500Y-73072766D01*
X64750499Y-73072758D01*
X66249500Y-73072758D01*
X66249500Y-73302241D01*
X66254330Y-73338924D01*
X66279452Y-73529738D01*
X66338842Y-73751387D01*
X66426650Y-73963376D01*
X66426657Y-73963390D01*
X66541392Y-74162117D01*
X66681081Y-74344161D01*
X66681089Y-74344170D01*
X66843330Y-74506411D01*
X66843338Y-74506418D01*
X67025382Y-74646107D01*
X67025385Y-74646108D01*
X67025388Y-74646111D01*
X67224112Y-74760844D01*
X67224117Y-74760846D01*
X67224123Y-74760849D01*
X67315480Y-74798690D01*
X67436113Y-74848658D01*
X67657762Y-74908048D01*
X67885266Y-74938000D01*
X67885273Y-74938000D01*
X68114727Y-74938000D01*
X68114734Y-74938000D01*
X68342238Y-74908048D01*
X68563887Y-74848658D01*
X68775888Y-74760844D01*
X68974612Y-74646111D01*
X69156661Y-74506419D01*
X69156665Y-74506414D01*
X69156670Y-74506411D01*
X69318911Y-74344170D01*
X69318914Y-74344165D01*
X69318919Y-74344161D01*
X69458611Y-74162112D01*
X69573344Y-73963388D01*
X69661158Y-73751387D01*
X69720548Y-73529738D01*
X69750500Y-73302234D01*
X69750500Y-73072766D01*
X69750499Y-73072758D01*
X71249500Y-73072758D01*
X71249500Y-73302241D01*
X71254330Y-73338924D01*
X71279452Y-73529738D01*
X71338842Y-73751387D01*
X71426650Y-73963376D01*
X71426657Y-73963390D01*
X71541392Y-74162117D01*
X71681081Y-74344161D01*
X71681089Y-74344170D01*
X71843330Y-74506411D01*
X71843338Y-74506418D01*
X72025382Y-74646107D01*
X72025385Y-74646108D01*
X72025388Y-74646111D01*
X72224112Y-74760844D01*
X72224117Y-74760846D01*
X72224123Y-74760849D01*
X72315480Y-74798690D01*
X72436113Y-74848658D01*
X72657762Y-74908048D01*
X72885266Y-74938000D01*
X72885273Y-74938000D01*
X73114727Y-74938000D01*
X73114734Y-74938000D01*
X73342238Y-74908048D01*
X73563887Y-74848658D01*
X73775888Y-74760844D01*
X73974612Y-74646111D01*
X74156661Y-74506419D01*
X74156665Y-74506414D01*
X74156670Y-74506411D01*
X74318911Y-74344170D01*
X74318914Y-74344165D01*
X74318919Y-74344161D01*
X74458611Y-74162112D01*
X74573344Y-73963388D01*
X74661158Y-73751387D01*
X74720548Y-73529738D01*
X74750500Y-73302234D01*
X74750500Y-73072766D01*
X74720548Y-72845262D01*
X74661158Y-72623613D01*
X74606058Y-72490590D01*
X74573349Y-72411623D01*
X74573346Y-72411617D01*
X74573344Y-72411612D01*
X74458611Y-72212888D01*
X74458608Y-72212885D01*
X74458607Y-72212882D01*
X74345336Y-72065266D01*
X74318919Y-72030839D01*
X74318918Y-72030838D01*
X74318911Y-72030830D01*
X74156670Y-71868589D01*
X74156665Y-71868585D01*
X74156661Y-71868581D01*
X74093458Y-71820083D01*
X73974617Y-71728892D01*
X73972720Y-71727797D01*
X78392856Y-71727797D01*
X78392856Y-71885490D01*
X78423617Y-72040133D01*
X78423620Y-72040145D01*
X78483958Y-72185816D01*
X78483965Y-72185829D01*
X78567227Y-72310438D01*
X78585742Y-72355138D01*
X78589968Y-72376383D01*
X78589970Y-72376391D01*
X78623418Y-72457141D01*
X78637273Y-72490590D01*
X78694596Y-72576380D01*
X78694597Y-72576381D01*
X78705945Y-72593364D01*
X78705946Y-72593365D01*
X79424907Y-73312326D01*
X79458392Y-73373649D01*
X79458843Y-73375815D01*
X79480261Y-73483491D01*
X79480264Y-73483501D01*
X79540602Y-73629172D01*
X79540609Y-73629185D01*
X79628210Y-73760288D01*
X79628213Y-73760292D01*
X79739707Y-73871786D01*
X79739711Y-73871789D01*
X79870814Y-73959390D01*
X79870827Y-73959397D01*
X80016498Y-74019735D01*
X80016503Y-74019737D01*
X80171153Y-74050499D01*
X80171156Y-74050500D01*
X80171158Y-74050500D01*
X80328844Y-74050500D01*
X80328845Y-74050499D01*
X80483497Y-74019737D01*
X80629179Y-73959394D01*
X80760289Y-73871789D01*
X80871789Y-73760289D01*
X80959394Y-73629179D01*
X81019737Y-73483497D01*
X81050500Y-73328842D01*
X81050500Y-73171158D01*
X81050500Y-73171155D01*
X81050499Y-73171153D01*
X81019737Y-73016503D01*
X81019735Y-73016498D01*
X80959397Y-72870827D01*
X80959390Y-72870814D01*
X80871789Y-72739711D01*
X80871786Y-72739707D01*
X80760292Y-72628213D01*
X80760288Y-72628210D01*
X80629185Y-72540609D01*
X80629172Y-72540602D01*
X80483501Y-72480264D01*
X80483491Y-72480261D01*
X80375815Y-72458843D01*
X80313904Y-72426458D01*
X80312326Y-72424907D01*
X80004064Y-72116645D01*
X79970579Y-72055322D01*
X79970128Y-72004772D01*
X79993856Y-71885488D01*
X79993856Y-71727799D01*
X79993855Y-71727797D01*
X79963094Y-71573154D01*
X79963093Y-71573147D01*
X79943706Y-71526342D01*
X79902753Y-71427471D01*
X79902746Y-71427458D01*
X79815145Y-71296355D01*
X79815142Y-71296351D01*
X79703648Y-71184857D01*
X79703644Y-71184854D01*
X79572541Y-71097253D01*
X79572528Y-71097246D01*
X79426857Y-71036908D01*
X79426845Y-71036905D01*
X79272201Y-71006144D01*
X79272198Y-71006144D01*
X79114514Y-71006144D01*
X79114511Y-71006144D01*
X78959866Y-71036905D01*
X78959854Y-71036908D01*
X78814183Y-71097246D01*
X78814170Y-71097253D01*
X78683067Y-71184854D01*
X78683063Y-71184857D01*
X78571569Y-71296351D01*
X78571566Y-71296355D01*
X78483965Y-71427458D01*
X78483958Y-71427471D01*
X78423620Y-71573142D01*
X78423617Y-71573154D01*
X78392856Y-71727797D01*
X73972720Y-71727797D01*
X73775888Y-71614156D01*
X73775876Y-71614150D01*
X73563887Y-71526342D01*
X73342238Y-71466952D01*
X73304215Y-71461946D01*
X73114741Y-71437000D01*
X73114734Y-71437000D01*
X72885266Y-71437000D01*
X72885258Y-71437000D01*
X72668715Y-71465509D01*
X72657762Y-71466952D01*
X72564076Y-71492054D01*
X72436112Y-71526342D01*
X72224123Y-71614150D01*
X72224109Y-71614157D01*
X72025382Y-71728892D01*
X71843338Y-71868581D01*
X71681081Y-72030838D01*
X71541392Y-72212882D01*
X71426657Y-72411609D01*
X71426650Y-72411623D01*
X71338842Y-72623612D01*
X71279453Y-72845259D01*
X71279451Y-72845270D01*
X71249500Y-73072758D01*
X69750499Y-73072758D01*
X69720548Y-72845262D01*
X69661158Y-72623613D01*
X69606058Y-72490590D01*
X69573349Y-72411623D01*
X69573346Y-72411617D01*
X69573344Y-72411612D01*
X69458611Y-72212888D01*
X69458608Y-72212885D01*
X69458607Y-72212882D01*
X69345336Y-72065266D01*
X69318919Y-72030839D01*
X69318918Y-72030838D01*
X69318911Y-72030830D01*
X69156670Y-71868589D01*
X69156661Y-71868581D01*
X68974617Y-71728892D01*
X68972720Y-71727797D01*
X68775888Y-71614156D01*
X68775876Y-71614150D01*
X68563887Y-71526342D01*
X68342238Y-71466952D01*
X68304215Y-71461946D01*
X68114741Y-71437000D01*
X68114734Y-71437000D01*
X67885266Y-71437000D01*
X67885258Y-71437000D01*
X67668715Y-71465509D01*
X67657762Y-71466952D01*
X67564076Y-71492054D01*
X67436112Y-71526342D01*
X67224123Y-71614150D01*
X67224109Y-71614157D01*
X67025382Y-71728892D01*
X66843338Y-71868581D01*
X66681081Y-72030838D01*
X66541392Y-72212882D01*
X66426657Y-72411609D01*
X66426650Y-72411623D01*
X66338842Y-72623612D01*
X66279453Y-72845259D01*
X66279451Y-72845270D01*
X66249500Y-73072758D01*
X64750499Y-73072758D01*
X64720548Y-72845262D01*
X64661158Y-72623613D01*
X64606058Y-72490590D01*
X64573349Y-72411623D01*
X64573346Y-72411617D01*
X64573344Y-72411612D01*
X64458611Y-72212888D01*
X64458608Y-72212885D01*
X64458607Y-72212882D01*
X64345336Y-72065266D01*
X64318919Y-72030839D01*
X64318918Y-72030838D01*
X64318911Y-72030830D01*
X64156670Y-71868589D01*
X64156661Y-71868581D01*
X63974617Y-71728892D01*
X63972720Y-71727797D01*
X63775888Y-71614156D01*
X63775876Y-71614150D01*
X63563887Y-71526342D01*
X63342238Y-71466952D01*
X63304215Y-71461946D01*
X63114741Y-71437000D01*
X63114734Y-71437000D01*
X62885266Y-71437000D01*
X62885258Y-71437000D01*
X62668715Y-71465509D01*
X62657762Y-71466952D01*
X62564076Y-71492054D01*
X62436112Y-71526342D01*
X62224123Y-71614150D01*
X62224109Y-71614157D01*
X62025382Y-71728892D01*
X61843338Y-71868581D01*
X61681081Y-72030838D01*
X61541392Y-72212882D01*
X61426657Y-72411609D01*
X61426650Y-72411623D01*
X61338842Y-72623612D01*
X61279453Y-72845259D01*
X61279451Y-72845270D01*
X61249500Y-73072758D01*
X49750499Y-73072758D01*
X49720548Y-72845262D01*
X49661158Y-72623613D01*
X49606058Y-72490590D01*
X49573349Y-72411623D01*
X49573346Y-72411617D01*
X49573344Y-72411612D01*
X49458611Y-72212888D01*
X49458608Y-72212885D01*
X49458607Y-72212882D01*
X49345336Y-72065266D01*
X49318919Y-72030839D01*
X49318918Y-72030838D01*
X49318911Y-72030830D01*
X49156670Y-71868589D01*
X49156661Y-71868581D01*
X48974617Y-71728892D01*
X48972720Y-71727797D01*
X48775888Y-71614156D01*
X48775876Y-71614150D01*
X48563887Y-71526342D01*
X48342238Y-71466952D01*
X48304215Y-71461946D01*
X48114741Y-71437000D01*
X48114734Y-71437000D01*
X47885266Y-71437000D01*
X47885258Y-71437000D01*
X47668715Y-71465509D01*
X47657762Y-71466952D01*
X47564076Y-71492054D01*
X47436112Y-71526342D01*
X47224123Y-71614150D01*
X47224109Y-71614157D01*
X47025382Y-71728892D01*
X46843338Y-71868581D01*
X46681081Y-72030838D01*
X46541392Y-72212882D01*
X46426657Y-72411609D01*
X46426650Y-72411623D01*
X46338842Y-72623612D01*
X46279453Y-72845259D01*
X46279451Y-72845270D01*
X46249500Y-73072758D01*
X15500500Y-73072758D01*
X15500500Y-61171153D01*
X57949500Y-61171153D01*
X57949500Y-61328846D01*
X57980261Y-61483489D01*
X57980264Y-61483501D01*
X58040602Y-61629172D01*
X58040609Y-61629185D01*
X58128210Y-61760288D01*
X58128213Y-61760292D01*
X58239707Y-61871786D01*
X58239711Y-61871789D01*
X58370814Y-61959390D01*
X58370818Y-61959392D01*
X58370821Y-61959394D01*
X58384814Y-61965190D01*
X58425045Y-61992071D01*
X58519028Y-62086054D01*
X58519035Y-62086060D01*
X58642608Y-62168628D01*
X58642609Y-62168628D01*
X58642610Y-62168629D01*
X58779920Y-62225505D01*
X58915694Y-62252512D01*
X58925683Y-62254499D01*
X58925687Y-62254500D01*
X58925688Y-62254500D01*
X59074312Y-62254500D01*
X61057578Y-62254500D01*
X61124617Y-62274185D01*
X61170372Y-62326989D01*
X61180316Y-62396147D01*
X61179557Y-62400577D01*
X61179500Y-62401157D01*
X61179500Y-62558846D01*
X61210261Y-62713489D01*
X61210264Y-62713501D01*
X61270602Y-62859172D01*
X61270609Y-62859185D01*
X61358210Y-62990288D01*
X61358213Y-62990292D01*
X61469707Y-63101786D01*
X61469711Y-63101789D01*
X61600814Y-63189390D01*
X61600823Y-63189395D01*
X61746503Y-63249737D01*
X61752325Y-63251503D01*
X61751612Y-63253851D01*
X61803964Y-63281214D01*
X61805571Y-63282793D01*
X63559509Y-65036732D01*
X63559513Y-65036735D01*
X63672681Y-65112352D01*
X63672685Y-65112354D01*
X63672688Y-65112356D01*
X63798442Y-65164445D01*
X63817439Y-65168223D01*
X63873905Y-65179455D01*
X63931941Y-65191000D01*
X63931942Y-65191000D01*
X70662416Y-65191000D01*
X70729455Y-65210685D01*
X70750097Y-65227319D01*
X71197206Y-65674428D01*
X71226594Y-65728247D01*
X71228496Y-65727671D01*
X71230264Y-65733501D01*
X71290600Y-65879167D01*
X71290609Y-65879185D01*
X71378210Y-66010288D01*
X71378213Y-66010292D01*
X71489707Y-66121786D01*
X71489711Y-66121789D01*
X71620814Y-66209390D01*
X71620820Y-66209393D01*
X71620821Y-66209394D01*
X71766503Y-66269737D01*
X71766507Y-66269737D01*
X71772332Y-66271505D01*
X71771618Y-66273857D01*
X71823955Y-66301205D01*
X71825573Y-66302794D01*
X74654766Y-69131987D01*
X74751009Y-69228230D01*
X74751014Y-69228235D01*
X74864182Y-69303852D01*
X74864195Y-69303859D01*
X74989938Y-69355943D01*
X74989943Y-69355945D01*
X74989947Y-69355945D01*
X74989948Y-69355946D01*
X75123439Y-69382500D01*
X75123442Y-69382500D01*
X80629060Y-69382500D01*
X80718870Y-69364634D01*
X80762557Y-69355945D01*
X80888311Y-69303856D01*
X81001487Y-69228235D01*
X82162985Y-68066737D01*
X82238606Y-67953561D01*
X82290695Y-67827807D01*
X82317250Y-67694307D01*
X82317250Y-67558193D01*
X82317250Y-67474499D01*
X82336935Y-67407460D01*
X82389739Y-67361705D01*
X82441250Y-67350499D01*
X83190002Y-67350499D01*
X83190008Y-67350499D01*
X83292797Y-67339999D01*
X83459334Y-67284814D01*
X83608656Y-67192712D01*
X83732712Y-67068656D01*
X83824814Y-66919334D01*
X83879999Y-66752797D01*
X83890500Y-66650009D01*
X83890499Y-65349992D01*
X83879999Y-65247203D01*
X83824814Y-65080666D01*
X83732712Y-64931344D01*
X83608656Y-64807288D01*
X83515888Y-64750069D01*
X83459336Y-64715187D01*
X83459325Y-64715182D01*
X83448773Y-64711686D01*
X83391328Y-64671913D01*
X83364506Y-64607397D01*
X83376822Y-64538621D01*
X83414903Y-64493656D01*
X83419788Y-64490107D01*
X83419788Y-64490106D01*
X83419792Y-64490104D01*
X83570104Y-64339792D01*
X83570106Y-64339788D01*
X83570109Y-64339786D01*
X83695048Y-64167820D01*
X83695047Y-64167820D01*
X83695051Y-64167816D01*
X83791557Y-63978412D01*
X83857246Y-63776243D01*
X83890500Y-63566287D01*
X83890500Y-63353713D01*
X83857246Y-63143757D01*
X83791557Y-62941588D01*
X83695051Y-62752184D01*
X83695049Y-62752181D01*
X83695048Y-62752179D01*
X83570109Y-62580213D01*
X83419786Y-62429890D01*
X83247820Y-62304951D01*
X83247115Y-62304591D01*
X83239054Y-62300485D01*
X83188259Y-62252512D01*
X83171463Y-62184692D01*
X83193999Y-62118556D01*
X83239054Y-62079515D01*
X83247816Y-62075051D01*
X83269789Y-62059086D01*
X83419786Y-61950109D01*
X83419788Y-61950106D01*
X83419792Y-61950104D01*
X83570104Y-61799792D01*
X83570106Y-61799788D01*
X83570109Y-61799786D01*
X83695048Y-61627820D01*
X83695047Y-61627820D01*
X83695051Y-61627816D01*
X83791557Y-61438412D01*
X83857246Y-61236243D01*
X83890500Y-61026287D01*
X83890500Y-60813713D01*
X83857246Y-60603757D01*
X83791557Y-60401588D01*
X83695051Y-60212184D01*
X83695049Y-60212181D01*
X83695048Y-60212179D01*
X83570109Y-60040213D01*
X83419786Y-59889890D01*
X83247820Y-59764951D01*
X83247115Y-59764591D01*
X83239054Y-59760485D01*
X83188259Y-59712512D01*
X83171463Y-59644692D01*
X83193999Y-59578556D01*
X83239054Y-59539515D01*
X83247816Y-59535051D01*
X83269789Y-59519086D01*
X83419786Y-59410109D01*
X83419788Y-59410106D01*
X83419792Y-59410104D01*
X83570104Y-59259792D01*
X83570106Y-59259788D01*
X83570109Y-59259786D01*
X83695048Y-59087820D01*
X83695047Y-59087820D01*
X83695051Y-59087816D01*
X83791557Y-58898412D01*
X83857246Y-58696243D01*
X83890500Y-58486287D01*
X83890500Y-58273713D01*
X83857246Y-58063757D01*
X83791557Y-57861588D01*
X83695051Y-57672184D01*
X83695049Y-57672181D01*
X83695048Y-57672179D01*
X83570109Y-57500213D01*
X83419786Y-57349890D01*
X83247820Y-57224951D01*
X83247115Y-57224591D01*
X83239054Y-57220485D01*
X83188259Y-57172512D01*
X83171463Y-57104692D01*
X83193999Y-57038556D01*
X83239054Y-56999515D01*
X83247816Y-56995051D01*
X83269789Y-56979086D01*
X83419786Y-56870109D01*
X83419788Y-56870106D01*
X83419792Y-56870104D01*
X83570104Y-56719792D01*
X83570106Y-56719788D01*
X83570109Y-56719786D01*
X83695048Y-56547820D01*
X83695047Y-56547820D01*
X83695051Y-56547816D01*
X83791557Y-56358412D01*
X83857246Y-56156243D01*
X83890500Y-55946287D01*
X83890500Y-55733713D01*
X83857246Y-55523757D01*
X83791557Y-55321588D01*
X83695051Y-55132184D01*
X83695049Y-55132181D01*
X83695048Y-55132179D01*
X83570109Y-54960213D01*
X83419786Y-54809890D01*
X83247820Y-54684951D01*
X83247115Y-54684591D01*
X83239054Y-54680485D01*
X83188259Y-54632512D01*
X83171463Y-54564692D01*
X83193999Y-54498556D01*
X83239054Y-54459515D01*
X83247816Y-54455051D01*
X83294473Y-54421153D01*
X83419786Y-54330109D01*
X83419788Y-54330106D01*
X83419792Y-54330104D01*
X83570104Y-54179792D01*
X83570106Y-54179788D01*
X83570109Y-54179786D01*
X83679086Y-54029789D01*
X83695051Y-54007816D01*
X83791557Y-53818412D01*
X83857246Y-53616243D01*
X83890500Y-53406287D01*
X83890500Y-53193713D01*
X83857246Y-52983757D01*
X83791557Y-52781588D01*
X83695051Y-52592184D01*
X83695049Y-52592181D01*
X83695048Y-52592179D01*
X83570109Y-52420213D01*
X83419786Y-52269890D01*
X83247820Y-52144951D01*
X83058414Y-52048444D01*
X83058413Y-52048443D01*
X83058412Y-52048443D01*
X82856243Y-51982754D01*
X82856241Y-51982753D01*
X82856240Y-51982753D01*
X82694957Y-51957208D01*
X82646287Y-51949500D01*
X82433713Y-51949500D01*
X82385042Y-51957208D01*
X82223760Y-51982753D01*
X82021585Y-52048444D01*
X81832179Y-52144951D01*
X81660213Y-52269890D01*
X81509890Y-52420213D01*
X81384949Y-52592182D01*
X81380484Y-52600946D01*
X81332509Y-52651742D01*
X81264688Y-52668536D01*
X81198553Y-52645998D01*
X81159516Y-52600946D01*
X81155050Y-52592182D01*
X81030109Y-52420213D01*
X80879786Y-52269890D01*
X80707820Y-52144951D01*
X80518414Y-52048444D01*
X80518413Y-52048443D01*
X80518412Y-52048443D01*
X80316243Y-51982754D01*
X80316241Y-51982753D01*
X80316240Y-51982753D01*
X80154957Y-51957208D01*
X80106287Y-51949500D01*
X79893713Y-51949500D01*
X79845042Y-51957208D01*
X79683760Y-51982753D01*
X79481585Y-52048444D01*
X79292179Y-52144951D01*
X79120213Y-52269890D01*
X78969890Y-52420213D01*
X78844951Y-52592179D01*
X78748444Y-52781585D01*
X78682753Y-52983760D01*
X78678551Y-53010292D01*
X78649500Y-53193713D01*
X78649500Y-53406287D01*
X78682754Y-53616243D01*
X78739409Y-53790609D01*
X78748444Y-53818414D01*
X78844951Y-54007820D01*
X78969890Y-54179786D01*
X79120213Y-54330109D01*
X79292182Y-54455050D01*
X79300946Y-54459516D01*
X79351742Y-54507491D01*
X79368536Y-54575312D01*
X79345998Y-54641447D01*
X79300946Y-54680484D01*
X79292182Y-54684949D01*
X79120213Y-54809890D01*
X78969890Y-54960213D01*
X78844951Y-55132179D01*
X78748444Y-55321585D01*
X78682753Y-55523760D01*
X78649500Y-55733713D01*
X78649500Y-55946286D01*
X78677144Y-56120827D01*
X78682754Y-56156243D01*
X78718578Y-56266498D01*
X78748444Y-56358414D01*
X78844951Y-56547820D01*
X78969890Y-56719786D01*
X79120213Y-56870109D01*
X79292182Y-56995050D01*
X79300946Y-56999516D01*
X79351742Y-57047491D01*
X79368536Y-57115312D01*
X79345998Y-57181447D01*
X79300946Y-57220484D01*
X79292182Y-57224949D01*
X79120213Y-57349890D01*
X78969890Y-57500213D01*
X78844951Y-57672179D01*
X78748444Y-57861585D01*
X78682753Y-58063760D01*
X78649500Y-58273713D01*
X78649500Y-58486286D01*
X78682753Y-58696239D01*
X78748444Y-58898414D01*
X78844951Y-59087820D01*
X78969890Y-59259786D01*
X79120213Y-59410109D01*
X79292182Y-59535050D01*
X79300946Y-59539516D01*
X79351742Y-59587491D01*
X79368536Y-59655312D01*
X79345998Y-59721447D01*
X79300946Y-59760484D01*
X79292182Y-59764949D01*
X79120213Y-59889890D01*
X78969890Y-60040213D01*
X78844951Y-60212179D01*
X78748444Y-60401585D01*
X78748443Y-60401587D01*
X78748443Y-60401588D01*
X78715598Y-60502672D01*
X78682753Y-60603760D01*
X78649500Y-60813713D01*
X78649500Y-61026286D01*
X78672444Y-61171153D01*
X78682754Y-61236243D01*
X78712841Y-61328842D01*
X78748444Y-61438414D01*
X78844951Y-61627820D01*
X78969890Y-61799786D01*
X79120213Y-61950109D01*
X79292182Y-62075050D01*
X79300946Y-62079516D01*
X79351742Y-62127491D01*
X79368536Y-62195312D01*
X79345998Y-62261447D01*
X79300946Y-62300484D01*
X79292182Y-62304949D01*
X79120213Y-62429890D01*
X78969890Y-62580213D01*
X78844951Y-62752179D01*
X78748444Y-62941585D01*
X78682753Y-63143760D01*
X78649500Y-63353713D01*
X78649500Y-63566286D01*
X78682189Y-63772681D01*
X78682754Y-63776243D01*
X78693397Y-63809000D01*
X78748444Y-63978414D01*
X78844951Y-64167820D01*
X78969890Y-64339786D01*
X79120213Y-64490109D01*
X79292179Y-64615048D01*
X79292181Y-64615049D01*
X79292184Y-64615051D01*
X79301493Y-64619794D01*
X79352290Y-64667766D01*
X79369087Y-64735587D01*
X79346552Y-64801722D01*
X79301505Y-64840760D01*
X79292446Y-64845376D01*
X79292440Y-64845380D01*
X79238282Y-64884727D01*
X79238282Y-64884728D01*
X79870591Y-65517037D01*
X79807007Y-65534075D01*
X79692993Y-65599901D01*
X79599901Y-65692993D01*
X79534075Y-65807007D01*
X79517037Y-65870591D01*
X78884728Y-65238282D01*
X78884727Y-65238282D01*
X78845380Y-65292439D01*
X78748904Y-65481782D01*
X78683242Y-65683869D01*
X78683242Y-65683872D01*
X78650000Y-65893753D01*
X78650000Y-66106246D01*
X78683242Y-66316127D01*
X78683242Y-66316130D01*
X78748904Y-66518217D01*
X78845375Y-66707550D01*
X78884728Y-66761716D01*
X79517037Y-66129408D01*
X79534075Y-66192993D01*
X79599901Y-66307007D01*
X79692993Y-66400099D01*
X79807007Y-66465925D01*
X79870590Y-66482962D01*
X79238282Y-67115269D01*
X79238282Y-67115270D01*
X79292449Y-67154624D01*
X79481782Y-67251095D01*
X79683870Y-67316757D01*
X79893754Y-67350000D01*
X80106246Y-67350000D01*
X80316127Y-67316757D01*
X80316130Y-67316757D01*
X80518217Y-67251095D01*
X80707554Y-67154622D01*
X80738364Y-67132238D01*
X80750224Y-67128006D01*
X80759739Y-67119762D01*
X80782504Y-67116488D01*
X80804171Y-67108758D01*
X80816435Y-67111609D01*
X80828897Y-67109818D01*
X80849819Y-67119373D01*
X80872224Y-67124583D01*
X80880998Y-67133612D01*
X80892453Y-67138843D01*
X80904890Y-67158195D01*
X80920919Y-67174689D01*
X80924323Y-67188434D01*
X80930227Y-67197621D01*
X80935250Y-67232556D01*
X80935250Y-67288666D01*
X80915565Y-67355705D01*
X80898931Y-67376347D01*
X80311097Y-67964181D01*
X80249774Y-67997666D01*
X80223416Y-68000500D01*
X76918046Y-68000500D01*
X76851007Y-67980815D01*
X76805252Y-67928011D01*
X76796429Y-67900691D01*
X76769738Y-67766510D01*
X76769737Y-67766503D01*
X76769735Y-67766498D01*
X76709397Y-67620827D01*
X76709390Y-67620814D01*
X76621789Y-67489711D01*
X76621786Y-67489707D01*
X76510292Y-67378213D01*
X76510284Y-67378207D01*
X76379181Y-67290607D01*
X76379175Y-67290604D01*
X76365176Y-67284805D01*
X76324950Y-67257926D01*
X75043586Y-65976562D01*
X69980969Y-60913943D01*
X69980968Y-60913942D01*
X69916421Y-60870814D01*
X69857389Y-60831370D01*
X69857386Y-60831368D01*
X69857385Y-60831368D01*
X69776955Y-60798053D01*
X69720081Y-60774495D01*
X69714620Y-60773408D01*
X69692626Y-60769034D01*
X69692625Y-60769033D01*
X69692624Y-60769033D01*
X69574314Y-60745499D01*
X69574312Y-60745499D01*
X69425688Y-60745499D01*
X69419574Y-60745499D01*
X69419554Y-60745500D01*
X59428941Y-60745500D01*
X59361902Y-60725815D01*
X59341260Y-60709181D01*
X59260292Y-60628213D01*
X59260288Y-60628210D01*
X59129185Y-60540609D01*
X59129172Y-60540602D01*
X58983501Y-60480264D01*
X58983489Y-60480261D01*
X58828845Y-60449500D01*
X58828842Y-60449500D01*
X58671158Y-60449500D01*
X58671155Y-60449500D01*
X58516510Y-60480261D01*
X58516498Y-60480264D01*
X58370827Y-60540602D01*
X58370814Y-60540609D01*
X58239711Y-60628210D01*
X58239707Y-60628213D01*
X58128213Y-60739707D01*
X58128210Y-60739711D01*
X58040609Y-60870814D01*
X58040602Y-60870827D01*
X57980264Y-61016498D01*
X57980261Y-61016510D01*
X57949500Y-61171153D01*
X15500500Y-61171153D01*
X15500500Y-56421153D01*
X69199500Y-56421153D01*
X69199500Y-56578846D01*
X69230261Y-56733489D01*
X69230264Y-56733501D01*
X69290602Y-56879172D01*
X69290609Y-56879185D01*
X69378210Y-57010288D01*
X69378213Y-57010292D01*
X69489707Y-57121786D01*
X69489711Y-57121789D01*
X69620814Y-57209390D01*
X69620827Y-57209397D01*
X69766498Y-57269735D01*
X69766503Y-57269737D01*
X69921153Y-57300499D01*
X69921156Y-57300500D01*
X69921158Y-57300500D01*
X70078844Y-57300500D01*
X70078845Y-57300499D01*
X70233497Y-57269737D01*
X70379179Y-57209394D01*
X70510289Y-57121789D01*
X70621789Y-57010289D01*
X70709394Y-56879179D01*
X70769737Y-56733497D01*
X70791156Y-56625812D01*
X70823539Y-56563906D01*
X70825034Y-56562383D01*
X72223600Y-55163819D01*
X72284923Y-55130334D01*
X72311281Y-55127500D01*
X74587643Y-55127500D01*
X74654682Y-55147185D01*
X74656534Y-55148398D01*
X74747814Y-55209390D01*
X74747827Y-55209397D01*
X74893498Y-55269735D01*
X74893503Y-55269737D01*
X75048153Y-55300499D01*
X75048156Y-55300500D01*
X75048158Y-55300500D01*
X75205844Y-55300500D01*
X75205845Y-55300499D01*
X75360497Y-55269737D01*
X75506179Y-55209394D01*
X75637289Y-55121789D01*
X75748789Y-55010289D01*
X75836394Y-54879179D01*
X75896737Y-54733497D01*
X75927500Y-54578842D01*
X75927500Y-54421158D01*
X75927500Y-54421155D01*
X75927499Y-54421153D01*
X75901531Y-54290606D01*
X75896737Y-54266503D01*
X75896735Y-54266498D01*
X75836397Y-54120827D01*
X75836390Y-54120814D01*
X75748789Y-53989711D01*
X75748786Y-53989707D01*
X75637292Y-53878213D01*
X75637288Y-53878210D01*
X75506185Y-53790609D01*
X75506172Y-53790602D01*
X75360501Y-53730264D01*
X75360489Y-53730261D01*
X75205845Y-53699500D01*
X75205842Y-53699500D01*
X75048158Y-53699500D01*
X75048155Y-53699500D01*
X74893510Y-53730261D01*
X74893498Y-53730264D01*
X74747827Y-53790602D01*
X74747814Y-53790609D01*
X74656534Y-53851602D01*
X74589857Y-53872480D01*
X74587643Y-53872500D01*
X71938195Y-53872500D01*
X71816970Y-53896613D01*
X71816960Y-53896616D01*
X71702773Y-53943913D01*
X71702761Y-53943920D01*
X71626729Y-53994724D01*
X71626728Y-53994725D01*
X71599989Y-54012590D01*
X69937672Y-55674907D01*
X69876349Y-55708392D01*
X69874183Y-55708843D01*
X69766508Y-55730261D01*
X69766498Y-55730264D01*
X69620827Y-55790602D01*
X69620814Y-55790609D01*
X69489711Y-55878210D01*
X69489707Y-55878213D01*
X69378213Y-55989707D01*
X69378210Y-55989711D01*
X69290609Y-56120814D01*
X69290602Y-56120827D01*
X69230264Y-56266498D01*
X69230261Y-56266510D01*
X69199500Y-56421153D01*
X15500500Y-56421153D01*
X15500500Y-54921153D01*
X66199500Y-54921153D01*
X66199500Y-55078846D01*
X66230261Y-55233489D01*
X66230264Y-55233501D01*
X66290602Y-55379172D01*
X66290609Y-55379185D01*
X66378210Y-55510288D01*
X66378213Y-55510292D01*
X66489707Y-55621786D01*
X66489711Y-55621789D01*
X66620814Y-55709390D01*
X66620827Y-55709397D01*
X66766498Y-55769735D01*
X66766503Y-55769737D01*
X66921153Y-55800499D01*
X66921156Y-55800500D01*
X66921158Y-55800500D01*
X67078844Y-55800500D01*
X67078845Y-55800499D01*
X67233497Y-55769737D01*
X67379179Y-55709394D01*
X67510289Y-55621789D01*
X67621789Y-55510289D01*
X67709394Y-55379179D01*
X67769737Y-55233497D01*
X67791156Y-55125812D01*
X67823539Y-55063906D01*
X67825034Y-55062383D01*
X69723600Y-53163819D01*
X69784923Y-53130334D01*
X69811281Y-53127500D01*
X75087643Y-53127500D01*
X75154682Y-53147185D01*
X75156534Y-53148398D01*
X75247814Y-53209390D01*
X75247827Y-53209397D01*
X75393498Y-53269735D01*
X75393503Y-53269737D01*
X75548153Y-53300499D01*
X75548156Y-53300500D01*
X75548158Y-53300500D01*
X75705844Y-53300500D01*
X75705845Y-53300499D01*
X75860497Y-53269737D01*
X76006179Y-53209394D01*
X76137289Y-53121789D01*
X76248789Y-53010289D01*
X76336394Y-52879179D01*
X76396737Y-52733497D01*
X76427500Y-52578842D01*
X76427500Y-52421158D01*
X76427500Y-52421155D01*
X76427499Y-52421153D01*
X76397412Y-52269896D01*
X76396737Y-52266503D01*
X76346389Y-52144951D01*
X76336397Y-52120827D01*
X76336390Y-52120814D01*
X76248789Y-51989711D01*
X76248786Y-51989707D01*
X76137292Y-51878213D01*
X76137288Y-51878210D01*
X76006185Y-51790609D01*
X76006172Y-51790602D01*
X75860501Y-51730264D01*
X75860489Y-51730261D01*
X75705845Y-51699500D01*
X75705842Y-51699500D01*
X75548158Y-51699500D01*
X75548155Y-51699500D01*
X75393510Y-51730261D01*
X75393498Y-51730264D01*
X75247827Y-51790602D01*
X75247814Y-51790609D01*
X75156534Y-51851602D01*
X75089857Y-51872480D01*
X75087643Y-51872500D01*
X69438192Y-51872500D01*
X69316972Y-51896612D01*
X69316964Y-51896614D01*
X69236215Y-51930062D01*
X69202766Y-51943917D01*
X69202764Y-51943918D01*
X69126728Y-51994724D01*
X69126728Y-51994725D01*
X69099989Y-52012590D01*
X66937672Y-54174907D01*
X66876349Y-54208392D01*
X66874183Y-54208843D01*
X66766508Y-54230261D01*
X66766498Y-54230264D01*
X66620827Y-54290602D01*
X66620814Y-54290609D01*
X66489711Y-54378210D01*
X66489707Y-54378213D01*
X66378213Y-54489707D01*
X66378210Y-54489711D01*
X66290609Y-54620814D01*
X66290602Y-54620827D01*
X66230264Y-54766498D01*
X66230261Y-54766510D01*
X66199500Y-54921153D01*
X15500500Y-54921153D01*
X15500500Y-45421158D01*
X54699500Y-45421158D01*
X54699500Y-45428484D01*
X54699500Y-45578846D01*
X54730261Y-45733489D01*
X54730264Y-45733501D01*
X54790602Y-45879172D01*
X54790609Y-45879185D01*
X54878210Y-46010288D01*
X54878213Y-46010292D01*
X54989707Y-46121786D01*
X54989711Y-46121789D01*
X55120814Y-46209390D01*
X55120827Y-46209397D01*
X55266498Y-46269735D01*
X55266503Y-46269737D01*
X55421153Y-46300499D01*
X55421156Y-46300500D01*
X55421158Y-46300500D01*
X55578844Y-46300500D01*
X55578845Y-46300499D01*
X55733497Y-46269737D01*
X55879179Y-46209394D01*
X56010289Y-46121789D01*
X56121789Y-46010289D01*
X56209394Y-45879179D01*
X56269737Y-45733497D01*
X56300500Y-45578842D01*
X56300500Y-45421158D01*
X56300500Y-45421155D01*
X56300499Y-45421153D01*
X56269739Y-45266511D01*
X56269738Y-45266508D01*
X56269737Y-45266503D01*
X56263937Y-45252501D01*
X56254500Y-45205053D01*
X56254500Y-44421153D01*
X64522500Y-44421153D01*
X64522500Y-44578846D01*
X64553261Y-44733489D01*
X64553264Y-44733501D01*
X64613602Y-44879172D01*
X64613609Y-44879185D01*
X64701210Y-45010288D01*
X64701213Y-45010292D01*
X64812707Y-45121786D01*
X64812711Y-45121789D01*
X64943814Y-45209390D01*
X64943827Y-45209397D01*
X65089498Y-45269735D01*
X65089503Y-45269737D01*
X65244153Y-45300499D01*
X65244156Y-45300500D01*
X65244158Y-45300500D01*
X65401844Y-45300500D01*
X65401845Y-45300499D01*
X65556497Y-45269737D01*
X65702179Y-45209394D01*
X65793466Y-45148398D01*
X65860143Y-45127520D01*
X65862357Y-45127500D01*
X66688719Y-45127500D01*
X66755758Y-45147185D01*
X66776400Y-45163819D01*
X67512589Y-45900008D01*
X67599992Y-45987411D01*
X67599994Y-45987413D01*
X67599996Y-45987414D01*
X67702756Y-46056076D01*
X67702758Y-46056077D01*
X67702767Y-46056083D01*
X67727772Y-46066440D01*
X67750071Y-46075677D01*
X67792254Y-46093149D01*
X67816966Y-46103386D01*
X67938192Y-46127499D01*
X67938196Y-46127500D01*
X67938197Y-46127500D01*
X68061804Y-46127500D01*
X76960643Y-46127500D01*
X77027682Y-46147185D01*
X77029534Y-46148398D01*
X77120814Y-46209390D01*
X77120827Y-46209397D01*
X77266498Y-46269735D01*
X77266503Y-46269737D01*
X77421153Y-46300499D01*
X77421156Y-46300500D01*
X77421158Y-46300500D01*
X77578844Y-46300500D01*
X77578845Y-46300499D01*
X77733497Y-46269737D01*
X77879179Y-46209394D01*
X78010289Y-46121789D01*
X78121789Y-46010289D01*
X78209394Y-45879179D01*
X78269737Y-45733497D01*
X78300500Y-45578842D01*
X78300500Y-45421158D01*
X78300500Y-45421155D01*
X78300499Y-45421153D01*
X78270380Y-45269735D01*
X78269737Y-45266503D01*
X78269735Y-45266498D01*
X78209397Y-45120827D01*
X78209390Y-45120814D01*
X78121789Y-44989711D01*
X78121786Y-44989707D01*
X78010292Y-44878213D01*
X78010288Y-44878210D01*
X77879185Y-44790609D01*
X77879172Y-44790602D01*
X77733501Y-44730264D01*
X77733489Y-44730261D01*
X77578845Y-44699500D01*
X77578842Y-44699500D01*
X77421158Y-44699500D01*
X77421155Y-44699500D01*
X77266510Y-44730261D01*
X77266498Y-44730264D01*
X77120827Y-44790602D01*
X77120814Y-44790609D01*
X77029534Y-44851602D01*
X76962857Y-44872480D01*
X76960643Y-44872500D01*
X68311281Y-44872500D01*
X68244242Y-44852815D01*
X68223600Y-44836181D01*
X67400011Y-44012591D01*
X67400009Y-44012589D01*
X67376487Y-43996873D01*
X67376488Y-43996873D01*
X67373271Y-43994724D01*
X67297233Y-43943917D01*
X67263784Y-43930062D01*
X67256103Y-43926880D01*
X67256099Y-43926878D01*
X67183035Y-43896614D01*
X67183027Y-43896612D01*
X67061807Y-43872500D01*
X67061803Y-43872500D01*
X65862357Y-43872500D01*
X65795318Y-43852815D01*
X65793466Y-43851602D01*
X65702185Y-43790609D01*
X65702172Y-43790602D01*
X65556501Y-43730264D01*
X65556489Y-43730261D01*
X65401845Y-43699500D01*
X65401842Y-43699500D01*
X65244158Y-43699500D01*
X65244155Y-43699500D01*
X65089510Y-43730261D01*
X65089498Y-43730264D01*
X64943827Y-43790602D01*
X64943814Y-43790609D01*
X64812711Y-43878210D01*
X64812707Y-43878213D01*
X64701213Y-43989707D01*
X64701210Y-43989711D01*
X64613609Y-44120814D01*
X64613602Y-44120827D01*
X64553264Y-44266498D01*
X64553261Y-44266510D01*
X64522500Y-44421153D01*
X56254500Y-44421153D01*
X56254500Y-42421153D01*
X64522500Y-42421153D01*
X64522500Y-42578846D01*
X64553261Y-42733489D01*
X64553264Y-42733501D01*
X64613602Y-42879172D01*
X64613609Y-42879185D01*
X64701210Y-43010288D01*
X64701213Y-43010292D01*
X64812707Y-43121786D01*
X64812711Y-43121789D01*
X64943814Y-43209390D01*
X64943827Y-43209397D01*
X65089498Y-43269735D01*
X65089503Y-43269737D01*
X65244153Y-43300499D01*
X65244156Y-43300500D01*
X65244158Y-43300500D01*
X65401844Y-43300500D01*
X65401845Y-43300499D01*
X65556497Y-43269737D01*
X65702179Y-43209394D01*
X65793466Y-43148398D01*
X65860143Y-43127520D01*
X65862357Y-43127500D01*
X66492643Y-43127500D01*
X66559682Y-43147185D01*
X66561534Y-43148398D01*
X66652814Y-43209390D01*
X66652827Y-43209397D01*
X66798498Y-43269735D01*
X66798503Y-43269737D01*
X66953153Y-43300499D01*
X66953156Y-43300500D01*
X66953158Y-43300500D01*
X67110844Y-43300500D01*
X67110845Y-43300499D01*
X67265497Y-43269737D01*
X67411179Y-43209394D01*
X67542289Y-43121789D01*
X67653789Y-43010289D01*
X67741394Y-42879179D01*
X67801737Y-42733497D01*
X67832500Y-42578842D01*
X67832500Y-42421158D01*
X67832500Y-42421155D01*
X67832499Y-42421153D01*
X67805515Y-42285497D01*
X67801737Y-42266503D01*
X67799163Y-42260288D01*
X67741397Y-42120827D01*
X67741390Y-42120814D01*
X67653789Y-41989711D01*
X67653786Y-41989707D01*
X67542292Y-41878213D01*
X67542288Y-41878210D01*
X67411185Y-41790609D01*
X67411173Y-41790602D01*
X67384674Y-41779627D01*
X67265501Y-41730264D01*
X67265489Y-41730261D01*
X67110845Y-41699500D01*
X67110842Y-41699500D01*
X66953158Y-41699500D01*
X66953155Y-41699500D01*
X66798510Y-41730261D01*
X66798498Y-41730264D01*
X66652827Y-41790602D01*
X66652814Y-41790609D01*
X66561534Y-41851602D01*
X66494857Y-41872480D01*
X66492643Y-41872500D01*
X65862357Y-41872500D01*
X65795318Y-41852815D01*
X65793466Y-41851602D01*
X65702185Y-41790609D01*
X65702172Y-41790602D01*
X65556501Y-41730264D01*
X65556489Y-41730261D01*
X65401845Y-41699500D01*
X65401842Y-41699500D01*
X65244158Y-41699500D01*
X65244155Y-41699500D01*
X65089510Y-41730261D01*
X65089498Y-41730264D01*
X64943827Y-41790602D01*
X64943814Y-41790609D01*
X64812711Y-41878210D01*
X64812707Y-41878213D01*
X64701213Y-41989707D01*
X64701210Y-41989711D01*
X64613609Y-42120814D01*
X64613602Y-42120827D01*
X64553264Y-42266498D01*
X64553261Y-42266510D01*
X64522500Y-42421153D01*
X56254500Y-42421153D01*
X56254500Y-41671153D01*
X87449500Y-41671153D01*
X87449500Y-41828846D01*
X87480261Y-41983489D01*
X87480264Y-41983501D01*
X87540602Y-42129172D01*
X87540609Y-42129185D01*
X87628210Y-42260288D01*
X87628213Y-42260292D01*
X87739707Y-42371786D01*
X87739711Y-42371789D01*
X87870814Y-42459390D01*
X87870827Y-42459397D01*
X88016498Y-42519735D01*
X88016503Y-42519737D01*
X88171153Y-42550499D01*
X88171156Y-42550500D01*
X88171158Y-42550500D01*
X88328844Y-42550500D01*
X88328845Y-42550499D01*
X88483497Y-42519737D01*
X88629179Y-42459394D01*
X88760289Y-42371789D01*
X88871789Y-42260289D01*
X88959394Y-42129179D01*
X88962854Y-42120827D01*
X89017163Y-41989711D01*
X89019737Y-41983497D01*
X89021794Y-41973153D01*
X91699500Y-41973153D01*
X91699500Y-42130846D01*
X91730261Y-42285489D01*
X91730264Y-42285501D01*
X91790602Y-42431172D01*
X91790609Y-42431185D01*
X91878210Y-42562288D01*
X91878213Y-42562292D01*
X91989707Y-42673786D01*
X91989711Y-42673789D01*
X92120814Y-42761390D01*
X92120827Y-42761397D01*
X92266498Y-42821735D01*
X92266503Y-42821737D01*
X92421153Y-42852499D01*
X92421156Y-42852500D01*
X92421158Y-42852500D01*
X92578844Y-42852500D01*
X92578845Y-42852499D01*
X92733497Y-42821737D01*
X92879179Y-42761394D01*
X92970466Y-42700398D01*
X93037143Y-42679520D01*
X93039357Y-42679500D01*
X98009804Y-42679500D01*
X98009805Y-42679499D01*
X98131035Y-42655386D01*
X98211784Y-42621937D01*
X98245233Y-42608083D01*
X98348008Y-42539411D01*
X98435411Y-42452008D01*
X99487411Y-41400008D01*
X99506913Y-41370821D01*
X99556083Y-41297233D01*
X99579909Y-41239711D01*
X99603386Y-41183034D01*
X99627500Y-41061803D01*
X99627500Y-40938197D01*
X99627500Y-34811280D01*
X99647185Y-34744241D01*
X99663815Y-34723603D01*
X100312328Y-34075089D01*
X100373649Y-34041606D01*
X100375648Y-34041189D01*
X100483497Y-34019737D01*
X100629179Y-33959394D01*
X100760289Y-33871789D01*
X100871789Y-33760289D01*
X100959394Y-33629179D01*
X101019737Y-33483497D01*
X101050500Y-33328842D01*
X101050500Y-33171158D01*
X101050500Y-33171155D01*
X101050499Y-33171153D01*
X101040227Y-33119514D01*
X101019737Y-33016503D01*
X101008802Y-32990104D01*
X100959397Y-32870827D01*
X100959390Y-32870814D01*
X100871789Y-32739711D01*
X100871786Y-32739707D01*
X100760292Y-32628213D01*
X100760288Y-32628210D01*
X100629185Y-32540609D01*
X100629172Y-32540602D01*
X100483501Y-32480264D01*
X100483489Y-32480261D01*
X100328845Y-32449500D01*
X100328842Y-32449500D01*
X100171158Y-32449500D01*
X100171155Y-32449500D01*
X100016510Y-32480261D01*
X100016498Y-32480264D01*
X99870827Y-32540602D01*
X99870814Y-32540609D01*
X99739711Y-32628210D01*
X99739707Y-32628213D01*
X99628213Y-32739707D01*
X99628210Y-32739711D01*
X99540609Y-32870814D01*
X99540602Y-32870827D01*
X99480264Y-33016498D01*
X99480261Y-33016508D01*
X99458843Y-33124183D01*
X99426458Y-33186094D01*
X99424907Y-33187672D01*
X98787490Y-33825091D01*
X98599992Y-34012589D01*
X98571427Y-34041154D01*
X98512586Y-34099994D01*
X98512585Y-34099996D01*
X98443233Y-34203789D01*
X98441586Y-34208393D01*
X98396614Y-34316964D01*
X98396612Y-34316972D01*
X98372500Y-34438192D01*
X98372500Y-40688719D01*
X98352815Y-40755758D01*
X98336181Y-40776400D01*
X97724400Y-41388181D01*
X97663077Y-41421666D01*
X97636719Y-41424500D01*
X93039357Y-41424500D01*
X92972318Y-41404815D01*
X92970466Y-41403602D01*
X92879185Y-41342609D01*
X92879172Y-41342602D01*
X92733501Y-41282264D01*
X92733489Y-41282261D01*
X92578845Y-41251500D01*
X92578842Y-41251500D01*
X92421158Y-41251500D01*
X92421155Y-41251500D01*
X92266510Y-41282261D01*
X92266498Y-41282264D01*
X92120827Y-41342602D01*
X92120814Y-41342609D01*
X91989711Y-41430210D01*
X91989707Y-41430213D01*
X91878213Y-41541707D01*
X91878210Y-41541711D01*
X91790609Y-41672814D01*
X91790602Y-41672827D01*
X91730264Y-41818498D01*
X91730261Y-41818510D01*
X91699500Y-41973153D01*
X89021794Y-41973153D01*
X89041156Y-41875812D01*
X89073539Y-41813906D01*
X89075035Y-41812382D01*
X97062328Y-33825089D01*
X97123649Y-33791606D01*
X97125648Y-33791189D01*
X97233497Y-33769737D01*
X97379179Y-33709394D01*
X97510289Y-33621789D01*
X97621789Y-33510289D01*
X97709394Y-33379179D01*
X97769737Y-33233497D01*
X97800500Y-33078842D01*
X97800500Y-32921158D01*
X97800500Y-32921155D01*
X97800499Y-32921153D01*
X97790486Y-32870814D01*
X97769737Y-32766503D01*
X97769735Y-32766498D01*
X97709397Y-32620827D01*
X97709390Y-32620814D01*
X97621789Y-32489711D01*
X97621786Y-32489707D01*
X97510292Y-32378213D01*
X97510288Y-32378210D01*
X97379185Y-32290609D01*
X97379172Y-32290602D01*
X97233501Y-32230264D01*
X97233489Y-32230261D01*
X97078845Y-32199500D01*
X97078842Y-32199500D01*
X96921158Y-32199500D01*
X96921155Y-32199500D01*
X96766510Y-32230261D01*
X96766498Y-32230264D01*
X96620827Y-32290602D01*
X96620814Y-32290609D01*
X96489711Y-32378210D01*
X96489707Y-32378213D01*
X96378213Y-32489707D01*
X96378210Y-32489711D01*
X96290609Y-32620814D01*
X96290602Y-32620827D01*
X96230264Y-32766498D01*
X96230261Y-32766508D01*
X96208843Y-32874183D01*
X96176458Y-32936094D01*
X96174907Y-32937672D01*
X88187672Y-40924907D01*
X88126349Y-40958392D01*
X88124183Y-40958843D01*
X88016508Y-40980261D01*
X88016498Y-40980264D01*
X87870827Y-41040602D01*
X87870814Y-41040609D01*
X87739711Y-41128210D01*
X87739707Y-41128213D01*
X87628213Y-41239707D01*
X87628210Y-41239711D01*
X87540609Y-41370814D01*
X87540604Y-41370825D01*
X87480264Y-41516498D01*
X87480261Y-41516510D01*
X87449500Y-41671153D01*
X56254500Y-41671153D01*
X56254500Y-35346153D01*
X83699500Y-35346153D01*
X83699500Y-35503846D01*
X83730261Y-35658489D01*
X83730264Y-35658501D01*
X83790602Y-35804172D01*
X83790609Y-35804185D01*
X83878210Y-35935288D01*
X83878213Y-35935292D01*
X83989707Y-36046786D01*
X83989711Y-36046789D01*
X84120814Y-36134390D01*
X84120827Y-36134397D01*
X84183142Y-36160208D01*
X84266503Y-36194737D01*
X84374185Y-36216156D01*
X84436092Y-36248539D01*
X84437672Y-36250091D01*
X86163181Y-37975600D01*
X86196666Y-38036923D01*
X86199500Y-38063281D01*
X86199500Y-38130846D01*
X86230261Y-38285489D01*
X86230264Y-38285501D01*
X86290602Y-38431172D01*
X86290609Y-38431185D01*
X86378210Y-38562288D01*
X86378213Y-38562292D01*
X86489707Y-38673786D01*
X86489711Y-38673789D01*
X86620814Y-38761390D01*
X86620827Y-38761397D01*
X86766498Y-38821735D01*
X86766503Y-38821737D01*
X86921153Y-38852499D01*
X86921156Y-38852500D01*
X86921158Y-38852500D01*
X87078844Y-38852500D01*
X87078845Y-38852499D01*
X87233497Y-38821737D01*
X87379179Y-38761394D01*
X87510289Y-38673789D01*
X87621789Y-38562289D01*
X87709394Y-38431179D01*
X87769737Y-38285497D01*
X87800500Y-38130842D01*
X87800500Y-37973158D01*
X87800500Y-37973155D01*
X87800499Y-37973153D01*
X87789885Y-37919792D01*
X87769737Y-37818503D01*
X87769735Y-37818498D01*
X87709397Y-37672827D01*
X87709390Y-37672814D01*
X87621789Y-37541711D01*
X87621786Y-37541707D01*
X87510292Y-37430213D01*
X87510288Y-37430210D01*
X87379185Y-37342609D01*
X87379175Y-37342604D01*
X87275376Y-37299609D01*
X87235148Y-37272729D01*
X85325091Y-35362672D01*
X85291606Y-35301349D01*
X85291183Y-35299323D01*
X85269737Y-35191503D01*
X85237764Y-35114312D01*
X85209397Y-35045827D01*
X85209390Y-35045814D01*
X85121789Y-34914711D01*
X85121786Y-34914707D01*
X85010292Y-34803213D01*
X85010288Y-34803210D01*
X84879185Y-34715609D01*
X84879172Y-34715602D01*
X84733501Y-34655264D01*
X84733489Y-34655261D01*
X84578845Y-34624500D01*
X84578842Y-34624500D01*
X84421158Y-34624500D01*
X84421155Y-34624500D01*
X84266510Y-34655261D01*
X84266498Y-34655264D01*
X84120827Y-34715602D01*
X84120814Y-34715609D01*
X83989711Y-34803210D01*
X83989707Y-34803213D01*
X83878213Y-34914707D01*
X83878210Y-34914711D01*
X83790609Y-35045814D01*
X83790602Y-35045827D01*
X83730264Y-35191498D01*
X83730261Y-35191510D01*
X83699500Y-35346153D01*
X56254500Y-35346153D01*
X56254500Y-25363886D01*
X56274185Y-25296847D01*
X56290819Y-25276205D01*
X57776205Y-23790819D01*
X57837528Y-23757334D01*
X57863886Y-23754500D01*
X58705053Y-23754500D01*
X58752501Y-23763937D01*
X58766503Y-23769737D01*
X58766508Y-23769738D01*
X58766511Y-23769739D01*
X58921153Y-23800499D01*
X58921156Y-23800500D01*
X58921158Y-23800500D01*
X59078844Y-23800500D01*
X59078845Y-23800499D01*
X59233497Y-23769737D01*
X59379179Y-23709394D01*
X59510289Y-23621789D01*
X59621789Y-23510289D01*
X59709394Y-23379179D01*
X59769737Y-23233497D01*
X59800500Y-23078842D01*
X59800500Y-22921158D01*
X59800500Y-22921155D01*
X59800499Y-22921153D01*
X59769738Y-22766510D01*
X59769737Y-22766503D01*
X59769735Y-22766498D01*
X59709397Y-22620827D01*
X59709390Y-22620814D01*
X59621789Y-22489711D01*
X59621786Y-22489707D01*
X59510292Y-22378213D01*
X59510288Y-22378210D01*
X59443208Y-22333388D01*
X59398403Y-22279775D01*
X59389696Y-22210450D01*
X59419851Y-22147423D01*
X59424399Y-22142624D01*
X63276205Y-18290819D01*
X63337528Y-18257334D01*
X63363886Y-18254500D01*
X98837966Y-18254500D01*
X98905005Y-18274185D01*
X98950760Y-18326989D01*
X98960704Y-18396147D01*
X98931679Y-18459703D01*
X98872901Y-18497477D01*
X98854151Y-18501439D01*
X98608884Y-18533730D01*
X98355581Y-18601602D01*
X98355571Y-18601605D01*
X98113309Y-18701953D01*
X98113299Y-18701958D01*
X97886196Y-18833075D01*
X97678148Y-18992718D01*
X97492718Y-19178148D01*
X97333075Y-19386196D01*
X97201958Y-19613299D01*
X97201953Y-19613309D01*
X97101605Y-19855571D01*
X97101602Y-19855581D01*
X97033730Y-20108885D01*
X96999500Y-20368872D01*
X96999500Y-20631127D01*
X97026123Y-20833339D01*
X97033730Y-20891116D01*
X97101602Y-21144418D01*
X97101605Y-21144428D01*
X97201953Y-21386690D01*
X97201958Y-21386700D01*
X97333075Y-21613803D01*
X97492718Y-21821851D01*
X97492726Y-21821860D01*
X97678140Y-22007274D01*
X97678148Y-22007281D01*
X97886196Y-22166924D01*
X98113299Y-22298041D01*
X98113309Y-22298046D01*
X98306845Y-22378211D01*
X98355581Y-22398398D01*
X98608884Y-22466270D01*
X98868880Y-22500500D01*
X98868887Y-22500500D01*
X99131113Y-22500500D01*
X99131120Y-22500500D01*
X99391116Y-22466270D01*
X99644419Y-22398398D01*
X99886697Y-22298043D01*
X100113803Y-22166924D01*
X100321851Y-22007282D01*
X100321855Y-22007277D01*
X100321860Y-22007274D01*
X100507274Y-21821860D01*
X100507277Y-21821855D01*
X100507282Y-21821851D01*
X100666924Y-21613803D01*
X100798043Y-21386697D01*
X100898398Y-21144419D01*
X100966270Y-20891116D01*
X101000500Y-20631120D01*
X101000500Y-20368880D01*
X100966270Y-20108884D01*
X100898398Y-19855581D01*
X100898394Y-19855571D01*
X100798046Y-19613309D01*
X100798041Y-19613299D01*
X100666924Y-19386196D01*
X100507281Y-19178148D01*
X100507274Y-19178140D01*
X100321860Y-18992726D01*
X100321851Y-18992718D01*
X100113803Y-18833075D01*
X99886700Y-18701958D01*
X99886690Y-18701953D01*
X99644428Y-18601605D01*
X99644421Y-18601603D01*
X99644419Y-18601602D01*
X99391116Y-18533730D01*
X99145848Y-18501439D01*
X99081952Y-18473172D01*
X99043481Y-18414848D01*
X99042650Y-18344983D01*
X99079722Y-18285760D01*
X99142928Y-18255981D01*
X99162034Y-18254500D01*
X104636113Y-18254500D01*
X104703152Y-18274185D01*
X104723794Y-18290819D01*
X110709181Y-24276205D01*
X110742666Y-24337528D01*
X110745500Y-24363886D01*
X110745500Y-25465271D01*
X110725815Y-25532310D01*
X110673011Y-25578065D01*
X110603853Y-25588009D01*
X110578168Y-25581453D01*
X110457382Y-25536403D01*
X110457372Y-25536401D01*
X110397844Y-25530000D01*
X109750000Y-25530000D01*
X109750000Y-26446988D01*
X109692993Y-26414075D01*
X109565826Y-26380000D01*
X109434174Y-26380000D01*
X109307007Y-26414075D01*
X109250000Y-26446988D01*
X109250000Y-25530000D01*
X108602155Y-25530000D01*
X108542627Y-25536401D01*
X108542620Y-25536403D01*
X108407913Y-25586645D01*
X108407906Y-25586649D01*
X108292812Y-25672809D01*
X108292809Y-25672812D01*
X108206649Y-25787906D01*
X108206645Y-25787913D01*
X108156403Y-25922620D01*
X108156401Y-25922627D01*
X108150000Y-25982155D01*
X108150000Y-26630000D01*
X109066988Y-26630000D01*
X109034075Y-26687007D01*
X109000000Y-26814174D01*
X109000000Y-26945826D01*
X109034075Y-27072993D01*
X109066988Y-27130000D01*
X108150000Y-27130000D01*
X108150000Y-27777844D01*
X108156401Y-27837372D01*
X108156403Y-27837379D01*
X108206645Y-27972086D01*
X108206649Y-27972093D01*
X108292809Y-28087187D01*
X108292812Y-28087190D01*
X108407906Y-28173350D01*
X108407913Y-28173354D01*
X108539470Y-28222422D01*
X108595404Y-28264293D01*
X108619821Y-28329758D01*
X108604969Y-28398031D01*
X108583819Y-28426285D01*
X108469889Y-28540215D01*
X108344951Y-28712179D01*
X108248444Y-28901585D01*
X108182753Y-29103760D01*
X108149500Y-29313713D01*
X108149500Y-29526286D01*
X108182753Y-29736239D01*
X108248444Y-29938414D01*
X108344951Y-30127820D01*
X108469890Y-30299786D01*
X108620213Y-30450109D01*
X108792182Y-30575050D01*
X108800946Y-30579516D01*
X108851742Y-30627491D01*
X108868536Y-30695312D01*
X108845998Y-30761447D01*
X108800946Y-30800484D01*
X108792182Y-30804949D01*
X108620213Y-30929890D01*
X108469890Y-31080213D01*
X108344951Y-31252179D01*
X108248444Y-31441585D01*
X108182753Y-31643760D01*
X108149500Y-31853713D01*
X108149500Y-32066286D01*
X108175471Y-32230264D01*
X108182754Y-32276243D01*
X108215886Y-32378213D01*
X108248444Y-32478414D01*
X108344951Y-32667820D01*
X108469890Y-32839786D01*
X108620213Y-32990109D01*
X108792182Y-33115050D01*
X108800946Y-33119516D01*
X108851742Y-33167491D01*
X108868536Y-33235312D01*
X108845998Y-33301447D01*
X108800946Y-33340484D01*
X108792182Y-33344949D01*
X108620213Y-33469890D01*
X108469890Y-33620213D01*
X108344951Y-33792179D01*
X108248444Y-33981585D01*
X108182753Y-34183760D01*
X108149500Y-34393713D01*
X108149500Y-34606286D01*
X108180689Y-34803210D01*
X108182754Y-34816243D01*
X108214748Y-34914711D01*
X108248444Y-35018414D01*
X108344951Y-35207820D01*
X108469890Y-35379786D01*
X108620213Y-35530109D01*
X108792182Y-35655050D01*
X108800946Y-35659516D01*
X108851742Y-35707491D01*
X108868536Y-35775312D01*
X108845998Y-35841447D01*
X108800946Y-35880484D01*
X108792182Y-35884949D01*
X108620213Y-36009890D01*
X108469890Y-36160213D01*
X108344951Y-36332179D01*
X108248444Y-36521585D01*
X108182753Y-36723760D01*
X108149500Y-36933713D01*
X108149500Y-37146286D01*
X108180594Y-37342609D01*
X108182754Y-37356243D01*
X108243016Y-37541711D01*
X108248444Y-37558414D01*
X108344951Y-37747820D01*
X108469890Y-37919786D01*
X108620213Y-38070109D01*
X108792179Y-38195048D01*
X108792181Y-38195049D01*
X108792184Y-38195051D01*
X108981588Y-38291557D01*
X109183757Y-38357246D01*
X109393713Y-38390500D01*
X109393714Y-38390500D01*
X109606286Y-38390500D01*
X109606287Y-38390500D01*
X109816243Y-38357246D01*
X110018412Y-38291557D01*
X110207816Y-38195051D01*
X110229789Y-38179086D01*
X110379786Y-38070109D01*
X110379788Y-38070106D01*
X110379792Y-38070104D01*
X110530104Y-37919792D01*
X110530106Y-37919788D01*
X110530109Y-37919786D01*
X110655048Y-37747820D01*
X110655047Y-37747820D01*
X110655051Y-37747816D01*
X110751557Y-37558412D01*
X110817246Y-37356243D01*
X110850500Y-37146287D01*
X110850500Y-36933713D01*
X110836156Y-36843151D01*
X110845110Y-36773861D01*
X110870945Y-36736078D01*
X111980963Y-35626060D01*
X111980966Y-35626059D01*
X112086059Y-35520966D01*
X112168629Y-35397390D01*
X112225505Y-35260080D01*
X112249832Y-35137782D01*
X112254501Y-35114312D01*
X112254501Y-34965688D01*
X112254500Y-34965682D01*
X112254500Y-24080446D01*
X112254501Y-24080425D01*
X112254501Y-23925685D01*
X112225506Y-23779925D01*
X112225504Y-23779919D01*
X112221286Y-23769737D01*
X112214975Y-23754500D01*
X112168629Y-23642610D01*
X112086059Y-23519034D01*
X112086054Y-23519028D01*
X111976647Y-23409621D01*
X111976624Y-23409600D01*
X105480969Y-16913943D01*
X105480968Y-16913942D01*
X105439773Y-16886417D01*
X105357389Y-16831370D01*
X105357386Y-16831368D01*
X105357385Y-16831368D01*
X105276955Y-16798053D01*
X105220080Y-16774495D01*
X105195894Y-16769684D01*
X105074314Y-16745499D01*
X105074312Y-16745499D01*
X104925688Y-16745499D01*
X104919574Y-16745499D01*
X104919554Y-16745500D01*
X63080446Y-16745500D01*
X63080426Y-16745499D01*
X63074312Y-16745499D01*
X62925688Y-16745499D01*
X62925686Y-16745499D01*
X62804105Y-16769684D01*
X62789540Y-16772581D01*
X62779918Y-16774495D01*
X62779917Y-16774495D01*
X62723045Y-16798052D01*
X62723045Y-16798053D01*
X62642616Y-16831368D01*
X62642609Y-16831371D01*
X62519033Y-16913941D01*
X62466487Y-16966487D01*
X62413941Y-17019034D01*
X56913939Y-22519036D01*
X54913943Y-24519030D01*
X54913942Y-24519031D01*
X54831372Y-24642607D01*
X54831366Y-24642618D01*
X54774496Y-24779916D01*
X54774493Y-24779926D01*
X54745499Y-24925685D01*
X54745499Y-25080425D01*
X54745500Y-25080446D01*
X54745500Y-45205053D01*
X54744021Y-45212484D01*
X54742628Y-45231584D01*
X54740272Y-45242336D01*
X54730263Y-45266503D01*
X54699500Y-45421158D01*
X15500500Y-45421158D01*
X15500500Y-26952135D01*
X30142046Y-26952135D01*
X30142046Y-29047870D01*
X30142047Y-29047876D01*
X30148454Y-29107483D01*
X30198748Y-29242328D01*
X30198752Y-29242335D01*
X30284998Y-29357544D01*
X30285001Y-29357547D01*
X30400210Y-29443793D01*
X30400217Y-29443797D01*
X30535063Y-29494091D01*
X30535062Y-29494091D01*
X30541990Y-29494835D01*
X30594673Y-29500500D01*
X32690418Y-29500499D01*
X32750029Y-29494091D01*
X32884877Y-29443796D01*
X33000092Y-29357546D01*
X33086342Y-29242331D01*
X33136637Y-29107483D01*
X33143046Y-29047873D01*
X33143045Y-27881947D01*
X50942546Y-27881947D01*
X50942546Y-28118052D01*
X50979480Y-28351247D01*
X51052443Y-28575802D01*
X51159633Y-28786174D01*
X51219884Y-28869104D01*
X51219886Y-28869105D01*
X51764967Y-28324024D01*
X51777905Y-28355258D01*
X51859983Y-28478097D01*
X51964449Y-28582563D01*
X52087288Y-28664641D01*
X52118520Y-28677578D01*
X51573439Y-29222658D01*
X51656374Y-29282914D01*
X51866743Y-29390102D01*
X52091298Y-29463065D01*
X52091297Y-29463065D01*
X52324494Y-29500000D01*
X52560598Y-29500000D01*
X52793793Y-29463065D01*
X53018348Y-29390102D01*
X53228709Y-29282918D01*
X53228715Y-29282914D01*
X53311650Y-29222658D01*
X53311651Y-29222658D01*
X52766570Y-28677578D01*
X52797804Y-28664641D01*
X52920643Y-28582563D01*
X53025109Y-28478097D01*
X53107187Y-28355258D01*
X53120124Y-28324025D01*
X53665204Y-28869105D01*
X53665204Y-28869104D01*
X53725460Y-28786169D01*
X53725464Y-28786163D01*
X53832648Y-28575802D01*
X53905611Y-28351247D01*
X53942546Y-28118052D01*
X53942546Y-27881947D01*
X53905611Y-27648752D01*
X53832648Y-27424197D01*
X53725460Y-27213828D01*
X53665204Y-27130894D01*
X53665204Y-27130893D01*
X53120123Y-27675974D01*
X53107187Y-27644742D01*
X53025109Y-27521903D01*
X52920643Y-27417437D01*
X52797804Y-27335359D01*
X52766570Y-27322421D01*
X53311651Y-26777340D01*
X53311650Y-26777338D01*
X53228720Y-26717087D01*
X53018348Y-26609897D01*
X52793793Y-26536934D01*
X52793794Y-26536934D01*
X52560598Y-26500000D01*
X52324494Y-26500000D01*
X52091298Y-26536934D01*
X51866743Y-26609897D01*
X51656376Y-26717084D01*
X51573440Y-26777340D01*
X52118521Y-27322421D01*
X52087288Y-27335359D01*
X51964449Y-27417437D01*
X51859983Y-27521903D01*
X51777905Y-27644742D01*
X51764967Y-27675975D01*
X51219886Y-27130894D01*
X51159630Y-27213830D01*
X51052443Y-27424197D01*
X50979480Y-27648752D01*
X50942546Y-27881947D01*
X33143045Y-27881947D01*
X33143045Y-26952128D01*
X33136637Y-26892517D01*
X33136636Y-26892514D01*
X33127468Y-26867931D01*
X33086343Y-26757671D01*
X33086339Y-26757664D01*
X33000093Y-26642455D01*
X33000090Y-26642452D01*
X32884881Y-26556206D01*
X32884874Y-26556202D01*
X32750028Y-26505908D01*
X32750029Y-26505908D01*
X32690429Y-26499501D01*
X32690427Y-26499500D01*
X32690419Y-26499500D01*
X32690410Y-26499500D01*
X30594675Y-26499500D01*
X30594669Y-26499501D01*
X30535062Y-26505908D01*
X30400217Y-26556202D01*
X30400210Y-26556206D01*
X30285001Y-26642452D01*
X30284998Y-26642455D01*
X30198752Y-26757664D01*
X30198748Y-26757671D01*
X30148454Y-26892517D01*
X30142723Y-26945826D01*
X30142047Y-26952123D01*
X30142046Y-26952135D01*
X15500500Y-26952135D01*
X15500500Y-20368872D01*
X26999500Y-20368872D01*
X26999500Y-20631127D01*
X27026123Y-20833339D01*
X27033730Y-20891116D01*
X27101602Y-21144418D01*
X27101605Y-21144428D01*
X27201953Y-21386690D01*
X27201958Y-21386700D01*
X27333075Y-21613803D01*
X27492718Y-21821851D01*
X27492726Y-21821860D01*
X27678140Y-22007274D01*
X27678148Y-22007281D01*
X27886196Y-22166924D01*
X28113299Y-22298041D01*
X28113309Y-22298046D01*
X28306845Y-22378211D01*
X28355581Y-22398398D01*
X28608884Y-22466270D01*
X28868880Y-22500500D01*
X28868887Y-22500500D01*
X29131113Y-22500500D01*
X29131120Y-22500500D01*
X29391116Y-22466270D01*
X29644419Y-22398398D01*
X29886697Y-22298043D01*
X30113803Y-22166924D01*
X30321851Y-22007282D01*
X30321855Y-22007277D01*
X30321860Y-22007274D01*
X30507274Y-21821860D01*
X30507277Y-21821855D01*
X30507282Y-21821851D01*
X30666924Y-21613803D01*
X30798043Y-21386697D01*
X30898398Y-21144419D01*
X30966270Y-20891116D01*
X31000500Y-20631120D01*
X31000500Y-20368880D01*
X30966270Y-20108884D01*
X30898398Y-19855581D01*
X30898394Y-19855571D01*
X30798046Y-19613309D01*
X30798041Y-19613299D01*
X30666924Y-19386196D01*
X30507281Y-19178148D01*
X30507274Y-19178140D01*
X30321860Y-18992726D01*
X30321851Y-18992718D01*
X30113803Y-18833075D01*
X29886700Y-18701958D01*
X29886690Y-18701953D01*
X29644428Y-18601605D01*
X29644421Y-18601603D01*
X29644419Y-18601602D01*
X29391116Y-18533730D01*
X29333339Y-18526123D01*
X29131127Y-18499500D01*
X29131120Y-18499500D01*
X28868880Y-18499500D01*
X28868872Y-18499500D01*
X28637772Y-18529926D01*
X28608884Y-18533730D01*
X28355581Y-18601602D01*
X28355571Y-18601605D01*
X28113309Y-18701953D01*
X28113299Y-18701958D01*
X27886196Y-18833075D01*
X27678148Y-18992718D01*
X27492718Y-19178148D01*
X27333075Y-19386196D01*
X27201958Y-19613299D01*
X27201953Y-19613309D01*
X27101605Y-19855571D01*
X27101602Y-19855581D01*
X27033730Y-20108885D01*
X26999500Y-20368872D01*
X15500500Y-20368872D01*
X15500500Y-15124500D01*
X15520185Y-15057461D01*
X15572989Y-15011706D01*
X15624500Y-15000500D01*
X113375500Y-15000500D01*
X113442539Y-15020185D01*
G37*
%TD.AperFunction*%
%TD*%
M02*
