M48
; DRILL file {KiCad 9.0.3} date 2025-08-27T14:48:30+0300
; FORMAT={-:-/ absolute / inch / decimal}
; #@! TF.CreationDate,2025-08-27T14:48:30+03:00
; #@! TF.GenerationSoftware,Kicad,Pcbnew,9.0.3
; #@! TF.FileFunction,Plated,1,2,PTH
FMAT,2
INCH
; #@! TA.AperFunction,Plated,PTH,ViaDrill
T1C0.0118
; #@! TA.AperFunction,Plated,PTH,ComponentDrill
T2C0.0394
; #@! TA.AperFunction,Plated,PTH,ComponentDrill
T3C0.0433
%
G90
G05
T1
X1.9094Y-1.9882
X1.9094Y-2.5787
X1.9291Y-2.4016
X2.0079Y-2.7362
X2.0472Y-2.4016
X2.0472Y-2.5787
X2.1063Y-2.874
X2.185Y-2.7165
X2.2638Y-2.2244
X3.0118Y-2.6772
X3.2677Y-3.1693
X3.3661Y-2.5984
X3.3858Y-2.0276
X3.3858Y-2.815
X3.8976Y-2.815
X4.0748Y-2.8937
X4.1535Y-2.8543
X4.2126Y-2.4409
X4.252Y-2.1457
X4.252Y-2.815
X4.2717Y-2.9331
X4.2913Y-2.3228
X4.2913Y-2.6181
X4.4882Y-2.5394
X4.5866Y-2.5591
X4.626Y-2.3819
X4.626Y-2.6772
X4.626Y-2.7756
X4.6654Y-2.126
X4.6654Y-2.4606
X4.6654Y-2.5591
X4.6654Y-3.0118
X4.8031Y-2.6969
X4.8425Y-3.1496
X5.0197Y-2.5787
X5.0591Y-2.1654
T2
X2.6378Y-2.0276
X2.7378Y-2.0276
X2.8378Y-2.0276
X2.9378Y-2.0276
X3.7598Y-2.315
X3.7598Y-2.415
X3.7598Y-2.515
X3.7598Y-2.615
X3.7598Y-2.715
X3.7598Y-2.815
X3.8598Y-2.315
X3.8598Y-2.415
X3.8598Y-2.515
X3.8598Y-2.615
X3.8598Y-2.715
X3.8598Y-2.815
T3
X4.1677Y-2.4987
X4.1677Y-2.6758
X4.4236Y-2.4987
X4.4236Y-2.6758
X4.5177Y-2.0571
X4.5177Y-2.2343
X4.5254Y-2.9031
X4.5254Y-3.0803
X4.7736Y-2.0571
X4.7736Y-2.2343
X4.7813Y-2.9031
X4.7813Y-3.0803
X4.8586Y-2.4585
X4.8586Y-2.6356
X5.1145Y-2.4585
X5.1145Y-2.6356
M30
