%TF.GenerationSoftware,KiCad,Pcbnew,9.0.3*%
%TF.CreationDate,2025-08-27T14:48:30+03:00*%
%TF.ProjectId,keypad,6b657970-6164-42e6-9b69-6361645f7063,rev?*%
%TF.SameCoordinates,Original*%
%TF.FileFunction,Legend,Top*%
%TF.FilePolarity,Positive*%
%FSLAX46Y46*%
G04 Gerber Fmt 4.6, Leading zero omitted, Abs format (unit mm)*
G04 Created by KiCad (PCBNEW 9.0.3) date 2025-08-27 14:48:30*
%MOMM*%
%LPD*%
G01*
G04 APERTURE LIST*
G04 Aperture macros list*
%AMRoundRect*
0 Rectangle with rounded corners*
0 $1 Rounding radius*
0 $2 $3 $4 $5 $6 $7 $8 $9 X,Y pos of 4 corners*
0 Add a 4 corners polygon primitive as box body*
4,1,4,$2,$3,$4,$5,$6,$7,$8,$9,$2,$3,0*
0 Add four circle primitives for the rounded corners*
1,1,$1+$1,$2,$3*
1,1,$1+$1,$4,$5*
1,1,$1+$1,$6,$7*
1,1,$1+$1,$8,$9*
0 Add four rect primitives between the rounded corners*
20,1,$1+$1,$2,$3,$4,$5,0*
20,1,$1+$1,$4,$5,$6,$7,0*
20,1,$1+$1,$6,$7,$8,$9,0*
20,1,$1+$1,$8,$9,$2,$3,0*%
G04 Aperture macros list end*
%ADD10C,0.150000*%
%ADD11C,0.120000*%
%ADD12C,2.000000*%
%ADD13RoundRect,0.200000X0.200000X0.275000X-0.200000X0.275000X-0.200000X-0.275000X0.200000X-0.275000X0*%
%ADD14RoundRect,0.140000X-0.170000X0.140000X-0.170000X-0.140000X0.170000X-0.140000X0.170000X0.140000X0*%
%ADD15RoundRect,0.140000X0.170000X-0.140000X0.170000X0.140000X-0.170000X0.140000X-0.170000X-0.140000X0*%
%ADD16RoundRect,0.243750X-0.243750X-0.456250X0.243750X-0.456250X0.243750X0.456250X-0.243750X0.456250X0*%
%ADD17RoundRect,0.200000X0.275000X-0.200000X0.275000X0.200000X-0.275000X0.200000X-0.275000X-0.200000X0*%
%ADD18R,1.700000X1.700000*%
%ADD19C,1.700000*%
%ADD20RoundRect,0.200000X-0.275000X0.200000X-0.275000X-0.200000X0.275000X-0.200000X0.275000X0.200000X0*%
%ADD21RoundRect,0.250000X0.600000X0.600000X-0.600000X0.600000X-0.600000X-0.600000X0.600000X-0.600000X0*%
G04 APERTURE END LIST*
D10*
X125324554Y-69351975D02*
X125467411Y-69399594D01*
X125467411Y-69399594D02*
X125705506Y-69399594D01*
X125705506Y-69399594D02*
X125800744Y-69351975D01*
X125800744Y-69351975D02*
X125848363Y-69304355D01*
X125848363Y-69304355D02*
X125895982Y-69209117D01*
X125895982Y-69209117D02*
X125895982Y-69113879D01*
X125895982Y-69113879D02*
X125848363Y-69018641D01*
X125848363Y-69018641D02*
X125800744Y-68971022D01*
X125800744Y-68971022D02*
X125705506Y-68923403D01*
X125705506Y-68923403D02*
X125515030Y-68875784D01*
X125515030Y-68875784D02*
X125419792Y-68828165D01*
X125419792Y-68828165D02*
X125372173Y-68780546D01*
X125372173Y-68780546D02*
X125324554Y-68685308D01*
X125324554Y-68685308D02*
X125324554Y-68590070D01*
X125324554Y-68590070D02*
X125372173Y-68494832D01*
X125372173Y-68494832D02*
X125419792Y-68447213D01*
X125419792Y-68447213D02*
X125515030Y-68399594D01*
X125515030Y-68399594D02*
X125753125Y-68399594D01*
X125753125Y-68399594D02*
X125895982Y-68447213D01*
X126229316Y-68399594D02*
X126467411Y-69399594D01*
X126467411Y-69399594D02*
X126657887Y-68685308D01*
X126657887Y-68685308D02*
X126848363Y-69399594D01*
X126848363Y-69399594D02*
X127086459Y-68399594D01*
X127372173Y-68399594D02*
X127991220Y-68399594D01*
X127991220Y-68399594D02*
X127657887Y-68780546D01*
X127657887Y-68780546D02*
X127800744Y-68780546D01*
X127800744Y-68780546D02*
X127895982Y-68828165D01*
X127895982Y-68828165D02*
X127943601Y-68875784D01*
X127943601Y-68875784D02*
X127991220Y-68971022D01*
X127991220Y-68971022D02*
X127991220Y-69209117D01*
X127991220Y-69209117D02*
X127943601Y-69304355D01*
X127943601Y-69304355D02*
X127895982Y-69351975D01*
X127895982Y-69351975D02*
X127800744Y-69399594D01*
X127800744Y-69399594D02*
X127515030Y-69399594D01*
X127515030Y-69399594D02*
X127419792Y-69351975D01*
X127419792Y-69351975D02*
X127372173Y-69304355D01*
X116666667Y-50657200D02*
X116809524Y-50704819D01*
X116809524Y-50704819D02*
X117047619Y-50704819D01*
X117047619Y-50704819D02*
X117142857Y-50657200D01*
X117142857Y-50657200D02*
X117190476Y-50609580D01*
X117190476Y-50609580D02*
X117238095Y-50514342D01*
X117238095Y-50514342D02*
X117238095Y-50419104D01*
X117238095Y-50419104D02*
X117190476Y-50323866D01*
X117190476Y-50323866D02*
X117142857Y-50276247D01*
X117142857Y-50276247D02*
X117047619Y-50228628D01*
X117047619Y-50228628D02*
X116857143Y-50181009D01*
X116857143Y-50181009D02*
X116761905Y-50133390D01*
X116761905Y-50133390D02*
X116714286Y-50085771D01*
X116714286Y-50085771D02*
X116666667Y-49990533D01*
X116666667Y-49990533D02*
X116666667Y-49895295D01*
X116666667Y-49895295D02*
X116714286Y-49800057D01*
X116714286Y-49800057D02*
X116761905Y-49752438D01*
X116761905Y-49752438D02*
X116857143Y-49704819D01*
X116857143Y-49704819D02*
X117095238Y-49704819D01*
X117095238Y-49704819D02*
X117238095Y-49752438D01*
X117571429Y-49704819D02*
X117809524Y-50704819D01*
X117809524Y-50704819D02*
X118000000Y-49990533D01*
X118000000Y-49990533D02*
X118190476Y-50704819D01*
X118190476Y-50704819D02*
X118428572Y-49704819D01*
X119238095Y-50038152D02*
X119238095Y-50704819D01*
X119000000Y-49657200D02*
X118761905Y-50371485D01*
X118761905Y-50371485D02*
X119380952Y-50371485D01*
X107775110Y-61873003D02*
X107917967Y-61920622D01*
X107917967Y-61920622D02*
X108156062Y-61920622D01*
X108156062Y-61920622D02*
X108251300Y-61873003D01*
X108251300Y-61873003D02*
X108298919Y-61825383D01*
X108298919Y-61825383D02*
X108346538Y-61730145D01*
X108346538Y-61730145D02*
X108346538Y-61634907D01*
X108346538Y-61634907D02*
X108298919Y-61539669D01*
X108298919Y-61539669D02*
X108251300Y-61492050D01*
X108251300Y-61492050D02*
X108156062Y-61444431D01*
X108156062Y-61444431D02*
X107965586Y-61396812D01*
X107965586Y-61396812D02*
X107870348Y-61349193D01*
X107870348Y-61349193D02*
X107822729Y-61301574D01*
X107822729Y-61301574D02*
X107775110Y-61206336D01*
X107775110Y-61206336D02*
X107775110Y-61111098D01*
X107775110Y-61111098D02*
X107822729Y-61015860D01*
X107822729Y-61015860D02*
X107870348Y-60968241D01*
X107870348Y-60968241D02*
X107965586Y-60920622D01*
X107965586Y-60920622D02*
X108203681Y-60920622D01*
X108203681Y-60920622D02*
X108346538Y-60968241D01*
X108679872Y-60920622D02*
X108917967Y-61920622D01*
X108917967Y-61920622D02*
X109108443Y-61206336D01*
X109108443Y-61206336D02*
X109298919Y-61920622D01*
X109298919Y-61920622D02*
X109537015Y-60920622D01*
X109870348Y-61015860D02*
X109917967Y-60968241D01*
X109917967Y-60968241D02*
X110013205Y-60920622D01*
X110013205Y-60920622D02*
X110251300Y-60920622D01*
X110251300Y-60920622D02*
X110346538Y-60968241D01*
X110346538Y-60968241D02*
X110394157Y-61015860D01*
X110394157Y-61015860D02*
X110441776Y-61111098D01*
X110441776Y-61111098D02*
X110441776Y-61206336D01*
X110441776Y-61206336D02*
X110394157Y-61349193D01*
X110394157Y-61349193D02*
X109822729Y-61920622D01*
X109822729Y-61920622D02*
X110441776Y-61920622D01*
X116861370Y-80646650D02*
X117004227Y-80694269D01*
X117004227Y-80694269D02*
X117242322Y-80694269D01*
X117242322Y-80694269D02*
X117337560Y-80646650D01*
X117337560Y-80646650D02*
X117385179Y-80599030D01*
X117385179Y-80599030D02*
X117432798Y-80503792D01*
X117432798Y-80503792D02*
X117432798Y-80408554D01*
X117432798Y-80408554D02*
X117385179Y-80313316D01*
X117385179Y-80313316D02*
X117337560Y-80265697D01*
X117337560Y-80265697D02*
X117242322Y-80218078D01*
X117242322Y-80218078D02*
X117051846Y-80170459D01*
X117051846Y-80170459D02*
X116956608Y-80122840D01*
X116956608Y-80122840D02*
X116908989Y-80075221D01*
X116908989Y-80075221D02*
X116861370Y-79979983D01*
X116861370Y-79979983D02*
X116861370Y-79884745D01*
X116861370Y-79884745D02*
X116908989Y-79789507D01*
X116908989Y-79789507D02*
X116956608Y-79741888D01*
X116956608Y-79741888D02*
X117051846Y-79694269D01*
X117051846Y-79694269D02*
X117289941Y-79694269D01*
X117289941Y-79694269D02*
X117432798Y-79741888D01*
X117766132Y-79694269D02*
X118004227Y-80694269D01*
X118004227Y-80694269D02*
X118194703Y-79979983D01*
X118194703Y-79979983D02*
X118385179Y-80694269D01*
X118385179Y-80694269D02*
X118623275Y-79694269D01*
X119528036Y-80694269D02*
X118956608Y-80694269D01*
X119242322Y-80694269D02*
X119242322Y-79694269D01*
X119242322Y-79694269D02*
X119147084Y-79837126D01*
X119147084Y-79837126D02*
X119051846Y-79932364D01*
X119051846Y-79932364D02*
X118956608Y-79979983D01*
X43333333Y-73469819D02*
X43000000Y-72993628D01*
X42761905Y-73469819D02*
X42761905Y-72469819D01*
X42761905Y-72469819D02*
X43142857Y-72469819D01*
X43142857Y-72469819D02*
X43238095Y-72517438D01*
X43238095Y-72517438D02*
X43285714Y-72565057D01*
X43285714Y-72565057D02*
X43333333Y-72660295D01*
X43333333Y-72660295D02*
X43333333Y-72803152D01*
X43333333Y-72803152D02*
X43285714Y-72898390D01*
X43285714Y-72898390D02*
X43238095Y-72946009D01*
X43238095Y-72946009D02*
X43142857Y-72993628D01*
X43142857Y-72993628D02*
X42761905Y-72993628D01*
X43666667Y-72469819D02*
X44333333Y-72469819D01*
X44333333Y-72469819D02*
X43904762Y-73469819D01*
X110859580Y-53626666D02*
X110907200Y-53674285D01*
X110907200Y-53674285D02*
X110954819Y-53817142D01*
X110954819Y-53817142D02*
X110954819Y-53912380D01*
X110954819Y-53912380D02*
X110907200Y-54055237D01*
X110907200Y-54055237D02*
X110811961Y-54150475D01*
X110811961Y-54150475D02*
X110716723Y-54198094D01*
X110716723Y-54198094D02*
X110526247Y-54245713D01*
X110526247Y-54245713D02*
X110383390Y-54245713D01*
X110383390Y-54245713D02*
X110192914Y-54198094D01*
X110192914Y-54198094D02*
X110097676Y-54150475D01*
X110097676Y-54150475D02*
X110002438Y-54055237D01*
X110002438Y-54055237D02*
X109954819Y-53912380D01*
X109954819Y-53912380D02*
X109954819Y-53817142D01*
X109954819Y-53817142D02*
X110002438Y-53674285D01*
X110002438Y-53674285D02*
X110050057Y-53626666D01*
X109954819Y-53293332D02*
X109954819Y-52674285D01*
X109954819Y-52674285D02*
X110335771Y-53007618D01*
X110335771Y-53007618D02*
X110335771Y-52864761D01*
X110335771Y-52864761D02*
X110383390Y-52769523D01*
X110383390Y-52769523D02*
X110431009Y-52721904D01*
X110431009Y-52721904D02*
X110526247Y-52674285D01*
X110526247Y-52674285D02*
X110764342Y-52674285D01*
X110764342Y-52674285D02*
X110859580Y-52721904D01*
X110859580Y-52721904D02*
X110907200Y-52769523D01*
X110907200Y-52769523D02*
X110954819Y-52864761D01*
X110954819Y-52864761D02*
X110954819Y-53150475D01*
X110954819Y-53150475D02*
X110907200Y-53245713D01*
X110907200Y-53245713D02*
X110859580Y-53293332D01*
X43333333Y-64969819D02*
X43000000Y-64493628D01*
X42761905Y-64969819D02*
X42761905Y-63969819D01*
X42761905Y-63969819D02*
X43142857Y-63969819D01*
X43142857Y-63969819D02*
X43238095Y-64017438D01*
X43238095Y-64017438D02*
X43285714Y-64065057D01*
X43285714Y-64065057D02*
X43333333Y-64160295D01*
X43333333Y-64160295D02*
X43333333Y-64303152D01*
X43333333Y-64303152D02*
X43285714Y-64398390D01*
X43285714Y-64398390D02*
X43238095Y-64446009D01*
X43238095Y-64446009D02*
X43142857Y-64493628D01*
X43142857Y-64493628D02*
X42761905Y-64493628D01*
X44190476Y-64303152D02*
X44190476Y-64969819D01*
X43952381Y-63922200D02*
X43714286Y-64636485D01*
X43714286Y-64636485D02*
X44333333Y-64636485D01*
X43333333Y-60469819D02*
X43000000Y-59993628D01*
X42761905Y-60469819D02*
X42761905Y-59469819D01*
X42761905Y-59469819D02*
X43142857Y-59469819D01*
X43142857Y-59469819D02*
X43238095Y-59517438D01*
X43238095Y-59517438D02*
X43285714Y-59565057D01*
X43285714Y-59565057D02*
X43333333Y-59660295D01*
X43333333Y-59660295D02*
X43333333Y-59803152D01*
X43333333Y-59803152D02*
X43285714Y-59898390D01*
X43285714Y-59898390D02*
X43238095Y-59946009D01*
X43238095Y-59946009D02*
X43142857Y-59993628D01*
X43142857Y-59993628D02*
X42761905Y-59993628D01*
X44238095Y-59469819D02*
X43761905Y-59469819D01*
X43761905Y-59469819D02*
X43714286Y-59946009D01*
X43714286Y-59946009D02*
X43761905Y-59898390D01*
X43761905Y-59898390D02*
X43857143Y-59850771D01*
X43857143Y-59850771D02*
X44095238Y-59850771D01*
X44095238Y-59850771D02*
X44190476Y-59898390D01*
X44190476Y-59898390D02*
X44238095Y-59946009D01*
X44238095Y-59946009D02*
X44285714Y-60041247D01*
X44285714Y-60041247D02*
X44285714Y-60279342D01*
X44285714Y-60279342D02*
X44238095Y-60374580D01*
X44238095Y-60374580D02*
X44190476Y-60422200D01*
X44190476Y-60422200D02*
X44095238Y-60469819D01*
X44095238Y-60469819D02*
X43857143Y-60469819D01*
X43857143Y-60469819D02*
X43761905Y-60422200D01*
X43761905Y-60422200D02*
X43714286Y-60374580D01*
X110128541Y-76141294D02*
X110176161Y-76188913D01*
X110176161Y-76188913D02*
X110223780Y-76331770D01*
X110223780Y-76331770D02*
X110223780Y-76427008D01*
X110223780Y-76427008D02*
X110176161Y-76569865D01*
X110176161Y-76569865D02*
X110080922Y-76665103D01*
X110080922Y-76665103D02*
X109985684Y-76712722D01*
X109985684Y-76712722D02*
X109795208Y-76760341D01*
X109795208Y-76760341D02*
X109652351Y-76760341D01*
X109652351Y-76760341D02*
X109461875Y-76712722D01*
X109461875Y-76712722D02*
X109366637Y-76665103D01*
X109366637Y-76665103D02*
X109271399Y-76569865D01*
X109271399Y-76569865D02*
X109223780Y-76427008D01*
X109223780Y-76427008D02*
X109223780Y-76331770D01*
X109223780Y-76331770D02*
X109271399Y-76188913D01*
X109271399Y-76188913D02*
X109319018Y-76141294D01*
X109557113Y-75284151D02*
X110223780Y-75284151D01*
X109176161Y-75522246D02*
X109890446Y-75760341D01*
X109890446Y-75760341D02*
X109890446Y-75141294D01*
X47051905Y-57389819D02*
X47051905Y-56389819D01*
X47051905Y-56389819D02*
X47290000Y-56389819D01*
X47290000Y-56389819D02*
X47432857Y-56437438D01*
X47432857Y-56437438D02*
X47528095Y-56532676D01*
X47528095Y-56532676D02*
X47575714Y-56627914D01*
X47575714Y-56627914D02*
X47623333Y-56818390D01*
X47623333Y-56818390D02*
X47623333Y-56961247D01*
X47623333Y-56961247D02*
X47575714Y-57151723D01*
X47575714Y-57151723D02*
X47528095Y-57246961D01*
X47528095Y-57246961D02*
X47432857Y-57342200D01*
X47432857Y-57342200D02*
X47290000Y-57389819D01*
X47290000Y-57389819D02*
X47051905Y-57389819D01*
X48575714Y-57389819D02*
X48004286Y-57389819D01*
X48290000Y-57389819D02*
X48290000Y-56389819D01*
X48290000Y-56389819D02*
X48194762Y-56532676D01*
X48194762Y-56532676D02*
X48099524Y-56627914D01*
X48099524Y-56627914D02*
X48004286Y-56675533D01*
X117859580Y-69166666D02*
X117907200Y-69214285D01*
X117907200Y-69214285D02*
X117954819Y-69357142D01*
X117954819Y-69357142D02*
X117954819Y-69452380D01*
X117954819Y-69452380D02*
X117907200Y-69595237D01*
X117907200Y-69595237D02*
X117811961Y-69690475D01*
X117811961Y-69690475D02*
X117716723Y-69738094D01*
X117716723Y-69738094D02*
X117526247Y-69785713D01*
X117526247Y-69785713D02*
X117383390Y-69785713D01*
X117383390Y-69785713D02*
X117192914Y-69738094D01*
X117192914Y-69738094D02*
X117097676Y-69690475D01*
X117097676Y-69690475D02*
X117002438Y-69595237D01*
X117002438Y-69595237D02*
X116954819Y-69452380D01*
X116954819Y-69452380D02*
X116954819Y-69357142D01*
X116954819Y-69357142D02*
X117002438Y-69214285D01*
X117002438Y-69214285D02*
X117050057Y-69166666D01*
X117954819Y-68214285D02*
X117954819Y-68785713D01*
X117954819Y-68499999D02*
X116954819Y-68499999D01*
X116954819Y-68499999D02*
X117097676Y-68595237D01*
X117097676Y-68595237D02*
X117192914Y-68690475D01*
X117192914Y-68690475D02*
X117240533Y-68785713D01*
X116351692Y-70206015D02*
X115875501Y-70539348D01*
X116351692Y-70777443D02*
X115351692Y-70777443D01*
X115351692Y-70777443D02*
X115351692Y-70396491D01*
X115351692Y-70396491D02*
X115399311Y-70301253D01*
X115399311Y-70301253D02*
X115446930Y-70253634D01*
X115446930Y-70253634D02*
X115542168Y-70206015D01*
X115542168Y-70206015D02*
X115685025Y-70206015D01*
X115685025Y-70206015D02*
X115780263Y-70253634D01*
X115780263Y-70253634D02*
X115827882Y-70301253D01*
X115827882Y-70301253D02*
X115875501Y-70396491D01*
X115875501Y-70396491D02*
X115875501Y-70777443D01*
X116351692Y-69253634D02*
X116351692Y-69825062D01*
X116351692Y-69539348D02*
X115351692Y-69539348D01*
X115351692Y-69539348D02*
X115494549Y-69634586D01*
X115494549Y-69634586D02*
X115589787Y-69729824D01*
X115589787Y-69729824D02*
X115637406Y-69825062D01*
X47051905Y-61889819D02*
X47051905Y-60889819D01*
X47051905Y-60889819D02*
X47290000Y-60889819D01*
X47290000Y-60889819D02*
X47432857Y-60937438D01*
X47432857Y-60937438D02*
X47528095Y-61032676D01*
X47528095Y-61032676D02*
X47575714Y-61127914D01*
X47575714Y-61127914D02*
X47623333Y-61318390D01*
X47623333Y-61318390D02*
X47623333Y-61461247D01*
X47623333Y-61461247D02*
X47575714Y-61651723D01*
X47575714Y-61651723D02*
X47528095Y-61746961D01*
X47528095Y-61746961D02*
X47432857Y-61842200D01*
X47432857Y-61842200D02*
X47290000Y-61889819D01*
X47290000Y-61889819D02*
X47051905Y-61889819D01*
X48004286Y-60985057D02*
X48051905Y-60937438D01*
X48051905Y-60937438D02*
X48147143Y-60889819D01*
X48147143Y-60889819D02*
X48385238Y-60889819D01*
X48385238Y-60889819D02*
X48480476Y-60937438D01*
X48480476Y-60937438D02*
X48528095Y-60985057D01*
X48528095Y-60985057D02*
X48575714Y-61080295D01*
X48575714Y-61080295D02*
X48575714Y-61175533D01*
X48575714Y-61175533D02*
X48528095Y-61318390D01*
X48528095Y-61318390D02*
X47956667Y-61889819D01*
X47956667Y-61889819D02*
X48575714Y-61889819D01*
X110954819Y-58166666D02*
X110478628Y-58499999D01*
X110954819Y-58738094D02*
X109954819Y-58738094D01*
X109954819Y-58738094D02*
X109954819Y-58357142D01*
X109954819Y-58357142D02*
X110002438Y-58261904D01*
X110002438Y-58261904D02*
X110050057Y-58214285D01*
X110050057Y-58214285D02*
X110145295Y-58166666D01*
X110145295Y-58166666D02*
X110288152Y-58166666D01*
X110288152Y-58166666D02*
X110383390Y-58214285D01*
X110383390Y-58214285D02*
X110431009Y-58261904D01*
X110431009Y-58261904D02*
X110478628Y-58357142D01*
X110478628Y-58357142D02*
X110478628Y-58738094D01*
X109954819Y-57833332D02*
X109954819Y-57214285D01*
X109954819Y-57214285D02*
X110335771Y-57547618D01*
X110335771Y-57547618D02*
X110335771Y-57404761D01*
X110335771Y-57404761D02*
X110383390Y-57309523D01*
X110383390Y-57309523D02*
X110431009Y-57261904D01*
X110431009Y-57261904D02*
X110526247Y-57214285D01*
X110526247Y-57214285D02*
X110764342Y-57214285D01*
X110764342Y-57214285D02*
X110859580Y-57261904D01*
X110859580Y-57261904D02*
X110907200Y-57309523D01*
X110907200Y-57309523D02*
X110954819Y-57404761D01*
X110954819Y-57404761D02*
X110954819Y-57690475D01*
X110954819Y-57690475D02*
X110907200Y-57785713D01*
X110907200Y-57785713D02*
X110859580Y-57833332D01*
X46996905Y-66304819D02*
X46996905Y-65304819D01*
X46996905Y-65304819D02*
X47235000Y-65304819D01*
X47235000Y-65304819D02*
X47377857Y-65352438D01*
X47377857Y-65352438D02*
X47473095Y-65447676D01*
X47473095Y-65447676D02*
X47520714Y-65542914D01*
X47520714Y-65542914D02*
X47568333Y-65733390D01*
X47568333Y-65733390D02*
X47568333Y-65876247D01*
X47568333Y-65876247D02*
X47520714Y-66066723D01*
X47520714Y-66066723D02*
X47473095Y-66161961D01*
X47473095Y-66161961D02*
X47377857Y-66257200D01*
X47377857Y-66257200D02*
X47235000Y-66304819D01*
X47235000Y-66304819D02*
X46996905Y-66304819D01*
X47901667Y-65304819D02*
X48520714Y-65304819D01*
X48520714Y-65304819D02*
X48187381Y-65685771D01*
X48187381Y-65685771D02*
X48330238Y-65685771D01*
X48330238Y-65685771D02*
X48425476Y-65733390D01*
X48425476Y-65733390D02*
X48473095Y-65781009D01*
X48473095Y-65781009D02*
X48520714Y-65876247D01*
X48520714Y-65876247D02*
X48520714Y-66114342D01*
X48520714Y-66114342D02*
X48473095Y-66209580D01*
X48473095Y-66209580D02*
X48425476Y-66257200D01*
X48425476Y-66257200D02*
X48330238Y-66304819D01*
X48330238Y-66304819D02*
X48044524Y-66304819D01*
X48044524Y-66304819D02*
X47949286Y-66257200D01*
X47949286Y-66257200D02*
X47901667Y-66209580D01*
X47051905Y-70389819D02*
X47051905Y-69389819D01*
X47051905Y-69389819D02*
X47290000Y-69389819D01*
X47290000Y-69389819D02*
X47432857Y-69437438D01*
X47432857Y-69437438D02*
X47528095Y-69532676D01*
X47528095Y-69532676D02*
X47575714Y-69627914D01*
X47575714Y-69627914D02*
X47623333Y-69818390D01*
X47623333Y-69818390D02*
X47623333Y-69961247D01*
X47623333Y-69961247D02*
X47575714Y-70151723D01*
X47575714Y-70151723D02*
X47528095Y-70246961D01*
X47528095Y-70246961D02*
X47432857Y-70342200D01*
X47432857Y-70342200D02*
X47290000Y-70389819D01*
X47290000Y-70389819D02*
X47051905Y-70389819D01*
X48480476Y-69723152D02*
X48480476Y-70389819D01*
X48242381Y-69342200D02*
X48004286Y-70056485D01*
X48004286Y-70056485D02*
X48623333Y-70056485D01*
X118937103Y-59822812D02*
X118889484Y-59870432D01*
X118889484Y-59870432D02*
X118746627Y-59918051D01*
X118746627Y-59918051D02*
X118651389Y-59918051D01*
X118651389Y-59918051D02*
X118508532Y-59870432D01*
X118508532Y-59870432D02*
X118413294Y-59775193D01*
X118413294Y-59775193D02*
X118365675Y-59679955D01*
X118365675Y-59679955D02*
X118318056Y-59489479D01*
X118318056Y-59489479D02*
X118318056Y-59346622D01*
X118318056Y-59346622D02*
X118365675Y-59156146D01*
X118365675Y-59156146D02*
X118413294Y-59060908D01*
X118413294Y-59060908D02*
X118508532Y-58965670D01*
X118508532Y-58965670D02*
X118651389Y-58918051D01*
X118651389Y-58918051D02*
X118746627Y-58918051D01*
X118746627Y-58918051D02*
X118889484Y-58965670D01*
X118889484Y-58965670D02*
X118937103Y-59013289D01*
X119318056Y-59013289D02*
X119365675Y-58965670D01*
X119365675Y-58965670D02*
X119460913Y-58918051D01*
X119460913Y-58918051D02*
X119699008Y-58918051D01*
X119699008Y-58918051D02*
X119794246Y-58965670D01*
X119794246Y-58965670D02*
X119841865Y-59013289D01*
X119841865Y-59013289D02*
X119889484Y-59108527D01*
X119889484Y-59108527D02*
X119889484Y-59203765D01*
X119889484Y-59203765D02*
X119841865Y-59346622D01*
X119841865Y-59346622D02*
X119270437Y-59918051D01*
X119270437Y-59918051D02*
X119889484Y-59918051D01*
X120901539Y-64976310D02*
X120425348Y-65309643D01*
X120901539Y-65547738D02*
X119901539Y-65547738D01*
X119901539Y-65547738D02*
X119901539Y-65166786D01*
X119901539Y-65166786D02*
X119949158Y-65071548D01*
X119949158Y-65071548D02*
X119996777Y-65023929D01*
X119996777Y-65023929D02*
X120092015Y-64976310D01*
X120092015Y-64976310D02*
X120234872Y-64976310D01*
X120234872Y-64976310D02*
X120330110Y-65023929D01*
X120330110Y-65023929D02*
X120377729Y-65071548D01*
X120377729Y-65071548D02*
X120425348Y-65166786D01*
X120425348Y-65166786D02*
X120425348Y-65547738D01*
X119996777Y-64595357D02*
X119949158Y-64547738D01*
X119949158Y-64547738D02*
X119901539Y-64452500D01*
X119901539Y-64452500D02*
X119901539Y-64214405D01*
X119901539Y-64214405D02*
X119949158Y-64119167D01*
X119949158Y-64119167D02*
X119996777Y-64071548D01*
X119996777Y-64071548D02*
X120092015Y-64023929D01*
X120092015Y-64023929D02*
X120187253Y-64023929D01*
X120187253Y-64023929D02*
X120330110Y-64071548D01*
X120330110Y-64071548D02*
X120901539Y-64642976D01*
X120901539Y-64642976D02*
X120901539Y-64023929D01*
X64074819Y-51833333D02*
X64789104Y-51833333D01*
X64789104Y-51833333D02*
X64931961Y-51880952D01*
X64931961Y-51880952D02*
X65027200Y-51976190D01*
X65027200Y-51976190D02*
X65074819Y-52119047D01*
X65074819Y-52119047D02*
X65074819Y-52214285D01*
X65074819Y-50833333D02*
X65074819Y-51404761D01*
X65074819Y-51119047D02*
X64074819Y-51119047D01*
X64074819Y-51119047D02*
X64217676Y-51214285D01*
X64217676Y-51214285D02*
X64312914Y-51309523D01*
X64312914Y-51309523D02*
X64360533Y-51404761D01*
X43278333Y-69469819D02*
X42945000Y-68993628D01*
X42706905Y-69469819D02*
X42706905Y-68469819D01*
X42706905Y-68469819D02*
X43087857Y-68469819D01*
X43087857Y-68469819D02*
X43183095Y-68517438D01*
X43183095Y-68517438D02*
X43230714Y-68565057D01*
X43230714Y-68565057D02*
X43278333Y-68660295D01*
X43278333Y-68660295D02*
X43278333Y-68803152D01*
X43278333Y-68803152D02*
X43230714Y-68898390D01*
X43230714Y-68898390D02*
X43183095Y-68946009D01*
X43183095Y-68946009D02*
X43087857Y-68993628D01*
X43087857Y-68993628D02*
X42706905Y-68993628D01*
X44135476Y-68469819D02*
X43945000Y-68469819D01*
X43945000Y-68469819D02*
X43849762Y-68517438D01*
X43849762Y-68517438D02*
X43802143Y-68565057D01*
X43802143Y-68565057D02*
X43706905Y-68707914D01*
X43706905Y-68707914D02*
X43659286Y-68898390D01*
X43659286Y-68898390D02*
X43659286Y-69279342D01*
X43659286Y-69279342D02*
X43706905Y-69374580D01*
X43706905Y-69374580D02*
X43754524Y-69422200D01*
X43754524Y-69422200D02*
X43849762Y-69469819D01*
X43849762Y-69469819D02*
X44040238Y-69469819D01*
X44040238Y-69469819D02*
X44135476Y-69422200D01*
X44135476Y-69422200D02*
X44183095Y-69374580D01*
X44183095Y-69374580D02*
X44230714Y-69279342D01*
X44230714Y-69279342D02*
X44230714Y-69041247D01*
X44230714Y-69041247D02*
X44183095Y-68946009D01*
X44183095Y-68946009D02*
X44135476Y-68898390D01*
X44135476Y-68898390D02*
X44040238Y-68850771D01*
X44040238Y-68850771D02*
X43849762Y-68850771D01*
X43849762Y-68850771D02*
X43754524Y-68898390D01*
X43754524Y-68898390D02*
X43706905Y-68946009D01*
X43706905Y-68946009D02*
X43659286Y-69041247D01*
X108383580Y-71736098D02*
X108050247Y-71259907D01*
X107812152Y-71736098D02*
X107812152Y-70736098D01*
X107812152Y-70736098D02*
X108193104Y-70736098D01*
X108193104Y-70736098D02*
X108288342Y-70783717D01*
X108288342Y-70783717D02*
X108335961Y-70831336D01*
X108335961Y-70831336D02*
X108383580Y-70926574D01*
X108383580Y-70926574D02*
X108383580Y-71069431D01*
X108383580Y-71069431D02*
X108335961Y-71164669D01*
X108335961Y-71164669D02*
X108288342Y-71212288D01*
X108288342Y-71212288D02*
X108193104Y-71259907D01*
X108193104Y-71259907D02*
X107812152Y-71259907D01*
X109335961Y-71736098D02*
X108764533Y-71736098D01*
X109050247Y-71736098D02*
X109050247Y-70736098D01*
X109050247Y-70736098D02*
X108955009Y-70878955D01*
X108955009Y-70878955D02*
X108859771Y-70974193D01*
X108859771Y-70974193D02*
X108764533Y-71021812D01*
X109716914Y-70831336D02*
X109764533Y-70783717D01*
X109764533Y-70783717D02*
X109859771Y-70736098D01*
X109859771Y-70736098D02*
X110097866Y-70736098D01*
X110097866Y-70736098D02*
X110193104Y-70783717D01*
X110193104Y-70783717D02*
X110240723Y-70831336D01*
X110240723Y-70831336D02*
X110288342Y-70926574D01*
X110288342Y-70926574D02*
X110288342Y-71021812D01*
X110288342Y-71021812D02*
X110240723Y-71164669D01*
X110240723Y-71164669D02*
X109669295Y-71736098D01*
X109669295Y-71736098D02*
X110288342Y-71736098D01*
X96436666Y-77054819D02*
X96436666Y-77769104D01*
X96436666Y-77769104D02*
X96389047Y-77911961D01*
X96389047Y-77911961D02*
X96293809Y-78007200D01*
X96293809Y-78007200D02*
X96150952Y-78054819D01*
X96150952Y-78054819D02*
X96055714Y-78054819D01*
X97389047Y-77054819D02*
X96912857Y-77054819D01*
X96912857Y-77054819D02*
X96865238Y-77531009D01*
X96865238Y-77531009D02*
X96912857Y-77483390D01*
X96912857Y-77483390D02*
X97008095Y-77435771D01*
X97008095Y-77435771D02*
X97246190Y-77435771D01*
X97246190Y-77435771D02*
X97341428Y-77483390D01*
X97341428Y-77483390D02*
X97389047Y-77531009D01*
X97389047Y-77531009D02*
X97436666Y-77626247D01*
X97436666Y-77626247D02*
X97436666Y-77864342D01*
X97436666Y-77864342D02*
X97389047Y-77959580D01*
X97389047Y-77959580D02*
X97341428Y-78007200D01*
X97341428Y-78007200D02*
X97246190Y-78054819D01*
X97246190Y-78054819D02*
X97008095Y-78054819D01*
X97008095Y-78054819D02*
X96912857Y-78007200D01*
X96912857Y-78007200D02*
X96865238Y-77959580D01*
D11*
%TO.C,SW3*%
X123157887Y-63944775D02*
X123157887Y-65444775D01*
X124407887Y-67944775D02*
X128907887Y-67944775D01*
X128907887Y-61444775D02*
X124407887Y-61444775D01*
X130157887Y-65444775D02*
X130157887Y-63944775D01*
%TO.C,SW4*%
X114500000Y-53750000D02*
X114500000Y-55250000D01*
X115750000Y-57750000D02*
X120250000Y-57750000D01*
X120250000Y-51250000D02*
X115750000Y-51250000D01*
X121500000Y-55250000D02*
X121500000Y-53750000D01*
%TO.C,SW2*%
X105608443Y-64965803D02*
X105608443Y-66465803D01*
X106858443Y-68965803D02*
X111358443Y-68965803D01*
X111358443Y-62465803D02*
X106858443Y-62465803D01*
X112608443Y-66465803D02*
X112608443Y-64965803D01*
%TO.C,SW1*%
X121694703Y-76739450D02*
X121694703Y-75239450D01*
X120444703Y-72739450D02*
X115944703Y-72739450D01*
X115944703Y-79239450D02*
X120444703Y-79239450D01*
X114694703Y-75239450D02*
X114694703Y-76739450D01*
%TO.C,R7*%
X43737258Y-71062500D02*
X43262742Y-71062500D01*
X43737258Y-72107500D02*
X43262742Y-72107500D01*
%TO.C,C3*%
X110140000Y-55372164D02*
X110140000Y-55587836D01*
X110860000Y-55372164D02*
X110860000Y-55587836D01*
%TO.C,R4*%
X43737258Y-62562500D02*
X43262742Y-62562500D01*
X43737258Y-63607500D02*
X43262742Y-63607500D01*
%TO.C,R5*%
X43737258Y-58062500D02*
X43262742Y-58062500D01*
X43737258Y-59107500D02*
X43262742Y-59107500D01*
%TO.C,C4*%
X109408961Y-74082464D02*
X109408961Y-73866792D01*
X110128961Y-74082464D02*
X110128961Y-73866792D01*
%TO.C,D1*%
X46105000Y-57625000D02*
X46105000Y-59545000D01*
X46105000Y-59545000D02*
X48790000Y-59545000D01*
X48790000Y-57625000D02*
X46105000Y-57625000D01*
%TO.C,C1*%
X117140000Y-66607836D02*
X117140000Y-66392164D01*
X117860000Y-66607836D02*
X117860000Y-66392164D01*
%TO.C,R1*%
X115374373Y-67601607D02*
X115374373Y-67127091D01*
X116419373Y-67601607D02*
X116419373Y-67127091D01*
%TO.C,D2*%
X46105000Y-62125000D02*
X46105000Y-64045000D01*
X46105000Y-64045000D02*
X48790000Y-64045000D01*
X48790000Y-62125000D02*
X46105000Y-62125000D01*
%TO.C,R3*%
X111477500Y-57237258D02*
X111477500Y-56762742D01*
X112522500Y-57237258D02*
X112522500Y-56762742D01*
%TO.C,D3*%
X46050000Y-66540000D02*
X46050000Y-68460000D01*
X46050000Y-68460000D02*
X48735000Y-68460000D01*
X48735000Y-66540000D02*
X46050000Y-66540000D01*
%TO.C,D4*%
X46105000Y-70625000D02*
X46105000Y-72545000D01*
X46105000Y-72545000D02*
X48790000Y-72545000D01*
X48790000Y-70625000D02*
X46105000Y-70625000D01*
%TO.C,C2*%
X118731996Y-60893190D02*
X118731996Y-61108862D01*
X119451996Y-60893190D02*
X119451996Y-61108862D01*
%TO.C,R2*%
X119924220Y-62546902D02*
X119924220Y-62072386D01*
X120969220Y-62546902D02*
X120969220Y-62072386D01*
%TO.C,J1*%
X65620000Y-52880000D02*
X65620000Y-51500000D01*
X67000000Y-52880000D02*
X65620000Y-52880000D01*
X68270000Y-50120000D02*
X76000000Y-50120000D01*
X68270000Y-52880000D02*
X68270000Y-50120000D01*
X68270000Y-52880000D02*
X76000000Y-52880000D01*
X76000000Y-52880000D02*
X76000000Y-50120000D01*
%TO.C,R6*%
X43682258Y-67062500D02*
X43207742Y-67062500D01*
X43682258Y-68107500D02*
X43207742Y-68107500D01*
%TO.C,R12*%
X111003938Y-72544021D02*
X111003938Y-73018537D01*
X112048938Y-72544021D02*
X112048938Y-73018537D01*
%TO.C,J5*%
X92210000Y-53590000D02*
X101330000Y-53590000D01*
X92210000Y-76710000D02*
X92210000Y-53590000D01*
X93520000Y-54890000D02*
X100020000Y-54890000D01*
X93520000Y-75410000D02*
X93520000Y-54890000D01*
X100020000Y-54890000D02*
X100020000Y-63100000D01*
X100020000Y-63100000D02*
X101330000Y-63100000D01*
X100020000Y-67200000D02*
X100020000Y-75410000D01*
X100020000Y-75410000D02*
X93520000Y-75410000D01*
X101330000Y-53590000D02*
X101330000Y-76710000D01*
X101330000Y-67200000D02*
X100020000Y-67200000D01*
X101330000Y-76710000D02*
X92210000Y-76710000D01*
X101720000Y-71500000D02*
X102720000Y-72000000D01*
X102720000Y-71000000D02*
X101720000Y-71500000D01*
X102720000Y-72000000D02*
X102720000Y-71000000D01*
%TD*%
%LPC*%
D12*
%TO.C,SW3*%
X123407887Y-62444775D03*
X129907887Y-62444775D03*
X123407887Y-66944775D03*
X129907887Y-66944775D03*
%TD*%
%TO.C,SW4*%
X114750000Y-52250000D03*
X121250000Y-52250000D03*
X114750000Y-56750000D03*
X121250000Y-56750000D03*
%TD*%
%TO.C,SW2*%
X105858443Y-63465803D03*
X112358443Y-63465803D03*
X105858443Y-67965803D03*
X112358443Y-67965803D03*
%TD*%
%TO.C,SW1*%
X121444703Y-78239450D03*
X114944703Y-78239450D03*
X121444703Y-73739450D03*
X114944703Y-73739450D03*
%TD*%
D13*
%TO.C,R7*%
X44325000Y-71585000D03*
X42675000Y-71585000D03*
%TD*%
D14*
%TO.C,C3*%
X110500000Y-55000000D03*
X110500000Y-55960000D03*
%TD*%
D13*
%TO.C,R4*%
X44325000Y-63085000D03*
X42675000Y-63085000D03*
%TD*%
%TO.C,R5*%
X44325000Y-58585000D03*
X42675000Y-58585000D03*
%TD*%
D15*
%TO.C,C4*%
X109768961Y-74454628D03*
X109768961Y-73494628D03*
%TD*%
D16*
%TO.C,D1*%
X46852500Y-58585000D03*
X48727500Y-58585000D03*
%TD*%
D15*
%TO.C,C1*%
X117500000Y-66980000D03*
X117500000Y-66020000D03*
%TD*%
D17*
%TO.C,R1*%
X115896873Y-68189349D03*
X115896873Y-66539349D03*
%TD*%
D16*
%TO.C,D2*%
X46852500Y-63085000D03*
X48727500Y-63085000D03*
%TD*%
D17*
%TO.C,R3*%
X112000000Y-57825000D03*
X112000000Y-56175000D03*
%TD*%
D16*
%TO.C,D3*%
X46797500Y-67500000D03*
X48672500Y-67500000D03*
%TD*%
%TO.C,D4*%
X46852500Y-71585000D03*
X48727500Y-71585000D03*
%TD*%
D14*
%TO.C,C2*%
X119091996Y-60521026D03*
X119091996Y-61481026D03*
%TD*%
D17*
%TO.C,R2*%
X120446720Y-63134644D03*
X120446720Y-61484644D03*
%TD*%
D18*
%TO.C,J1*%
X67000000Y-51500000D03*
D19*
X69540000Y-51500000D03*
X72080000Y-51500000D03*
X74620000Y-51500000D03*
%TD*%
D13*
%TO.C,R6*%
X44270000Y-67585000D03*
X42620000Y-67585000D03*
%TD*%
D20*
%TO.C,R12*%
X111526438Y-71956279D03*
X111526438Y-73606279D03*
%TD*%
D21*
%TO.C,J5*%
X98040000Y-71500000D03*
D19*
X95500000Y-71500000D03*
X98040000Y-68960000D03*
X95500000Y-68960000D03*
X98040000Y-66420000D03*
X95500000Y-66420000D03*
X98040000Y-63880000D03*
X95500000Y-63880000D03*
X98040000Y-61340000D03*
X95500000Y-61340000D03*
X98040000Y-58800000D03*
X95500000Y-58800000D03*
%TD*%
%LPD*%
M02*
