%TF.GenerationSoftware,KiCad,Pcbnew,9.0.3*%
%TF.CreationDate,2025-08-27T14:48:30+03:00*%
%TF.ProjectId,keypad,6b657970-6164-42e6-9b69-6361645f7063,rev?*%
%TF.SameCoordinates,Original*%
%TF.FileFunction,Copper,L1,Top*%
%TF.FilePolarity,Positive*%
%FSLAX46Y46*%
G04 Gerber Fmt 4.6, Leading zero omitted, Abs format (unit mm)*
G04 Created by KiCad (PCBNEW 9.0.3) date 2025-08-27 14:48:30*
%MOMM*%
%LPD*%
G01*
G04 APERTURE LIST*
G04 Aperture macros list*
%AMRoundRect*
0 Rectangle with rounded corners*
0 $1 Rounding radius*
0 $2 $3 $4 $5 $6 $7 $8 $9 X,Y pos of 4 corners*
0 Add a 4 corners polygon primitive as box body*
4,1,4,$2,$3,$4,$5,$6,$7,$8,$9,$2,$3,0*
0 Add four circle primitives for the rounded corners*
1,1,$1+$1,$2,$3*
1,1,$1+$1,$4,$5*
1,1,$1+$1,$6,$7*
1,1,$1+$1,$8,$9*
0 Add four rect primitives between the rounded corners*
20,1,$1+$1,$2,$3,$4,$5,0*
20,1,$1+$1,$4,$5,$6,$7,0*
20,1,$1+$1,$6,$7,$8,$9,0*
20,1,$1+$1,$8,$9,$2,$3,0*%
G04 Aperture macros list end*
%TA.AperFunction,ComponentPad*%
%ADD10C,2.000000*%
%TD*%
%TA.AperFunction,SMDPad,CuDef*%
%ADD11RoundRect,0.200000X0.200000X0.275000X-0.200000X0.275000X-0.200000X-0.275000X0.200000X-0.275000X0*%
%TD*%
%TA.AperFunction,SMDPad,CuDef*%
%ADD12RoundRect,0.140000X-0.170000X0.140000X-0.170000X-0.140000X0.170000X-0.140000X0.170000X0.140000X0*%
%TD*%
%TA.AperFunction,SMDPad,CuDef*%
%ADD13RoundRect,0.140000X0.170000X-0.140000X0.170000X0.140000X-0.170000X0.140000X-0.170000X-0.140000X0*%
%TD*%
%TA.AperFunction,SMDPad,CuDef*%
%ADD14RoundRect,0.243750X-0.243750X-0.456250X0.243750X-0.456250X0.243750X0.456250X-0.243750X0.456250X0*%
%TD*%
%TA.AperFunction,SMDPad,CuDef*%
%ADD15RoundRect,0.200000X0.275000X-0.200000X0.275000X0.200000X-0.275000X0.200000X-0.275000X-0.200000X0*%
%TD*%
%TA.AperFunction,ComponentPad*%
%ADD16R,1.700000X1.700000*%
%TD*%
%TA.AperFunction,ComponentPad*%
%ADD17C,1.700000*%
%TD*%
%TA.AperFunction,SMDPad,CuDef*%
%ADD18RoundRect,0.200000X-0.275000X0.200000X-0.275000X-0.200000X0.275000X-0.200000X0.275000X0.200000X0*%
%TD*%
%TA.AperFunction,ComponentPad*%
%ADD19RoundRect,0.250000X0.600000X0.600000X-0.600000X0.600000X-0.600000X-0.600000X0.600000X-0.600000X0*%
%TD*%
%TA.AperFunction,ViaPad*%
%ADD20C,0.600000*%
%TD*%
%TA.AperFunction,Conductor*%
%ADD21C,0.254000*%
%TD*%
%TA.AperFunction,Conductor*%
%ADD22C,0.508000*%
%TD*%
%TA.AperFunction,Conductor*%
%ADD23C,0.400000*%
%TD*%
G04 APERTURE END LIST*
D10*
%TO.P,SW3,2,2*%
%TO.N,BTN3*%
X123407887Y-62444775D03*
X129907887Y-62444775D03*
%TO.P,SW3,1,1*%
%TO.N,GND*%
X123407887Y-66944775D03*
X129907887Y-66944775D03*
%TD*%
%TO.P,SW4,1,1*%
%TO.N,GND*%
X114750000Y-52250000D03*
X121250000Y-52250000D03*
%TO.P,SW4,2,2*%
%TO.N,BTN4*%
X114750000Y-56750000D03*
X121250000Y-56750000D03*
%TD*%
%TO.P,SW2,1,1*%
%TO.N,GND*%
X105858443Y-63465803D03*
X112358443Y-63465803D03*
%TO.P,SW2,2,2*%
%TO.N,BTN2*%
X105858443Y-67965803D03*
X112358443Y-67965803D03*
%TD*%
%TO.P,SW1,1,1*%
%TO.N,GND*%
X121444703Y-78239450D03*
X114944703Y-78239450D03*
%TO.P,SW1,2,2*%
%TO.N,BTN1*%
X121444703Y-73739450D03*
X114944703Y-73739450D03*
%TD*%
D11*
%TO.P,R7,1*%
%TO.N,Net-(D4-K)*%
X44325000Y-71585000D03*
%TO.P,R7,2*%
%TO.N,GND*%
X42675000Y-71585000D03*
%TD*%
D12*
%TO.P,C3,1*%
%TO.N,GND*%
X110500000Y-55000000D03*
%TO.P,C3,2*%
%TO.N,BTN4*%
X110500000Y-55960000D03*
%TD*%
D11*
%TO.P,R4,1*%
%TO.N,Net-(D2-K)*%
X44325000Y-63085000D03*
%TO.P,R4,2*%
%TO.N,GND*%
X42675000Y-63085000D03*
%TD*%
%TO.P,R5,1*%
%TO.N,Net-(D1-K)*%
X44325000Y-58585000D03*
%TO.P,R5,2*%
%TO.N,GND*%
X42675000Y-58585000D03*
%TD*%
D13*
%TO.P,C4,1*%
%TO.N,GND*%
X109768961Y-74454628D03*
%TO.P,C4,2*%
%TO.N,BTN1*%
X109768961Y-73494628D03*
%TD*%
D14*
%TO.P,D1,1,K*%
%TO.N,Net-(D1-K)*%
X46852500Y-58585000D03*
%TO.P,D1,2,A*%
%TO.N,LED1*%
X48727500Y-58585000D03*
%TD*%
D13*
%TO.P,C1,1*%
%TO.N,GND*%
X117500000Y-66980000D03*
%TO.P,C1,2*%
%TO.N,BTN2*%
X117500000Y-66020000D03*
%TD*%
D15*
%TO.P,R1,1*%
%TO.N,+3.3V*%
X115896873Y-68189349D03*
%TO.P,R1,2*%
%TO.N,BTN2*%
X115896873Y-66539349D03*
%TD*%
D14*
%TO.P,D2,1,K*%
%TO.N,Net-(D2-K)*%
X46852500Y-63085000D03*
%TO.P,D2,2,A*%
%TO.N,LED2*%
X48727500Y-63085000D03*
%TD*%
D15*
%TO.P,R3,1*%
%TO.N,+3.3V*%
X112000000Y-57825000D03*
%TO.P,R3,2*%
%TO.N,BTN4*%
X112000000Y-56175000D03*
%TD*%
D14*
%TO.P,D3,1,K*%
%TO.N,Net-(D3-K)*%
X46797500Y-67500000D03*
%TO.P,D3,2,A*%
%TO.N,LED3*%
X48672500Y-67500000D03*
%TD*%
%TO.P,D4,1,K*%
%TO.N,Net-(D4-K)*%
X46852500Y-71585000D03*
%TO.P,D4,2,A*%
%TO.N,LED4*%
X48727500Y-71585000D03*
%TD*%
D12*
%TO.P,C2,1*%
%TO.N,GND*%
X119091996Y-60521026D03*
%TO.P,C2,2*%
%TO.N,BTN3*%
X119091996Y-61481026D03*
%TD*%
D15*
%TO.P,R2,1*%
%TO.N,+3.3V*%
X120446720Y-63134644D03*
%TO.P,R2,2*%
%TO.N,BTN3*%
X120446720Y-61484644D03*
%TD*%
D16*
%TO.P,J1,1,Pin_1*%
%TO.N,PB7_SDA*%
X67000000Y-51500000D03*
D17*
%TO.P,J1,2,Pin_2*%
%TO.N,PB6_SCL*%
X69540000Y-51500000D03*
%TO.P,J1,3,Pin_3*%
%TO.N,GND*%
X72080000Y-51500000D03*
%TO.P,J1,4,Pin_4*%
%TO.N,+3.3V*%
X74620000Y-51500000D03*
%TD*%
D11*
%TO.P,R6,1*%
%TO.N,Net-(D3-K)*%
X44270000Y-67585000D03*
%TO.P,R6,2*%
%TO.N,GND*%
X42620000Y-67585000D03*
%TD*%
D18*
%TO.P,R12,1*%
%TO.N,+3.3V*%
X111526438Y-71956279D03*
%TO.P,R12,2*%
%TO.N,BTN1*%
X111526438Y-73606279D03*
%TD*%
D19*
%TO.P,J5,1,Pin_1*%
%TO.N,+3.3V*%
X98040000Y-71500000D03*
D17*
%TO.P,J5,2,Pin_2*%
%TO.N,GND*%
X95500000Y-71500000D03*
%TO.P,J5,3,Pin_3*%
%TO.N,PB6_SCL*%
X98040000Y-68960000D03*
%TO.P,J5,4,Pin_4*%
%TO.N,PB7_SDA*%
X95500000Y-68960000D03*
%TO.P,J5,5,Pin_5*%
%TO.N,LED1*%
X98040000Y-66420000D03*
%TO.P,J5,6,Pin_6*%
%TO.N,BTN4*%
X95500000Y-66420000D03*
%TO.P,J5,7,Pin_7*%
%TO.N,LED2*%
X98040000Y-63880000D03*
%TO.P,J5,8,Pin_8*%
%TO.N,BTN3*%
X95500000Y-63880000D03*
%TO.P,J5,9,Pin_9*%
%TO.N,LED3*%
X98040000Y-61340000D03*
%TO.P,J5,10,Pin_10*%
%TO.N,BTN2*%
X95500000Y-61340000D03*
%TO.P,J5,11,Pin_11*%
%TO.N,LED4*%
X98040000Y-58800000D03*
%TO.P,J5,12,Pin_12*%
%TO.N,BTN1*%
X95500000Y-58800000D03*
%TD*%
D20*
%TO.N,GND*%
X127500000Y-65500000D03*
X86000000Y-71500000D03*
X83000000Y-80500000D03*
X114000000Y-64500000D03*
X116500000Y-65000000D03*
X117500000Y-68000000D03*
X118500000Y-65000000D03*
X122000000Y-68500000D03*
X103500000Y-73500000D03*
X108000000Y-54500000D03*
X118500000Y-76500000D03*
X123000000Y-80000000D03*
X128500000Y-55000000D03*
X109000000Y-66500000D03*
X51000000Y-69500000D03*
X48500000Y-50500000D03*
X85500000Y-66000000D03*
X76500000Y-68000000D03*
X49000000Y-61000000D03*
X52000000Y-65500000D03*
X118500000Y-54000000D03*
X48500000Y-65500000D03*
X55500000Y-69000000D03*
X57500000Y-56500000D03*
X53500000Y-73000000D03*
X108000000Y-71500000D03*
X86000000Y-51500000D03*
X117500000Y-70500000D03*
X52000000Y-61000000D03*
X108500000Y-74500000D03*
X109000000Y-59000000D03*
X107000000Y-62000000D03*
%TO.N,+3.3V*%
X117500000Y-60500000D03*
X105500000Y-72500000D03*
X118500000Y-62500000D03*
X99000000Y-71500000D03*
%TD*%
D21*
%TO.N,BTN1*%
X114944703Y-73739450D02*
X121444703Y-73739450D01*
X112340492Y-73739450D02*
X114944703Y-73739450D01*
X112207321Y-73606279D02*
X112340492Y-73739450D01*
X111526438Y-73606279D02*
X112207321Y-73606279D01*
%TO.N,BTN2*%
X112358443Y-67965803D02*
X105858443Y-67965803D01*
X113784897Y-66539349D02*
X112358443Y-67965803D01*
X115896873Y-66539349D02*
X113784897Y-66539349D01*
%TO.N,BTN3*%
X123407887Y-62444775D02*
X129907887Y-62444775D01*
X122447756Y-61484644D02*
X123407887Y-62444775D01*
X120446720Y-61484644D02*
X122447756Y-61484644D01*
%TO.N,BTN4*%
X114750000Y-56750000D02*
X121250000Y-56750000D01*
X114175000Y-56175000D02*
X114750000Y-56750000D01*
X112000000Y-56175000D02*
X114175000Y-56175000D01*
X111785000Y-55960000D02*
X112000000Y-56175000D01*
X110500000Y-55960000D02*
X111785000Y-55960000D01*
D22*
%TO.N,GND*%
X95500000Y-71500000D02*
X91500000Y-71500000D01*
D21*
%TO.N,BTN2*%
X93000000Y-60500000D02*
X93840000Y-61340000D01*
X93000000Y-56500000D02*
X93000000Y-60500000D01*
X94000000Y-55500000D02*
X93000000Y-56500000D01*
X115896873Y-66539349D02*
X116416222Y-66020000D01*
X93840000Y-61340000D02*
X95500000Y-61340000D01*
X117500000Y-64000000D02*
X114500000Y-61000000D01*
X117500000Y-66020000D02*
X117500000Y-64000000D01*
X114500000Y-61000000D02*
X107500000Y-61000000D01*
X116416222Y-66020000D02*
X117500000Y-66020000D01*
X102000000Y-55500000D02*
X94000000Y-55500000D01*
X107500000Y-61000000D02*
X102000000Y-55500000D01*
%TO.N,BTN3*%
X115981026Y-61481026D02*
X119091996Y-61481026D01*
X102500000Y-55000000D02*
X108000000Y-60500000D01*
X120443102Y-61481026D02*
X120446720Y-61484644D01*
X108000000Y-60500000D02*
X115000000Y-60500000D01*
X93500000Y-55000000D02*
X102500000Y-55000000D01*
X119091996Y-61481026D02*
X120443102Y-61481026D01*
X93380000Y-63880000D02*
X92500000Y-63000000D01*
X92500000Y-63000000D02*
X92500000Y-56000000D01*
X92500000Y-56000000D02*
X93500000Y-55000000D01*
X115000000Y-60500000D02*
X115981026Y-61481026D01*
X95500000Y-63880000D02*
X93380000Y-63880000D01*
%TO.N,BTN4*%
X104321834Y-56000000D02*
X110460000Y-56000000D01*
X110460000Y-56000000D02*
X110500000Y-55960000D01*
X102821834Y-54500000D02*
X104321834Y-56000000D01*
X92000000Y-65000000D02*
X92000000Y-55500000D01*
X92000000Y-55500000D02*
X93000000Y-54500000D01*
X95500000Y-66420000D02*
X93420000Y-66420000D01*
X93000000Y-54500000D02*
X102821834Y-54500000D01*
X93420000Y-66420000D02*
X92000000Y-65000000D01*
%TO.N,BTN1*%
X101500000Y-56000000D02*
X103462856Y-57962856D01*
X96500000Y-56000000D02*
X101500000Y-56000000D01*
X104753063Y-73494628D02*
X109768961Y-73494628D01*
X95500000Y-57000000D02*
X96500000Y-56000000D01*
X104738241Y-73509450D02*
X104753063Y-73494628D01*
X109768961Y-73494628D02*
X111414787Y-73494628D01*
X111414787Y-73494628D02*
X111526438Y-73606279D01*
X103462856Y-72234065D02*
X104738241Y-73509450D01*
X103462856Y-57962856D02*
X103462856Y-72234065D01*
X95500000Y-58800000D02*
X95500000Y-57000000D01*
%TO.N,LED1*%
X100420000Y-66420000D02*
X101000000Y-67000000D01*
X50500000Y-60000000D02*
X49085000Y-58585000D01*
X98569596Y-76000000D02*
X60643468Y-76000000D01*
X101000000Y-73569596D02*
X98569596Y-76000000D01*
X60643468Y-76000000D02*
X50500000Y-65856532D01*
X101000000Y-67000000D02*
X101000000Y-73569596D01*
X98040000Y-66420000D02*
X100420000Y-66420000D01*
X49085000Y-58585000D02*
X48727500Y-58585000D01*
X50500000Y-65856532D02*
X50500000Y-60000000D01*
%TO.N,Net-(D1-K)*%
X44287500Y-58585000D02*
X46852500Y-58585000D01*
%TO.N,Net-(D2-K)*%
X44287500Y-62585000D02*
X46852500Y-62585000D01*
%TO.N,LED2*%
X101545000Y-73668064D02*
X98668064Y-76545000D01*
X98040000Y-63880000D02*
X100736532Y-63880000D01*
X101545000Y-64688468D02*
X101545000Y-73668064D01*
X50000000Y-66000000D02*
X50000000Y-64357500D01*
X100736532Y-63880000D02*
X101545000Y-64688468D01*
X50000000Y-64357500D02*
X48727500Y-63085000D01*
X60545000Y-76545000D02*
X50000000Y-66000000D01*
X98668064Y-76545000D02*
X60545000Y-76545000D01*
%TO.N,LED3*%
X48672500Y-67500000D02*
X50856532Y-67500000D01*
X50856532Y-67500000D02*
X60356532Y-77000000D01*
X102000000Y-73856532D02*
X102000000Y-62500000D01*
X60356532Y-77000000D02*
X98856532Y-77000000D01*
X100840000Y-61340000D02*
X98040000Y-61340000D01*
X102000000Y-62500000D02*
X100840000Y-61340000D01*
X98856532Y-77000000D02*
X102000000Y-73856532D01*
%TO.N,Net-(D3-K)*%
X44232500Y-67585000D02*
X46712500Y-67585000D01*
X46712500Y-67585000D02*
X46797500Y-67500000D01*
%TO.N,Net-(D4-K)*%
X44287500Y-71585000D02*
X46852500Y-71585000D01*
%TO.N,LED4*%
X48727500Y-71585000D02*
X54085000Y-71585000D01*
X102500000Y-60000000D02*
X101300000Y-58800000D01*
X54085000Y-71585000D02*
X60000000Y-77500000D01*
X101300000Y-58800000D02*
X98040000Y-58800000D01*
X99000000Y-77500000D02*
X102500000Y-74000000D01*
X102500000Y-74000000D02*
X102500000Y-60000000D01*
X60000000Y-77500000D02*
X99000000Y-77500000D01*
%TO.N,PB6_SCL*%
X96768408Y-67688408D02*
X98040000Y-68960000D01*
X69540000Y-51500000D02*
X69540000Y-52972900D01*
X69540000Y-52972900D02*
X84255508Y-67688408D01*
X84255508Y-67688408D02*
X96768408Y-67688408D01*
%TO.N,PB7_SDA*%
X67000000Y-52000000D02*
X67000000Y-51500000D01*
X95500000Y-68960000D02*
X95460000Y-69000000D01*
X95460000Y-69000000D02*
X84000000Y-69000000D01*
X84000000Y-69000000D02*
X67000000Y-52000000D01*
D23*
%TO.N,+3.3V*%
X119812076Y-62500000D02*
X120446720Y-63134644D01*
X118500000Y-62500000D02*
X119812076Y-62500000D01*
X112000000Y-57825000D02*
X112000000Y-59000000D01*
X115896873Y-68449212D02*
X115896873Y-68189349D01*
X112000000Y-59000000D02*
X112599000Y-59599000D01*
X115021085Y-69325000D02*
X119296323Y-69325000D01*
X120446720Y-68174603D02*
X120446720Y-63134644D01*
X115021085Y-69325000D02*
X115896873Y-68449212D01*
X111526438Y-71956279D02*
X112389806Y-71956279D01*
X112389806Y-71956279D02*
X115021085Y-69325000D01*
X116166100Y-59599000D02*
X117067100Y-60500000D01*
X110982717Y-72500000D02*
X111526438Y-71956279D01*
X119296323Y-69325000D02*
X120446720Y-68174603D01*
X112599000Y-59599000D02*
X116166100Y-59599000D01*
X117067100Y-60500000D02*
X117500000Y-60500000D01*
X105500000Y-72500000D02*
X110982717Y-72500000D01*
X99000000Y-71500000D02*
X98040000Y-71500000D01*
%TD*%
%TA.AperFunction,Conductor*%
%TO.N,GND*%
G36*
X104295559Y-58683424D02*
G01*
X104302037Y-58689456D01*
X107012589Y-61400008D01*
X107079843Y-61467262D01*
X107099994Y-61487413D01*
X107099996Y-61487414D01*
X107202756Y-61556076D01*
X107202758Y-61556077D01*
X107202767Y-61556083D01*
X107227772Y-61566440D01*
X107250071Y-61575677D01*
X107292254Y-61593149D01*
X107316966Y-61603386D01*
X107438192Y-61627499D01*
X107438196Y-61627500D01*
X107438197Y-61627500D01*
X107561804Y-61627500D01*
X114188719Y-61627500D01*
X114255758Y-61647185D01*
X114276400Y-61663819D01*
X116836181Y-64223600D01*
X116869666Y-64284923D01*
X116872500Y-64311281D01*
X116872500Y-65268500D01*
X116852815Y-65335539D01*
X116800011Y-65381294D01*
X116748500Y-65392500D01*
X116354416Y-65392500D01*
X116233192Y-65416613D01*
X116233182Y-65416616D01*
X116118995Y-65463913D01*
X116118982Y-65463920D01*
X116016215Y-65532587D01*
X115994131Y-65554672D01*
X115946271Y-65602531D01*
X115884951Y-65636015D01*
X115858592Y-65638849D01*
X115565257Y-65638849D01*
X115546018Y-65640597D01*
X115494680Y-65645262D01*
X115332266Y-65695871D01*
X115186686Y-65783878D01*
X115155263Y-65815302D01*
X115095033Y-65875531D01*
X115033713Y-65909015D01*
X115007354Y-65911849D01*
X113723089Y-65911849D01*
X113601870Y-65935961D01*
X113601862Y-65935963D01*
X113548186Y-65958197D01*
X113548185Y-65958197D01*
X113487668Y-65983263D01*
X113432700Y-66019992D01*
X113384886Y-66051939D01*
X112933186Y-66503639D01*
X112871863Y-66537124D01*
X112807187Y-66533889D01*
X112709813Y-66502250D01*
X112476540Y-66465303D01*
X112476535Y-66465303D01*
X112240351Y-66465303D01*
X112240346Y-66465303D01*
X112007074Y-66502249D01*
X111782446Y-66575236D01*
X111572009Y-66682460D01*
X111510600Y-66727077D01*
X111380933Y-66821286D01*
X111380931Y-66821288D01*
X111380930Y-66821288D01*
X111213928Y-66988290D01*
X111213928Y-66988291D01*
X111213926Y-66988293D01*
X111161398Y-67060592D01*
X111075100Y-67179369D01*
X111028617Y-67270598D01*
X110980642Y-67321394D01*
X110918132Y-67338303D01*
X107298754Y-67338303D01*
X107231715Y-67318618D01*
X107188269Y-67270598D01*
X107164322Y-67223600D01*
X107141786Y-67179370D01*
X107002960Y-66988293D01*
X106835953Y-66821286D01*
X106644876Y-66682460D01*
X106434439Y-66575236D01*
X106209811Y-66502249D01*
X105976540Y-66465303D01*
X105976535Y-66465303D01*
X105740351Y-66465303D01*
X105740346Y-66465303D01*
X105507074Y-66502249D01*
X105282446Y-66575236D01*
X105072009Y-66682460D01*
X105010600Y-66727077D01*
X104880933Y-66821286D01*
X104880931Y-66821288D01*
X104880930Y-66821288D01*
X104713928Y-66988290D01*
X104713928Y-66988291D01*
X104713926Y-66988293D01*
X104661398Y-67060592D01*
X104575100Y-67179369D01*
X104467876Y-67389806D01*
X104394889Y-67614434D01*
X104357943Y-67847705D01*
X104357943Y-68083900D01*
X104394889Y-68317171D01*
X104467876Y-68541799D01*
X104548739Y-68700500D01*
X104575100Y-68752236D01*
X104713926Y-68943313D01*
X104880933Y-69110320D01*
X105072010Y-69249146D01*
X105171434Y-69299805D01*
X105282446Y-69356369D01*
X105282448Y-69356369D01*
X105282451Y-69356371D01*
X105402855Y-69395492D01*
X105507074Y-69429356D01*
X105740346Y-69466303D01*
X105740351Y-69466303D01*
X105976540Y-69466303D01*
X106209811Y-69429356D01*
X106434435Y-69356371D01*
X106644876Y-69249146D01*
X106835953Y-69110320D01*
X107002960Y-68943313D01*
X107141786Y-68752236D01*
X107188269Y-68661008D01*
X107236244Y-68610212D01*
X107298754Y-68593303D01*
X110918132Y-68593303D01*
X110985171Y-68612988D01*
X111028617Y-68661008D01*
X111048739Y-68700499D01*
X111075100Y-68752236D01*
X111213926Y-68943313D01*
X111380933Y-69110320D01*
X111572010Y-69249146D01*
X111671434Y-69299805D01*
X111782446Y-69356369D01*
X111782448Y-69356369D01*
X111782451Y-69356371D01*
X111902855Y-69395492D01*
X112007074Y-69429356D01*
X112240346Y-69466303D01*
X112240351Y-69466303D01*
X112476540Y-69466303D01*
X112709811Y-69429356D01*
X112934435Y-69356371D01*
X113144876Y-69249146D01*
X113335953Y-69110320D01*
X113502960Y-68943313D01*
X113641786Y-68752236D01*
X113749011Y-68541795D01*
X113821996Y-68317171D01*
X113833649Y-68243597D01*
X113858943Y-68083900D01*
X113858943Y-67847705D01*
X113835507Y-67699742D01*
X113821996Y-67614435D01*
X113790354Y-67517055D01*
X113788360Y-67447217D01*
X113820602Y-67391062D01*
X114008498Y-67203165D01*
X114069821Y-67169683D01*
X114096178Y-67166849D01*
X115007354Y-67166849D01*
X115036794Y-67175493D01*
X115066781Y-67182017D01*
X115071796Y-67185771D01*
X115074393Y-67186534D01*
X115095034Y-67203167D01*
X115168534Y-67276667D01*
X115202019Y-67337990D01*
X115197035Y-67407682D01*
X115168535Y-67452029D01*
X115066402Y-67554162D01*
X114978395Y-67699742D01*
X114927786Y-67862156D01*
X114921373Y-67932735D01*
X114921373Y-68382693D01*
X114901688Y-68449732D01*
X114885054Y-68470374D01*
X114476969Y-68878459D01*
X112254209Y-71101217D01*
X112192886Y-71134702D01*
X112123194Y-71129718D01*
X112102381Y-71119654D01*
X112091044Y-71112801D01*
X111928634Y-71062193D01*
X111928632Y-71062192D01*
X111928630Y-71062192D01*
X111879216Y-71057702D01*
X111858054Y-71055779D01*
X111194822Y-71055779D01*
X111175583Y-71057527D01*
X111124245Y-71062192D01*
X110961831Y-71112801D01*
X110816249Y-71200809D01*
X110695968Y-71321090D01*
X110607960Y-71466672D01*
X110607960Y-71466673D01*
X110557352Y-71629083D01*
X110557352Y-71629085D01*
X110552114Y-71686723D01*
X110526443Y-71751706D01*
X110469714Y-71792494D01*
X110428623Y-71799500D01*
X105925316Y-71799500D01*
X105877864Y-71790061D01*
X105733501Y-71730264D01*
X105733489Y-71730261D01*
X105578845Y-71699500D01*
X105578842Y-71699500D01*
X105421158Y-71699500D01*
X105421155Y-71699500D01*
X105266510Y-71730261D01*
X105266498Y-71730264D01*
X105120827Y-71790602D01*
X105120814Y-71790609D01*
X104989711Y-71878210D01*
X104989707Y-71878213D01*
X104878213Y-71989707D01*
X104878210Y-71989711D01*
X104790609Y-72120814D01*
X104790602Y-72120827D01*
X104730264Y-72266498D01*
X104730261Y-72266507D01*
X104717858Y-72328862D01*
X104685472Y-72390772D01*
X104624756Y-72425346D01*
X104554987Y-72421605D01*
X104508560Y-72392350D01*
X104126675Y-72010465D01*
X104093190Y-71949142D01*
X104090356Y-71922784D01*
X104090356Y-63347750D01*
X104358443Y-63347750D01*
X104358443Y-63583855D01*
X104395377Y-63817050D01*
X104468340Y-64041605D01*
X104575530Y-64251977D01*
X104635781Y-64334907D01*
X104635783Y-64334908D01*
X105334655Y-63636036D01*
X105345925Y-63678095D01*
X105418333Y-63803511D01*
X105520735Y-63905913D01*
X105646151Y-63978321D01*
X105688208Y-63989590D01*
X104989336Y-64688461D01*
X105072271Y-64748717D01*
X105282640Y-64855905D01*
X105507195Y-64928868D01*
X105507194Y-64928868D01*
X105740391Y-64965803D01*
X105976495Y-64965803D01*
X106209690Y-64928868D01*
X106434245Y-64855905D01*
X106644606Y-64748721D01*
X106644612Y-64748717D01*
X106727547Y-64688461D01*
X106727548Y-64688461D01*
X106028676Y-63989590D01*
X106070735Y-63978321D01*
X106196151Y-63905913D01*
X106298553Y-63803511D01*
X106370961Y-63678095D01*
X106382230Y-63636037D01*
X107081101Y-64334908D01*
X107081101Y-64334907D01*
X107141357Y-64251972D01*
X107141361Y-64251966D01*
X107248545Y-64041605D01*
X107321508Y-63817050D01*
X107358443Y-63583855D01*
X107358443Y-63347750D01*
X110858443Y-63347750D01*
X110858443Y-63583855D01*
X110895377Y-63817050D01*
X110968340Y-64041605D01*
X111075530Y-64251977D01*
X111135781Y-64334907D01*
X111135783Y-64334908D01*
X111834655Y-63636036D01*
X111845925Y-63678095D01*
X111918333Y-63803511D01*
X112020735Y-63905913D01*
X112146151Y-63978321D01*
X112188208Y-63989590D01*
X111489336Y-64688461D01*
X111572271Y-64748717D01*
X111782640Y-64855905D01*
X112007195Y-64928868D01*
X112007194Y-64928868D01*
X112240391Y-64965803D01*
X112476495Y-64965803D01*
X112709690Y-64928868D01*
X112934245Y-64855905D01*
X113144606Y-64748721D01*
X113144612Y-64748717D01*
X113227547Y-64688461D01*
X113227548Y-64688461D01*
X112528676Y-63989590D01*
X112570735Y-63978321D01*
X112696151Y-63905913D01*
X112798553Y-63803511D01*
X112870961Y-63678095D01*
X112882230Y-63636037D01*
X113581101Y-64334908D01*
X113581101Y-64334907D01*
X113641357Y-64251972D01*
X113641361Y-64251966D01*
X113748545Y-64041605D01*
X113821508Y-63817050D01*
X113858443Y-63583855D01*
X113858443Y-63347750D01*
X113821508Y-63114555D01*
X113748545Y-62890000D01*
X113641357Y-62679631D01*
X113581101Y-62596697D01*
X113581101Y-62596696D01*
X112882230Y-63295568D01*
X112870961Y-63253511D01*
X112798553Y-63128095D01*
X112696151Y-63025693D01*
X112570735Y-62953285D01*
X112528677Y-62942015D01*
X113227548Y-62243143D01*
X113227547Y-62243141D01*
X113144617Y-62182890D01*
X112934245Y-62075700D01*
X112709690Y-62002737D01*
X112709691Y-62002737D01*
X112476495Y-61965803D01*
X112240391Y-61965803D01*
X112007195Y-62002737D01*
X111782640Y-62075700D01*
X111572273Y-62182887D01*
X111489337Y-62243143D01*
X112188209Y-62942015D01*
X112146151Y-62953285D01*
X112020735Y-63025693D01*
X111918333Y-63128095D01*
X111845925Y-63253511D01*
X111834655Y-63295569D01*
X111135783Y-62596697D01*
X111075527Y-62679633D01*
X110968340Y-62890000D01*
X110895377Y-63114555D01*
X110858443Y-63347750D01*
X107358443Y-63347750D01*
X107321508Y-63114555D01*
X107248545Y-62890000D01*
X107141357Y-62679631D01*
X107081101Y-62596697D01*
X107081101Y-62596696D01*
X106382230Y-63295568D01*
X106370961Y-63253511D01*
X106298553Y-63128095D01*
X106196151Y-63025693D01*
X106070735Y-62953285D01*
X106028677Y-62942015D01*
X106727548Y-62243143D01*
X106727547Y-62243142D01*
X106644617Y-62182890D01*
X106434245Y-62075700D01*
X106209690Y-62002737D01*
X106209691Y-62002737D01*
X105976495Y-61965803D01*
X105740391Y-61965803D01*
X105507195Y-62002737D01*
X105282640Y-62075700D01*
X105072273Y-62182887D01*
X104989337Y-62243143D01*
X105688209Y-62942015D01*
X105646151Y-62953285D01*
X105520735Y-63025693D01*
X105418333Y-63128095D01*
X105345925Y-63253511D01*
X105334655Y-63295569D01*
X104635783Y-62596697D01*
X104575527Y-62679633D01*
X104468340Y-62890000D01*
X104395377Y-63114555D01*
X104358443Y-63347750D01*
X104090356Y-63347750D01*
X104090356Y-58777137D01*
X104110041Y-58710098D01*
X104162845Y-58664343D01*
X104232003Y-58654399D01*
X104295559Y-58683424D01*
G37*
%TD.AperFunction*%
%TA.AperFunction,Conductor*%
G36*
X117636854Y-62116120D02*
G01*
X117663505Y-62120195D01*
X117669878Y-62125817D01*
X117678029Y-62128211D01*
X117695678Y-62148580D01*
X117715899Y-62166419D01*
X117718220Y-62174594D01*
X117723784Y-62181015D01*
X117727620Y-62207696D01*
X117734985Y-62233631D01*
X117733111Y-62245885D01*
X117733728Y-62250173D01*
X117731427Y-62260523D01*
X117731451Y-62260528D01*
X117699500Y-62421153D01*
X117699500Y-62578846D01*
X117730261Y-62733489D01*
X117730264Y-62733501D01*
X117790602Y-62879172D01*
X117790609Y-62879185D01*
X117878210Y-63010288D01*
X117878213Y-63010292D01*
X117989707Y-63121786D01*
X117989711Y-63121789D01*
X118120814Y-63209390D01*
X118120827Y-63209397D01*
X118266498Y-63269735D01*
X118266503Y-63269737D01*
X118421153Y-63300499D01*
X118421156Y-63300500D01*
X118421158Y-63300500D01*
X118578844Y-63300500D01*
X118578845Y-63300499D01*
X118733497Y-63269737D01*
X118844627Y-63223706D01*
X118877864Y-63209939D01*
X118925316Y-63200500D01*
X119347220Y-63200500D01*
X119414259Y-63220185D01*
X119460014Y-63272989D01*
X119471220Y-63324500D01*
X119471220Y-63391257D01*
X119477633Y-63461836D01*
X119477633Y-63461838D01*
X119477634Y-63461840D01*
X119528242Y-63624250D01*
X119616248Y-63769829D01*
X119709902Y-63863483D01*
X119743386Y-63924804D01*
X119746220Y-63951163D01*
X119746220Y-67833084D01*
X119726535Y-67900123D01*
X119709901Y-67920765D01*
X119042485Y-68588181D01*
X118981162Y-68621666D01*
X118954804Y-68624500D01*
X116991928Y-68624500D01*
X116924889Y-68604815D01*
X116879134Y-68552011D01*
X116868437Y-68489279D01*
X116872373Y-68445963D01*
X116872373Y-67932735D01*
X116870905Y-67916582D01*
X116865959Y-67862153D01*
X116857524Y-67835086D01*
X116856373Y-67765229D01*
X116893174Y-67705836D01*
X116956242Y-67675768D01*
X117025555Y-67684570D01*
X117039032Y-67691467D01*
X117073802Y-67712030D01*
X117073804Y-67712031D01*
X117229089Y-67757145D01*
X117250000Y-67758789D01*
X117750000Y-67758789D01*
X117770910Y-67757145D01*
X117926195Y-67712031D01*
X118065374Y-67629721D01*
X118065383Y-67629714D01*
X118179714Y-67515383D01*
X118179721Y-67515374D01*
X118262031Y-67376195D01*
X118304504Y-67230000D01*
X117750000Y-67230000D01*
X117750000Y-67758789D01*
X117250000Y-67758789D01*
X117250000Y-67104000D01*
X117269685Y-67036961D01*
X117322489Y-66991206D01*
X117374000Y-66980000D01*
X117500000Y-66980000D01*
X117500000Y-66924500D01*
X117519685Y-66857461D01*
X117572489Y-66811706D01*
X117624000Y-66800500D01*
X117734682Y-66800500D01*
X117734690Y-66800500D01*
X117770993Y-66797643D01*
X117770995Y-66797642D01*
X117770997Y-66797642D01*
X117926389Y-66752496D01*
X117926389Y-66752495D01*
X117926395Y-66752494D01*
X117935233Y-66747267D01*
X117998352Y-66730000D01*
X118304504Y-66730000D01*
X118262031Y-66583803D01*
X118250090Y-66563613D01*
X118232906Y-66495889D01*
X118250089Y-66437369D01*
X118262494Y-66416395D01*
X118307643Y-66260993D01*
X118310500Y-66224690D01*
X118310500Y-65815310D01*
X118307643Y-65779007D01*
X118303789Y-65765742D01*
X118262495Y-65623609D01*
X118262494Y-65623606D01*
X118262494Y-65623605D01*
X118180117Y-65484313D01*
X118180115Y-65484311D01*
X118180112Y-65484307D01*
X118163819Y-65468014D01*
X118130334Y-65406691D01*
X118127500Y-65380333D01*
X118127500Y-63938196D01*
X118124836Y-63924804D01*
X118117936Y-63890116D01*
X118103386Y-63816966D01*
X118067363Y-63730000D01*
X118056083Y-63702767D01*
X118049407Y-63692776D01*
X117987414Y-63599996D01*
X117987413Y-63599994D01*
X117971274Y-63583855D01*
X117900008Y-63512589D01*
X116707626Y-62320207D01*
X116674141Y-62258884D01*
X116679125Y-62189192D01*
X116720997Y-62133259D01*
X116786461Y-62108842D01*
X116795307Y-62108526D01*
X117610990Y-62108526D01*
X117636854Y-62116120D01*
G37*
%TD.AperFunction*%
%TA.AperFunction,Conductor*%
G36*
X109945685Y-56631850D02*
G01*
X109960278Y-56631308D01*
X109992903Y-56644767D01*
X110073605Y-56692494D01*
X110114587Y-56704400D01*
X110229002Y-56737642D01*
X110229005Y-56737642D01*
X110229007Y-56737643D01*
X110265310Y-56740500D01*
X110265318Y-56740500D01*
X110734682Y-56740500D01*
X110734690Y-56740500D01*
X110770993Y-56737643D01*
X110770995Y-56737642D01*
X110770997Y-56737642D01*
X110822550Y-56722664D01*
X110926395Y-56692494D01*
X110947381Y-56680082D01*
X111015104Y-56662899D01*
X111081367Y-56685058D01*
X111116618Y-56722662D01*
X111169528Y-56810185D01*
X111169530Y-56810188D01*
X111271661Y-56912319D01*
X111305146Y-56973642D01*
X111300162Y-57043334D01*
X111271661Y-57087681D01*
X111169531Y-57189810D01*
X111169530Y-57189811D01*
X111081522Y-57335393D01*
X111030913Y-57497807D01*
X111024500Y-57568386D01*
X111024500Y-58081613D01*
X111030913Y-58152192D01*
X111030913Y-58152194D01*
X111030914Y-58152196D01*
X111081522Y-58314606D01*
X111169528Y-58460185D01*
X111263182Y-58553839D01*
X111296666Y-58615160D01*
X111299500Y-58641519D01*
X111299500Y-58931006D01*
X111299500Y-59068994D01*
X111299500Y-59068996D01*
X111299499Y-59068996D01*
X111326418Y-59204322D01*
X111326421Y-59204332D01*
X111379222Y-59331807D01*
X111455887Y-59446545D01*
X111455888Y-59446546D01*
X111670162Y-59660819D01*
X111703647Y-59722142D01*
X111698663Y-59791833D01*
X111656792Y-59847767D01*
X111591327Y-59872184D01*
X111582481Y-59872500D01*
X108311281Y-59872500D01*
X108244242Y-59852815D01*
X108223600Y-59836181D01*
X105226600Y-56839181D01*
X105193115Y-56777858D01*
X105198099Y-56708166D01*
X105239971Y-56652233D01*
X105305435Y-56627816D01*
X105314281Y-56627500D01*
X109929784Y-56627500D01*
X109945685Y-56631850D01*
G37*
%TD.AperFunction*%
%TA.AperFunction,Conductor*%
G36*
X133442539Y-47020185D02*
G01*
X133488294Y-47072989D01*
X133499500Y-47124500D01*
X133499500Y-82875500D01*
X133479815Y-82942539D01*
X133427011Y-82988294D01*
X133375500Y-82999500D01*
X41124500Y-82999500D01*
X41057461Y-82979815D01*
X41011706Y-82927011D01*
X41000500Y-82875500D01*
X41000500Y-71916582D01*
X41775001Y-71916582D01*
X41781408Y-71987102D01*
X41781409Y-71987107D01*
X41831981Y-72149396D01*
X41919927Y-72294877D01*
X42040122Y-72415072D01*
X42185604Y-72503019D01*
X42185603Y-72503019D01*
X42347894Y-72553590D01*
X42347893Y-72553590D01*
X42418408Y-72559998D01*
X42418426Y-72559999D01*
X42424999Y-72559998D01*
X42425000Y-72559998D01*
X42425000Y-71835000D01*
X41775001Y-71835000D01*
X41775001Y-71916582D01*
X41000500Y-71916582D01*
X41000500Y-71253427D01*
X41775000Y-71253427D01*
X41775000Y-71335000D01*
X42425000Y-71335000D01*
X42425000Y-70610000D01*
X42424999Y-70609999D01*
X42418436Y-70610000D01*
X42418417Y-70610001D01*
X42347897Y-70616408D01*
X42347892Y-70616409D01*
X42185603Y-70666981D01*
X42040122Y-70754927D01*
X41919927Y-70875122D01*
X41831980Y-71020604D01*
X41781409Y-71182893D01*
X41775000Y-71253427D01*
X41000500Y-71253427D01*
X41000500Y-67916582D01*
X41720001Y-67916582D01*
X41726408Y-67987102D01*
X41726409Y-67987107D01*
X41776981Y-68149396D01*
X41864927Y-68294877D01*
X41985122Y-68415072D01*
X42130604Y-68503019D01*
X42130603Y-68503019D01*
X42292894Y-68553590D01*
X42292893Y-68553590D01*
X42363408Y-68559998D01*
X42363426Y-68559999D01*
X42369999Y-68559998D01*
X42370000Y-68559998D01*
X42370000Y-67835000D01*
X41720001Y-67835000D01*
X41720001Y-67916582D01*
X41000500Y-67916582D01*
X41000500Y-67253427D01*
X41720000Y-67253427D01*
X41720000Y-67335000D01*
X42370000Y-67335000D01*
X42370000Y-66610000D01*
X42870000Y-66610000D01*
X42870000Y-68559999D01*
X42876581Y-68559999D01*
X42947102Y-68553591D01*
X42947107Y-68553590D01*
X43109396Y-68503018D01*
X43254877Y-68415072D01*
X43254878Y-68415071D01*
X43356963Y-68312985D01*
X43418286Y-68279499D01*
X43487977Y-68284483D01*
X43532326Y-68312984D01*
X43634811Y-68415469D01*
X43634813Y-68415470D01*
X43634815Y-68415472D01*
X43780394Y-68503478D01*
X43942804Y-68554086D01*
X44013384Y-68560500D01*
X44013387Y-68560500D01*
X44526613Y-68560500D01*
X44526616Y-68560500D01*
X44597196Y-68554086D01*
X44759606Y-68503478D01*
X44905185Y-68415472D01*
X45025472Y-68295185D01*
X45038929Y-68272925D01*
X45039277Y-68272349D01*
X45090805Y-68225162D01*
X45145393Y-68212500D01*
X45768161Y-68212500D01*
X45835200Y-68232185D01*
X45873700Y-68271403D01*
X45874637Y-68272922D01*
X45874638Y-68272925D01*
X45965972Y-68420999D01*
X45965975Y-68421004D01*
X46088996Y-68544025D01*
X46089000Y-68544028D01*
X46237066Y-68635357D01*
X46237069Y-68635358D01*
X46237075Y-68635362D01*
X46402225Y-68690087D01*
X46504152Y-68700500D01*
X46504157Y-68700500D01*
X47090843Y-68700500D01*
X47090848Y-68700500D01*
X47192775Y-68690087D01*
X47357925Y-68635362D01*
X47506003Y-68544026D01*
X47629026Y-68421003D01*
X47629458Y-68420301D01*
X47629881Y-68419921D01*
X47633507Y-68415336D01*
X47634290Y-68415955D01*
X47681402Y-68373575D01*
X47750364Y-68362349D01*
X47814448Y-68390188D01*
X47836342Y-68415455D01*
X47836493Y-68415336D01*
X47839143Y-68418687D01*
X47840540Y-68420299D01*
X47840972Y-68420999D01*
X47840975Y-68421004D01*
X47963996Y-68544025D01*
X47964000Y-68544028D01*
X48112066Y-68635357D01*
X48112069Y-68635358D01*
X48112075Y-68635362D01*
X48277225Y-68690087D01*
X48379152Y-68700500D01*
X48379157Y-68700500D01*
X48965843Y-68700500D01*
X48965848Y-68700500D01*
X49067775Y-68690087D01*
X49232925Y-68635362D01*
X49381003Y-68544026D01*
X49504026Y-68421003D01*
X49595362Y-68272925D01*
X49615386Y-68212495D01*
X49655159Y-68155051D01*
X49719675Y-68128228D01*
X49733092Y-68127500D01*
X50545251Y-68127500D01*
X50612290Y-68147185D01*
X50632932Y-68163819D01*
X53214932Y-70745819D01*
X53248417Y-70807142D01*
X53243433Y-70876834D01*
X53201561Y-70932767D01*
X53136097Y-70957184D01*
X53127251Y-70957500D01*
X49788092Y-70957500D01*
X49721053Y-70937815D01*
X49675298Y-70885011D01*
X49670386Y-70872504D01*
X49650362Y-70812075D01*
X49650358Y-70812069D01*
X49650357Y-70812066D01*
X49559028Y-70664000D01*
X49559025Y-70663996D01*
X49436003Y-70540974D01*
X49435999Y-70540971D01*
X49287933Y-70449642D01*
X49287927Y-70449639D01*
X49287925Y-70449638D01*
X49287922Y-70449637D01*
X49122776Y-70394913D01*
X49020855Y-70384500D01*
X49020848Y-70384500D01*
X48434152Y-70384500D01*
X48434144Y-70384500D01*
X48332223Y-70394913D01*
X48167077Y-70449637D01*
X48167066Y-70449642D01*
X48019000Y-70540971D01*
X48018996Y-70540974D01*
X47895974Y-70663996D01*
X47895971Y-70664000D01*
X47895538Y-70664703D01*
X47895114Y-70665083D01*
X47891493Y-70669664D01*
X47890710Y-70669045D01*
X47843590Y-70711428D01*
X47774628Y-70722649D01*
X47710546Y-70694806D01*
X47688657Y-70669544D01*
X47688507Y-70669664D01*
X47685859Y-70666315D01*
X47684462Y-70664703D01*
X47684028Y-70664000D01*
X47684025Y-70663996D01*
X47561003Y-70540974D01*
X47560999Y-70540971D01*
X47412933Y-70449642D01*
X47412927Y-70449639D01*
X47412925Y-70449638D01*
X47412922Y-70449637D01*
X47247776Y-70394913D01*
X47145855Y-70384500D01*
X47145848Y-70384500D01*
X46559152Y-70384500D01*
X46559144Y-70384500D01*
X46457223Y-70394913D01*
X46292077Y-70449637D01*
X46292066Y-70449642D01*
X46144000Y-70540971D01*
X46143996Y-70540974D01*
X46020974Y-70663996D01*
X46020971Y-70664000D01*
X45929642Y-70812066D01*
X45929637Y-70812077D01*
X45909614Y-70872504D01*
X45869841Y-70929949D01*
X45805325Y-70956772D01*
X45791908Y-70957500D01*
X45200393Y-70957500D01*
X45133354Y-70937815D01*
X45094277Y-70897651D01*
X45086636Y-70885011D01*
X45080472Y-70874815D01*
X45080471Y-70874814D01*
X45080468Y-70874810D01*
X44960188Y-70754530D01*
X44945778Y-70745819D01*
X44814606Y-70666522D01*
X44652196Y-70615914D01*
X44652194Y-70615913D01*
X44652192Y-70615913D01*
X44602778Y-70611423D01*
X44581616Y-70609500D01*
X44068384Y-70609500D01*
X44049145Y-70611248D01*
X43997807Y-70615913D01*
X43835393Y-70666522D01*
X43689811Y-70754530D01*
X43689810Y-70754531D01*
X43587327Y-70857015D01*
X43526004Y-70890500D01*
X43456312Y-70885516D01*
X43411965Y-70857015D01*
X43309877Y-70754927D01*
X43164395Y-70666980D01*
X43164396Y-70666980D01*
X43002105Y-70616409D01*
X43002106Y-70616409D01*
X42931572Y-70610000D01*
X42925000Y-70610000D01*
X42925000Y-72559999D01*
X42931581Y-72559999D01*
X43002102Y-72553591D01*
X43002107Y-72553590D01*
X43164396Y-72503018D01*
X43309877Y-72415072D01*
X43309878Y-72415071D01*
X43411963Y-72312985D01*
X43473286Y-72279499D01*
X43542977Y-72284483D01*
X43587326Y-72312984D01*
X43689811Y-72415469D01*
X43689813Y-72415470D01*
X43689815Y-72415472D01*
X43835394Y-72503478D01*
X43997804Y-72554086D01*
X44068384Y-72560500D01*
X44068387Y-72560500D01*
X44581613Y-72560500D01*
X44581616Y-72560500D01*
X44652196Y-72554086D01*
X44814606Y-72503478D01*
X44960185Y-72415472D01*
X45080472Y-72295185D01*
X45094277Y-72272349D01*
X45145805Y-72225162D01*
X45200393Y-72212500D01*
X45791908Y-72212500D01*
X45858947Y-72232185D01*
X45904702Y-72284989D01*
X45909612Y-72297493D01*
X45926641Y-72348882D01*
X45929637Y-72357922D01*
X45929642Y-72357933D01*
X46020971Y-72505999D01*
X46020974Y-72506003D01*
X46143996Y-72629025D01*
X46144000Y-72629028D01*
X46292066Y-72720357D01*
X46292069Y-72720358D01*
X46292075Y-72720362D01*
X46457225Y-72775087D01*
X46559152Y-72785500D01*
X46559157Y-72785500D01*
X47145843Y-72785500D01*
X47145848Y-72785500D01*
X47247775Y-72775087D01*
X47412925Y-72720362D01*
X47561003Y-72629026D01*
X47684026Y-72506003D01*
X47684458Y-72505301D01*
X47684881Y-72504921D01*
X47688507Y-72500336D01*
X47689290Y-72500955D01*
X47736402Y-72458575D01*
X47805364Y-72447349D01*
X47869448Y-72475188D01*
X47891342Y-72500455D01*
X47891493Y-72500336D01*
X47894143Y-72503687D01*
X47895540Y-72505299D01*
X47895972Y-72505999D01*
X47895975Y-72506004D01*
X48018996Y-72629025D01*
X48019000Y-72629028D01*
X48167066Y-72720357D01*
X48167069Y-72720358D01*
X48167075Y-72720362D01*
X48332225Y-72775087D01*
X48434152Y-72785500D01*
X48434157Y-72785500D01*
X49020843Y-72785500D01*
X49020848Y-72785500D01*
X49122775Y-72775087D01*
X49287925Y-72720362D01*
X49436003Y-72629026D01*
X49559026Y-72506003D01*
X49650362Y-72357925D01*
X49670386Y-72297495D01*
X49710159Y-72240051D01*
X49774675Y-72213228D01*
X49788092Y-72212500D01*
X53773719Y-72212500D01*
X53840758Y-72232185D01*
X53861400Y-72248819D01*
X59512589Y-77900008D01*
X59599992Y-77987411D01*
X59599993Y-77987412D01*
X59702760Y-78056079D01*
X59702773Y-78056086D01*
X59816960Y-78103383D01*
X59816965Y-78103385D01*
X59816969Y-78103385D01*
X59816970Y-78103386D01*
X59938194Y-78127500D01*
X59938197Y-78127500D01*
X99061804Y-78127500D01*
X99061805Y-78127499D01*
X99092483Y-78121397D01*
X113444703Y-78121397D01*
X113444703Y-78357502D01*
X113481637Y-78590697D01*
X113554600Y-78815252D01*
X113661790Y-79025624D01*
X113722041Y-79108554D01*
X113722043Y-79108555D01*
X114420915Y-78409683D01*
X114432185Y-78451742D01*
X114504593Y-78577158D01*
X114606995Y-78679560D01*
X114732411Y-78751968D01*
X114774468Y-78763237D01*
X114075596Y-79462108D01*
X114158531Y-79522364D01*
X114368900Y-79629552D01*
X114593455Y-79702515D01*
X114593454Y-79702515D01*
X114826651Y-79739450D01*
X115062755Y-79739450D01*
X115295950Y-79702515D01*
X115520505Y-79629552D01*
X115730866Y-79522368D01*
X115730872Y-79522364D01*
X115813807Y-79462108D01*
X115813808Y-79462108D01*
X115114936Y-78763237D01*
X115156995Y-78751968D01*
X115282411Y-78679560D01*
X115384813Y-78577158D01*
X115457221Y-78451742D01*
X115468490Y-78409684D01*
X116167361Y-79108555D01*
X116167361Y-79108554D01*
X116227617Y-79025619D01*
X116227621Y-79025613D01*
X116334805Y-78815252D01*
X116407768Y-78590697D01*
X116444703Y-78357502D01*
X116444703Y-78121397D01*
X119944703Y-78121397D01*
X119944703Y-78357502D01*
X119981637Y-78590697D01*
X120054600Y-78815252D01*
X120161790Y-79025624D01*
X120222041Y-79108554D01*
X120222043Y-79108555D01*
X120920915Y-78409683D01*
X120932185Y-78451742D01*
X121004593Y-78577158D01*
X121106995Y-78679560D01*
X121232411Y-78751968D01*
X121274468Y-78763237D01*
X120575596Y-79462108D01*
X120658531Y-79522364D01*
X120868900Y-79629552D01*
X121093455Y-79702515D01*
X121093454Y-79702515D01*
X121326651Y-79739450D01*
X121562755Y-79739450D01*
X121795950Y-79702515D01*
X122020505Y-79629552D01*
X122230866Y-79522368D01*
X122230872Y-79522364D01*
X122313807Y-79462108D01*
X122313808Y-79462108D01*
X121614936Y-78763237D01*
X121656995Y-78751968D01*
X121782411Y-78679560D01*
X121884813Y-78577158D01*
X121957221Y-78451742D01*
X121968490Y-78409684D01*
X122667361Y-79108555D01*
X122667361Y-79108554D01*
X122727617Y-79025619D01*
X122727621Y-79025613D01*
X122834805Y-78815252D01*
X122907768Y-78590697D01*
X122944703Y-78357502D01*
X122944703Y-78121397D01*
X122907768Y-77888202D01*
X122834805Y-77663647D01*
X122727617Y-77453278D01*
X122667361Y-77370344D01*
X122667361Y-77370343D01*
X121968490Y-78069215D01*
X121957221Y-78027158D01*
X121884813Y-77901742D01*
X121782411Y-77799340D01*
X121656995Y-77726932D01*
X121614937Y-77715662D01*
X122313808Y-77016790D01*
X122313807Y-77016788D01*
X122230877Y-76956537D01*
X122020505Y-76849347D01*
X121795950Y-76776384D01*
X121795951Y-76776384D01*
X121562755Y-76739450D01*
X121326651Y-76739450D01*
X121093455Y-76776384D01*
X120868900Y-76849347D01*
X120658533Y-76956534D01*
X120575597Y-77016790D01*
X121274469Y-77715662D01*
X121232411Y-77726932D01*
X121106995Y-77799340D01*
X121004593Y-77901742D01*
X120932185Y-78027158D01*
X120920915Y-78069216D01*
X120222043Y-77370344D01*
X120161787Y-77453280D01*
X120054600Y-77663647D01*
X119981637Y-77888202D01*
X119944703Y-78121397D01*
X116444703Y-78121397D01*
X116407768Y-77888202D01*
X116334805Y-77663647D01*
X116227617Y-77453278D01*
X116167361Y-77370344D01*
X116167361Y-77370343D01*
X115468490Y-78069215D01*
X115457221Y-78027158D01*
X115384813Y-77901742D01*
X115282411Y-77799340D01*
X115156995Y-77726932D01*
X115114937Y-77715662D01*
X115813808Y-77016790D01*
X115813807Y-77016789D01*
X115730877Y-76956537D01*
X115520505Y-76849347D01*
X115295950Y-76776384D01*
X115295951Y-76776384D01*
X115062755Y-76739450D01*
X114826651Y-76739450D01*
X114593455Y-76776384D01*
X114368900Y-76849347D01*
X114158533Y-76956534D01*
X114075597Y-77016790D01*
X114774469Y-77715662D01*
X114732411Y-77726932D01*
X114606995Y-77799340D01*
X114504593Y-77901742D01*
X114432185Y-78027158D01*
X114420915Y-78069216D01*
X113722043Y-77370344D01*
X113661787Y-77453280D01*
X113554600Y-77663647D01*
X113481637Y-77888202D01*
X113444703Y-78121397D01*
X99092483Y-78121397D01*
X99183035Y-78103386D01*
X99263784Y-78069937D01*
X99297233Y-78056083D01*
X99400008Y-77987411D01*
X99487411Y-77900008D01*
X102682791Y-74704628D01*
X108964457Y-74704628D01*
X109006929Y-74850823D01*
X109089239Y-74990002D01*
X109089246Y-74990011D01*
X109203577Y-75104342D01*
X109203586Y-75104349D01*
X109342765Y-75186659D01*
X109498050Y-75231773D01*
X109518961Y-75233417D01*
X110018961Y-75233417D01*
X110039871Y-75231773D01*
X110195156Y-75186659D01*
X110334335Y-75104349D01*
X110334344Y-75104342D01*
X110448675Y-74990011D01*
X110448682Y-74990002D01*
X110530992Y-74850823D01*
X110573465Y-74704628D01*
X110018961Y-74704628D01*
X110018961Y-75233417D01*
X109518961Y-75233417D01*
X109518961Y-74704628D01*
X108964457Y-74704628D01*
X102682791Y-74704628D01*
X102987410Y-74400009D01*
X103009500Y-74366950D01*
X103010036Y-74366149D01*
X103033274Y-74331369D01*
X103056083Y-74297233D01*
X103103385Y-74183035D01*
X103109207Y-74153765D01*
X103127500Y-74061804D01*
X103127500Y-73938197D01*
X103127500Y-73085490D01*
X103147185Y-73018451D01*
X103199989Y-72972696D01*
X103269147Y-72962752D01*
X103332703Y-72991777D01*
X103339181Y-72997809D01*
X104250830Y-73909458D01*
X104338233Y-73996861D01*
X104338234Y-73996862D01*
X104441007Y-74065532D01*
X104441008Y-74065532D01*
X104441009Y-74065533D01*
X104555206Y-74112836D01*
X104676433Y-74136949D01*
X104676437Y-74136950D01*
X104676438Y-74136950D01*
X104800045Y-74136950D01*
X104800045Y-74136949D01*
X104862581Y-74124511D01*
X104886772Y-74122128D01*
X108840554Y-74122128D01*
X108907593Y-74141813D01*
X108939715Y-74171676D01*
X108964456Y-74204628D01*
X109270609Y-74204628D01*
X109333727Y-74221895D01*
X109342566Y-74227122D01*
X109342569Y-74227122D01*
X109342571Y-74227124D01*
X109497963Y-74272270D01*
X109497966Y-74272270D01*
X109497968Y-74272271D01*
X109534271Y-74275128D01*
X109534279Y-74275128D01*
X110003643Y-74275128D01*
X110003651Y-74275128D01*
X110039954Y-74272271D01*
X110039956Y-74272270D01*
X110039958Y-74272270D01*
X110195350Y-74227124D01*
X110195350Y-74227123D01*
X110195356Y-74227122D01*
X110204194Y-74221895D01*
X110267313Y-74204628D01*
X110607768Y-74204628D01*
X110674807Y-74224313D01*
X110695450Y-74240947D01*
X110695964Y-74241461D01*
X110695966Y-74241464D01*
X110816253Y-74361751D01*
X110961832Y-74449757D01*
X111124242Y-74500365D01*
X111194822Y-74506779D01*
X111194825Y-74506779D01*
X111858051Y-74506779D01*
X111858054Y-74506779D01*
X111928634Y-74500365D01*
X112091044Y-74449757D01*
X112199843Y-74383985D01*
X112267395Y-74366149D01*
X112276151Y-74366700D01*
X112278688Y-74366950D01*
X112278689Y-74366950D01*
X112402295Y-74366950D01*
X113504392Y-74366950D01*
X113571431Y-74386635D01*
X113614877Y-74434655D01*
X113622572Y-74449757D01*
X113661360Y-74525883D01*
X113800186Y-74716960D01*
X113967193Y-74883967D01*
X114158270Y-75022793D01*
X114257694Y-75073452D01*
X114368706Y-75130016D01*
X114368708Y-75130016D01*
X114368711Y-75130018D01*
X114489115Y-75169139D01*
X114593334Y-75203003D01*
X114826606Y-75239950D01*
X114826611Y-75239950D01*
X115062800Y-75239950D01*
X115296071Y-75203003D01*
X115346372Y-75186659D01*
X115520695Y-75130018D01*
X115731136Y-75022793D01*
X115922213Y-74883967D01*
X116089220Y-74716960D01*
X116228046Y-74525883D01*
X116274529Y-74434655D01*
X116322504Y-74383859D01*
X116385014Y-74366950D01*
X120004392Y-74366950D01*
X120071431Y-74386635D01*
X120114877Y-74434655D01*
X120122572Y-74449757D01*
X120161360Y-74525883D01*
X120300186Y-74716960D01*
X120467193Y-74883967D01*
X120658270Y-75022793D01*
X120757694Y-75073452D01*
X120868706Y-75130016D01*
X120868708Y-75130016D01*
X120868711Y-75130018D01*
X120989115Y-75169139D01*
X121093334Y-75203003D01*
X121326606Y-75239950D01*
X121326611Y-75239950D01*
X121562800Y-75239950D01*
X121796071Y-75203003D01*
X121846372Y-75186659D01*
X122020695Y-75130018D01*
X122231136Y-75022793D01*
X122422213Y-74883967D01*
X122589220Y-74716960D01*
X122728046Y-74525883D01*
X122835271Y-74315442D01*
X122908256Y-74090818D01*
X122923137Y-73996862D01*
X122945203Y-73857547D01*
X122945203Y-73621352D01*
X122908256Y-73388081D01*
X122835269Y-73163453D01*
X122751820Y-72999677D01*
X122728046Y-72953017D01*
X122589220Y-72761940D01*
X122422213Y-72594933D01*
X122231136Y-72456107D01*
X122020699Y-72348883D01*
X121796071Y-72275896D01*
X121562800Y-72238950D01*
X121562795Y-72238950D01*
X121326611Y-72238950D01*
X121326606Y-72238950D01*
X121093334Y-72275896D01*
X120868706Y-72348883D01*
X120658269Y-72456107D01*
X120589594Y-72506003D01*
X120467193Y-72594933D01*
X120467191Y-72594935D01*
X120467190Y-72594935D01*
X120300188Y-72761937D01*
X120300188Y-72761938D01*
X120300186Y-72761940D01*
X120279889Y-72789877D01*
X120161360Y-72953016D01*
X120114877Y-73044245D01*
X120066902Y-73095041D01*
X120004392Y-73111950D01*
X116385014Y-73111950D01*
X116317975Y-73092265D01*
X116274529Y-73044245D01*
X116251820Y-72999677D01*
X116228046Y-72953017D01*
X116089220Y-72761940D01*
X115922213Y-72594933D01*
X115731136Y-72456107D01*
X115520699Y-72348883D01*
X115296071Y-72275896D01*
X115062800Y-72238950D01*
X115062795Y-72238950D01*
X114826611Y-72238950D01*
X114826606Y-72238950D01*
X114593334Y-72275896D01*
X114368706Y-72348883D01*
X114158269Y-72456107D01*
X114089594Y-72506003D01*
X113967193Y-72594933D01*
X113967191Y-72594935D01*
X113967190Y-72594935D01*
X113800188Y-72761937D01*
X113800188Y-72761938D01*
X113800186Y-72761940D01*
X113779889Y-72789877D01*
X113661360Y-72953016D01*
X113614877Y-73044245D01*
X113566902Y-73095041D01*
X113504392Y-73111950D01*
X112634591Y-73111950D01*
X112619324Y-73107902D01*
X112605999Y-73108609D01*
X112581149Y-73097783D01*
X112573164Y-73095666D01*
X112569347Y-73093489D01*
X112504554Y-73050196D01*
X112471105Y-73036341D01*
X112463904Y-73033358D01*
X112463902Y-73033357D01*
X112407801Y-73010119D01*
X112362722Y-72975888D01*
X112362213Y-72976398D01*
X112358490Y-72972675D01*
X112357647Y-72972035D01*
X112356912Y-72971097D01*
X112356911Y-72971096D01*
X112356910Y-72971094D01*
X112254775Y-72868959D01*
X112250377Y-72860904D01*
X112243041Y-72855390D01*
X112233896Y-72830721D01*
X112221291Y-72807636D01*
X112221945Y-72798483D01*
X112218755Y-72789877D01*
X112224398Y-72764182D01*
X112226275Y-72737944D01*
X112232172Y-72728786D01*
X112233744Y-72721634D01*
X112254947Y-72693426D01*
X112255201Y-72693172D01*
X112255452Y-72692923D01*
X112316842Y-72659560D01*
X112342958Y-72656779D01*
X112458802Y-72656779D01*
X112549846Y-72638668D01*
X112594134Y-72629859D01*
X112657875Y-72603456D01*
X112721613Y-72577056D01*
X112721614Y-72577055D01*
X112721617Y-72577054D01*
X112836349Y-72500393D01*
X115274922Y-70061818D01*
X115336245Y-70028334D01*
X115362603Y-70025500D01*
X119365319Y-70025500D01*
X119456363Y-70007389D01*
X119500651Y-69998580D01*
X119564392Y-69972177D01*
X119628130Y-69945777D01*
X119628131Y-69945776D01*
X119628134Y-69945775D01*
X119742866Y-69869114D01*
X120990834Y-68621146D01*
X121067495Y-68506414D01*
X121068902Y-68503019D01*
X121103321Y-68419921D01*
X121120300Y-68378931D01*
X121136958Y-68295189D01*
X121147220Y-68243599D01*
X121147220Y-66826722D01*
X121907887Y-66826722D01*
X121907887Y-67062827D01*
X121944821Y-67296022D01*
X122017784Y-67520577D01*
X122124974Y-67730949D01*
X122185225Y-67813879D01*
X122185227Y-67813880D01*
X122884099Y-67115008D01*
X122895369Y-67157067D01*
X122967777Y-67282483D01*
X123070179Y-67384885D01*
X123195595Y-67457293D01*
X123237652Y-67468562D01*
X122538780Y-68167433D01*
X122621715Y-68227689D01*
X122832084Y-68334877D01*
X123056639Y-68407840D01*
X123056638Y-68407840D01*
X123289835Y-68444775D01*
X123525939Y-68444775D01*
X123759134Y-68407840D01*
X123983689Y-68334877D01*
X124194050Y-68227693D01*
X124194056Y-68227689D01*
X124276991Y-68167433D01*
X124276992Y-68167433D01*
X123578120Y-67468562D01*
X123620179Y-67457293D01*
X123745595Y-67384885D01*
X123847997Y-67282483D01*
X123920405Y-67157067D01*
X123931674Y-67115009D01*
X124630545Y-67813880D01*
X124630545Y-67813879D01*
X124690801Y-67730944D01*
X124690805Y-67730938D01*
X124797989Y-67520577D01*
X124870952Y-67296022D01*
X124907887Y-67062827D01*
X124907887Y-66826722D01*
X128407887Y-66826722D01*
X128407887Y-67062827D01*
X128444821Y-67296022D01*
X128517784Y-67520577D01*
X128624974Y-67730949D01*
X128685225Y-67813879D01*
X128685227Y-67813880D01*
X129384099Y-67115008D01*
X129395369Y-67157067D01*
X129467777Y-67282483D01*
X129570179Y-67384885D01*
X129695595Y-67457293D01*
X129737652Y-67468562D01*
X129038780Y-68167433D01*
X129121715Y-68227689D01*
X129332084Y-68334877D01*
X129556639Y-68407840D01*
X129556638Y-68407840D01*
X129789835Y-68444775D01*
X130025939Y-68444775D01*
X130259134Y-68407840D01*
X130483689Y-68334877D01*
X130694050Y-68227693D01*
X130694056Y-68227689D01*
X130776991Y-68167433D01*
X130776992Y-68167433D01*
X130078120Y-67468562D01*
X130120179Y-67457293D01*
X130245595Y-67384885D01*
X130347997Y-67282483D01*
X130420405Y-67157067D01*
X130431674Y-67115009D01*
X131130545Y-67813880D01*
X131130545Y-67813879D01*
X131190801Y-67730944D01*
X131190805Y-67730938D01*
X131297989Y-67520577D01*
X131370952Y-67296022D01*
X131407887Y-67062827D01*
X131407887Y-66826722D01*
X131370952Y-66593527D01*
X131297989Y-66368972D01*
X131190801Y-66158603D01*
X131130545Y-66075669D01*
X131130545Y-66075668D01*
X130431674Y-66774540D01*
X130420405Y-66732483D01*
X130347997Y-66607067D01*
X130245595Y-66504665D01*
X130120179Y-66432257D01*
X130078121Y-66420987D01*
X130776992Y-65722115D01*
X130776991Y-65722113D01*
X130694061Y-65661862D01*
X130483689Y-65554672D01*
X130259134Y-65481709D01*
X130259135Y-65481709D01*
X130025939Y-65444775D01*
X129789835Y-65444775D01*
X129556639Y-65481709D01*
X129332084Y-65554672D01*
X129121717Y-65661859D01*
X129038781Y-65722115D01*
X129737653Y-66420987D01*
X129695595Y-66432257D01*
X129570179Y-66504665D01*
X129467777Y-66607067D01*
X129395369Y-66732483D01*
X129384099Y-66774541D01*
X128685227Y-66075669D01*
X128624971Y-66158605D01*
X128517784Y-66368972D01*
X128444821Y-66593527D01*
X128407887Y-66826722D01*
X124907887Y-66826722D01*
X124870952Y-66593527D01*
X124797989Y-66368972D01*
X124690801Y-66158603D01*
X124630545Y-66075669D01*
X124630545Y-66075668D01*
X123931674Y-66774540D01*
X123920405Y-66732483D01*
X123847997Y-66607067D01*
X123745595Y-66504665D01*
X123620179Y-66432257D01*
X123578121Y-66420987D01*
X124276992Y-65722115D01*
X124276991Y-65722114D01*
X124194061Y-65661862D01*
X123983689Y-65554672D01*
X123759134Y-65481709D01*
X123759135Y-65481709D01*
X123525939Y-65444775D01*
X123289835Y-65444775D01*
X123056639Y-65481709D01*
X122832084Y-65554672D01*
X122621717Y-65661859D01*
X122538781Y-65722115D01*
X123237653Y-66420987D01*
X123195595Y-66432257D01*
X123070179Y-66504665D01*
X122967777Y-66607067D01*
X122895369Y-66732483D01*
X122884099Y-66774541D01*
X122185227Y-66075669D01*
X122124971Y-66158605D01*
X122017784Y-66368972D01*
X121944821Y-66593527D01*
X121907887Y-66826722D01*
X121147220Y-66826722D01*
X121147220Y-63951163D01*
X121166905Y-63884124D01*
X121183534Y-63863486D01*
X121277192Y-63769829D01*
X121365198Y-63624250D01*
X121415806Y-63461840D01*
X121422220Y-63391260D01*
X121422220Y-62878028D01*
X121415806Y-62807448D01*
X121365198Y-62645038D01*
X121277192Y-62499459D01*
X121277190Y-62499457D01*
X121277189Y-62499455D01*
X121175058Y-62397324D01*
X121170719Y-62389379D01*
X121163471Y-62383953D01*
X121154235Y-62359190D01*
X121141573Y-62336001D01*
X121142218Y-62326970D01*
X121139055Y-62318488D01*
X121144671Y-62292667D01*
X121146557Y-62266309D01*
X121152375Y-62257255D01*
X121153907Y-62250215D01*
X121175052Y-62221968D01*
X121248560Y-62148460D01*
X121309882Y-62114978D01*
X121336239Y-62112144D01*
X121796181Y-62112144D01*
X121863220Y-62131829D01*
X121908975Y-62184633D01*
X121918919Y-62253791D01*
X121918654Y-62255542D01*
X121907387Y-62326677D01*
X121907387Y-62562872D01*
X121944333Y-62796143D01*
X122017320Y-63020771D01*
X122120722Y-63223706D01*
X122124544Y-63231208D01*
X122263370Y-63422285D01*
X122430377Y-63589292D01*
X122621454Y-63728118D01*
X122720878Y-63778777D01*
X122831890Y-63835341D01*
X122831892Y-63835341D01*
X122831895Y-63835343D01*
X122901420Y-63857933D01*
X123056518Y-63908328D01*
X123289790Y-63945275D01*
X123289795Y-63945275D01*
X123525984Y-63945275D01*
X123759255Y-63908328D01*
X123797289Y-63895970D01*
X123983879Y-63835343D01*
X124194320Y-63728118D01*
X124385397Y-63589292D01*
X124552404Y-63422285D01*
X124691230Y-63231208D01*
X124737713Y-63139980D01*
X124785688Y-63089184D01*
X124848198Y-63072275D01*
X128467576Y-63072275D01*
X128534615Y-63091960D01*
X128578061Y-63139980D01*
X128620722Y-63223706D01*
X128624544Y-63231208D01*
X128763370Y-63422285D01*
X128930377Y-63589292D01*
X129121454Y-63728118D01*
X129220878Y-63778777D01*
X129331890Y-63835341D01*
X129331892Y-63835341D01*
X129331895Y-63835343D01*
X129401420Y-63857933D01*
X129556518Y-63908328D01*
X129789790Y-63945275D01*
X129789795Y-63945275D01*
X130025984Y-63945275D01*
X130259255Y-63908328D01*
X130297289Y-63895970D01*
X130483879Y-63835343D01*
X130694320Y-63728118D01*
X130885397Y-63589292D01*
X131052404Y-63422285D01*
X131191230Y-63231208D01*
X131298455Y-63020767D01*
X131371440Y-62796143D01*
X131377177Y-62759919D01*
X131408387Y-62562872D01*
X131408387Y-62326677D01*
X131371440Y-62093406D01*
X131306945Y-61894913D01*
X131298455Y-61868783D01*
X131298453Y-61868780D01*
X131298453Y-61868778D01*
X131224176Y-61723003D01*
X131191230Y-61658342D01*
X131052404Y-61467265D01*
X130885397Y-61300258D01*
X130694320Y-61161432D01*
X130483883Y-61054208D01*
X130259255Y-60981221D01*
X130025984Y-60944275D01*
X130025979Y-60944275D01*
X129789795Y-60944275D01*
X129789790Y-60944275D01*
X129556518Y-60981221D01*
X129331890Y-61054208D01*
X129121453Y-61161432D01*
X129088027Y-61185718D01*
X128930377Y-61300258D01*
X128930375Y-61300260D01*
X128930374Y-61300260D01*
X128763372Y-61467262D01*
X128763372Y-61467263D01*
X128763370Y-61467265D01*
X128750426Y-61485081D01*
X128624544Y-61658341D01*
X128578061Y-61749570D01*
X128530086Y-61800366D01*
X128467576Y-61817275D01*
X124848198Y-61817275D01*
X124781159Y-61797590D01*
X124737713Y-61749570D01*
X124709309Y-61693824D01*
X124691230Y-61658342D01*
X124552404Y-61467265D01*
X124385397Y-61300258D01*
X124194320Y-61161432D01*
X123983883Y-61054208D01*
X123759255Y-60981221D01*
X123525984Y-60944275D01*
X123525979Y-60944275D01*
X123289795Y-60944275D01*
X123289790Y-60944275D01*
X123056517Y-60981222D01*
X123056514Y-60981222D01*
X122957142Y-61013511D01*
X122954165Y-61013596D01*
X122951630Y-61015162D01*
X122919452Y-61014587D01*
X122887301Y-61015506D01*
X122883849Y-61013952D01*
X122881772Y-61013915D01*
X122849934Y-60998683D01*
X122823803Y-60981223D01*
X122823802Y-60981222D01*
X122744994Y-60928564D01*
X122744985Y-60928559D01*
X122711450Y-60914669D01*
X122711448Y-60914668D01*
X122630791Y-60881258D01*
X122630783Y-60881256D01*
X122509563Y-60857144D01*
X122509559Y-60857144D01*
X121336239Y-60857144D01*
X121269200Y-60837459D01*
X121248562Y-60820829D01*
X121156905Y-60729172D01*
X121011326Y-60641166D01*
X120848916Y-60590558D01*
X120848914Y-60590557D01*
X120848912Y-60590557D01*
X120799498Y-60586067D01*
X120778336Y-60584144D01*
X120115104Y-60584144D01*
X120095865Y-60585892D01*
X120044527Y-60590557D01*
X119882113Y-60641166D01*
X119736531Y-60729174D01*
X119736530Y-60729175D01*
X119730999Y-60734707D01*
X119704071Y-60749410D01*
X119678253Y-60766003D01*
X119672052Y-60766894D01*
X119669676Y-60768192D01*
X119643318Y-60771026D01*
X119590348Y-60771026D01*
X119527229Y-60753758D01*
X119518391Y-60748532D01*
X119518389Y-60748531D01*
X119518385Y-60748529D01*
X119362993Y-60703383D01*
X119362987Y-60703382D01*
X119326693Y-60700526D01*
X119326686Y-60700526D01*
X119215996Y-60700526D01*
X119148957Y-60680841D01*
X119103202Y-60628037D01*
X119091996Y-60576526D01*
X119091996Y-60521026D01*
X118965996Y-60521026D01*
X118898957Y-60501341D01*
X118853202Y-60448537D01*
X118841996Y-60397026D01*
X118841996Y-60271026D01*
X119341996Y-60271026D01*
X119896500Y-60271026D01*
X119854027Y-60124830D01*
X119771717Y-59985651D01*
X119771710Y-59985642D01*
X119657379Y-59871311D01*
X119657370Y-59871304D01*
X119518191Y-59788994D01*
X119518186Y-59788992D01*
X119362914Y-59743881D01*
X119362908Y-59743880D01*
X119341996Y-59742235D01*
X119341996Y-60271026D01*
X118841996Y-60271026D01*
X118841996Y-59742236D01*
X118841995Y-59742235D01*
X118821083Y-59743880D01*
X118821077Y-59743881D01*
X118665805Y-59788992D01*
X118665800Y-59788994D01*
X118526621Y-59871304D01*
X118526612Y-59871311D01*
X118412281Y-59985642D01*
X118412272Y-59985653D01*
X118374942Y-60048775D01*
X118323872Y-60096458D01*
X118255131Y-60108961D01*
X118190542Y-60082315D01*
X118165109Y-60054543D01*
X118121792Y-59989715D01*
X118121786Y-59989707D01*
X118010292Y-59878213D01*
X118010288Y-59878210D01*
X117879185Y-59790609D01*
X117879172Y-59790602D01*
X117733501Y-59730264D01*
X117733489Y-59730261D01*
X117578845Y-59699500D01*
X117578842Y-59699500D01*
X117421158Y-59699500D01*
X117421153Y-59699500D01*
X117349454Y-59713762D01*
X117279862Y-59707535D01*
X117237582Y-59679826D01*
X116612646Y-59054888D01*
X116612645Y-59054887D01*
X116497907Y-58978222D01*
X116370432Y-58925421D01*
X116370422Y-58925418D01*
X116235096Y-58898500D01*
X116235094Y-58898500D01*
X116235093Y-58898500D01*
X112940519Y-58898500D01*
X112911078Y-58889855D01*
X112881092Y-58883332D01*
X112876076Y-58879577D01*
X112873480Y-58878815D01*
X112852838Y-58862181D01*
X112736819Y-58746162D01*
X112703334Y-58684839D01*
X112700500Y-58658481D01*
X112700500Y-58641519D01*
X112720185Y-58574480D01*
X112736814Y-58553842D01*
X112830472Y-58460185D01*
X112918478Y-58314606D01*
X112969086Y-58152196D01*
X112975500Y-58081616D01*
X112975500Y-57568384D01*
X112969086Y-57497804D01*
X112918478Y-57335394D01*
X112830472Y-57189815D01*
X112830470Y-57189813D01*
X112830469Y-57189811D01*
X112728338Y-57087680D01*
X112723999Y-57079735D01*
X112716751Y-57074309D01*
X112707515Y-57049546D01*
X112694853Y-57026357D01*
X112695498Y-57017326D01*
X112692335Y-57008844D01*
X112697951Y-56983023D01*
X112699837Y-56956665D01*
X112705655Y-56947611D01*
X112707187Y-56940571D01*
X112728332Y-56912324D01*
X112801840Y-56838816D01*
X112863162Y-56805334D01*
X112889519Y-56802500D01*
X113133205Y-56802500D01*
X113200244Y-56822185D01*
X113245999Y-56874989D01*
X113255678Y-56907102D01*
X113286446Y-57101368D01*
X113359433Y-57325996D01*
X113446976Y-57497807D01*
X113466657Y-57536433D01*
X113605483Y-57727510D01*
X113772490Y-57894517D01*
X113963567Y-58033343D01*
X114053457Y-58079144D01*
X114174003Y-58140566D01*
X114174005Y-58140566D01*
X114174008Y-58140568D01*
X114272284Y-58172500D01*
X114398631Y-58213553D01*
X114631903Y-58250500D01*
X114631908Y-58250500D01*
X114868097Y-58250500D01*
X115101368Y-58213553D01*
X115325992Y-58140568D01*
X115536433Y-58033343D01*
X115727510Y-57894517D01*
X115894517Y-57727510D01*
X116033343Y-57536433D01*
X116079826Y-57445205D01*
X116127801Y-57394409D01*
X116190311Y-57377500D01*
X119809689Y-57377500D01*
X119876728Y-57397185D01*
X119920174Y-57445205D01*
X119966657Y-57536433D01*
X120105483Y-57727510D01*
X120272490Y-57894517D01*
X120463567Y-58033343D01*
X120553457Y-58079144D01*
X120674003Y-58140566D01*
X120674005Y-58140566D01*
X120674008Y-58140568D01*
X120772284Y-58172500D01*
X120898631Y-58213553D01*
X121131903Y-58250500D01*
X121131908Y-58250500D01*
X121368097Y-58250500D01*
X121601368Y-58213553D01*
X121825992Y-58140568D01*
X122036433Y-58033343D01*
X122227510Y-57894517D01*
X122394517Y-57727510D01*
X122533343Y-57536433D01*
X122640568Y-57325992D01*
X122713553Y-57101368D01*
X122722745Y-57043334D01*
X122750500Y-56868097D01*
X122750500Y-56631902D01*
X122713553Y-56398631D01*
X122640566Y-56174003D01*
X122533342Y-55963566D01*
X122394517Y-55772490D01*
X122227510Y-55605483D01*
X122036433Y-55466657D01*
X121825996Y-55359433D01*
X121601368Y-55286446D01*
X121368097Y-55249500D01*
X121368092Y-55249500D01*
X121131908Y-55249500D01*
X121131903Y-55249500D01*
X120898631Y-55286446D01*
X120674003Y-55359433D01*
X120463566Y-55466657D01*
X120402285Y-55511181D01*
X120272490Y-55605483D01*
X120272488Y-55605485D01*
X120272487Y-55605485D01*
X120105485Y-55772487D01*
X120105485Y-55772488D01*
X120105483Y-55772490D01*
X120045862Y-55854550D01*
X119966657Y-55963566D01*
X119920174Y-56054795D01*
X119872199Y-56105591D01*
X119809689Y-56122500D01*
X116190311Y-56122500D01*
X116123272Y-56102815D01*
X116079826Y-56054795D01*
X116033342Y-55963566D01*
X115894517Y-55772490D01*
X115727510Y-55605483D01*
X115536433Y-55466657D01*
X115325996Y-55359433D01*
X115101368Y-55286446D01*
X114868097Y-55249500D01*
X114868092Y-55249500D01*
X114631908Y-55249500D01*
X114631903Y-55249500D01*
X114398631Y-55286446D01*
X114174003Y-55359433D01*
X113963566Y-55466657D01*
X113884892Y-55523818D01*
X113819085Y-55547298D01*
X113812006Y-55547500D01*
X112889519Y-55547500D01*
X112822480Y-55527815D01*
X112801842Y-55511185D01*
X112710185Y-55419528D01*
X112564606Y-55331522D01*
X112402196Y-55280914D01*
X112402194Y-55280913D01*
X112402192Y-55280913D01*
X112352778Y-55276423D01*
X112331616Y-55274500D01*
X111668384Y-55274500D01*
X111597804Y-55280914D01*
X111580048Y-55286447D01*
X111462447Y-55323092D01*
X111392587Y-55324242D01*
X111333195Y-55287441D01*
X111326397Y-55279158D01*
X111304505Y-55250000D01*
X110998352Y-55250000D01*
X110935233Y-55232732D01*
X110926395Y-55227506D01*
X110926393Y-55227505D01*
X110926389Y-55227503D01*
X110770997Y-55182357D01*
X110770991Y-55182356D01*
X110734697Y-55179500D01*
X110734690Y-55179500D01*
X110265310Y-55179500D01*
X110265302Y-55179500D01*
X110229008Y-55182356D01*
X110229002Y-55182357D01*
X110073610Y-55227503D01*
X110073605Y-55227506D01*
X110064766Y-55232732D01*
X110001648Y-55250000D01*
X109695495Y-55250000D01*
X109684865Y-55264156D01*
X109684810Y-55283773D01*
X109646869Y-55342444D01*
X109583230Y-55371288D01*
X109565933Y-55372500D01*
X104633115Y-55372500D01*
X104566076Y-55352815D01*
X104545434Y-55336181D01*
X104071839Y-54862586D01*
X103959253Y-54750000D01*
X109695496Y-54750000D01*
X110250000Y-54750000D01*
X110750000Y-54750000D01*
X111304504Y-54750000D01*
X111262031Y-54603804D01*
X111179721Y-54464625D01*
X111179714Y-54464616D01*
X111065383Y-54350285D01*
X111065374Y-54350278D01*
X110926195Y-54267968D01*
X110926190Y-54267966D01*
X110770918Y-54222855D01*
X110770912Y-54222854D01*
X110750000Y-54221209D01*
X110750000Y-54750000D01*
X110250000Y-54750000D01*
X110250000Y-54221210D01*
X110249999Y-54221209D01*
X110229087Y-54222854D01*
X110229081Y-54222855D01*
X110073809Y-54267966D01*
X110073804Y-54267968D01*
X109934625Y-54350278D01*
X109934616Y-54350285D01*
X109820285Y-54464616D01*
X109820278Y-54464625D01*
X109737968Y-54603804D01*
X109695496Y-54750000D01*
X103959253Y-54750000D01*
X103221845Y-54012591D01*
X103221841Y-54012588D01*
X103119073Y-53943920D01*
X103119060Y-53943913D01*
X103085619Y-53930062D01*
X103004869Y-53896614D01*
X103004861Y-53896612D01*
X102883641Y-53872500D01*
X102883637Y-53872500D01*
X93061804Y-53872500D01*
X92938197Y-53872500D01*
X92938192Y-53872500D01*
X92816973Y-53896611D01*
X92816973Y-53896612D01*
X92816970Y-53896613D01*
X92816966Y-53896614D01*
X92750070Y-53924323D01*
X92750068Y-53924323D01*
X92702770Y-53943915D01*
X92599989Y-54012590D01*
X92599988Y-54012591D01*
X91749995Y-54862586D01*
X91599992Y-55012589D01*
X91556289Y-55056292D01*
X91512586Y-55099994D01*
X91512585Y-55099996D01*
X91443233Y-55203789D01*
X91441586Y-55208393D01*
X91396615Y-55316962D01*
X91396612Y-55316972D01*
X91375262Y-55424310D01*
X91375262Y-55424314D01*
X91372500Y-55438197D01*
X91372500Y-65061807D01*
X91396612Y-65183028D01*
X91396613Y-65183034D01*
X91396614Y-65183035D01*
X91425656Y-65253146D01*
X91443917Y-65297233D01*
X91491951Y-65369121D01*
X91494499Y-65372935D01*
X91494500Y-65372936D01*
X91512590Y-65400010D01*
X92961807Y-66849227D01*
X92995292Y-66910550D01*
X92990308Y-66980242D01*
X92948436Y-67036175D01*
X92882972Y-67060592D01*
X92874126Y-67060908D01*
X84566789Y-67060908D01*
X84499750Y-67041223D01*
X84479108Y-67024589D01*
X70270406Y-52815887D01*
X70236921Y-52754564D01*
X70241905Y-52684872D01*
X70283777Y-52628939D01*
X70285118Y-52627949D01*
X70419792Y-52530104D01*
X70570104Y-52379792D01*
X70570106Y-52379788D01*
X70570109Y-52379786D01*
X70655890Y-52261717D01*
X70695051Y-52207816D01*
X70699793Y-52198508D01*
X70747763Y-52147711D01*
X70815583Y-52130911D01*
X70881719Y-52153445D01*
X70920763Y-52198500D01*
X70925373Y-52207547D01*
X70964728Y-52261716D01*
X71597037Y-51629408D01*
X71614075Y-51692993D01*
X71679901Y-51807007D01*
X71772993Y-51900099D01*
X71887007Y-51965925D01*
X71950590Y-51982962D01*
X71318282Y-52615269D01*
X71318282Y-52615270D01*
X71372449Y-52654624D01*
X71561782Y-52751095D01*
X71763870Y-52816757D01*
X71973754Y-52850000D01*
X72186246Y-52850000D01*
X72396127Y-52816757D01*
X72396130Y-52816757D01*
X72598217Y-52751095D01*
X72787554Y-52654622D01*
X72841716Y-52615270D01*
X72841717Y-52615270D01*
X72209408Y-51982962D01*
X72272993Y-51965925D01*
X72387007Y-51900099D01*
X72480099Y-51807007D01*
X72545925Y-51692993D01*
X72562962Y-51629408D01*
X73195270Y-52261717D01*
X73195270Y-52261716D01*
X73234622Y-52207555D01*
X73239232Y-52198507D01*
X73287205Y-52147709D01*
X73355025Y-52130912D01*
X73421161Y-52153447D01*
X73460204Y-52198504D01*
X73464949Y-52207817D01*
X73589890Y-52379786D01*
X73740213Y-52530109D01*
X73912179Y-52655048D01*
X73912181Y-52655049D01*
X73912184Y-52655051D01*
X74101588Y-52751557D01*
X74303757Y-52817246D01*
X74513713Y-52850500D01*
X74513714Y-52850500D01*
X74726286Y-52850500D01*
X74726287Y-52850500D01*
X74936243Y-52817246D01*
X75138412Y-52751557D01*
X75327816Y-52655051D01*
X75398696Y-52603554D01*
X75499786Y-52530109D01*
X75499788Y-52530106D01*
X75499792Y-52530104D01*
X75650104Y-52379792D01*
X75650106Y-52379788D01*
X75650109Y-52379786D01*
X75775048Y-52207820D01*
X75775047Y-52207820D01*
X75775051Y-52207816D01*
X75813708Y-52131947D01*
X113250000Y-52131947D01*
X113250000Y-52368052D01*
X113286934Y-52601247D01*
X113359897Y-52825802D01*
X113467087Y-53036174D01*
X113527338Y-53119104D01*
X113527340Y-53119105D01*
X114226212Y-52420233D01*
X114237482Y-52462292D01*
X114309890Y-52587708D01*
X114412292Y-52690110D01*
X114537708Y-52762518D01*
X114579765Y-52773787D01*
X113880893Y-53472658D01*
X113963828Y-53532914D01*
X114174197Y-53640102D01*
X114398752Y-53713065D01*
X114398751Y-53713065D01*
X114631948Y-53750000D01*
X114868052Y-53750000D01*
X115101247Y-53713065D01*
X115325802Y-53640102D01*
X115536163Y-53532918D01*
X115536169Y-53532914D01*
X115619104Y-53472658D01*
X115619105Y-53472658D01*
X114920233Y-52773787D01*
X114962292Y-52762518D01*
X115087708Y-52690110D01*
X115190110Y-52587708D01*
X115262518Y-52462292D01*
X115273787Y-52420234D01*
X115972658Y-53119105D01*
X115972658Y-53119104D01*
X116032914Y-53036169D01*
X116032918Y-53036163D01*
X116140102Y-52825802D01*
X116213065Y-52601247D01*
X116250000Y-52368052D01*
X116250000Y-52131947D01*
X119750000Y-52131947D01*
X119750000Y-52368052D01*
X119786934Y-52601247D01*
X119859897Y-52825802D01*
X119967087Y-53036174D01*
X120027338Y-53119104D01*
X120027340Y-53119105D01*
X120726212Y-52420233D01*
X120737482Y-52462292D01*
X120809890Y-52587708D01*
X120912292Y-52690110D01*
X121037708Y-52762518D01*
X121079765Y-52773787D01*
X120380893Y-53472658D01*
X120463828Y-53532914D01*
X120674197Y-53640102D01*
X120898752Y-53713065D01*
X120898751Y-53713065D01*
X121131948Y-53750000D01*
X121368052Y-53750000D01*
X121601247Y-53713065D01*
X121825802Y-53640102D01*
X122036163Y-53532918D01*
X122036169Y-53532914D01*
X122119104Y-53472658D01*
X122119105Y-53472658D01*
X121420233Y-52773787D01*
X121462292Y-52762518D01*
X121587708Y-52690110D01*
X121690110Y-52587708D01*
X121762518Y-52462292D01*
X121773787Y-52420234D01*
X122472658Y-53119105D01*
X122472658Y-53119104D01*
X122532914Y-53036169D01*
X122532918Y-53036163D01*
X122640102Y-52825802D01*
X122713065Y-52601247D01*
X122750000Y-52368052D01*
X122750000Y-52131947D01*
X122713065Y-51898752D01*
X122640102Y-51674197D01*
X122532914Y-51463828D01*
X122472658Y-51380894D01*
X122472658Y-51380893D01*
X121773787Y-52079765D01*
X121762518Y-52037708D01*
X121690110Y-51912292D01*
X121587708Y-51809890D01*
X121462292Y-51737482D01*
X121420234Y-51726212D01*
X122119105Y-51027340D01*
X122119104Y-51027338D01*
X122036174Y-50967087D01*
X121825802Y-50859897D01*
X121601247Y-50786934D01*
X121601248Y-50786934D01*
X121368052Y-50750000D01*
X121131948Y-50750000D01*
X120898752Y-50786934D01*
X120674197Y-50859897D01*
X120463830Y-50967084D01*
X120380894Y-51027340D01*
X121079766Y-51726212D01*
X121037708Y-51737482D01*
X120912292Y-51809890D01*
X120809890Y-51912292D01*
X120737482Y-52037708D01*
X120726212Y-52079766D01*
X120027340Y-51380894D01*
X119967084Y-51463830D01*
X119859897Y-51674197D01*
X119786934Y-51898752D01*
X119750000Y-52131947D01*
X116250000Y-52131947D01*
X116213065Y-51898752D01*
X116140102Y-51674197D01*
X116032914Y-51463828D01*
X115972658Y-51380894D01*
X115972658Y-51380893D01*
X115273787Y-52079765D01*
X115262518Y-52037708D01*
X115190110Y-51912292D01*
X115087708Y-51809890D01*
X114962292Y-51737482D01*
X114920234Y-51726212D01*
X115619105Y-51027340D01*
X115619104Y-51027339D01*
X115536174Y-50967087D01*
X115325802Y-50859897D01*
X115101247Y-50786934D01*
X115101248Y-50786934D01*
X114868052Y-50750000D01*
X114631948Y-50750000D01*
X114398752Y-50786934D01*
X114174197Y-50859897D01*
X113963830Y-50967084D01*
X113880894Y-51027340D01*
X114579766Y-51726212D01*
X114537708Y-51737482D01*
X114412292Y-51809890D01*
X114309890Y-51912292D01*
X114237482Y-52037708D01*
X114226212Y-52079766D01*
X113527340Y-51380894D01*
X113467084Y-51463830D01*
X113359897Y-51674197D01*
X113286934Y-51898752D01*
X113250000Y-52131947D01*
X75813708Y-52131947D01*
X75871557Y-52018412D01*
X75937246Y-51816243D01*
X75970500Y-51606287D01*
X75970500Y-51393713D01*
X75937246Y-51183757D01*
X75871557Y-50981588D01*
X75775051Y-50792184D01*
X75775049Y-50792181D01*
X75775048Y-50792179D01*
X75650109Y-50620213D01*
X75499786Y-50469890D01*
X75327820Y-50344951D01*
X75138414Y-50248444D01*
X75138413Y-50248443D01*
X75138412Y-50248443D01*
X74936243Y-50182754D01*
X74936241Y-50182753D01*
X74936240Y-50182753D01*
X74774957Y-50157208D01*
X74726287Y-50149500D01*
X74513713Y-50149500D01*
X74465042Y-50157208D01*
X74303760Y-50182753D01*
X74101585Y-50248444D01*
X73912179Y-50344951D01*
X73740213Y-50469890D01*
X73589890Y-50620213D01*
X73464949Y-50792182D01*
X73460202Y-50801499D01*
X73412227Y-50852293D01*
X73344405Y-50869087D01*
X73278271Y-50846548D01*
X73239234Y-50801495D01*
X73234626Y-50792452D01*
X73195270Y-50738282D01*
X73195269Y-50738282D01*
X72562962Y-51370590D01*
X72545925Y-51307007D01*
X72480099Y-51192993D01*
X72387007Y-51099901D01*
X72272993Y-51034075D01*
X72209409Y-51017037D01*
X72841716Y-50384728D01*
X72787550Y-50345375D01*
X72598217Y-50248904D01*
X72396129Y-50183242D01*
X72186246Y-50150000D01*
X71973754Y-50150000D01*
X71763872Y-50183242D01*
X71763869Y-50183242D01*
X71561782Y-50248904D01*
X71372439Y-50345380D01*
X71318282Y-50384727D01*
X71318282Y-50384728D01*
X71950591Y-51017037D01*
X71887007Y-51034075D01*
X71772993Y-51099901D01*
X71679901Y-51192993D01*
X71614075Y-51307007D01*
X71597037Y-51370591D01*
X70964728Y-50738282D01*
X70964727Y-50738282D01*
X70925380Y-50792440D01*
X70925376Y-50792446D01*
X70920760Y-50801505D01*
X70872781Y-50852297D01*
X70804959Y-50869087D01*
X70738826Y-50846543D01*
X70699794Y-50801493D01*
X70695051Y-50792184D01*
X70695049Y-50792181D01*
X70695048Y-50792179D01*
X70570109Y-50620213D01*
X70419786Y-50469890D01*
X70247820Y-50344951D01*
X70058414Y-50248444D01*
X70058413Y-50248443D01*
X70058412Y-50248443D01*
X69856243Y-50182754D01*
X69856241Y-50182753D01*
X69856240Y-50182753D01*
X69694957Y-50157208D01*
X69646287Y-50149500D01*
X69433713Y-50149500D01*
X69385042Y-50157208D01*
X69223760Y-50182753D01*
X69021585Y-50248444D01*
X68832179Y-50344951D01*
X68660215Y-50469889D01*
X68546673Y-50583431D01*
X68485350Y-50616915D01*
X68415658Y-50611931D01*
X68359725Y-50570059D01*
X68342810Y-50539082D01*
X68293797Y-50407671D01*
X68293793Y-50407664D01*
X68207547Y-50292455D01*
X68207544Y-50292452D01*
X68092335Y-50206206D01*
X68092328Y-50206202D01*
X67957482Y-50155908D01*
X67957483Y-50155908D01*
X67897883Y-50149501D01*
X67897881Y-50149500D01*
X67897873Y-50149500D01*
X67897864Y-50149500D01*
X66102129Y-50149500D01*
X66102123Y-50149501D01*
X66042516Y-50155908D01*
X65907671Y-50206202D01*
X65907664Y-50206206D01*
X65792455Y-50292452D01*
X65792452Y-50292455D01*
X65706206Y-50407664D01*
X65706202Y-50407671D01*
X65655908Y-50542517D01*
X65649501Y-50602116D01*
X65649500Y-50602135D01*
X65649500Y-52397870D01*
X65649501Y-52397876D01*
X65655908Y-52457483D01*
X65706202Y-52592328D01*
X65706206Y-52592335D01*
X65792452Y-52707544D01*
X65792455Y-52707547D01*
X65907664Y-52793793D01*
X65907671Y-52793797D01*
X66042517Y-52844091D01*
X66042516Y-52844091D01*
X66049444Y-52844835D01*
X66102127Y-52850500D01*
X66911718Y-52850499D01*
X66978757Y-52870183D01*
X66999399Y-52886818D01*
X83512589Y-69400008D01*
X83578884Y-69466303D01*
X83599994Y-69487413D01*
X83599996Y-69487414D01*
X83702756Y-69556076D01*
X83702758Y-69556077D01*
X83702767Y-69556083D01*
X83727772Y-69566440D01*
X83750071Y-69575677D01*
X83792254Y-69593149D01*
X83816966Y-69603386D01*
X83938192Y-69627499D01*
X83938196Y-69627500D01*
X83938197Y-69627500D01*
X84061804Y-69627500D01*
X93396000Y-69627500D01*
X93463039Y-69647185D01*
X93508794Y-69699989D01*
X93520000Y-69751500D01*
X93520000Y-75248500D01*
X93500315Y-75315539D01*
X93447511Y-75361294D01*
X93396000Y-75372500D01*
X60954749Y-75372500D01*
X60887710Y-75352815D01*
X60867068Y-75336181D01*
X51163819Y-65632932D01*
X51130334Y-65571609D01*
X51127500Y-65545251D01*
X51127500Y-59938194D01*
X51103386Y-59816970D01*
X51103385Y-59816969D01*
X51103385Y-59816965D01*
X51090352Y-59785500D01*
X51056086Y-59702773D01*
X51056079Y-59702760D01*
X50987412Y-59599993D01*
X50947417Y-59559998D01*
X50900008Y-59512589D01*
X49751819Y-58364400D01*
X49718334Y-58303077D01*
X49715500Y-58276719D01*
X49715500Y-58079157D01*
X49715499Y-58079144D01*
X49705087Y-57977225D01*
X49650362Y-57812075D01*
X49650358Y-57812069D01*
X49650357Y-57812066D01*
X49559028Y-57664000D01*
X49559025Y-57663996D01*
X49436003Y-57540974D01*
X49435999Y-57540971D01*
X49287933Y-57449642D01*
X49287927Y-57449639D01*
X49287925Y-57449638D01*
X49274547Y-57445205D01*
X49122776Y-57394913D01*
X49020855Y-57384500D01*
X49020848Y-57384500D01*
X48434152Y-57384500D01*
X48434144Y-57384500D01*
X48332223Y-57394913D01*
X48167077Y-57449637D01*
X48167066Y-57449642D01*
X48019000Y-57540971D01*
X48018996Y-57540974D01*
X47895974Y-57663996D01*
X47895971Y-57664000D01*
X47895538Y-57664703D01*
X47895114Y-57665083D01*
X47891493Y-57669664D01*
X47890710Y-57669045D01*
X47843590Y-57711428D01*
X47774628Y-57722649D01*
X47710546Y-57694806D01*
X47688657Y-57669544D01*
X47688507Y-57669664D01*
X47685859Y-57666315D01*
X47684462Y-57664703D01*
X47684028Y-57664000D01*
X47684025Y-57663996D01*
X47561003Y-57540974D01*
X47560999Y-57540971D01*
X47412933Y-57449642D01*
X47412927Y-57449639D01*
X47412925Y-57449638D01*
X47399547Y-57445205D01*
X47247776Y-57394913D01*
X47145855Y-57384500D01*
X47145848Y-57384500D01*
X46559152Y-57384500D01*
X46559144Y-57384500D01*
X46457223Y-57394913D01*
X46292077Y-57449637D01*
X46292066Y-57449642D01*
X46144000Y-57540971D01*
X46143996Y-57540974D01*
X46020974Y-57663996D01*
X46020971Y-57664000D01*
X45929642Y-57812066D01*
X45929637Y-57812077D01*
X45909614Y-57872504D01*
X45869841Y-57929949D01*
X45805325Y-57956772D01*
X45791908Y-57957500D01*
X45200393Y-57957500D01*
X45133354Y-57937815D01*
X45094277Y-57897651D01*
X45086941Y-57885516D01*
X45080472Y-57874815D01*
X45080471Y-57874814D01*
X45080468Y-57874810D01*
X44960188Y-57754530D01*
X44915493Y-57727511D01*
X44814606Y-57666522D01*
X44652196Y-57615914D01*
X44652194Y-57615913D01*
X44652192Y-57615913D01*
X44602778Y-57611423D01*
X44581616Y-57609500D01*
X44068384Y-57609500D01*
X44049145Y-57611248D01*
X43997807Y-57615913D01*
X43835393Y-57666522D01*
X43689811Y-57754530D01*
X43689810Y-57754531D01*
X43587327Y-57857015D01*
X43526004Y-57890500D01*
X43456312Y-57885516D01*
X43411965Y-57857015D01*
X43309877Y-57754927D01*
X43164395Y-57666980D01*
X43164396Y-57666980D01*
X43002105Y-57616409D01*
X43002106Y-57616409D01*
X42931572Y-57610000D01*
X42925000Y-57610000D01*
X42925000Y-59559999D01*
X42931581Y-59559999D01*
X43002102Y-59553591D01*
X43002107Y-59553590D01*
X43164396Y-59503018D01*
X43309877Y-59415072D01*
X43309878Y-59415071D01*
X43411963Y-59312985D01*
X43473286Y-59279499D01*
X43542977Y-59284483D01*
X43587326Y-59312984D01*
X43689811Y-59415469D01*
X43689813Y-59415470D01*
X43689815Y-59415472D01*
X43835394Y-59503478D01*
X43997804Y-59554086D01*
X44068384Y-59560500D01*
X44068387Y-59560500D01*
X44581613Y-59560500D01*
X44581616Y-59560500D01*
X44652196Y-59554086D01*
X44814606Y-59503478D01*
X44960185Y-59415472D01*
X45080472Y-59295185D01*
X45094277Y-59272349D01*
X45145805Y-59225162D01*
X45200393Y-59212500D01*
X45791908Y-59212500D01*
X45858947Y-59232185D01*
X45904702Y-59284989D01*
X45909614Y-59297496D01*
X45929637Y-59357922D01*
X45929642Y-59357933D01*
X46020971Y-59505999D01*
X46020974Y-59506003D01*
X46143996Y-59629025D01*
X46144000Y-59629028D01*
X46292066Y-59720357D01*
X46292069Y-59720358D01*
X46292075Y-59720362D01*
X46457225Y-59775087D01*
X46559152Y-59785500D01*
X46559157Y-59785500D01*
X47145843Y-59785500D01*
X47145848Y-59785500D01*
X47247775Y-59775087D01*
X47412925Y-59720362D01*
X47561003Y-59629026D01*
X47684026Y-59506003D01*
X47684458Y-59505301D01*
X47684881Y-59504921D01*
X47688507Y-59500336D01*
X47689290Y-59500955D01*
X47736402Y-59458575D01*
X47805364Y-59447349D01*
X47869448Y-59475188D01*
X47891342Y-59500455D01*
X47891493Y-59500336D01*
X47894143Y-59503687D01*
X47895540Y-59505299D01*
X47895972Y-59505999D01*
X47895975Y-59506004D01*
X48018996Y-59629025D01*
X48019000Y-59629028D01*
X48167066Y-59720357D01*
X48167069Y-59720358D01*
X48167075Y-59720362D01*
X48332225Y-59775087D01*
X48434152Y-59785500D01*
X48434157Y-59785500D01*
X49020843Y-59785500D01*
X49020848Y-59785500D01*
X49122775Y-59775087D01*
X49249137Y-59733214D01*
X49318964Y-59730813D01*
X49375821Y-59763240D01*
X49836181Y-60223600D01*
X49869666Y-60284923D01*
X49872500Y-60311281D01*
X49872500Y-62234980D01*
X49852815Y-62302019D01*
X49800011Y-62347774D01*
X49730853Y-62357718D01*
X49667297Y-62328693D01*
X49642962Y-62300077D01*
X49559028Y-62164000D01*
X49559025Y-62163996D01*
X49436003Y-62040974D01*
X49435999Y-62040971D01*
X49287933Y-61949642D01*
X49287927Y-61949639D01*
X49287925Y-61949638D01*
X49280414Y-61947149D01*
X49122776Y-61894913D01*
X49020855Y-61884500D01*
X49020848Y-61884500D01*
X48434152Y-61884500D01*
X48434144Y-61884500D01*
X48332223Y-61894913D01*
X48167077Y-61949637D01*
X48167066Y-61949642D01*
X48019000Y-62040971D01*
X48018996Y-62040974D01*
X47895974Y-62163996D01*
X47895971Y-62164000D01*
X47895538Y-62164703D01*
X47895114Y-62165083D01*
X47891493Y-62169664D01*
X47890710Y-62169045D01*
X47843590Y-62211428D01*
X47774628Y-62222649D01*
X47710546Y-62194806D01*
X47688657Y-62169544D01*
X47688507Y-62169664D01*
X47685859Y-62166315D01*
X47684462Y-62164703D01*
X47684028Y-62164000D01*
X47684025Y-62163996D01*
X47561003Y-62040974D01*
X47560999Y-62040971D01*
X47412933Y-61949642D01*
X47412927Y-61949639D01*
X47412925Y-61949638D01*
X47405414Y-61947149D01*
X47247776Y-61894913D01*
X47145855Y-61884500D01*
X47145848Y-61884500D01*
X46559152Y-61884500D01*
X46559144Y-61884500D01*
X46457223Y-61894913D01*
X46341503Y-61933259D01*
X46292075Y-61949638D01*
X46292074Y-61949638D01*
X46287344Y-61951206D01*
X46248340Y-61957500D01*
X44225695Y-61957500D01*
X44104470Y-61981613D01*
X44104460Y-61981616D01*
X43990273Y-62028913D01*
X43990260Y-62028920D01*
X43887492Y-62097588D01*
X43887488Y-62097591D01*
X43803473Y-62181607D01*
X43779943Y-62200042D01*
X43689814Y-62254528D01*
X43689810Y-62254531D01*
X43587327Y-62357015D01*
X43526004Y-62390500D01*
X43456312Y-62385516D01*
X43411965Y-62357015D01*
X43309877Y-62254927D01*
X43164395Y-62166980D01*
X43164396Y-62166980D01*
X43002105Y-62116409D01*
X43002106Y-62116409D01*
X42931572Y-62110000D01*
X42925000Y-62110000D01*
X42925000Y-64059999D01*
X42931581Y-64059999D01*
X43002102Y-64053591D01*
X43002107Y-64053590D01*
X43164396Y-64003018D01*
X43309877Y-63915072D01*
X43309878Y-63915071D01*
X43411963Y-63812985D01*
X43473286Y-63779499D01*
X43542977Y-63784483D01*
X43587326Y-63812984D01*
X43689811Y-63915469D01*
X43689813Y-63915470D01*
X43689815Y-63915472D01*
X43835394Y-64003478D01*
X43997804Y-64054086D01*
X44068384Y-64060500D01*
X44068387Y-64060500D01*
X44581613Y-64060500D01*
X44581616Y-64060500D01*
X44652196Y-64054086D01*
X44814606Y-64003478D01*
X44960185Y-63915472D01*
X45080472Y-63795185D01*
X45168478Y-63649606D01*
X45219086Y-63487196D01*
X45225500Y-63416616D01*
X45225500Y-63336500D01*
X45245185Y-63269461D01*
X45297989Y-63223706D01*
X45349500Y-63212500D01*
X45740500Y-63212500D01*
X45807539Y-63232185D01*
X45853294Y-63284989D01*
X45864500Y-63336500D01*
X45864500Y-63590855D01*
X45874913Y-63692776D01*
X45929637Y-63857922D01*
X45929642Y-63857933D01*
X46020971Y-64005999D01*
X46020974Y-64006003D01*
X46143996Y-64129025D01*
X46144000Y-64129028D01*
X46292066Y-64220357D01*
X46292069Y-64220358D01*
X46292075Y-64220362D01*
X46457225Y-64275087D01*
X46559152Y-64285500D01*
X46559157Y-64285500D01*
X47145843Y-64285500D01*
X47145848Y-64285500D01*
X47247775Y-64275087D01*
X47412925Y-64220362D01*
X47561003Y-64129026D01*
X47684026Y-64006003D01*
X47684458Y-64005301D01*
X47684881Y-64004921D01*
X47688507Y-64000336D01*
X47689290Y-64000955D01*
X47736402Y-63958575D01*
X47805364Y-63947349D01*
X47869448Y-63975188D01*
X47891342Y-64000455D01*
X47891493Y-64000336D01*
X47894143Y-64003687D01*
X47895540Y-64005299D01*
X47895972Y-64005999D01*
X47895975Y-64006004D01*
X48018996Y-64129025D01*
X48019000Y-64129028D01*
X48167066Y-64220357D01*
X48167069Y-64220358D01*
X48167075Y-64220362D01*
X48332225Y-64275087D01*
X48434152Y-64285500D01*
X48434157Y-64285500D01*
X48989219Y-64285500D01*
X49056258Y-64305185D01*
X49076900Y-64321819D01*
X49336181Y-64581100D01*
X49369666Y-64642423D01*
X49372500Y-64668781D01*
X49372500Y-66061807D01*
X49396612Y-66183027D01*
X49396614Y-66183035D01*
X49407053Y-66208236D01*
X49414521Y-66277706D01*
X49383245Y-66340185D01*
X49323156Y-66375837D01*
X49253331Y-66373342D01*
X49239788Y-66367015D01*
X49239473Y-66367692D01*
X49232927Y-66364639D01*
X49232925Y-66364638D01*
X49232922Y-66364637D01*
X49067776Y-66309913D01*
X48965855Y-66299500D01*
X48965848Y-66299500D01*
X48379152Y-66299500D01*
X48379144Y-66299500D01*
X48277223Y-66309913D01*
X48112077Y-66364637D01*
X48112066Y-66364642D01*
X47964000Y-66455971D01*
X47963996Y-66455974D01*
X47840974Y-66578996D01*
X47840971Y-66579000D01*
X47840538Y-66579703D01*
X47840114Y-66580083D01*
X47836493Y-66584664D01*
X47835710Y-66584045D01*
X47788590Y-66626428D01*
X47719628Y-66637649D01*
X47655546Y-66609806D01*
X47633657Y-66584544D01*
X47633507Y-66584664D01*
X47630859Y-66581315D01*
X47629462Y-66579703D01*
X47629028Y-66579000D01*
X47629025Y-66578996D01*
X47506003Y-66455974D01*
X47505999Y-66455971D01*
X47357933Y-66364642D01*
X47357927Y-66364639D01*
X47357925Y-66364638D01*
X47357922Y-66364637D01*
X47192776Y-66309913D01*
X47090855Y-66299500D01*
X47090848Y-66299500D01*
X46504152Y-66299500D01*
X46504144Y-66299500D01*
X46402223Y-66309913D01*
X46237077Y-66364637D01*
X46237066Y-66364642D01*
X46089000Y-66455971D01*
X46088996Y-66455974D01*
X45965974Y-66578996D01*
X45965971Y-66579000D01*
X45874642Y-66727066D01*
X45874637Y-66727077D01*
X45851254Y-66797643D01*
X45828423Y-66866545D01*
X45826448Y-66872504D01*
X45786675Y-66929949D01*
X45722160Y-66956772D01*
X45708742Y-66957500D01*
X45145393Y-66957500D01*
X45078354Y-66937815D01*
X45039277Y-66897651D01*
X45031941Y-66885516D01*
X45025472Y-66874815D01*
X45025471Y-66874814D01*
X45025468Y-66874810D01*
X44905188Y-66754530D01*
X44901823Y-66752496D01*
X44759606Y-66666522D01*
X44597196Y-66615914D01*
X44597194Y-66615913D01*
X44597192Y-66615913D01*
X44547778Y-66611423D01*
X44526616Y-66609500D01*
X44013384Y-66609500D01*
X43994145Y-66611248D01*
X43942807Y-66615913D01*
X43780393Y-66666522D01*
X43634811Y-66754530D01*
X43634810Y-66754531D01*
X43532327Y-66857015D01*
X43471004Y-66890500D01*
X43401312Y-66885516D01*
X43356965Y-66857015D01*
X43254877Y-66754927D01*
X43109395Y-66666980D01*
X43109396Y-66666980D01*
X42947105Y-66616409D01*
X42947106Y-66616409D01*
X42876572Y-66610000D01*
X42870000Y-66610000D01*
X42370000Y-66610000D01*
X42369999Y-66609999D01*
X42363436Y-66610000D01*
X42363417Y-66610001D01*
X42292897Y-66616408D01*
X42292892Y-66616409D01*
X42130603Y-66666981D01*
X41985122Y-66754927D01*
X41864927Y-66875122D01*
X41776980Y-67020604D01*
X41726409Y-67182893D01*
X41720000Y-67253427D01*
X41000500Y-67253427D01*
X41000500Y-63416582D01*
X41775001Y-63416582D01*
X41781408Y-63487102D01*
X41781409Y-63487107D01*
X41831981Y-63649396D01*
X41919927Y-63794877D01*
X42040122Y-63915072D01*
X42185604Y-64003019D01*
X42185603Y-64003019D01*
X42347894Y-64053590D01*
X42347893Y-64053590D01*
X42418408Y-64059998D01*
X42418426Y-64059999D01*
X42424999Y-64059998D01*
X42425000Y-64059998D01*
X42425000Y-63335000D01*
X41775001Y-63335000D01*
X41775001Y-63416582D01*
X41000500Y-63416582D01*
X41000500Y-62753427D01*
X41775000Y-62753427D01*
X41775000Y-62835000D01*
X42425000Y-62835000D01*
X42425000Y-62110000D01*
X42424999Y-62109999D01*
X42418436Y-62110000D01*
X42418417Y-62110001D01*
X42347897Y-62116408D01*
X42347892Y-62116409D01*
X42185603Y-62166981D01*
X42040122Y-62254927D01*
X41919927Y-62375122D01*
X41831980Y-62520604D01*
X41781409Y-62682893D01*
X41775000Y-62753427D01*
X41000500Y-62753427D01*
X41000500Y-58916582D01*
X41775001Y-58916582D01*
X41781408Y-58987102D01*
X41781409Y-58987107D01*
X41831981Y-59149396D01*
X41919927Y-59294877D01*
X42040122Y-59415072D01*
X42185604Y-59503019D01*
X42185603Y-59503019D01*
X42347894Y-59553590D01*
X42347893Y-59553590D01*
X42418408Y-59559998D01*
X42418426Y-59559999D01*
X42424999Y-59559998D01*
X42425000Y-59559998D01*
X42425000Y-58835000D01*
X41775001Y-58835000D01*
X41775001Y-58916582D01*
X41000500Y-58916582D01*
X41000500Y-58253427D01*
X41775000Y-58253427D01*
X41775000Y-58335000D01*
X42425000Y-58335000D01*
X42425000Y-57610000D01*
X42424999Y-57609999D01*
X42418436Y-57610000D01*
X42418417Y-57610001D01*
X42347897Y-57616408D01*
X42347892Y-57616409D01*
X42185603Y-57666981D01*
X42040122Y-57754927D01*
X41919927Y-57875122D01*
X41831980Y-58020604D01*
X41781409Y-58182893D01*
X41775000Y-58253427D01*
X41000500Y-58253427D01*
X41000500Y-47124500D01*
X41020185Y-47057461D01*
X41072989Y-47011706D01*
X41124500Y-47000500D01*
X133375500Y-47000500D01*
X133442539Y-47020185D01*
G37*
%TD.AperFunction*%
%TD*%
M02*
