%TF.GenerationSoftware,KiCad,Pcbnew,9.0.3*%
%TF.CreationDate,2025-08-27T11:54:34+03:00*%
%TF.ProjectId,stm32f103ret6,73746d33-3266-4313-9033-726574362e6b,rev?*%
%TF.SameCoordinates,Original*%
%TF.FileFunction,Copper,L2,Bot*%
%TF.FilePolarity,Positive*%
%FSLAX46Y46*%
G04 Gerber Fmt 4.6, Leading zero omitted, Abs format (unit mm)*
G04 Created by KiCad (PCBNEW 9.0.3) date 2025-08-27 11:54:34*
%MOMM*%
%LPD*%
G01*
G04 APERTURE LIST*
G04 Aperture macros list*
%AMRoundRect*
0 Rectangle with rounded corners*
0 $1 Rounding radius*
0 $2 $3 $4 $5 $6 $7 $8 $9 X,Y pos of 4 corners*
0 Add a 4 corners polygon primitive as box body*
4,1,4,$2,$3,$4,$5,$6,$7,$8,$9,$2,$3,0*
0 Add four circle primitives for the rounded corners*
1,1,$1+$1,$2,$3*
1,1,$1+$1,$4,$5*
1,1,$1+$1,$6,$7*
1,1,$1+$1,$8,$9*
0 Add four rect primitives between the rounded corners*
20,1,$1+$1,$2,$3,$4,$5,0*
20,1,$1+$1,$4,$5,$6,$7,0*
20,1,$1+$1,$6,$7,$8,$9,0*
20,1,$1+$1,$8,$9,$2,$3,0*%
G04 Aperture macros list end*
%TA.AperFunction,ComponentPad*%
%ADD10R,1.905000X1.905000*%
%TD*%
%TA.AperFunction,ComponentPad*%
%ADD11C,1.905000*%
%TD*%
%TA.AperFunction,ComponentPad*%
%ADD12RoundRect,0.249999X-0.790001X-1.550001X0.790001X-1.550001X0.790001X1.550001X-0.790001X1.550001X0*%
%TD*%
%TA.AperFunction,ComponentPad*%
%ADD13O,2.080000X3.600000*%
%TD*%
%TA.AperFunction,ComponentPad*%
%ADD14R,2.500000X2.500000*%
%TD*%
%TA.AperFunction,ComponentPad*%
%ADD15O,2.500000X2.500000*%
%TD*%
%TA.AperFunction,ComponentPad*%
%ADD16R,1.700000X1.700000*%
%TD*%
%TA.AperFunction,ComponentPad*%
%ADD17C,1.700000*%
%TD*%
%TA.AperFunction,ComponentPad*%
%ADD18RoundRect,0.250000X0.600000X0.600000X-0.600000X0.600000X-0.600000X-0.600000X0.600000X-0.600000X0*%
%TD*%
%TA.AperFunction,ViaPad*%
%ADD19C,0.600000*%
%TD*%
%TA.AperFunction,Conductor*%
%ADD20C,1.000000*%
%TD*%
%TA.AperFunction,Conductor*%
%ADD21C,0.381000*%
%TD*%
%TA.AperFunction,Conductor*%
%ADD22C,0.254000*%
%TD*%
%TA.AperFunction,Conductor*%
%ADD23C,0.508000*%
%TD*%
G04 APERTURE END LIST*
D10*
%TO.P,BT1,1,+*%
%TO.N,Net-(BT1-+)*%
X32500100Y-28000000D03*
D11*
%TO.P,BT1,2,-*%
%TO.N,GND*%
X52500000Y-28000000D03*
%TD*%
D12*
%TO.P,J2,1,Pin_1*%
%TO.N,GND*%
X37455000Y-87222500D03*
D13*
%TO.P,J2,2,Pin_2*%
%TO.N,VCC*%
X42535000Y-87222500D03*
%TD*%
D14*
%TO.P,RL1,1*%
%TO.N,Net-(D5-A)*%
X49062500Y-80687500D03*
D15*
%TO.P,RL1,2*%
%TO.N,RELAY_NC*%
X64062500Y-80687500D03*
%TO.P,RL1,3*%
%TO.N,INA226_VIN-*%
X69062500Y-80687500D03*
%TO.P,RL1,4*%
%TO.N,RELAY_NO*%
X74062500Y-80687500D03*
%TO.P,RL1,5*%
X74062500Y-73187500D03*
%TO.P,RL1,6*%
%TO.N,INA226_VIN-*%
X69062500Y-73187500D03*
%TO.P,RL1,7*%
%TO.N,RELAY_NC*%
X64062500Y-73187500D03*
%TO.P,RL1,8*%
%TO.N,+5V*%
X49062500Y-73187500D03*
%TD*%
D12*
%TO.P,J1,1,Pin_1*%
%TO.N,INA226_VIN+*%
X61481720Y-87229145D03*
D13*
%TO.P,J1,2,Pin_2*%
%TO.N,RELAY_NC*%
X66561720Y-87229145D03*
%TO.P,J1,3,Pin_3*%
%TO.N,RELAY_NO*%
X71641720Y-87229145D03*
%TD*%
D16*
%TO.P,J4,1,Pin_1*%
%TO.N,GND*%
X109500000Y-26880000D03*
D17*
%TO.P,J4,2,Pin_2*%
%TO.N,JTCK_SWDIO*%
X109500000Y-29420000D03*
%TO.P,J4,3,Pin_3*%
%TO.N,JTCK_SWDCLK*%
X109500000Y-31960000D03*
%TO.P,J4,4,Pin_4*%
%TO.N,+3.3V*%
X109500000Y-34500000D03*
%TO.P,J4,5,Pin_5*%
%TO.N,+5V*%
X109500000Y-37040000D03*
%TD*%
D18*
%TO.P,J5,1,Pin_1*%
%TO.N,+3.3V*%
X82540000Y-66000000D03*
D17*
%TO.P,J5,2,Pin_2*%
%TO.N,GND*%
X80000000Y-66000000D03*
%TO.P,J5,3,Pin_3*%
%TO.N,PB6_SCL*%
X82540000Y-63460000D03*
%TO.P,J5,4,Pin_4*%
%TO.N,PB7_SDA*%
X80000000Y-63460000D03*
%TO.P,J5,5,Pin_5*%
%TO.N,PB4_LED1*%
X82540000Y-60920000D03*
%TO.P,J5,6,Pin_6*%
%TO.N,PB5_BTN4*%
X80000000Y-60920000D03*
%TO.P,J5,7,Pin_7*%
%TO.N,PD2_LED2*%
X82540000Y-58380000D03*
%TO.P,J5,8,Pin_8*%
%TO.N,PB3_BTN3*%
X80000000Y-58380000D03*
%TO.P,J5,9,Pin_9*%
%TO.N,PC11_LED3*%
X82540000Y-55840000D03*
%TO.P,J5,10,Pin_10*%
%TO.N,PC12_BTN2*%
X80000000Y-55840000D03*
%TO.P,J5,11,Pin_11*%
%TO.N,PA15_LED4*%
X82540000Y-53300000D03*
%TO.P,J5,12,Pin_12*%
%TO.N,PC10_BTN1*%
X80000000Y-53300000D03*
%TD*%
D12*
%TO.P,J3,1,Pin_1*%
%TO.N,MAX485E_A*%
X79915000Y-87222500D03*
D13*
%TO.P,J3,2,Pin_2*%
%TO.N,MAX485E_B*%
X84995000Y-87222500D03*
%TO.P,J3,3,Pin_3*%
%TO.N,GND*%
X90075000Y-87222500D03*
%TD*%
D19*
%TO.N,GND*%
X61048260Y-32346970D03*
X56678585Y-32428646D03*
X67868220Y-33898817D03*
X67541515Y-40187882D03*
X62926812Y-42760682D03*
X57658699Y-41413025D03*
X89000000Y-38500000D03*
X72000000Y-47000000D03*
X83500000Y-38000000D03*
X71000000Y-54000000D03*
X61500000Y-74500000D03*
X57500000Y-71000000D03*
X100500000Y-35000000D03*
X102500000Y-78000000D03*
X97000000Y-79000000D03*
X70000000Y-44500000D03*
X24500000Y-74000000D03*
X71500000Y-82500000D03*
X104500000Y-38500000D03*
X61500000Y-60000000D03*
X64843177Y-33774790D03*
X64000000Y-63500000D03*
X71000000Y-36500000D03*
X64500000Y-27000000D03*
X72500000Y-56500000D03*
X69000000Y-59000000D03*
X99000000Y-24500000D03*
X93500000Y-68000000D03*
X35500000Y-49000000D03*
X77500000Y-27000000D03*
X57000000Y-78000000D03*
X54000000Y-72000000D03*
X79000000Y-27000000D03*
X53000000Y-91000000D03*
X33000000Y-85500000D03*
X36000000Y-56500000D03*
X106500000Y-43000000D03*
X62500000Y-54500000D03*
X103500000Y-34000000D03*
X42500000Y-64500000D03*
X85500000Y-40500000D03*
X107000000Y-70500000D03*
X100000000Y-74000000D03*
X43000000Y-78000000D03*
X62000000Y-65000000D03*
X86000000Y-34500000D03*
X60500000Y-58000000D03*
X75500000Y-59000000D03*
X101000000Y-31000000D03*
X87000000Y-28500000D03*
X53500000Y-47000000D03*
X66000000Y-63000000D03*
X66500000Y-77000000D03*
X73000000Y-39000000D03*
X67000000Y-67500000D03*
X37500000Y-37500000D03*
X40000000Y-32000000D03*
X59500000Y-36500000D03*
X46500000Y-33500000D03*
X73000000Y-69500000D03*
X25000000Y-83500000D03*
X84000000Y-34000000D03*
X76450947Y-84000000D03*
X46500000Y-40000000D03*
X95000000Y-26000000D03*
X69000000Y-65500000D03*
X60500000Y-55500000D03*
X73000000Y-62000000D03*
X59000000Y-28500000D03*
X73000000Y-34500000D03*
X39500000Y-51000000D03*
X50500000Y-72000000D03*
X100500000Y-62000000D03*
X99500000Y-28000000D03*
X32000000Y-46500000D03*
X96500000Y-35000000D03*
X90000000Y-51000000D03*
X56500000Y-51000000D03*
X98500000Y-26500000D03*
X61500000Y-82500000D03*
X106500000Y-46500000D03*
X81500000Y-71000000D03*
X92000000Y-48500000D03*
X77000000Y-38500000D03*
X50000000Y-50500000D03*
X60000000Y-63000000D03*
%TO.N,+3.3V*%
X84500000Y-35425000D03*
X67032000Y-42500000D03*
X72500000Y-66000000D03*
X65323000Y-42500000D03*
X87000000Y-38052000D03*
X61980000Y-62480000D03*
%TO.N,+5V*%
X55500000Y-45500000D03*
X59000000Y-23000000D03*
X76000000Y-68000000D03*
X58750000Y-61250000D03*
%TO.N,JTCK_SWDCLK*%
X101500000Y-32000000D03*
X92500000Y-42052000D03*
%TO.N,JTCK_SWDIO*%
X100000000Y-30000000D03*
X88250000Y-41750000D03*
%TO.N,AT24_WP*%
X65323000Y-44500000D03*
X77500000Y-45500000D03*
%TO.N,PA11_MAX485E_RD*%
X80250000Y-73250000D03*
X79193356Y-71806644D03*
%TO.N,PC8_RELAY_O*%
X66175000Y-54000000D03*
X75627000Y-51500000D03*
%TO.N,PC7_INA286_ALE*%
X70000000Y-56500000D03*
X75127000Y-53500000D03*
%TD*%
D20*
%TO.N,GND*%
X80000000Y-66000000D02*
X77500000Y-66000000D01*
D21*
%TO.N,+3.3V*%
X82500000Y-66040000D02*
X82540000Y-66000000D01*
D22*
X65323000Y-42500000D02*
X67032000Y-42500000D01*
D21*
X72500000Y-66000000D02*
X75191500Y-68691500D01*
X80561000Y-68691500D02*
X82500000Y-66752500D01*
X75191500Y-68691500D02*
X80561000Y-68691500D01*
X64000000Y-64500000D02*
X61980000Y-62480000D01*
D22*
X87000000Y-37925000D02*
X84500000Y-35425000D01*
D21*
X82500000Y-66752500D02*
X82500000Y-66040000D01*
X71000000Y-64500000D02*
X64000000Y-64500000D01*
X72500000Y-66000000D02*
X71000000Y-64500000D01*
D22*
X87000000Y-38052000D02*
X87000000Y-37925000D01*
D23*
%TO.N,+5V*%
X63000000Y-17500000D02*
X105000000Y-17500000D01*
X55500000Y-45500000D02*
X55500000Y-25000000D01*
X55500000Y-25000000D02*
X57500000Y-23000000D01*
X76000000Y-68000000D02*
X69500000Y-61500000D01*
X105000000Y-17500000D02*
X111500000Y-24000000D01*
X111500000Y-24000000D02*
X111500000Y-35040000D01*
X69500000Y-61500000D02*
X59000000Y-61500000D01*
X57500000Y-23000000D02*
X59000000Y-23000000D01*
X59000000Y-61500000D02*
X58750000Y-61250000D01*
X57500000Y-23000000D02*
X63000000Y-17500000D01*
X111500000Y-35040000D02*
X109500000Y-37040000D01*
D22*
%TO.N,JTCK_SWDCLK*%
X99000000Y-41000000D02*
X97948000Y-42052000D01*
X97948000Y-42052000D02*
X92500000Y-42052000D01*
X99000000Y-34500000D02*
X99000000Y-41000000D01*
X101500000Y-32000000D02*
X99000000Y-34500000D01*
%TO.N,JTCK_SWDIO*%
X88250000Y-41750000D02*
X100000000Y-30000000D01*
%TO.N,AT24_WP*%
X77500000Y-45500000D02*
X68000000Y-45500000D01*
X67000000Y-44500000D02*
X65323000Y-44500000D01*
X68000000Y-45500000D02*
X67000000Y-44500000D01*
%TO.N,PA11_MAX485E_RD*%
X79193356Y-71806644D02*
X79193356Y-72193356D01*
X79193356Y-72193356D02*
X80250000Y-73250000D01*
%TO.N,PC8_RELAY_O*%
X68000000Y-54000000D02*
X69500000Y-52500000D01*
X69500000Y-52500000D02*
X74627000Y-52500000D01*
X74627000Y-52500000D02*
X75627000Y-51500000D01*
X66175000Y-54000000D02*
X68000000Y-54000000D01*
%TO.N,PC7_INA286_ALE*%
X72000000Y-54500000D02*
X70000000Y-56500000D01*
X74127000Y-54500000D02*
X72000000Y-54500000D01*
X75127000Y-53500000D02*
X74127000Y-54500000D01*
%TD*%
%TA.AperFunction,Conductor*%
%TO.N,GND*%
G36*
X69203152Y-62274185D02*
G01*
X69223794Y-62290819D01*
X70530294Y-63597319D01*
X70563779Y-63658642D01*
X70558795Y-63728334D01*
X70516923Y-63784267D01*
X70451459Y-63808684D01*
X70442613Y-63809000D01*
X64337584Y-63809000D01*
X64270545Y-63789315D01*
X64249903Y-63772681D01*
X62943403Y-62466181D01*
X62909918Y-62404858D01*
X62914902Y-62335166D01*
X62956774Y-62279233D01*
X63022238Y-62254816D01*
X63031084Y-62254500D01*
X69136113Y-62254500D01*
X69203152Y-62274185D01*
G37*
%TD.AperFunction*%
%TA.AperFunction,Conductor*%
G36*
X113442539Y-15020185D02*
G01*
X113488294Y-15072989D01*
X113499500Y-15124500D01*
X113499500Y-97170521D01*
X113479815Y-97237560D01*
X113427011Y-97283315D01*
X113375788Y-97294521D01*
X25077292Y-97499500D01*
X15624500Y-97499500D01*
X15557461Y-97479815D01*
X15511706Y-97427011D01*
X15500500Y-97375500D01*
X15500500Y-90368872D01*
X26999500Y-90368872D01*
X26999500Y-90631127D01*
X27026123Y-90833339D01*
X27033730Y-90891116D01*
X27101602Y-91144418D01*
X27101605Y-91144428D01*
X27201953Y-91386690D01*
X27201958Y-91386700D01*
X27333075Y-91613803D01*
X27492718Y-91821851D01*
X27492726Y-91821860D01*
X27678140Y-92007274D01*
X27678148Y-92007281D01*
X27886196Y-92166924D01*
X28113299Y-92298041D01*
X28113309Y-92298046D01*
X28355571Y-92398394D01*
X28355581Y-92398398D01*
X28608884Y-92466270D01*
X28868880Y-92500500D01*
X28868887Y-92500500D01*
X29131113Y-92500500D01*
X29131120Y-92500500D01*
X29391116Y-92466270D01*
X29644419Y-92398398D01*
X29886697Y-92298043D01*
X30113803Y-92166924D01*
X30321851Y-92007282D01*
X30321855Y-92007277D01*
X30321860Y-92007274D01*
X30507274Y-91821860D01*
X30507277Y-91821855D01*
X30507282Y-91821851D01*
X30666924Y-91613803D01*
X30798043Y-91386697D01*
X30898398Y-91144419D01*
X30966270Y-90891116D01*
X31000500Y-90631120D01*
X31000500Y-90368880D01*
X31000499Y-90368872D01*
X96999500Y-90368872D01*
X96999500Y-90631127D01*
X97026123Y-90833339D01*
X97033730Y-90891116D01*
X97101602Y-91144418D01*
X97101605Y-91144428D01*
X97201953Y-91386690D01*
X97201958Y-91386700D01*
X97333075Y-91613803D01*
X97492718Y-91821851D01*
X97492726Y-91821860D01*
X97678140Y-92007274D01*
X97678148Y-92007281D01*
X97886196Y-92166924D01*
X98113299Y-92298041D01*
X98113309Y-92298046D01*
X98355571Y-92398394D01*
X98355581Y-92398398D01*
X98608884Y-92466270D01*
X98868880Y-92500500D01*
X98868887Y-92500500D01*
X99131113Y-92500500D01*
X99131120Y-92500500D01*
X99391116Y-92466270D01*
X99644419Y-92398398D01*
X99886697Y-92298043D01*
X100113803Y-92166924D01*
X100321851Y-92007282D01*
X100321855Y-92007277D01*
X100321860Y-92007274D01*
X100507274Y-91821860D01*
X100507277Y-91821855D01*
X100507282Y-91821851D01*
X100666924Y-91613803D01*
X100798043Y-91386697D01*
X100898398Y-91144419D01*
X100966270Y-90891116D01*
X101000500Y-90631120D01*
X101000500Y-90368880D01*
X100966270Y-90108884D01*
X100898398Y-89855581D01*
X100898394Y-89855571D01*
X100798046Y-89613309D01*
X100798041Y-89613299D01*
X100666924Y-89386196D01*
X100507281Y-89178148D01*
X100507274Y-89178140D01*
X100321860Y-88992726D01*
X100321851Y-88992718D01*
X100113803Y-88833075D01*
X99886700Y-88701958D01*
X99886690Y-88701953D01*
X99644428Y-88601605D01*
X99644421Y-88601603D01*
X99644419Y-88601602D01*
X99391116Y-88533730D01*
X99333339Y-88526123D01*
X99131127Y-88499500D01*
X99131120Y-88499500D01*
X98868880Y-88499500D01*
X98868872Y-88499500D01*
X98637772Y-88529926D01*
X98608884Y-88533730D01*
X98459176Y-88573844D01*
X98355581Y-88601602D01*
X98355571Y-88601605D01*
X98113309Y-88701953D01*
X98113299Y-88701958D01*
X97886196Y-88833075D01*
X97678148Y-88992718D01*
X97492718Y-89178148D01*
X97333075Y-89386196D01*
X97201958Y-89613299D01*
X97201953Y-89613309D01*
X97101605Y-89855571D01*
X97101602Y-89855581D01*
X97033730Y-90108885D01*
X96999500Y-90368872D01*
X31000499Y-90368872D01*
X30966270Y-90108884D01*
X30898398Y-89855581D01*
X30898394Y-89855571D01*
X30798046Y-89613309D01*
X30798041Y-89613299D01*
X30666924Y-89386196D01*
X30507281Y-89178148D01*
X30507274Y-89178140D01*
X30321860Y-88992726D01*
X30321851Y-88992718D01*
X30113803Y-88833075D01*
X29886700Y-88701958D01*
X29886690Y-88701953D01*
X29644428Y-88601605D01*
X29644421Y-88601603D01*
X29644419Y-88601602D01*
X29391116Y-88533730D01*
X29333339Y-88526123D01*
X29131127Y-88499500D01*
X29131120Y-88499500D01*
X28868880Y-88499500D01*
X28868872Y-88499500D01*
X28637772Y-88529926D01*
X28608884Y-88533730D01*
X28459176Y-88573844D01*
X28355581Y-88601602D01*
X28355571Y-88601605D01*
X28113309Y-88701953D01*
X28113299Y-88701958D01*
X27886196Y-88833075D01*
X27678148Y-88992718D01*
X27492718Y-89178148D01*
X27333075Y-89386196D01*
X27201958Y-89613299D01*
X27201953Y-89613309D01*
X27101605Y-89855571D01*
X27101602Y-89855581D01*
X27033730Y-90108885D01*
X26999500Y-90368872D01*
X15500500Y-90368872D01*
X15500500Y-85622513D01*
X35915000Y-85622513D01*
X35915000Y-86972500D01*
X36800879Y-86972500D01*
X36781901Y-87018318D01*
X36755000Y-87153556D01*
X36755000Y-87291444D01*
X36781901Y-87426682D01*
X36800879Y-87472500D01*
X35915001Y-87472500D01*
X35915001Y-88822486D01*
X35925494Y-88925196D01*
X35925494Y-88925198D01*
X35980640Y-89091619D01*
X35980645Y-89091630D01*
X36072680Y-89240840D01*
X36072683Y-89240844D01*
X36196655Y-89364816D01*
X36196659Y-89364819D01*
X36345869Y-89456854D01*
X36345880Y-89456859D01*
X36512302Y-89512005D01*
X36615019Y-89522499D01*
X37204999Y-89522499D01*
X37205000Y-89522498D01*
X37205000Y-87876620D01*
X37250818Y-87895599D01*
X37386056Y-87922500D01*
X37523944Y-87922500D01*
X37659182Y-87895599D01*
X37705000Y-87876620D01*
X37705000Y-89522499D01*
X38294972Y-89522499D01*
X38294986Y-89522498D01*
X38397696Y-89512005D01*
X38397698Y-89512005D01*
X38564119Y-89456859D01*
X38564130Y-89456854D01*
X38713340Y-89364819D01*
X38713344Y-89364816D01*
X38837316Y-89240844D01*
X38837319Y-89240840D01*
X38929354Y-89091630D01*
X38929359Y-89091619D01*
X38984505Y-88925197D01*
X38994999Y-88822486D01*
X38995000Y-88822473D01*
X38995000Y-87472500D01*
X38109121Y-87472500D01*
X38128099Y-87426682D01*
X38155000Y-87291444D01*
X38155000Y-87153556D01*
X38128099Y-87018318D01*
X38109121Y-86972500D01*
X38994999Y-86972500D01*
X38994999Y-86341254D01*
X40994500Y-86341254D01*
X40994500Y-88103745D01*
X41032432Y-88343236D01*
X41107360Y-88573844D01*
X41217448Y-88789901D01*
X41359966Y-88986062D01*
X41359970Y-88986067D01*
X41531432Y-89157529D01*
X41531437Y-89157533D01*
X41655683Y-89247802D01*
X41727602Y-89300054D01*
X41942738Y-89409672D01*
X41943655Y-89410139D01*
X41964107Y-89416784D01*
X42174265Y-89485068D01*
X42281795Y-89502099D01*
X42413755Y-89523000D01*
X42413760Y-89523000D01*
X42656245Y-89523000D01*
X42788198Y-89502100D01*
X42895735Y-89485068D01*
X43126347Y-89410138D01*
X43342398Y-89300054D01*
X43538569Y-89157528D01*
X43710028Y-88986069D01*
X43852554Y-88789898D01*
X43962638Y-88573847D01*
X44037568Y-88343235D01*
X44074448Y-88110385D01*
X44075500Y-88103745D01*
X44075500Y-86341254D01*
X44037586Y-86101881D01*
X44037568Y-86101765D01*
X43962638Y-85871153D01*
X43852554Y-85655102D01*
X43852553Y-85655100D01*
X43833683Y-85629127D01*
X59941220Y-85629127D01*
X59941220Y-88829162D01*
X59951720Y-88931941D01*
X60004632Y-89091619D01*
X60006906Y-89098480D01*
X60099008Y-89247801D01*
X60223064Y-89371857D01*
X60372385Y-89463959D01*
X60538922Y-89519144D01*
X60641710Y-89529645D01*
X60641715Y-89529645D01*
X62321725Y-89529645D01*
X62321730Y-89529645D01*
X62424518Y-89519144D01*
X62591055Y-89463959D01*
X62740376Y-89371857D01*
X62864432Y-89247801D01*
X62956534Y-89098480D01*
X63011719Y-88931943D01*
X63022220Y-88829155D01*
X63022220Y-86347899D01*
X65021220Y-86347899D01*
X65021220Y-88110390D01*
X65059152Y-88349881D01*
X65134080Y-88580489D01*
X65189124Y-88688517D01*
X65240780Y-88789898D01*
X65244168Y-88796546D01*
X65386686Y-88992707D01*
X65386690Y-88992712D01*
X65558152Y-89164174D01*
X65558157Y-89164178D01*
X65673257Y-89247802D01*
X65754322Y-89306699D01*
X65970373Y-89416783D01*
X65970375Y-89416784D01*
X66085679Y-89454248D01*
X66200985Y-89491713D01*
X66311906Y-89509281D01*
X66440475Y-89529645D01*
X66440480Y-89529645D01*
X66682965Y-89529645D01*
X66799067Y-89511255D01*
X66922455Y-89491713D01*
X67153067Y-89416783D01*
X67369118Y-89306699D01*
X67565289Y-89164173D01*
X67736748Y-88992714D01*
X67879274Y-88796543D01*
X67989358Y-88580492D01*
X68064288Y-88349880D01*
X68083830Y-88226492D01*
X68102220Y-88110390D01*
X68102220Y-86347899D01*
X70101220Y-86347899D01*
X70101220Y-88110390D01*
X70139152Y-88349881D01*
X70214080Y-88580489D01*
X70269124Y-88688517D01*
X70320780Y-88789898D01*
X70324168Y-88796546D01*
X70466686Y-88992707D01*
X70466690Y-88992712D01*
X70638152Y-89164174D01*
X70638157Y-89164178D01*
X70753257Y-89247802D01*
X70834322Y-89306699D01*
X71050373Y-89416783D01*
X71050375Y-89416784D01*
X71165679Y-89454248D01*
X71280985Y-89491713D01*
X71391906Y-89509281D01*
X71520475Y-89529645D01*
X71520480Y-89529645D01*
X71762965Y-89529645D01*
X71879067Y-89511255D01*
X72002455Y-89491713D01*
X72233067Y-89416783D01*
X72449118Y-89306699D01*
X72645289Y-89164173D01*
X72816748Y-88992714D01*
X72959274Y-88796543D01*
X73069358Y-88580492D01*
X73144288Y-88349880D01*
X73163830Y-88226492D01*
X73182220Y-88110390D01*
X73182220Y-86347899D01*
X73160152Y-86208576D01*
X73144288Y-86108410D01*
X73069358Y-85877798D01*
X72959274Y-85661747D01*
X72959272Y-85661743D01*
X72930747Y-85622482D01*
X78374500Y-85622482D01*
X78374500Y-88822517D01*
X78385000Y-88925296D01*
X78440185Y-89091832D01*
X78440187Y-89091837D01*
X78475070Y-89148390D01*
X78532288Y-89241156D01*
X78656344Y-89365212D01*
X78805665Y-89457314D01*
X78972202Y-89512499D01*
X79074990Y-89523000D01*
X79074995Y-89523000D01*
X80755005Y-89523000D01*
X80755010Y-89523000D01*
X80857798Y-89512499D01*
X81024335Y-89457314D01*
X81173656Y-89365212D01*
X81297712Y-89241156D01*
X81389814Y-89091835D01*
X81444999Y-88925298D01*
X81455500Y-88822510D01*
X81455500Y-86341254D01*
X83454500Y-86341254D01*
X83454500Y-88103745D01*
X83492432Y-88343236D01*
X83567360Y-88573844D01*
X83677448Y-88789901D01*
X83819966Y-88986062D01*
X83819970Y-88986067D01*
X83991432Y-89157529D01*
X83991437Y-89157533D01*
X84115683Y-89247802D01*
X84187602Y-89300054D01*
X84402738Y-89409672D01*
X84403655Y-89410139D01*
X84424107Y-89416784D01*
X84634265Y-89485068D01*
X84741795Y-89502099D01*
X84873755Y-89523000D01*
X84873760Y-89523000D01*
X85116245Y-89523000D01*
X85248198Y-89502100D01*
X85355735Y-89485068D01*
X85586347Y-89410138D01*
X85802398Y-89300054D01*
X85998569Y-89157528D01*
X86170028Y-88986069D01*
X86312554Y-88789898D01*
X86422638Y-88573847D01*
X86497568Y-88343235D01*
X86534448Y-88110385D01*
X86535500Y-88103745D01*
X86535500Y-86341299D01*
X88535000Y-86341299D01*
X88535000Y-86972500D01*
X89420879Y-86972500D01*
X89401901Y-87018318D01*
X89375000Y-87153556D01*
X89375000Y-87291444D01*
X89401901Y-87426682D01*
X89420879Y-87472500D01*
X88535000Y-87472500D01*
X88535000Y-88103700D01*
X88572920Y-88343118D01*
X88647827Y-88573659D01*
X88757874Y-88789636D01*
X88900356Y-88985745D01*
X89071754Y-89157143D01*
X89267863Y-89299625D01*
X89483840Y-89409672D01*
X89714381Y-89484580D01*
X89825000Y-89502100D01*
X89825000Y-87876620D01*
X89870818Y-87895599D01*
X90006056Y-87922500D01*
X90143944Y-87922500D01*
X90279182Y-87895599D01*
X90325000Y-87876620D01*
X90325000Y-89502099D01*
X90435618Y-89484580D01*
X90666159Y-89409672D01*
X90882136Y-89299625D01*
X91078245Y-89157143D01*
X91249643Y-88985745D01*
X91392125Y-88789636D01*
X91502172Y-88573659D01*
X91577079Y-88343118D01*
X91615000Y-88103700D01*
X91615000Y-87472500D01*
X90729121Y-87472500D01*
X90748099Y-87426682D01*
X90775000Y-87291444D01*
X90775000Y-87153556D01*
X90748099Y-87018318D01*
X90729121Y-86972500D01*
X91615000Y-86972500D01*
X91615000Y-86341299D01*
X91577079Y-86101881D01*
X91502172Y-85871340D01*
X91392125Y-85655363D01*
X91249643Y-85459254D01*
X91078245Y-85287856D01*
X90882136Y-85145374D01*
X90666157Y-85035327D01*
X90435614Y-84960419D01*
X90325000Y-84942899D01*
X90325000Y-86568379D01*
X90279182Y-86549401D01*
X90143944Y-86522500D01*
X90006056Y-86522500D01*
X89870818Y-86549401D01*
X89825000Y-86568379D01*
X89825000Y-84942899D01*
X89824999Y-84942899D01*
X89714385Y-84960419D01*
X89483842Y-85035327D01*
X89267863Y-85145374D01*
X89071754Y-85287856D01*
X88900356Y-85459254D01*
X88757874Y-85655363D01*
X88647827Y-85871340D01*
X88572920Y-86101881D01*
X88535000Y-86341299D01*
X86535500Y-86341299D01*
X86535500Y-86341254D01*
X86497586Y-86101881D01*
X86497568Y-86101765D01*
X86422638Y-85871153D01*
X86312554Y-85655102D01*
X86288854Y-85622482D01*
X86170033Y-85458937D01*
X86170029Y-85458932D01*
X85998567Y-85287470D01*
X85998562Y-85287466D01*
X85802401Y-85144948D01*
X85802400Y-85144947D01*
X85802398Y-85144946D01*
X85674519Y-85079788D01*
X85586344Y-85034860D01*
X85355736Y-84959932D01*
X85116245Y-84922000D01*
X85116240Y-84922000D01*
X84873760Y-84922000D01*
X84873755Y-84922000D01*
X84634263Y-84959932D01*
X84403655Y-85034860D01*
X84187598Y-85144948D01*
X83991437Y-85287466D01*
X83991432Y-85287470D01*
X83819970Y-85458932D01*
X83819966Y-85458937D01*
X83677448Y-85655098D01*
X83567360Y-85871155D01*
X83492432Y-86101763D01*
X83454500Y-86341254D01*
X81455500Y-86341254D01*
X81455500Y-85622490D01*
X81444999Y-85519702D01*
X81389814Y-85353165D01*
X81297712Y-85203844D01*
X81173656Y-85079788D01*
X81035110Y-84994332D01*
X81024337Y-84987687D01*
X81024332Y-84987685D01*
X80960632Y-84966577D01*
X80857798Y-84932501D01*
X80857796Y-84932500D01*
X80755017Y-84922000D01*
X80755010Y-84922000D01*
X79074990Y-84922000D01*
X79074982Y-84922000D01*
X78972203Y-84932500D01*
X78972202Y-84932501D01*
X78889669Y-84959849D01*
X78805667Y-84987685D01*
X78805662Y-84987687D01*
X78656342Y-85079789D01*
X78532289Y-85203842D01*
X78440187Y-85353162D01*
X78440185Y-85353167D01*
X78437985Y-85359807D01*
X78385001Y-85519702D01*
X78385001Y-85519703D01*
X78385000Y-85519703D01*
X78374500Y-85622482D01*
X72930747Y-85622482D01*
X72816753Y-85465582D01*
X72816749Y-85465577D01*
X72645287Y-85294115D01*
X72645282Y-85294111D01*
X72449121Y-85151593D01*
X72449120Y-85151592D01*
X72449118Y-85151591D01*
X72308967Y-85080180D01*
X72233064Y-85041505D01*
X72002456Y-84966577D01*
X71762965Y-84928645D01*
X71762960Y-84928645D01*
X71520480Y-84928645D01*
X71520475Y-84928645D01*
X71280983Y-84966577D01*
X71050375Y-85041505D01*
X70834318Y-85151593D01*
X70638157Y-85294111D01*
X70638152Y-85294115D01*
X70466690Y-85465577D01*
X70466686Y-85465582D01*
X70324168Y-85661743D01*
X70214080Y-85877800D01*
X70139152Y-86108408D01*
X70101220Y-86347899D01*
X68102220Y-86347899D01*
X68080152Y-86208576D01*
X68064288Y-86108410D01*
X67989358Y-85877798D01*
X67879274Y-85661747D01*
X67850746Y-85622482D01*
X67736753Y-85465582D01*
X67736749Y-85465577D01*
X67565287Y-85294115D01*
X67565282Y-85294111D01*
X67369121Y-85151593D01*
X67369120Y-85151592D01*
X67369118Y-85151591D01*
X67228967Y-85080180D01*
X67153064Y-85041505D01*
X66922456Y-84966577D01*
X66682965Y-84928645D01*
X66682960Y-84928645D01*
X66440480Y-84928645D01*
X66440475Y-84928645D01*
X66200983Y-84966577D01*
X65970375Y-85041505D01*
X65754318Y-85151593D01*
X65558157Y-85294111D01*
X65558152Y-85294115D01*
X65386690Y-85465577D01*
X65386686Y-85465582D01*
X65244168Y-85661743D01*
X65134080Y-85877800D01*
X65059152Y-86108408D01*
X65021220Y-86347899D01*
X63022220Y-86347899D01*
X63022220Y-85629135D01*
X63011719Y-85526347D01*
X62956534Y-85359810D01*
X62864432Y-85210489D01*
X62740376Y-85086433D01*
X62591055Y-84994331D01*
X62424518Y-84939146D01*
X62424516Y-84939145D01*
X62321737Y-84928645D01*
X62321730Y-84928645D01*
X60641710Y-84928645D01*
X60641702Y-84928645D01*
X60538923Y-84939145D01*
X60538922Y-84939146D01*
X60456389Y-84966494D01*
X60372387Y-84994330D01*
X60372382Y-84994332D01*
X60223062Y-85086434D01*
X60099009Y-85210487D01*
X60006907Y-85359807D01*
X60006906Y-85359810D01*
X59951721Y-85526347D01*
X59951721Y-85526348D01*
X59951720Y-85526348D01*
X59941220Y-85629127D01*
X43833683Y-85629127D01*
X43710033Y-85458937D01*
X43710029Y-85458932D01*
X43538567Y-85287470D01*
X43538562Y-85287466D01*
X43342401Y-85144948D01*
X43342400Y-85144947D01*
X43342398Y-85144946D01*
X43214519Y-85079788D01*
X43126344Y-85034860D01*
X42895736Y-84959932D01*
X42656245Y-84922000D01*
X42656240Y-84922000D01*
X42413760Y-84922000D01*
X42413755Y-84922000D01*
X42174263Y-84959932D01*
X41943655Y-85034860D01*
X41727598Y-85144948D01*
X41531437Y-85287466D01*
X41531432Y-85287470D01*
X41359970Y-85458932D01*
X41359966Y-85458937D01*
X41217448Y-85655098D01*
X41107360Y-85871155D01*
X41032432Y-86101763D01*
X40994500Y-86341254D01*
X38994999Y-86341254D01*
X38994999Y-85622528D01*
X38994998Y-85622513D01*
X38984505Y-85519803D01*
X38984505Y-85519801D01*
X38929359Y-85353380D01*
X38929354Y-85353369D01*
X38837319Y-85204159D01*
X38837316Y-85204155D01*
X38713344Y-85080183D01*
X38713340Y-85080180D01*
X38564130Y-84988145D01*
X38564119Y-84988140D01*
X38397697Y-84932994D01*
X38294986Y-84922500D01*
X37705000Y-84922500D01*
X37705000Y-86568379D01*
X37659182Y-86549401D01*
X37523944Y-86522500D01*
X37386056Y-86522500D01*
X37250818Y-86549401D01*
X37205000Y-86568379D01*
X37205000Y-84922500D01*
X36615028Y-84922500D01*
X36615012Y-84922501D01*
X36512303Y-84932994D01*
X36512301Y-84932994D01*
X36345880Y-84988140D01*
X36345869Y-84988145D01*
X36196659Y-85080180D01*
X36196655Y-85080183D01*
X36072683Y-85204155D01*
X36072680Y-85204159D01*
X35980645Y-85353369D01*
X35980640Y-85353380D01*
X35925494Y-85519802D01*
X35915000Y-85622513D01*
X15500500Y-85622513D01*
X15500500Y-79389635D01*
X47312000Y-79389635D01*
X47312000Y-81985370D01*
X47312001Y-81985376D01*
X47318408Y-82044983D01*
X47368702Y-82179828D01*
X47368706Y-82179835D01*
X47454952Y-82295044D01*
X47454955Y-82295047D01*
X47570164Y-82381293D01*
X47570171Y-82381297D01*
X47705017Y-82431591D01*
X47705016Y-82431591D01*
X47711944Y-82432335D01*
X47764627Y-82438000D01*
X50360372Y-82437999D01*
X50419983Y-82431591D01*
X50554831Y-82381296D01*
X50670046Y-82295046D01*
X50756296Y-82179831D01*
X50806591Y-82044983D01*
X50813000Y-81985373D01*
X50812999Y-80572758D01*
X62312000Y-80572758D01*
X62312000Y-80802241D01*
X62336946Y-80991715D01*
X62341952Y-81029738D01*
X62341953Y-81029740D01*
X62401342Y-81251387D01*
X62489150Y-81463376D01*
X62489157Y-81463390D01*
X62603892Y-81662117D01*
X62743581Y-81844161D01*
X62743589Y-81844170D01*
X62905830Y-82006411D01*
X62905838Y-82006418D01*
X63087882Y-82146107D01*
X63087885Y-82146108D01*
X63087888Y-82146111D01*
X63286612Y-82260844D01*
X63286617Y-82260846D01*
X63286623Y-82260849D01*
X63369178Y-82295044D01*
X63498613Y-82348658D01*
X63720262Y-82408048D01*
X63936812Y-82436557D01*
X63947750Y-82437998D01*
X63947766Y-82438000D01*
X63947773Y-82438000D01*
X64177227Y-82438000D01*
X64177234Y-82438000D01*
X64404738Y-82408048D01*
X64626387Y-82348658D01*
X64838388Y-82260844D01*
X65037112Y-82146111D01*
X65219161Y-82006419D01*
X65219165Y-82006414D01*
X65219170Y-82006411D01*
X65381411Y-81844170D01*
X65381414Y-81844165D01*
X65381419Y-81844161D01*
X65521111Y-81662112D01*
X65635844Y-81463388D01*
X65723658Y-81251387D01*
X65783048Y-81029738D01*
X65813000Y-80802234D01*
X65813000Y-80572766D01*
X65812999Y-80572758D01*
X67312000Y-80572758D01*
X67312000Y-80802241D01*
X67336946Y-80991715D01*
X67341952Y-81029738D01*
X67341953Y-81029740D01*
X67401342Y-81251387D01*
X67489150Y-81463376D01*
X67489157Y-81463390D01*
X67603892Y-81662117D01*
X67743581Y-81844161D01*
X67743589Y-81844170D01*
X67905830Y-82006411D01*
X67905838Y-82006418D01*
X68087882Y-82146107D01*
X68087885Y-82146108D01*
X68087888Y-82146111D01*
X68286612Y-82260844D01*
X68286617Y-82260846D01*
X68286623Y-82260849D01*
X68369178Y-82295044D01*
X68498613Y-82348658D01*
X68720262Y-82408048D01*
X68936812Y-82436557D01*
X68947750Y-82437998D01*
X68947766Y-82438000D01*
X68947773Y-82438000D01*
X69177227Y-82438000D01*
X69177234Y-82438000D01*
X69404738Y-82408048D01*
X69626387Y-82348658D01*
X69838388Y-82260844D01*
X70037112Y-82146111D01*
X70219161Y-82006419D01*
X70219165Y-82006414D01*
X70219170Y-82006411D01*
X70381411Y-81844170D01*
X70381414Y-81844165D01*
X70381419Y-81844161D01*
X70521111Y-81662112D01*
X70635844Y-81463388D01*
X70723658Y-81251387D01*
X70783048Y-81029738D01*
X70813000Y-80802234D01*
X70813000Y-80572766D01*
X70812999Y-80572758D01*
X72312000Y-80572758D01*
X72312000Y-80802241D01*
X72336946Y-80991715D01*
X72341952Y-81029738D01*
X72341953Y-81029740D01*
X72401342Y-81251387D01*
X72489150Y-81463376D01*
X72489157Y-81463390D01*
X72603892Y-81662117D01*
X72743581Y-81844161D01*
X72743589Y-81844170D01*
X72905830Y-82006411D01*
X72905838Y-82006418D01*
X73087882Y-82146107D01*
X73087885Y-82146108D01*
X73087888Y-82146111D01*
X73286612Y-82260844D01*
X73286617Y-82260846D01*
X73286623Y-82260849D01*
X73369178Y-82295044D01*
X73498613Y-82348658D01*
X73720262Y-82408048D01*
X73936812Y-82436557D01*
X73947750Y-82437998D01*
X73947766Y-82438000D01*
X73947773Y-82438000D01*
X74177227Y-82438000D01*
X74177234Y-82438000D01*
X74404738Y-82408048D01*
X74626387Y-82348658D01*
X74838388Y-82260844D01*
X75037112Y-82146111D01*
X75219161Y-82006419D01*
X75219165Y-82006414D01*
X75219170Y-82006411D01*
X75381411Y-81844170D01*
X75381414Y-81844165D01*
X75381419Y-81844161D01*
X75521111Y-81662112D01*
X75635844Y-81463388D01*
X75723658Y-81251387D01*
X75783048Y-81029738D01*
X75813000Y-80802234D01*
X75813000Y-80572766D01*
X75783048Y-80345262D01*
X75723658Y-80123613D01*
X75635844Y-79911612D01*
X75521111Y-79712888D01*
X75521108Y-79712885D01*
X75521107Y-79712882D01*
X75381418Y-79530838D01*
X75381411Y-79530830D01*
X75219170Y-79368589D01*
X75219161Y-79368581D01*
X75037117Y-79228892D01*
X74978710Y-79195171D01*
X74838388Y-79114156D01*
X74838376Y-79114150D01*
X74626387Y-79026342D01*
X74404738Y-78966952D01*
X74366715Y-78961946D01*
X74177241Y-78937000D01*
X74177234Y-78937000D01*
X73947766Y-78937000D01*
X73947758Y-78937000D01*
X73731215Y-78965509D01*
X73720262Y-78966952D01*
X73626576Y-78992054D01*
X73498612Y-79026342D01*
X73286623Y-79114150D01*
X73286609Y-79114157D01*
X73087882Y-79228892D01*
X72905838Y-79368581D01*
X72743581Y-79530838D01*
X72603892Y-79712882D01*
X72489157Y-79911609D01*
X72489150Y-79911623D01*
X72401342Y-80123612D01*
X72341953Y-80345259D01*
X72341951Y-80345270D01*
X72312000Y-80572758D01*
X70812999Y-80572758D01*
X70783048Y-80345262D01*
X70723658Y-80123613D01*
X70635844Y-79911612D01*
X70521111Y-79712888D01*
X70521108Y-79712885D01*
X70521107Y-79712882D01*
X70381418Y-79530838D01*
X70381411Y-79530830D01*
X70219170Y-79368589D01*
X70219161Y-79368581D01*
X70037117Y-79228892D01*
X69978710Y-79195171D01*
X69838388Y-79114156D01*
X69838376Y-79114150D01*
X69626387Y-79026342D01*
X69404738Y-78966952D01*
X69366715Y-78961946D01*
X69177241Y-78937000D01*
X69177234Y-78937000D01*
X68947766Y-78937000D01*
X68947758Y-78937000D01*
X68731215Y-78965509D01*
X68720262Y-78966952D01*
X68626576Y-78992054D01*
X68498612Y-79026342D01*
X68286623Y-79114150D01*
X68286609Y-79114157D01*
X68087882Y-79228892D01*
X67905838Y-79368581D01*
X67743581Y-79530838D01*
X67603892Y-79712882D01*
X67489157Y-79911609D01*
X67489150Y-79911623D01*
X67401342Y-80123612D01*
X67341953Y-80345259D01*
X67341951Y-80345270D01*
X67312000Y-80572758D01*
X65812999Y-80572758D01*
X65783048Y-80345262D01*
X65723658Y-80123613D01*
X65635844Y-79911612D01*
X65521111Y-79712888D01*
X65521108Y-79712885D01*
X65521107Y-79712882D01*
X65381418Y-79530838D01*
X65381411Y-79530830D01*
X65219170Y-79368589D01*
X65219161Y-79368581D01*
X65037117Y-79228892D01*
X64978710Y-79195171D01*
X64838388Y-79114156D01*
X64838376Y-79114150D01*
X64626387Y-79026342D01*
X64404738Y-78966952D01*
X64366715Y-78961946D01*
X64177241Y-78937000D01*
X64177234Y-78937000D01*
X63947766Y-78937000D01*
X63947758Y-78937000D01*
X63731215Y-78965509D01*
X63720262Y-78966952D01*
X63626576Y-78992054D01*
X63498612Y-79026342D01*
X63286623Y-79114150D01*
X63286609Y-79114157D01*
X63087882Y-79228892D01*
X62905838Y-79368581D01*
X62743581Y-79530838D01*
X62603892Y-79712882D01*
X62489157Y-79911609D01*
X62489150Y-79911623D01*
X62401342Y-80123612D01*
X62341953Y-80345259D01*
X62341951Y-80345270D01*
X62312000Y-80572758D01*
X50812999Y-80572758D01*
X50812999Y-79389628D01*
X50806591Y-79330017D01*
X50756296Y-79195169D01*
X50756295Y-79195168D01*
X50756293Y-79195164D01*
X50670047Y-79079955D01*
X50670044Y-79079952D01*
X50554835Y-78993706D01*
X50554828Y-78993702D01*
X50419982Y-78943408D01*
X50419983Y-78943408D01*
X50360383Y-78937001D01*
X50360381Y-78937000D01*
X50360373Y-78937000D01*
X50360364Y-78937000D01*
X47764629Y-78937000D01*
X47764623Y-78937001D01*
X47705016Y-78943408D01*
X47570171Y-78993702D01*
X47570164Y-78993706D01*
X47454955Y-79079952D01*
X47454952Y-79079955D01*
X47368706Y-79195164D01*
X47368702Y-79195171D01*
X47318408Y-79330017D01*
X47312001Y-79389616D01*
X47312001Y-79389623D01*
X47312000Y-79389635D01*
X15500500Y-79389635D01*
X15500500Y-73072758D01*
X47312000Y-73072758D01*
X47312000Y-73302241D01*
X47316830Y-73338924D01*
X47341952Y-73529738D01*
X47401342Y-73751387D01*
X47489150Y-73963376D01*
X47489157Y-73963390D01*
X47603892Y-74162117D01*
X47743581Y-74344161D01*
X47743589Y-74344170D01*
X47905830Y-74506411D01*
X47905838Y-74506418D01*
X48087882Y-74646107D01*
X48087885Y-74646108D01*
X48087888Y-74646111D01*
X48286612Y-74760844D01*
X48286617Y-74760846D01*
X48286623Y-74760849D01*
X48377980Y-74798690D01*
X48498613Y-74848658D01*
X48720262Y-74908048D01*
X48947766Y-74938000D01*
X48947773Y-74938000D01*
X49177227Y-74938000D01*
X49177234Y-74938000D01*
X49404738Y-74908048D01*
X49626387Y-74848658D01*
X49838388Y-74760844D01*
X50037112Y-74646111D01*
X50219161Y-74506419D01*
X50219165Y-74506414D01*
X50219170Y-74506411D01*
X50381411Y-74344170D01*
X50381414Y-74344165D01*
X50381419Y-74344161D01*
X50521111Y-74162112D01*
X50635844Y-73963388D01*
X50723658Y-73751387D01*
X50783048Y-73529738D01*
X50813000Y-73302234D01*
X50813000Y-73072766D01*
X50812999Y-73072758D01*
X62312000Y-73072758D01*
X62312000Y-73302241D01*
X62316830Y-73338924D01*
X62341952Y-73529738D01*
X62401342Y-73751387D01*
X62489150Y-73963376D01*
X62489157Y-73963390D01*
X62603892Y-74162117D01*
X62743581Y-74344161D01*
X62743589Y-74344170D01*
X62905830Y-74506411D01*
X62905838Y-74506418D01*
X63087882Y-74646107D01*
X63087885Y-74646108D01*
X63087888Y-74646111D01*
X63286612Y-74760844D01*
X63286617Y-74760846D01*
X63286623Y-74760849D01*
X63377980Y-74798690D01*
X63498613Y-74848658D01*
X63720262Y-74908048D01*
X63947766Y-74938000D01*
X63947773Y-74938000D01*
X64177227Y-74938000D01*
X64177234Y-74938000D01*
X64404738Y-74908048D01*
X64626387Y-74848658D01*
X64838388Y-74760844D01*
X65037112Y-74646111D01*
X65219161Y-74506419D01*
X65219165Y-74506414D01*
X65219170Y-74506411D01*
X65381411Y-74344170D01*
X65381414Y-74344165D01*
X65381419Y-74344161D01*
X65521111Y-74162112D01*
X65635844Y-73963388D01*
X65723658Y-73751387D01*
X65783048Y-73529738D01*
X65813000Y-73302234D01*
X65813000Y-73072766D01*
X65812999Y-73072758D01*
X67312000Y-73072758D01*
X67312000Y-73302241D01*
X67316830Y-73338924D01*
X67341952Y-73529738D01*
X67401342Y-73751387D01*
X67489150Y-73963376D01*
X67489157Y-73963390D01*
X67603892Y-74162117D01*
X67743581Y-74344161D01*
X67743589Y-74344170D01*
X67905830Y-74506411D01*
X67905838Y-74506418D01*
X68087882Y-74646107D01*
X68087885Y-74646108D01*
X68087888Y-74646111D01*
X68286612Y-74760844D01*
X68286617Y-74760846D01*
X68286623Y-74760849D01*
X68377980Y-74798690D01*
X68498613Y-74848658D01*
X68720262Y-74908048D01*
X68947766Y-74938000D01*
X68947773Y-74938000D01*
X69177227Y-74938000D01*
X69177234Y-74938000D01*
X69404738Y-74908048D01*
X69626387Y-74848658D01*
X69838388Y-74760844D01*
X70037112Y-74646111D01*
X70219161Y-74506419D01*
X70219165Y-74506414D01*
X70219170Y-74506411D01*
X70381411Y-74344170D01*
X70381414Y-74344165D01*
X70381419Y-74344161D01*
X70521111Y-74162112D01*
X70635844Y-73963388D01*
X70723658Y-73751387D01*
X70783048Y-73529738D01*
X70813000Y-73302234D01*
X70813000Y-73072766D01*
X70812999Y-73072758D01*
X72312000Y-73072758D01*
X72312000Y-73302241D01*
X72316830Y-73338924D01*
X72341952Y-73529738D01*
X72401342Y-73751387D01*
X72489150Y-73963376D01*
X72489157Y-73963390D01*
X72603892Y-74162117D01*
X72743581Y-74344161D01*
X72743589Y-74344170D01*
X72905830Y-74506411D01*
X72905838Y-74506418D01*
X73087882Y-74646107D01*
X73087885Y-74646108D01*
X73087888Y-74646111D01*
X73286612Y-74760844D01*
X73286617Y-74760846D01*
X73286623Y-74760849D01*
X73377980Y-74798690D01*
X73498613Y-74848658D01*
X73720262Y-74908048D01*
X73947766Y-74938000D01*
X73947773Y-74938000D01*
X74177227Y-74938000D01*
X74177234Y-74938000D01*
X74404738Y-74908048D01*
X74626387Y-74848658D01*
X74838388Y-74760844D01*
X75037112Y-74646111D01*
X75219161Y-74506419D01*
X75219165Y-74506414D01*
X75219170Y-74506411D01*
X75381411Y-74344170D01*
X75381414Y-74344165D01*
X75381419Y-74344161D01*
X75521111Y-74162112D01*
X75635844Y-73963388D01*
X75723658Y-73751387D01*
X75783048Y-73529738D01*
X75813000Y-73302234D01*
X75813000Y-73072766D01*
X75783048Y-72845262D01*
X75723658Y-72623613D01*
X75668558Y-72490590D01*
X75635849Y-72411623D01*
X75635846Y-72411617D01*
X75635844Y-72411612D01*
X75521111Y-72212888D01*
X75521108Y-72212885D01*
X75521107Y-72212882D01*
X75407836Y-72065266D01*
X75381419Y-72030839D01*
X75381418Y-72030838D01*
X75381411Y-72030830D01*
X75219170Y-71868589D01*
X75219165Y-71868585D01*
X75219161Y-71868581D01*
X75155958Y-71820083D01*
X75037117Y-71728892D01*
X75035220Y-71727797D01*
X78392856Y-71727797D01*
X78392856Y-71885490D01*
X78423617Y-72040133D01*
X78423620Y-72040145D01*
X78483958Y-72185816D01*
X78483965Y-72185829D01*
X78567227Y-72310438D01*
X78585742Y-72355138D01*
X78589968Y-72376383D01*
X78589970Y-72376391D01*
X78623418Y-72457141D01*
X78637273Y-72490590D01*
X78694596Y-72576380D01*
X78694597Y-72576381D01*
X78705945Y-72593364D01*
X78705946Y-72593365D01*
X79424907Y-73312326D01*
X79458392Y-73373649D01*
X79458843Y-73375815D01*
X79480261Y-73483491D01*
X79480264Y-73483501D01*
X79540602Y-73629172D01*
X79540609Y-73629185D01*
X79628210Y-73760288D01*
X79628213Y-73760292D01*
X79739707Y-73871786D01*
X79739711Y-73871789D01*
X79870814Y-73959390D01*
X79870827Y-73959397D01*
X80016498Y-74019735D01*
X80016503Y-74019737D01*
X80171153Y-74050499D01*
X80171156Y-74050500D01*
X80171158Y-74050500D01*
X80328844Y-74050500D01*
X80328845Y-74050499D01*
X80483497Y-74019737D01*
X80629179Y-73959394D01*
X80760289Y-73871789D01*
X80871789Y-73760289D01*
X80959394Y-73629179D01*
X81019737Y-73483497D01*
X81050500Y-73328842D01*
X81050500Y-73171158D01*
X81050500Y-73171155D01*
X81050499Y-73171153D01*
X81019737Y-73016503D01*
X81019735Y-73016498D01*
X80959397Y-72870827D01*
X80959390Y-72870814D01*
X80871789Y-72739711D01*
X80871786Y-72739707D01*
X80760292Y-72628213D01*
X80760288Y-72628210D01*
X80629185Y-72540609D01*
X80629172Y-72540602D01*
X80483501Y-72480264D01*
X80483491Y-72480261D01*
X80375815Y-72458843D01*
X80313904Y-72426458D01*
X80312326Y-72424907D01*
X80004064Y-72116645D01*
X79970579Y-72055322D01*
X79970128Y-72004772D01*
X79993856Y-71885488D01*
X79993856Y-71727799D01*
X79993855Y-71727797D01*
X79963094Y-71573154D01*
X79963093Y-71573147D01*
X79943706Y-71526342D01*
X79902753Y-71427471D01*
X79902746Y-71427458D01*
X79815145Y-71296355D01*
X79815142Y-71296351D01*
X79703648Y-71184857D01*
X79703644Y-71184854D01*
X79572541Y-71097253D01*
X79572528Y-71097246D01*
X79426857Y-71036908D01*
X79426845Y-71036905D01*
X79272201Y-71006144D01*
X79272198Y-71006144D01*
X79114514Y-71006144D01*
X79114511Y-71006144D01*
X78959866Y-71036905D01*
X78959854Y-71036908D01*
X78814183Y-71097246D01*
X78814170Y-71097253D01*
X78683067Y-71184854D01*
X78683063Y-71184857D01*
X78571569Y-71296351D01*
X78571566Y-71296355D01*
X78483965Y-71427458D01*
X78483958Y-71427471D01*
X78423620Y-71573142D01*
X78423617Y-71573154D01*
X78392856Y-71727797D01*
X75035220Y-71727797D01*
X74838388Y-71614156D01*
X74838376Y-71614150D01*
X74626387Y-71526342D01*
X74404738Y-71466952D01*
X74366715Y-71461946D01*
X74177241Y-71437000D01*
X74177234Y-71437000D01*
X73947766Y-71437000D01*
X73947758Y-71437000D01*
X73731215Y-71465509D01*
X73720262Y-71466952D01*
X73626576Y-71492054D01*
X73498612Y-71526342D01*
X73286623Y-71614150D01*
X73286609Y-71614157D01*
X73087882Y-71728892D01*
X72905838Y-71868581D01*
X72743581Y-72030838D01*
X72603892Y-72212882D01*
X72489157Y-72411609D01*
X72489150Y-72411623D01*
X72401342Y-72623612D01*
X72341953Y-72845259D01*
X72341951Y-72845270D01*
X72312000Y-73072758D01*
X70812999Y-73072758D01*
X70783048Y-72845262D01*
X70723658Y-72623613D01*
X70668558Y-72490590D01*
X70635849Y-72411623D01*
X70635846Y-72411617D01*
X70635844Y-72411612D01*
X70521111Y-72212888D01*
X70521108Y-72212885D01*
X70521107Y-72212882D01*
X70407836Y-72065266D01*
X70381419Y-72030839D01*
X70381418Y-72030838D01*
X70381411Y-72030830D01*
X70219170Y-71868589D01*
X70219161Y-71868581D01*
X70037117Y-71728892D01*
X70035220Y-71727797D01*
X69838388Y-71614156D01*
X69838376Y-71614150D01*
X69626387Y-71526342D01*
X69404738Y-71466952D01*
X69366715Y-71461946D01*
X69177241Y-71437000D01*
X69177234Y-71437000D01*
X68947766Y-71437000D01*
X68947758Y-71437000D01*
X68731215Y-71465509D01*
X68720262Y-71466952D01*
X68626576Y-71492054D01*
X68498612Y-71526342D01*
X68286623Y-71614150D01*
X68286609Y-71614157D01*
X68087882Y-71728892D01*
X67905838Y-71868581D01*
X67743581Y-72030838D01*
X67603892Y-72212882D01*
X67489157Y-72411609D01*
X67489150Y-72411623D01*
X67401342Y-72623612D01*
X67341953Y-72845259D01*
X67341951Y-72845270D01*
X67312000Y-73072758D01*
X65812999Y-73072758D01*
X65783048Y-72845262D01*
X65723658Y-72623613D01*
X65668558Y-72490590D01*
X65635849Y-72411623D01*
X65635846Y-72411617D01*
X65635844Y-72411612D01*
X65521111Y-72212888D01*
X65521108Y-72212885D01*
X65521107Y-72212882D01*
X65407836Y-72065266D01*
X65381419Y-72030839D01*
X65381418Y-72030838D01*
X65381411Y-72030830D01*
X65219170Y-71868589D01*
X65219161Y-71868581D01*
X65037117Y-71728892D01*
X65035220Y-71727797D01*
X64838388Y-71614156D01*
X64838376Y-71614150D01*
X64626387Y-71526342D01*
X64404738Y-71466952D01*
X64366715Y-71461946D01*
X64177241Y-71437000D01*
X64177234Y-71437000D01*
X63947766Y-71437000D01*
X63947758Y-71437000D01*
X63731215Y-71465509D01*
X63720262Y-71466952D01*
X63626576Y-71492054D01*
X63498612Y-71526342D01*
X63286623Y-71614150D01*
X63286609Y-71614157D01*
X63087882Y-71728892D01*
X62905838Y-71868581D01*
X62743581Y-72030838D01*
X62603892Y-72212882D01*
X62489157Y-72411609D01*
X62489150Y-72411623D01*
X62401342Y-72623612D01*
X62341953Y-72845259D01*
X62341951Y-72845270D01*
X62312000Y-73072758D01*
X50812999Y-73072758D01*
X50783048Y-72845262D01*
X50723658Y-72623613D01*
X50668558Y-72490590D01*
X50635849Y-72411623D01*
X50635846Y-72411617D01*
X50635844Y-72411612D01*
X50521111Y-72212888D01*
X50521108Y-72212885D01*
X50521107Y-72212882D01*
X50407836Y-72065266D01*
X50381419Y-72030839D01*
X50381418Y-72030838D01*
X50381411Y-72030830D01*
X50219170Y-71868589D01*
X50219161Y-71868581D01*
X50037117Y-71728892D01*
X50035220Y-71727797D01*
X49838388Y-71614156D01*
X49838376Y-71614150D01*
X49626387Y-71526342D01*
X49404738Y-71466952D01*
X49366715Y-71461946D01*
X49177241Y-71437000D01*
X49177234Y-71437000D01*
X48947766Y-71437000D01*
X48947758Y-71437000D01*
X48731215Y-71465509D01*
X48720262Y-71466952D01*
X48626576Y-71492054D01*
X48498612Y-71526342D01*
X48286623Y-71614150D01*
X48286609Y-71614157D01*
X48087882Y-71728892D01*
X47905838Y-71868581D01*
X47743581Y-72030838D01*
X47603892Y-72212882D01*
X47489157Y-72411609D01*
X47489150Y-72411623D01*
X47401342Y-72623612D01*
X47341953Y-72845259D01*
X47341951Y-72845270D01*
X47312000Y-73072758D01*
X15500500Y-73072758D01*
X15500500Y-61171153D01*
X57949500Y-61171153D01*
X57949500Y-61328846D01*
X57980261Y-61483489D01*
X57980264Y-61483501D01*
X58040602Y-61629172D01*
X58040609Y-61629185D01*
X58128210Y-61760288D01*
X58128213Y-61760292D01*
X58239707Y-61871786D01*
X58239711Y-61871789D01*
X58370814Y-61959390D01*
X58370818Y-61959392D01*
X58370821Y-61959394D01*
X58384814Y-61965190D01*
X58425045Y-61992071D01*
X58519028Y-62086054D01*
X58519035Y-62086060D01*
X58642608Y-62168628D01*
X58642609Y-62168628D01*
X58642610Y-62168629D01*
X58779920Y-62225505D01*
X58925683Y-62254499D01*
X58925687Y-62254500D01*
X58925688Y-62254500D01*
X59074312Y-62254500D01*
X61057578Y-62254500D01*
X61124617Y-62274185D01*
X61170372Y-62326989D01*
X61180316Y-62396147D01*
X61179557Y-62400577D01*
X61179500Y-62401157D01*
X61179500Y-62558846D01*
X61210261Y-62713489D01*
X61210264Y-62713501D01*
X61270602Y-62859172D01*
X61270609Y-62859185D01*
X61358210Y-62990288D01*
X61358213Y-62990292D01*
X61469707Y-63101786D01*
X61469711Y-63101789D01*
X61600814Y-63189390D01*
X61600823Y-63189395D01*
X61746503Y-63249737D01*
X61752325Y-63251503D01*
X61751612Y-63253851D01*
X61803964Y-63281214D01*
X61805571Y-63282793D01*
X63559509Y-65036732D01*
X63559513Y-65036735D01*
X63672681Y-65112352D01*
X63672685Y-65112354D01*
X63672688Y-65112356D01*
X63798442Y-65164445D01*
X63817439Y-65168223D01*
X63873905Y-65179455D01*
X63931941Y-65191000D01*
X63931942Y-65191000D01*
X70662416Y-65191000D01*
X70729455Y-65210685D01*
X70750097Y-65227319D01*
X71697205Y-66174427D01*
X71726590Y-66228242D01*
X71728494Y-66227665D01*
X71730264Y-66233501D01*
X71790602Y-66379172D01*
X71790609Y-66379185D01*
X71878210Y-66510288D01*
X71878213Y-66510292D01*
X71989707Y-66621786D01*
X71989711Y-66621789D01*
X72120814Y-66709390D01*
X72120820Y-66709393D01*
X72120821Y-66709394D01*
X72266503Y-66769737D01*
X72266507Y-66769737D01*
X72272332Y-66771505D01*
X72271618Y-66773857D01*
X72323955Y-66801205D01*
X72325573Y-66802794D01*
X74654766Y-69131987D01*
X74751013Y-69228234D01*
X74751014Y-69228235D01*
X74864182Y-69303852D01*
X74864195Y-69303859D01*
X74989938Y-69355943D01*
X74989943Y-69355945D01*
X74989947Y-69355945D01*
X74989948Y-69355946D01*
X75123439Y-69382500D01*
X75123442Y-69382500D01*
X75123443Y-69382500D01*
X75259557Y-69382500D01*
X77876000Y-69382500D01*
X77943039Y-69402185D01*
X77988794Y-69454989D01*
X78000000Y-69506500D01*
X78000000Y-69910000D01*
X84520000Y-69910000D01*
X84520000Y-49500000D01*
X78000000Y-49500000D01*
X78000000Y-67876500D01*
X77980315Y-67943539D01*
X77927511Y-67989294D01*
X77876000Y-68000500D01*
X76918046Y-68000500D01*
X76851007Y-67980815D01*
X76805252Y-67928011D01*
X76796429Y-67900691D01*
X76769738Y-67766510D01*
X76769737Y-67766503D01*
X76769735Y-67766498D01*
X76709397Y-67620827D01*
X76709390Y-67620814D01*
X76621789Y-67489711D01*
X76621786Y-67489707D01*
X76510292Y-67378213D01*
X76510284Y-67378207D01*
X76379181Y-67290607D01*
X76379175Y-67290604D01*
X76365176Y-67284805D01*
X76324950Y-67257926D01*
X69980969Y-60913943D01*
X69980968Y-60913942D01*
X69916421Y-60870814D01*
X69857389Y-60831370D01*
X69857386Y-60831368D01*
X69857385Y-60831368D01*
X69776955Y-60798053D01*
X69720081Y-60774495D01*
X69714620Y-60773408D01*
X69692626Y-60769034D01*
X69692625Y-60769033D01*
X69692624Y-60769033D01*
X69574314Y-60745499D01*
X69574312Y-60745499D01*
X69425688Y-60745499D01*
X69419574Y-60745499D01*
X69419554Y-60745500D01*
X59428941Y-60745500D01*
X59361902Y-60725815D01*
X59341260Y-60709181D01*
X59260292Y-60628213D01*
X59260288Y-60628210D01*
X59129185Y-60540609D01*
X59129172Y-60540602D01*
X58983501Y-60480264D01*
X58983489Y-60480261D01*
X58828845Y-60449500D01*
X58828842Y-60449500D01*
X58671158Y-60449500D01*
X58671155Y-60449500D01*
X58516510Y-60480261D01*
X58516498Y-60480264D01*
X58370827Y-60540602D01*
X58370814Y-60540609D01*
X58239711Y-60628210D01*
X58239707Y-60628213D01*
X58128213Y-60739707D01*
X58128210Y-60739711D01*
X58040609Y-60870814D01*
X58040602Y-60870827D01*
X57980264Y-61016498D01*
X57980261Y-61016510D01*
X57949500Y-61171153D01*
X15500500Y-61171153D01*
X15500500Y-53921153D01*
X65374500Y-53921153D01*
X65374500Y-54078846D01*
X65405261Y-54233489D01*
X65405264Y-54233501D01*
X65465602Y-54379172D01*
X65465609Y-54379185D01*
X65553210Y-54510288D01*
X65553213Y-54510292D01*
X65664707Y-54621786D01*
X65664711Y-54621789D01*
X65795814Y-54709390D01*
X65795827Y-54709397D01*
X65941498Y-54769735D01*
X65941503Y-54769737D01*
X66096153Y-54800499D01*
X66096156Y-54800500D01*
X66096158Y-54800500D01*
X66253844Y-54800500D01*
X66253845Y-54800499D01*
X66408497Y-54769737D01*
X66554179Y-54709394D01*
X66645466Y-54648398D01*
X66712143Y-54627520D01*
X66714357Y-54627500D01*
X68061804Y-54627500D01*
X68061805Y-54627499D01*
X68183035Y-54603386D01*
X68263784Y-54569937D01*
X68297233Y-54556083D01*
X68400008Y-54487411D01*
X68487411Y-54400008D01*
X69723600Y-53163819D01*
X69784923Y-53130334D01*
X69811281Y-53127500D01*
X74233818Y-53127500D01*
X74254033Y-53133435D01*
X74275072Y-53134564D01*
X74286885Y-53143082D01*
X74300857Y-53147185D01*
X74314651Y-53163104D01*
X74331744Y-53175430D01*
X74337077Y-53188985D01*
X74346612Y-53199989D01*
X74349610Y-53220840D01*
X74357325Y-53240449D01*
X74355995Y-53265246D01*
X74356556Y-53269147D01*
X74355435Y-53275692D01*
X74335843Y-53374183D01*
X74303458Y-53436094D01*
X74301907Y-53437672D01*
X73903400Y-53836181D01*
X73842077Y-53869666D01*
X73815719Y-53872500D01*
X71938195Y-53872500D01*
X71816970Y-53896613D01*
X71816960Y-53896616D01*
X71702773Y-53943913D01*
X71702761Y-53943920D01*
X71610937Y-54005276D01*
X71610933Y-54005279D01*
X71599992Y-54012588D01*
X69937672Y-55674907D01*
X69876349Y-55708392D01*
X69874183Y-55708843D01*
X69766508Y-55730261D01*
X69766498Y-55730264D01*
X69620827Y-55790602D01*
X69620814Y-55790609D01*
X69489711Y-55878210D01*
X69489707Y-55878213D01*
X69378213Y-55989707D01*
X69378210Y-55989711D01*
X69290609Y-56120814D01*
X69290602Y-56120827D01*
X69230264Y-56266498D01*
X69230261Y-56266510D01*
X69199500Y-56421153D01*
X69199500Y-56578846D01*
X69230261Y-56733489D01*
X69230264Y-56733501D01*
X69290602Y-56879172D01*
X69290609Y-56879185D01*
X69378210Y-57010288D01*
X69378213Y-57010292D01*
X69489707Y-57121786D01*
X69489711Y-57121789D01*
X69620814Y-57209390D01*
X69620827Y-57209397D01*
X69766498Y-57269735D01*
X69766503Y-57269737D01*
X69921153Y-57300499D01*
X69921156Y-57300500D01*
X69921158Y-57300500D01*
X70078844Y-57300500D01*
X70078845Y-57300499D01*
X70233497Y-57269737D01*
X70379179Y-57209394D01*
X70510289Y-57121789D01*
X70621789Y-57010289D01*
X70709394Y-56879179D01*
X70769737Y-56733497D01*
X70791156Y-56625812D01*
X70823539Y-56563906D01*
X70825034Y-56562383D01*
X72223600Y-55163819D01*
X72284923Y-55130334D01*
X72311281Y-55127500D01*
X74188804Y-55127500D01*
X74188805Y-55127499D01*
X74310035Y-55103386D01*
X74371729Y-55077830D01*
X74407868Y-55062862D01*
X74414319Y-55060189D01*
X74424233Y-55056083D01*
X74527008Y-54987411D01*
X74614411Y-54900008D01*
X75189328Y-54325089D01*
X75250649Y-54291606D01*
X75252648Y-54291189D01*
X75360497Y-54269737D01*
X75506179Y-54209394D01*
X75637289Y-54121789D01*
X75748789Y-54010289D01*
X75836394Y-53879179D01*
X75896737Y-53733497D01*
X75927500Y-53578842D01*
X75927500Y-53421158D01*
X75927500Y-53421155D01*
X75927499Y-53421153D01*
X75917821Y-53372500D01*
X75896737Y-53266503D01*
X75885945Y-53240449D01*
X75836397Y-53120827D01*
X75836390Y-53120814D01*
X75748789Y-52989711D01*
X75748786Y-52989707D01*
X75637292Y-52878213D01*
X75637288Y-52878210D01*
X75506185Y-52790609D01*
X75506176Y-52790604D01*
X75477967Y-52778920D01*
X75423564Y-52735079D01*
X75401499Y-52668785D01*
X75418778Y-52601085D01*
X75437735Y-52576682D01*
X75689328Y-52325089D01*
X75750649Y-52291606D01*
X75752648Y-52291189D01*
X75860497Y-52269737D01*
X76006179Y-52209394D01*
X76137289Y-52121789D01*
X76248789Y-52010289D01*
X76336394Y-51879179D01*
X76396737Y-51733497D01*
X76427500Y-51578842D01*
X76427500Y-51421158D01*
X76427500Y-51421155D01*
X76427499Y-51421153D01*
X76396738Y-51266510D01*
X76396738Y-51266508D01*
X76396737Y-51266503D01*
X76396735Y-51266498D01*
X76336397Y-51120827D01*
X76336390Y-51120814D01*
X76248789Y-50989711D01*
X76248786Y-50989707D01*
X76137292Y-50878213D01*
X76137288Y-50878210D01*
X76006185Y-50790609D01*
X76006172Y-50790602D01*
X75860501Y-50730264D01*
X75860489Y-50730261D01*
X75705845Y-50699500D01*
X75705842Y-50699500D01*
X75548158Y-50699500D01*
X75548155Y-50699500D01*
X75393510Y-50730261D01*
X75393498Y-50730264D01*
X75247827Y-50790602D01*
X75247814Y-50790609D01*
X75116711Y-50878210D01*
X75116707Y-50878213D01*
X75005213Y-50989707D01*
X75005210Y-50989711D01*
X74917609Y-51120814D01*
X74917602Y-51120827D01*
X74857264Y-51266498D01*
X74857261Y-51266508D01*
X74835843Y-51374183D01*
X74803458Y-51436094D01*
X74801907Y-51437672D01*
X74403400Y-51836181D01*
X74342077Y-51869666D01*
X74315719Y-51872500D01*
X69438195Y-51872500D01*
X69316970Y-51896613D01*
X69316960Y-51896616D01*
X69202773Y-51943913D01*
X69202760Y-51943920D01*
X69099992Y-52012588D01*
X69099988Y-52012591D01*
X67776400Y-53336181D01*
X67715077Y-53369666D01*
X67688719Y-53372500D01*
X66714357Y-53372500D01*
X66647318Y-53352815D01*
X66645466Y-53351602D01*
X66554185Y-53290609D01*
X66554172Y-53290602D01*
X66408501Y-53230264D01*
X66408489Y-53230261D01*
X66253845Y-53199500D01*
X66253842Y-53199500D01*
X66096158Y-53199500D01*
X66096155Y-53199500D01*
X65941510Y-53230261D01*
X65941498Y-53230264D01*
X65795827Y-53290602D01*
X65795814Y-53290609D01*
X65664711Y-53378210D01*
X65664707Y-53378213D01*
X65553213Y-53489707D01*
X65553210Y-53489711D01*
X65465609Y-53620814D01*
X65465602Y-53620827D01*
X65405264Y-53766498D01*
X65405261Y-53766510D01*
X65374500Y-53921153D01*
X15500500Y-53921153D01*
X15500500Y-45421158D01*
X54699500Y-45421158D01*
X54699500Y-45428484D01*
X54699500Y-45578846D01*
X54730261Y-45733489D01*
X54730264Y-45733501D01*
X54790602Y-45879172D01*
X54790609Y-45879185D01*
X54878210Y-46010288D01*
X54878213Y-46010292D01*
X54989707Y-46121786D01*
X54989711Y-46121789D01*
X55120814Y-46209390D01*
X55120827Y-46209397D01*
X55266498Y-46269735D01*
X55266503Y-46269737D01*
X55421153Y-46300499D01*
X55421156Y-46300500D01*
X55421158Y-46300500D01*
X55578844Y-46300500D01*
X55578845Y-46300499D01*
X55733497Y-46269737D01*
X55879179Y-46209394D01*
X56010289Y-46121789D01*
X56121789Y-46010289D01*
X56209394Y-45879179D01*
X56269737Y-45733497D01*
X56300500Y-45578842D01*
X56300500Y-45421158D01*
X56300500Y-45421155D01*
X56300499Y-45421153D01*
X56269739Y-45266511D01*
X56269738Y-45266508D01*
X56269737Y-45266503D01*
X56263937Y-45252501D01*
X56254500Y-45205053D01*
X56254500Y-44421153D01*
X64522500Y-44421153D01*
X64522500Y-44578846D01*
X64553261Y-44733489D01*
X64553264Y-44733501D01*
X64613602Y-44879172D01*
X64613609Y-44879185D01*
X64701210Y-45010288D01*
X64701213Y-45010292D01*
X64812707Y-45121786D01*
X64812711Y-45121789D01*
X64943814Y-45209390D01*
X64943827Y-45209397D01*
X65089498Y-45269735D01*
X65089503Y-45269737D01*
X65244153Y-45300499D01*
X65244156Y-45300500D01*
X65244158Y-45300500D01*
X65401844Y-45300500D01*
X65401845Y-45300499D01*
X65556497Y-45269737D01*
X65702179Y-45209394D01*
X65793466Y-45148398D01*
X65860143Y-45127520D01*
X65862357Y-45127500D01*
X66688719Y-45127500D01*
X66755758Y-45147185D01*
X66776400Y-45163819D01*
X67512589Y-45900008D01*
X67599992Y-45987411D01*
X67599994Y-45987413D01*
X67599996Y-45987414D01*
X67702756Y-46056076D01*
X67702758Y-46056077D01*
X67702767Y-46056083D01*
X67727772Y-46066440D01*
X67750071Y-46075677D01*
X67792254Y-46093149D01*
X67816966Y-46103386D01*
X67938192Y-46127499D01*
X67938196Y-46127500D01*
X67938197Y-46127500D01*
X68061804Y-46127500D01*
X76960643Y-46127500D01*
X77027682Y-46147185D01*
X77029534Y-46148398D01*
X77120814Y-46209390D01*
X77120827Y-46209397D01*
X77266498Y-46269735D01*
X77266503Y-46269737D01*
X77421153Y-46300499D01*
X77421156Y-46300500D01*
X77421158Y-46300500D01*
X77578844Y-46300500D01*
X77578845Y-46300499D01*
X77733497Y-46269737D01*
X77879179Y-46209394D01*
X78010289Y-46121789D01*
X78121789Y-46010289D01*
X78209394Y-45879179D01*
X78269737Y-45733497D01*
X78300500Y-45578842D01*
X78300500Y-45421158D01*
X78300500Y-45421155D01*
X78300499Y-45421153D01*
X78270380Y-45269735D01*
X78269737Y-45266503D01*
X78269735Y-45266498D01*
X78209397Y-45120827D01*
X78209390Y-45120814D01*
X78121789Y-44989711D01*
X78121786Y-44989707D01*
X78010292Y-44878213D01*
X78010288Y-44878210D01*
X77879185Y-44790609D01*
X77879172Y-44790602D01*
X77733501Y-44730264D01*
X77733489Y-44730261D01*
X77578845Y-44699500D01*
X77578842Y-44699500D01*
X77421158Y-44699500D01*
X77421155Y-44699500D01*
X77266510Y-44730261D01*
X77266498Y-44730264D01*
X77120827Y-44790602D01*
X77120814Y-44790609D01*
X77029534Y-44851602D01*
X76962857Y-44872480D01*
X76960643Y-44872500D01*
X68311281Y-44872500D01*
X68244242Y-44852815D01*
X68223600Y-44836181D01*
X67400011Y-44012591D01*
X67400009Y-44012589D01*
X67376487Y-43996873D01*
X67376488Y-43996873D01*
X67373271Y-43994724D01*
X67297233Y-43943917D01*
X67263784Y-43930062D01*
X67256103Y-43926880D01*
X67256099Y-43926878D01*
X67183035Y-43896614D01*
X67183027Y-43896612D01*
X67061807Y-43872500D01*
X67061803Y-43872500D01*
X65862357Y-43872500D01*
X65795318Y-43852815D01*
X65793466Y-43851602D01*
X65702185Y-43790609D01*
X65702172Y-43790602D01*
X65556501Y-43730264D01*
X65556489Y-43730261D01*
X65401845Y-43699500D01*
X65401842Y-43699500D01*
X65244158Y-43699500D01*
X65244155Y-43699500D01*
X65089510Y-43730261D01*
X65089498Y-43730264D01*
X64943827Y-43790602D01*
X64943814Y-43790609D01*
X64812711Y-43878210D01*
X64812707Y-43878213D01*
X64701213Y-43989707D01*
X64701210Y-43989711D01*
X64613609Y-44120814D01*
X64613602Y-44120827D01*
X64553264Y-44266498D01*
X64553261Y-44266510D01*
X64522500Y-44421153D01*
X56254500Y-44421153D01*
X56254500Y-42421153D01*
X64522500Y-42421153D01*
X64522500Y-42578846D01*
X64553261Y-42733489D01*
X64553264Y-42733501D01*
X64613602Y-42879172D01*
X64613609Y-42879185D01*
X64701210Y-43010288D01*
X64701213Y-43010292D01*
X64812707Y-43121786D01*
X64812711Y-43121789D01*
X64943814Y-43209390D01*
X64943827Y-43209397D01*
X65089498Y-43269735D01*
X65089503Y-43269737D01*
X65244153Y-43300499D01*
X65244156Y-43300500D01*
X65244158Y-43300500D01*
X65401844Y-43300500D01*
X65401845Y-43300499D01*
X65556497Y-43269737D01*
X65702179Y-43209394D01*
X65793466Y-43148398D01*
X65860143Y-43127520D01*
X65862357Y-43127500D01*
X66492643Y-43127500D01*
X66559682Y-43147185D01*
X66561534Y-43148398D01*
X66652814Y-43209390D01*
X66652827Y-43209397D01*
X66798498Y-43269735D01*
X66798503Y-43269737D01*
X66953153Y-43300499D01*
X66953156Y-43300500D01*
X66953158Y-43300500D01*
X67110844Y-43300500D01*
X67110845Y-43300499D01*
X67265497Y-43269737D01*
X67411179Y-43209394D01*
X67542289Y-43121789D01*
X67653789Y-43010289D01*
X67741394Y-42879179D01*
X67801737Y-42733497D01*
X67832500Y-42578842D01*
X67832500Y-42421158D01*
X67832500Y-42421155D01*
X67832499Y-42421153D01*
X67805515Y-42285497D01*
X67801737Y-42266503D01*
X67799163Y-42260288D01*
X67741397Y-42120827D01*
X67741390Y-42120814D01*
X67653789Y-41989711D01*
X67653786Y-41989707D01*
X67542292Y-41878213D01*
X67542288Y-41878210D01*
X67411185Y-41790609D01*
X67411173Y-41790602D01*
X67384674Y-41779627D01*
X67265501Y-41730264D01*
X67265489Y-41730261D01*
X67110845Y-41699500D01*
X67110842Y-41699500D01*
X66953158Y-41699500D01*
X66953155Y-41699500D01*
X66798510Y-41730261D01*
X66798498Y-41730264D01*
X66652827Y-41790602D01*
X66652814Y-41790609D01*
X66561534Y-41851602D01*
X66494857Y-41872480D01*
X66492643Y-41872500D01*
X65862357Y-41872500D01*
X65795318Y-41852815D01*
X65793466Y-41851602D01*
X65702185Y-41790609D01*
X65702172Y-41790602D01*
X65556501Y-41730264D01*
X65556489Y-41730261D01*
X65401845Y-41699500D01*
X65401842Y-41699500D01*
X65244158Y-41699500D01*
X65244155Y-41699500D01*
X65089510Y-41730261D01*
X65089498Y-41730264D01*
X64943827Y-41790602D01*
X64943814Y-41790609D01*
X64812711Y-41878210D01*
X64812707Y-41878213D01*
X64701213Y-41989707D01*
X64701210Y-41989711D01*
X64613609Y-42120814D01*
X64613602Y-42120827D01*
X64553264Y-42266498D01*
X64553261Y-42266510D01*
X64522500Y-42421153D01*
X56254500Y-42421153D01*
X56254500Y-41671153D01*
X87449500Y-41671153D01*
X87449500Y-41828846D01*
X87480261Y-41983489D01*
X87480264Y-41983501D01*
X87540602Y-42129172D01*
X87540609Y-42129185D01*
X87628210Y-42260288D01*
X87628213Y-42260292D01*
X87739707Y-42371786D01*
X87739711Y-42371789D01*
X87870814Y-42459390D01*
X87870827Y-42459397D01*
X88016498Y-42519735D01*
X88016503Y-42519737D01*
X88171153Y-42550499D01*
X88171156Y-42550500D01*
X88171158Y-42550500D01*
X88328844Y-42550500D01*
X88328845Y-42550499D01*
X88483497Y-42519737D01*
X88629179Y-42459394D01*
X88760289Y-42371789D01*
X88871789Y-42260289D01*
X88959394Y-42129179D01*
X88962854Y-42120827D01*
X89017163Y-41989711D01*
X89019737Y-41983497D01*
X89021794Y-41973153D01*
X91699500Y-41973153D01*
X91699500Y-42130846D01*
X91730261Y-42285489D01*
X91730264Y-42285501D01*
X91790602Y-42431172D01*
X91790609Y-42431185D01*
X91878210Y-42562288D01*
X91878213Y-42562292D01*
X91989707Y-42673786D01*
X91989711Y-42673789D01*
X92120814Y-42761390D01*
X92120827Y-42761397D01*
X92266498Y-42821735D01*
X92266503Y-42821737D01*
X92421153Y-42852499D01*
X92421156Y-42852500D01*
X92421158Y-42852500D01*
X92578844Y-42852500D01*
X92578845Y-42852499D01*
X92733497Y-42821737D01*
X92879179Y-42761394D01*
X92970466Y-42700398D01*
X93037143Y-42679520D01*
X93039357Y-42679500D01*
X98009804Y-42679500D01*
X98009805Y-42679499D01*
X98131035Y-42655386D01*
X98211784Y-42621937D01*
X98245233Y-42608083D01*
X98348008Y-42539411D01*
X98435411Y-42452008D01*
X99487411Y-41400008D01*
X99506913Y-41370821D01*
X99556083Y-41297233D01*
X99579909Y-41239711D01*
X99603386Y-41183034D01*
X99627500Y-41061803D01*
X99627500Y-40938197D01*
X99627500Y-34811280D01*
X99647185Y-34744241D01*
X99663814Y-34723604D01*
X101562328Y-32825089D01*
X101623649Y-32791606D01*
X101625648Y-32791189D01*
X101733497Y-32769737D01*
X101879179Y-32709394D01*
X102010289Y-32621789D01*
X102121789Y-32510289D01*
X102209394Y-32379179D01*
X102269737Y-32233497D01*
X102300500Y-32078842D01*
X102300500Y-31921158D01*
X102300500Y-31921155D01*
X102300499Y-31921153D01*
X102269738Y-31766510D01*
X102269738Y-31766508D01*
X102269737Y-31766503D01*
X102218896Y-31643760D01*
X102209397Y-31620827D01*
X102209390Y-31620814D01*
X102121789Y-31489711D01*
X102121786Y-31489707D01*
X102010292Y-31378213D01*
X102010288Y-31378210D01*
X101879185Y-31290609D01*
X101879172Y-31290602D01*
X101733501Y-31230264D01*
X101733489Y-31230261D01*
X101578845Y-31199500D01*
X101578842Y-31199500D01*
X101421158Y-31199500D01*
X101421155Y-31199500D01*
X101266510Y-31230261D01*
X101266498Y-31230264D01*
X101120827Y-31290602D01*
X101120814Y-31290609D01*
X100989711Y-31378210D01*
X100989707Y-31378213D01*
X100878213Y-31489707D01*
X100878210Y-31489711D01*
X100790609Y-31620814D01*
X100790602Y-31620827D01*
X100730264Y-31766498D01*
X100730261Y-31766508D01*
X100708843Y-31874183D01*
X100676458Y-31936094D01*
X100674907Y-31937672D01*
X99076293Y-33536288D01*
X98599992Y-34012589D01*
X98556289Y-34056292D01*
X98512586Y-34099994D01*
X98512585Y-34099996D01*
X98443233Y-34203789D01*
X98441586Y-34208393D01*
X98396614Y-34316964D01*
X98396612Y-34316972D01*
X98372500Y-34438192D01*
X98372500Y-40688719D01*
X98352815Y-40755758D01*
X98336181Y-40776400D01*
X97724400Y-41388181D01*
X97663077Y-41421666D01*
X97636719Y-41424500D01*
X93039357Y-41424500D01*
X92972318Y-41404815D01*
X92970466Y-41403602D01*
X92879185Y-41342609D01*
X92879172Y-41342602D01*
X92733501Y-41282264D01*
X92733489Y-41282261D01*
X92578845Y-41251500D01*
X92578842Y-41251500D01*
X92421158Y-41251500D01*
X92421155Y-41251500D01*
X92266510Y-41282261D01*
X92266498Y-41282264D01*
X92120827Y-41342602D01*
X92120814Y-41342609D01*
X91989711Y-41430210D01*
X91989707Y-41430213D01*
X91878213Y-41541707D01*
X91878210Y-41541711D01*
X91790609Y-41672814D01*
X91790602Y-41672827D01*
X91730264Y-41818498D01*
X91730261Y-41818510D01*
X91699500Y-41973153D01*
X89021794Y-41973153D01*
X89041156Y-41875812D01*
X89073539Y-41813906D01*
X89075035Y-41812382D01*
X100062328Y-30825089D01*
X100123649Y-30791606D01*
X100125648Y-30791189D01*
X100233497Y-30769737D01*
X100379179Y-30709394D01*
X100510289Y-30621789D01*
X100621789Y-30510289D01*
X100709394Y-30379179D01*
X100769737Y-30233497D01*
X100800500Y-30078842D01*
X100800500Y-29921158D01*
X100800500Y-29921155D01*
X100800499Y-29921153D01*
X100769738Y-29766510D01*
X100769738Y-29766508D01*
X100769737Y-29766503D01*
X100757201Y-29736239D01*
X100709397Y-29620827D01*
X100709390Y-29620814D01*
X100621789Y-29489711D01*
X100621786Y-29489707D01*
X100510292Y-29378213D01*
X100510288Y-29378210D01*
X100379185Y-29290609D01*
X100379172Y-29290602D01*
X100233501Y-29230264D01*
X100233489Y-29230261D01*
X100078845Y-29199500D01*
X100078842Y-29199500D01*
X99921158Y-29199500D01*
X99921155Y-29199500D01*
X99766510Y-29230261D01*
X99766498Y-29230264D01*
X99620827Y-29290602D01*
X99620814Y-29290609D01*
X99489711Y-29378210D01*
X99489707Y-29378213D01*
X99378213Y-29489707D01*
X99378210Y-29489711D01*
X99290609Y-29620814D01*
X99290602Y-29620827D01*
X99230264Y-29766498D01*
X99230261Y-29766508D01*
X99208843Y-29874183D01*
X99176458Y-29936094D01*
X99174907Y-29937672D01*
X88187672Y-40924907D01*
X88126349Y-40958392D01*
X88124183Y-40958843D01*
X88016508Y-40980261D01*
X88016498Y-40980264D01*
X87870827Y-41040602D01*
X87870814Y-41040609D01*
X87739711Y-41128210D01*
X87739707Y-41128213D01*
X87628213Y-41239707D01*
X87628210Y-41239711D01*
X87540609Y-41370814D01*
X87540604Y-41370825D01*
X87480264Y-41516498D01*
X87480261Y-41516510D01*
X87449500Y-41671153D01*
X56254500Y-41671153D01*
X56254500Y-35346153D01*
X83699500Y-35346153D01*
X83699500Y-35503846D01*
X83730261Y-35658489D01*
X83730264Y-35658501D01*
X83790602Y-35804172D01*
X83790609Y-35804185D01*
X83878210Y-35935288D01*
X83878213Y-35935292D01*
X83989707Y-36046786D01*
X83989711Y-36046789D01*
X84120814Y-36134390D01*
X84120827Y-36134397D01*
X84183142Y-36160208D01*
X84266503Y-36194737D01*
X84374185Y-36216156D01*
X84436092Y-36248539D01*
X84437672Y-36250091D01*
X86163181Y-37975600D01*
X86196666Y-38036923D01*
X86199500Y-38063281D01*
X86199500Y-38130846D01*
X86230261Y-38285489D01*
X86230264Y-38285501D01*
X86290602Y-38431172D01*
X86290609Y-38431185D01*
X86378210Y-38562288D01*
X86378213Y-38562292D01*
X86489707Y-38673786D01*
X86489711Y-38673789D01*
X86620814Y-38761390D01*
X86620827Y-38761397D01*
X86766498Y-38821735D01*
X86766503Y-38821737D01*
X86921153Y-38852499D01*
X86921156Y-38852500D01*
X86921158Y-38852500D01*
X87078844Y-38852500D01*
X87078845Y-38852499D01*
X87233497Y-38821737D01*
X87379179Y-38761394D01*
X87510289Y-38673789D01*
X87621789Y-38562289D01*
X87709394Y-38431179D01*
X87769737Y-38285497D01*
X87800500Y-38130842D01*
X87800500Y-37973158D01*
X87800500Y-37973155D01*
X87800499Y-37973153D01*
X87789885Y-37919792D01*
X87769737Y-37818503D01*
X87769735Y-37818498D01*
X87709397Y-37672827D01*
X87709390Y-37672814D01*
X87621789Y-37541711D01*
X87621786Y-37541707D01*
X87510292Y-37430213D01*
X87510288Y-37430210D01*
X87379185Y-37342609D01*
X87379175Y-37342604D01*
X87275376Y-37299609D01*
X87235148Y-37272729D01*
X85325091Y-35362672D01*
X85291606Y-35301349D01*
X85291183Y-35299323D01*
X85269737Y-35191503D01*
X85237764Y-35114312D01*
X85209397Y-35045827D01*
X85209390Y-35045814D01*
X85121789Y-34914711D01*
X85121786Y-34914707D01*
X85010292Y-34803213D01*
X85010288Y-34803210D01*
X84879185Y-34715609D01*
X84879172Y-34715602D01*
X84733501Y-34655264D01*
X84733489Y-34655261D01*
X84578845Y-34624500D01*
X84578842Y-34624500D01*
X84421158Y-34624500D01*
X84421155Y-34624500D01*
X84266510Y-34655261D01*
X84266498Y-34655264D01*
X84120827Y-34715602D01*
X84120814Y-34715609D01*
X83989711Y-34803210D01*
X83989707Y-34803213D01*
X83878213Y-34914707D01*
X83878210Y-34914711D01*
X83790609Y-35045814D01*
X83790602Y-35045827D01*
X83730264Y-35191498D01*
X83730261Y-35191510D01*
X83699500Y-35346153D01*
X56254500Y-35346153D01*
X56254500Y-25363886D01*
X56274185Y-25296847D01*
X56290819Y-25276205D01*
X57776205Y-23790819D01*
X57837528Y-23757334D01*
X57863886Y-23754500D01*
X58705053Y-23754500D01*
X58752501Y-23763937D01*
X58766503Y-23769737D01*
X58766508Y-23769738D01*
X58766511Y-23769739D01*
X58921153Y-23800499D01*
X58921156Y-23800500D01*
X58921158Y-23800500D01*
X59078844Y-23800500D01*
X59078845Y-23800499D01*
X59233497Y-23769737D01*
X59379179Y-23709394D01*
X59510289Y-23621789D01*
X59621789Y-23510289D01*
X59709394Y-23379179D01*
X59769737Y-23233497D01*
X59800500Y-23078842D01*
X59800500Y-22921158D01*
X59800500Y-22921155D01*
X59800499Y-22921153D01*
X59769738Y-22766510D01*
X59769737Y-22766503D01*
X59769735Y-22766498D01*
X59709397Y-22620827D01*
X59709390Y-22620814D01*
X59621789Y-22489711D01*
X59621786Y-22489707D01*
X59510292Y-22378213D01*
X59510288Y-22378210D01*
X59443208Y-22333388D01*
X59398403Y-22279775D01*
X59389696Y-22210450D01*
X59419851Y-22147423D01*
X59424399Y-22142624D01*
X63276205Y-18290819D01*
X63337528Y-18257334D01*
X63363886Y-18254500D01*
X98837966Y-18254500D01*
X98905005Y-18274185D01*
X98950760Y-18326989D01*
X98960704Y-18396147D01*
X98931679Y-18459703D01*
X98872901Y-18497477D01*
X98854151Y-18501439D01*
X98608884Y-18533730D01*
X98355581Y-18601602D01*
X98355571Y-18601605D01*
X98113309Y-18701953D01*
X98113299Y-18701958D01*
X97886196Y-18833075D01*
X97678148Y-18992718D01*
X97492718Y-19178148D01*
X97333075Y-19386196D01*
X97201958Y-19613299D01*
X97201953Y-19613309D01*
X97101605Y-19855571D01*
X97101602Y-19855581D01*
X97033730Y-20108885D01*
X96999500Y-20368872D01*
X96999500Y-20631127D01*
X97026123Y-20833339D01*
X97033730Y-20891116D01*
X97101602Y-21144418D01*
X97101605Y-21144428D01*
X97201953Y-21386690D01*
X97201958Y-21386700D01*
X97333075Y-21613803D01*
X97492718Y-21821851D01*
X97492726Y-21821860D01*
X97678140Y-22007274D01*
X97678148Y-22007281D01*
X97886196Y-22166924D01*
X98113299Y-22298041D01*
X98113309Y-22298046D01*
X98306845Y-22378211D01*
X98355581Y-22398398D01*
X98608884Y-22466270D01*
X98868880Y-22500500D01*
X98868887Y-22500500D01*
X99131113Y-22500500D01*
X99131120Y-22500500D01*
X99391116Y-22466270D01*
X99644419Y-22398398D01*
X99886697Y-22298043D01*
X100113803Y-22166924D01*
X100321851Y-22007282D01*
X100321855Y-22007277D01*
X100321860Y-22007274D01*
X100507274Y-21821860D01*
X100507277Y-21821855D01*
X100507282Y-21821851D01*
X100666924Y-21613803D01*
X100798043Y-21386697D01*
X100898398Y-21144419D01*
X100966270Y-20891116D01*
X101000500Y-20631120D01*
X101000500Y-20368880D01*
X100966270Y-20108884D01*
X100898398Y-19855581D01*
X100898394Y-19855571D01*
X100798046Y-19613309D01*
X100798041Y-19613299D01*
X100666924Y-19386196D01*
X100507281Y-19178148D01*
X100507274Y-19178140D01*
X100321860Y-18992726D01*
X100321851Y-18992718D01*
X100113803Y-18833075D01*
X99886700Y-18701958D01*
X99886690Y-18701953D01*
X99644428Y-18601605D01*
X99644421Y-18601603D01*
X99644419Y-18601602D01*
X99391116Y-18533730D01*
X99145848Y-18501439D01*
X99081952Y-18473172D01*
X99043481Y-18414848D01*
X99042650Y-18344983D01*
X99079722Y-18285760D01*
X99142928Y-18255981D01*
X99162034Y-18254500D01*
X104636113Y-18254500D01*
X104703152Y-18274185D01*
X104723794Y-18290819D01*
X110709181Y-24276205D01*
X110742666Y-24337528D01*
X110745500Y-24363886D01*
X110745500Y-25465271D01*
X110725815Y-25532310D01*
X110673011Y-25578065D01*
X110603853Y-25588009D01*
X110578168Y-25581453D01*
X110457382Y-25536403D01*
X110457372Y-25536401D01*
X110397844Y-25530000D01*
X109750000Y-25530000D01*
X109750000Y-26446988D01*
X109692993Y-26414075D01*
X109565826Y-26380000D01*
X109434174Y-26380000D01*
X109307007Y-26414075D01*
X109250000Y-26446988D01*
X109250000Y-25530000D01*
X108602155Y-25530000D01*
X108542627Y-25536401D01*
X108542620Y-25536403D01*
X108407913Y-25586645D01*
X108407906Y-25586649D01*
X108292812Y-25672809D01*
X108292809Y-25672812D01*
X108206649Y-25787906D01*
X108206645Y-25787913D01*
X108156403Y-25922620D01*
X108156401Y-25922627D01*
X108150000Y-25982155D01*
X108150000Y-26630000D01*
X109066988Y-26630000D01*
X109034075Y-26687007D01*
X109000000Y-26814174D01*
X109000000Y-26945826D01*
X109034075Y-27072993D01*
X109066988Y-27130000D01*
X108150000Y-27130000D01*
X108150000Y-27777844D01*
X108156401Y-27837372D01*
X108156403Y-27837379D01*
X108206645Y-27972086D01*
X108206649Y-27972093D01*
X108292809Y-28087187D01*
X108292812Y-28087190D01*
X108407906Y-28173350D01*
X108407913Y-28173354D01*
X108539470Y-28222422D01*
X108595404Y-28264293D01*
X108619821Y-28329758D01*
X108604969Y-28398031D01*
X108583819Y-28426285D01*
X108469889Y-28540215D01*
X108344951Y-28712179D01*
X108248444Y-28901585D01*
X108182753Y-29103760D01*
X108162717Y-29230263D01*
X108149500Y-29313713D01*
X108149500Y-29526287D01*
X108182754Y-29736243D01*
X108242835Y-29921153D01*
X108248444Y-29938414D01*
X108344951Y-30127820D01*
X108469890Y-30299786D01*
X108620213Y-30450109D01*
X108792182Y-30575050D01*
X108800946Y-30579516D01*
X108851742Y-30627491D01*
X108868536Y-30695312D01*
X108845998Y-30761447D01*
X108800946Y-30800484D01*
X108792182Y-30804949D01*
X108620213Y-30929890D01*
X108469890Y-31080213D01*
X108344951Y-31252179D01*
X108248444Y-31441585D01*
X108182753Y-31643760D01*
X108149500Y-31853713D01*
X108149500Y-32066286D01*
X108182753Y-32276239D01*
X108248444Y-32478414D01*
X108344951Y-32667820D01*
X108469890Y-32839786D01*
X108620213Y-32990109D01*
X108792182Y-33115050D01*
X108800946Y-33119516D01*
X108851742Y-33167491D01*
X108868536Y-33235312D01*
X108845998Y-33301447D01*
X108800946Y-33340484D01*
X108792182Y-33344949D01*
X108620213Y-33469890D01*
X108469890Y-33620213D01*
X108344951Y-33792179D01*
X108248444Y-33981585D01*
X108182753Y-34183760D01*
X108149500Y-34393713D01*
X108149500Y-34606286D01*
X108180689Y-34803210D01*
X108182754Y-34816243D01*
X108214748Y-34914711D01*
X108248444Y-35018414D01*
X108344951Y-35207820D01*
X108469890Y-35379786D01*
X108620213Y-35530109D01*
X108792182Y-35655050D01*
X108800946Y-35659516D01*
X108851742Y-35707491D01*
X108868536Y-35775312D01*
X108845998Y-35841447D01*
X108800946Y-35880484D01*
X108792182Y-35884949D01*
X108620213Y-36009890D01*
X108469890Y-36160213D01*
X108344951Y-36332179D01*
X108248444Y-36521585D01*
X108182753Y-36723760D01*
X108149500Y-36933713D01*
X108149500Y-37146286D01*
X108180594Y-37342609D01*
X108182754Y-37356243D01*
X108243016Y-37541711D01*
X108248444Y-37558414D01*
X108344951Y-37747820D01*
X108469890Y-37919786D01*
X108620213Y-38070109D01*
X108792179Y-38195048D01*
X108792181Y-38195049D01*
X108792184Y-38195051D01*
X108981588Y-38291557D01*
X109183757Y-38357246D01*
X109393713Y-38390500D01*
X109393714Y-38390500D01*
X109606286Y-38390500D01*
X109606287Y-38390500D01*
X109816243Y-38357246D01*
X110018412Y-38291557D01*
X110207816Y-38195051D01*
X110229789Y-38179086D01*
X110379786Y-38070109D01*
X110379788Y-38070106D01*
X110379792Y-38070104D01*
X110530104Y-37919792D01*
X110530106Y-37919788D01*
X110530109Y-37919786D01*
X110655048Y-37747820D01*
X110655047Y-37747820D01*
X110655051Y-37747816D01*
X110751557Y-37558412D01*
X110817246Y-37356243D01*
X110850500Y-37146287D01*
X110850500Y-36933713D01*
X110836156Y-36843151D01*
X110845110Y-36773861D01*
X110870945Y-36736078D01*
X111980963Y-35626060D01*
X111980966Y-35626059D01*
X112086059Y-35520966D01*
X112168629Y-35397390D01*
X112225505Y-35260080D01*
X112249832Y-35137782D01*
X112254501Y-35114312D01*
X112254501Y-34965688D01*
X112254500Y-34965682D01*
X112254500Y-24080446D01*
X112254501Y-24080425D01*
X112254501Y-23925685D01*
X112225506Y-23779925D01*
X112225504Y-23779919D01*
X112221286Y-23769737D01*
X112214975Y-23754500D01*
X112168629Y-23642610D01*
X112086059Y-23519034D01*
X112086054Y-23519028D01*
X111976647Y-23409621D01*
X111976624Y-23409600D01*
X105480969Y-16913943D01*
X105480968Y-16913942D01*
X105439773Y-16886417D01*
X105357389Y-16831370D01*
X105357386Y-16831368D01*
X105357385Y-16831368D01*
X105276955Y-16798053D01*
X105220080Y-16774495D01*
X105195894Y-16769684D01*
X105074314Y-16745499D01*
X105074312Y-16745499D01*
X104925688Y-16745499D01*
X104919574Y-16745499D01*
X104919554Y-16745500D01*
X63080446Y-16745500D01*
X63080426Y-16745499D01*
X63074312Y-16745499D01*
X62925688Y-16745499D01*
X62925686Y-16745499D01*
X62804105Y-16769684D01*
X62789540Y-16772581D01*
X62779918Y-16774495D01*
X62779917Y-16774495D01*
X62723045Y-16798052D01*
X62723045Y-16798053D01*
X62642616Y-16831368D01*
X62642609Y-16831371D01*
X62519033Y-16913941D01*
X62466487Y-16966487D01*
X62413941Y-17019034D01*
X56913939Y-22519036D01*
X54913943Y-24519030D01*
X54913942Y-24519031D01*
X54831372Y-24642607D01*
X54831366Y-24642618D01*
X54774496Y-24779916D01*
X54774493Y-24779926D01*
X54745499Y-24925685D01*
X54745499Y-25080425D01*
X54745500Y-25080446D01*
X54745500Y-45205053D01*
X54744021Y-45212484D01*
X54742628Y-45231584D01*
X54740272Y-45242336D01*
X54730263Y-45266503D01*
X54699500Y-45421158D01*
X15500500Y-45421158D01*
X15500500Y-26999635D01*
X31047100Y-26999635D01*
X31047100Y-29000370D01*
X31047101Y-29000376D01*
X31053508Y-29059983D01*
X31103802Y-29194828D01*
X31103806Y-29194835D01*
X31190052Y-29310044D01*
X31190055Y-29310047D01*
X31305264Y-29396293D01*
X31305271Y-29396297D01*
X31440117Y-29446591D01*
X31440116Y-29446591D01*
X31447044Y-29447335D01*
X31499727Y-29453000D01*
X33500472Y-29452999D01*
X33560083Y-29446591D01*
X33694931Y-29396296D01*
X33810146Y-29310046D01*
X33896396Y-29194831D01*
X33904435Y-29173276D01*
X33932490Y-29098059D01*
X33946691Y-29059982D01*
X33953100Y-29000373D01*
X33953099Y-27885686D01*
X51047500Y-27885686D01*
X51047500Y-28114313D01*
X51083265Y-28340124D01*
X51083265Y-28340125D01*
X51153917Y-28557568D01*
X51257711Y-28761276D01*
X51311347Y-28835098D01*
X51311347Y-28835099D01*
X51968455Y-28177991D01*
X51978629Y-28215959D01*
X52052288Y-28343541D01*
X52156459Y-28447712D01*
X52284041Y-28521371D01*
X52322008Y-28531544D01*
X51664899Y-29188651D01*
X51738725Y-29242288D01*
X51738731Y-29242292D01*
X51942431Y-29346082D01*
X52159875Y-29416734D01*
X52385687Y-29452500D01*
X52614313Y-29452500D01*
X52840124Y-29416734D01*
X52840125Y-29416734D01*
X53057568Y-29346082D01*
X53261276Y-29242288D01*
X53335098Y-29188651D01*
X52677991Y-28531544D01*
X52715959Y-28521371D01*
X52843541Y-28447712D01*
X52947712Y-28343541D01*
X53021371Y-28215959D01*
X53031544Y-28177991D01*
X53688651Y-28835098D01*
X53742288Y-28761276D01*
X53846082Y-28557568D01*
X53916734Y-28340125D01*
X53916734Y-28340124D01*
X53952500Y-28114313D01*
X53952500Y-27885686D01*
X53916734Y-27659875D01*
X53916734Y-27659874D01*
X53846082Y-27442431D01*
X53742292Y-27238731D01*
X53742288Y-27238725D01*
X53688651Y-27164900D01*
X53688651Y-27164899D01*
X53031544Y-27822007D01*
X53021371Y-27784041D01*
X52947712Y-27656459D01*
X52843541Y-27552288D01*
X52715959Y-27478629D01*
X52677990Y-27468455D01*
X53335099Y-26811347D01*
X53261276Y-26757711D01*
X53057568Y-26653917D01*
X52840124Y-26583265D01*
X52614313Y-26547500D01*
X52385687Y-26547500D01*
X52159875Y-26583265D01*
X52159874Y-26583265D01*
X51942431Y-26653917D01*
X51738719Y-26757713D01*
X51664900Y-26811346D01*
X51664899Y-26811347D01*
X52322008Y-27468455D01*
X52284041Y-27478629D01*
X52156459Y-27552288D01*
X52052288Y-27656459D01*
X51978629Y-27784041D01*
X51968455Y-27822008D01*
X51311347Y-27164899D01*
X51311346Y-27164900D01*
X51257713Y-27238719D01*
X51153917Y-27442431D01*
X51083265Y-27659874D01*
X51083265Y-27659875D01*
X51047500Y-27885686D01*
X33953099Y-27885686D01*
X33953099Y-26999628D01*
X33946691Y-26940017D01*
X33899755Y-26814174D01*
X33896398Y-26805173D01*
X33896393Y-26805164D01*
X33810147Y-26689955D01*
X33810144Y-26689952D01*
X33694935Y-26603706D01*
X33694928Y-26603702D01*
X33560082Y-26553408D01*
X33560083Y-26553408D01*
X33500483Y-26547001D01*
X33500481Y-26547000D01*
X33500473Y-26547000D01*
X33500464Y-26547000D01*
X31499729Y-26547000D01*
X31499723Y-26547001D01*
X31440116Y-26553408D01*
X31305271Y-26603702D01*
X31305264Y-26603706D01*
X31190055Y-26689952D01*
X31190052Y-26689955D01*
X31103806Y-26805164D01*
X31103802Y-26805171D01*
X31053508Y-26940017D01*
X31052884Y-26945826D01*
X31047101Y-26999623D01*
X31047100Y-26999635D01*
X15500500Y-26999635D01*
X15500500Y-20368872D01*
X26999500Y-20368872D01*
X26999500Y-20631127D01*
X27026123Y-20833339D01*
X27033730Y-20891116D01*
X27101602Y-21144418D01*
X27101605Y-21144428D01*
X27201953Y-21386690D01*
X27201958Y-21386700D01*
X27333075Y-21613803D01*
X27492718Y-21821851D01*
X27492726Y-21821860D01*
X27678140Y-22007274D01*
X27678148Y-22007281D01*
X27886196Y-22166924D01*
X28113299Y-22298041D01*
X28113309Y-22298046D01*
X28306845Y-22378211D01*
X28355581Y-22398398D01*
X28608884Y-22466270D01*
X28868880Y-22500500D01*
X28868887Y-22500500D01*
X29131113Y-22500500D01*
X29131120Y-22500500D01*
X29391116Y-22466270D01*
X29644419Y-22398398D01*
X29886697Y-22298043D01*
X30113803Y-22166924D01*
X30321851Y-22007282D01*
X30321855Y-22007277D01*
X30321860Y-22007274D01*
X30507274Y-21821860D01*
X30507277Y-21821855D01*
X30507282Y-21821851D01*
X30666924Y-21613803D01*
X30798043Y-21386697D01*
X30898398Y-21144419D01*
X30966270Y-20891116D01*
X31000500Y-20631120D01*
X31000500Y-20368880D01*
X30966270Y-20108884D01*
X30898398Y-19855581D01*
X30898394Y-19855571D01*
X30798046Y-19613309D01*
X30798041Y-19613299D01*
X30666924Y-19386196D01*
X30507281Y-19178148D01*
X30507274Y-19178140D01*
X30321860Y-18992726D01*
X30321851Y-18992718D01*
X30113803Y-18833075D01*
X29886700Y-18701958D01*
X29886690Y-18701953D01*
X29644428Y-18601605D01*
X29644421Y-18601603D01*
X29644419Y-18601602D01*
X29391116Y-18533730D01*
X29333339Y-18526123D01*
X29131127Y-18499500D01*
X29131120Y-18499500D01*
X28868880Y-18499500D01*
X28868872Y-18499500D01*
X28637772Y-18529926D01*
X28608884Y-18533730D01*
X28355581Y-18601602D01*
X28355571Y-18601605D01*
X28113309Y-18701953D01*
X28113299Y-18701958D01*
X27886196Y-18833075D01*
X27678148Y-18992718D01*
X27492718Y-19178148D01*
X27333075Y-19386196D01*
X27201958Y-19613299D01*
X27201953Y-19613309D01*
X27101605Y-19855571D01*
X27101602Y-19855581D01*
X27033730Y-20108885D01*
X26999500Y-20368872D01*
X15500500Y-20368872D01*
X15500500Y-15124500D01*
X15520185Y-15057461D01*
X15572989Y-15011706D01*
X15624500Y-15000500D01*
X113375500Y-15000500D01*
X113442539Y-15020185D01*
G37*
%TD.AperFunction*%
%TD*%
M02*
