%TF.GenerationSoftware,KiCad,Pcbnew,9.0.3*%
%TF.CreationDate,2025-08-27T11:54:34+03:00*%
%TF.ProjectId,stm32f103ret6,73746d33-3266-4313-9033-726574362e6b,rev?*%
%TF.SameCoordinates,Original*%
%TF.FileFunction,Legend,Top*%
%TF.FilePolarity,Positive*%
%FSLAX46Y46*%
G04 Gerber Fmt 4.6, Leading zero omitted, Abs format (unit mm)*
G04 Created by KiCad (PCBNEW 9.0.3) date 2025-08-27 11:54:34*
%MOMM*%
%LPD*%
G01*
G04 APERTURE LIST*
G04 Aperture macros list*
%AMRoundRect*
0 Rectangle with rounded corners*
0 $1 Rounding radius*
0 $2 $3 $4 $5 $6 $7 $8 $9 X,Y pos of 4 corners*
0 Add a 4 corners polygon primitive as box body*
4,1,4,$2,$3,$4,$5,$6,$7,$8,$9,$2,$3,0*
0 Add four circle primitives for the rounded corners*
1,1,$1+$1,$2,$3*
1,1,$1+$1,$4,$5*
1,1,$1+$1,$6,$7*
1,1,$1+$1,$8,$9*
0 Add four rect primitives between the rounded corners*
20,1,$1+$1,$2,$3,$4,$5,0*
20,1,$1+$1,$4,$5,$6,$7,0*
20,1,$1+$1,$6,$7,$8,$9,0*
20,1,$1+$1,$8,$9,$2,$3,0*%
G04 Aperture macros list end*
%ADD10C,0.100000*%
%ADD11C,0.150000*%
%ADD12C,0.120000*%
%ADD13C,0.127000*%
%ADD14C,0.200000*%
%ADD15R,1.905000X1.905000*%
%ADD16C,1.905000*%
%ADD17RoundRect,0.135000X0.135000X0.185000X-0.135000X0.185000X-0.135000X-0.185000X0.135000X-0.185000X0*%
%ADD18RoundRect,0.250000X1.000000X0.650000X-1.000000X0.650000X-1.000000X-0.650000X1.000000X-0.650000X0*%
%ADD19RoundRect,0.375000X-0.625000X-0.375000X0.625000X-0.375000X0.625000X0.375000X-0.625000X0.375000X0*%
%ADD20RoundRect,0.500000X-0.500000X-1.400000X0.500000X-1.400000X0.500000X1.400000X-0.500000X1.400000X0*%
%ADD21RoundRect,0.102000X2.850000X1.000000X-2.850000X1.000000X-2.850000X-1.000000X2.850000X-1.000000X0*%
%ADD22RoundRect,0.249999X-0.790001X-1.550001X0.790001X-1.550001X0.790001X1.550001X-0.790001X1.550001X0*%
%ADD23O,2.080000X3.600000*%
%ADD24RoundRect,0.250000X2.050000X0.300000X-2.050000X0.300000X-2.050000X-0.300000X2.050000X-0.300000X0*%
%ADD25RoundRect,0.250002X4.449998X5.149998X-4.449998X5.149998X-4.449998X-5.149998X4.449998X-5.149998X0*%
%ADD26RoundRect,0.243750X-0.456250X0.243750X-0.456250X-0.243750X0.456250X-0.243750X0.456250X0.243750X0*%
%ADD27RoundRect,0.200000X0.275000X-0.200000X0.275000X0.200000X-0.275000X0.200000X-0.275000X-0.200000X0*%
%ADD28RoundRect,0.200000X-0.200000X-0.275000X0.200000X-0.275000X0.200000X0.275000X-0.200000X0.275000X0*%
%ADD29RoundRect,0.225000X0.225000X0.250000X-0.225000X0.250000X-0.225000X-0.250000X0.225000X-0.250000X0*%
%ADD30RoundRect,0.135000X0.185000X-0.135000X0.185000X0.135000X-0.185000X0.135000X-0.185000X-0.135000X0*%
%ADD31C,3.500000*%
%ADD32RoundRect,0.225000X0.250000X-0.225000X0.250000X0.225000X-0.250000X0.225000X-0.250000X-0.225000X0*%
%ADD33RoundRect,0.225000X-0.250000X0.225000X-0.250000X-0.225000X0.250000X-0.225000X0.250000X0.225000X0*%
%ADD34RoundRect,0.200000X-0.275000X0.200000X-0.275000X-0.200000X0.275000X-0.200000X0.275000X0.200000X0*%
%ADD35RoundRect,0.135000X-0.135000X-0.185000X0.135000X-0.185000X0.135000X0.185000X-0.135000X0.185000X0*%
%ADD36RoundRect,0.237500X-0.250000X-0.237500X0.250000X-0.237500X0.250000X0.237500X-0.250000X0.237500X0*%
%ADD37RoundRect,0.150000X0.150000X-0.825000X0.150000X0.825000X-0.150000X0.825000X-0.150000X-0.825000X0*%
%ADD38RoundRect,0.225000X-0.225000X-0.250000X0.225000X-0.250000X0.225000X0.250000X-0.225000X0.250000X0*%
%ADD39RoundRect,0.250000X-0.362500X-1.425000X0.362500X-1.425000X0.362500X1.425000X-0.362500X1.425000X0*%
%ADD40RoundRect,0.250000X-1.000000X-0.900000X1.000000X-0.900000X1.000000X0.900000X-1.000000X0.900000X0*%
%ADD41RoundRect,0.250000X-0.445000X0.457500X-0.445000X-0.457500X0.445000X-0.457500X0.445000X0.457500X0*%
%ADD42RoundRect,0.200000X0.200000X0.275000X-0.200000X0.275000X-0.200000X-0.275000X0.200000X-0.275000X0*%
%ADD43RoundRect,0.075000X-0.075000X0.650000X-0.075000X-0.650000X0.075000X-0.650000X0.075000X0.650000X0*%
%ADD44RoundRect,0.150000X-0.825000X-0.150000X0.825000X-0.150000X0.825000X0.150000X-0.825000X0.150000X0*%
%ADD45RoundRect,0.250000X0.750000X0.950000X-0.750000X0.950000X-0.750000X-0.950000X0.750000X-0.950000X0*%
%ADD46R,1.300000X0.800000*%
%ADD47RoundRect,0.250000X1.100000X-0.975000X1.100000X0.975000X-1.100000X0.975000X-1.100000X-0.975000X0*%
%ADD48R,2.500000X2.500000*%
%ADD49O,2.500000X2.500000*%
%ADD50R,1.000000X1.800000*%
%ADD51RoundRect,0.140000X-0.170000X0.140000X-0.170000X-0.140000X0.170000X-0.140000X0.170000X0.140000X0*%
%ADD52RoundRect,0.250000X-1.000000X-0.650000X1.000000X-0.650000X1.000000X0.650000X-1.000000X0.650000X0*%
%ADD53RoundRect,0.150000X-0.150000X0.825000X-0.150000X-0.825000X0.150000X-0.825000X0.150000X0.825000X0*%
%ADD54RoundRect,0.150000X-0.150000X0.587500X-0.150000X-0.587500X0.150000X-0.587500X0.150000X0.587500X0*%
%ADD55R,1.700000X1.700000*%
%ADD56C,1.700000*%
%ADD57RoundRect,0.250000X0.600000X0.600000X-0.600000X0.600000X-0.600000X-0.600000X0.600000X-0.600000X0*%
%ADD58RoundRect,0.250000X-0.457500X-0.445000X0.457500X-0.445000X0.457500X0.445000X-0.457500X0.445000X0*%
%ADD59RoundRect,0.250000X1.500000X0.550000X-1.500000X0.550000X-1.500000X-0.550000X1.500000X-0.550000X0*%
%ADD60RoundRect,0.135000X-0.185000X0.135000X-0.185000X-0.135000X0.185000X-0.135000X0.185000X0.135000X0*%
%ADD61RoundRect,0.162500X0.162500X-0.825000X0.162500X0.825000X-0.162500X0.825000X-0.162500X-0.825000X0*%
%ADD62RoundRect,0.250000X0.457500X0.445000X-0.457500X0.445000X-0.457500X-0.445000X0.457500X-0.445000X0*%
%ADD63RoundRect,0.075000X-0.075000X0.700000X-0.075000X-0.700000X0.075000X-0.700000X0.075000X0.700000X0*%
%ADD64RoundRect,0.075000X-0.700000X0.075000X-0.700000X-0.075000X0.700000X-0.075000X0.700000X0.075000X0*%
%ADD65RoundRect,0.225000X-0.225000X-0.375000X0.225000X-0.375000X0.225000X0.375000X-0.225000X0.375000X0*%
G04 APERTURE END LIST*
D10*
X34433609Y-21285714D02*
X34481228Y-21142857D01*
X34481228Y-21142857D02*
X34528847Y-21095238D01*
X34528847Y-21095238D02*
X34624085Y-21047619D01*
X34624085Y-21047619D02*
X34766942Y-21047619D01*
X34766942Y-21047619D02*
X34862180Y-21095238D01*
X34862180Y-21095238D02*
X34909800Y-21142857D01*
X34909800Y-21142857D02*
X34957419Y-21238095D01*
X34957419Y-21238095D02*
X34957419Y-21619047D01*
X34957419Y-21619047D02*
X33957419Y-21619047D01*
X33957419Y-21619047D02*
X33957419Y-21285714D01*
X33957419Y-21285714D02*
X34005038Y-21190476D01*
X34005038Y-21190476D02*
X34052657Y-21142857D01*
X34052657Y-21142857D02*
X34147895Y-21095238D01*
X34147895Y-21095238D02*
X34243133Y-21095238D01*
X34243133Y-21095238D02*
X34338371Y-21142857D01*
X34338371Y-21142857D02*
X34385990Y-21190476D01*
X34385990Y-21190476D02*
X34433609Y-21285714D01*
X34433609Y-21285714D02*
X34433609Y-21619047D01*
X33957419Y-20761904D02*
X33957419Y-20190476D01*
X34957419Y-20476190D02*
X33957419Y-20476190D01*
X34957419Y-19333333D02*
X34957419Y-19904761D01*
X34957419Y-19619047D02*
X33957419Y-19619047D01*
X33957419Y-19619047D02*
X34100276Y-19714285D01*
X34100276Y-19714285D02*
X34195514Y-19809523D01*
X34195514Y-19809523D02*
X34243133Y-19904761D01*
D11*
X61357142Y-29124819D02*
X61023809Y-28648628D01*
X60785714Y-29124819D02*
X60785714Y-28124819D01*
X60785714Y-28124819D02*
X61166666Y-28124819D01*
X61166666Y-28124819D02*
X61261904Y-28172438D01*
X61261904Y-28172438D02*
X61309523Y-28220057D01*
X61309523Y-28220057D02*
X61357142Y-28315295D01*
X61357142Y-28315295D02*
X61357142Y-28458152D01*
X61357142Y-28458152D02*
X61309523Y-28553390D01*
X61309523Y-28553390D02*
X61261904Y-28601009D01*
X61261904Y-28601009D02*
X61166666Y-28648628D01*
X61166666Y-28648628D02*
X60785714Y-28648628D01*
X62309523Y-29124819D02*
X61738095Y-29124819D01*
X62023809Y-29124819D02*
X62023809Y-28124819D01*
X62023809Y-28124819D02*
X61928571Y-28267676D01*
X61928571Y-28267676D02*
X61833333Y-28362914D01*
X61833333Y-28362914D02*
X61738095Y-28410533D01*
X62880952Y-28553390D02*
X62785714Y-28505771D01*
X62785714Y-28505771D02*
X62738095Y-28458152D01*
X62738095Y-28458152D02*
X62690476Y-28362914D01*
X62690476Y-28362914D02*
X62690476Y-28315295D01*
X62690476Y-28315295D02*
X62738095Y-28220057D01*
X62738095Y-28220057D02*
X62785714Y-28172438D01*
X62785714Y-28172438D02*
X62880952Y-28124819D01*
X62880952Y-28124819D02*
X63071428Y-28124819D01*
X63071428Y-28124819D02*
X63166666Y-28172438D01*
X63166666Y-28172438D02*
X63214285Y-28220057D01*
X63214285Y-28220057D02*
X63261904Y-28315295D01*
X63261904Y-28315295D02*
X63261904Y-28362914D01*
X63261904Y-28362914D02*
X63214285Y-28458152D01*
X63214285Y-28458152D02*
X63166666Y-28505771D01*
X63166666Y-28505771D02*
X63071428Y-28553390D01*
X63071428Y-28553390D02*
X62880952Y-28553390D01*
X62880952Y-28553390D02*
X62785714Y-28601009D01*
X62785714Y-28601009D02*
X62738095Y-28648628D01*
X62738095Y-28648628D02*
X62690476Y-28743866D01*
X62690476Y-28743866D02*
X62690476Y-28934342D01*
X62690476Y-28934342D02*
X62738095Y-29029580D01*
X62738095Y-29029580D02*
X62785714Y-29077200D01*
X62785714Y-29077200D02*
X62880952Y-29124819D01*
X62880952Y-29124819D02*
X63071428Y-29124819D01*
X63071428Y-29124819D02*
X63166666Y-29077200D01*
X63166666Y-29077200D02*
X63214285Y-29029580D01*
X63214285Y-29029580D02*
X63261904Y-28934342D01*
X63261904Y-28934342D02*
X63261904Y-28743866D01*
X63261904Y-28743866D02*
X63214285Y-28648628D01*
X63214285Y-28648628D02*
X63166666Y-28601009D01*
X63166666Y-28601009D02*
X63071428Y-28553390D01*
X36761905Y-74954819D02*
X36761905Y-73954819D01*
X36761905Y-73954819D02*
X37000000Y-73954819D01*
X37000000Y-73954819D02*
X37142857Y-74002438D01*
X37142857Y-74002438D02*
X37238095Y-74097676D01*
X37238095Y-74097676D02*
X37285714Y-74192914D01*
X37285714Y-74192914D02*
X37333333Y-74383390D01*
X37333333Y-74383390D02*
X37333333Y-74526247D01*
X37333333Y-74526247D02*
X37285714Y-74716723D01*
X37285714Y-74716723D02*
X37238095Y-74811961D01*
X37238095Y-74811961D02*
X37142857Y-74907200D01*
X37142857Y-74907200D02*
X37000000Y-74954819D01*
X37000000Y-74954819D02*
X36761905Y-74954819D01*
X37666667Y-73954819D02*
X38333333Y-73954819D01*
X38333333Y-73954819D02*
X37904762Y-74954819D01*
X23738095Y-36534819D02*
X23738095Y-37344342D01*
X23738095Y-37344342D02*
X23785714Y-37439580D01*
X23785714Y-37439580D02*
X23833333Y-37487200D01*
X23833333Y-37487200D02*
X23928571Y-37534819D01*
X23928571Y-37534819D02*
X24119047Y-37534819D01*
X24119047Y-37534819D02*
X24214285Y-37487200D01*
X24214285Y-37487200D02*
X24261904Y-37439580D01*
X24261904Y-37439580D02*
X24309523Y-37344342D01*
X24309523Y-37344342D02*
X24309523Y-36534819D01*
X25214285Y-36534819D02*
X25023809Y-36534819D01*
X25023809Y-36534819D02*
X24928571Y-36582438D01*
X24928571Y-36582438D02*
X24880952Y-36630057D01*
X24880952Y-36630057D02*
X24785714Y-36772914D01*
X24785714Y-36772914D02*
X24738095Y-36963390D01*
X24738095Y-36963390D02*
X24738095Y-37344342D01*
X24738095Y-37344342D02*
X24785714Y-37439580D01*
X24785714Y-37439580D02*
X24833333Y-37487200D01*
X24833333Y-37487200D02*
X24928571Y-37534819D01*
X24928571Y-37534819D02*
X25119047Y-37534819D01*
X25119047Y-37534819D02*
X25214285Y-37487200D01*
X25214285Y-37487200D02*
X25261904Y-37439580D01*
X25261904Y-37439580D02*
X25309523Y-37344342D01*
X25309523Y-37344342D02*
X25309523Y-37106247D01*
X25309523Y-37106247D02*
X25261904Y-37011009D01*
X25261904Y-37011009D02*
X25214285Y-36963390D01*
X25214285Y-36963390D02*
X25119047Y-36915771D01*
X25119047Y-36915771D02*
X24928571Y-36915771D01*
X24928571Y-36915771D02*
X24833333Y-36963390D01*
X24833333Y-36963390D02*
X24785714Y-37011009D01*
X24785714Y-37011009D02*
X24738095Y-37106247D01*
X16359580Y-83291666D02*
X16407200Y-83339285D01*
X16407200Y-83339285D02*
X16454819Y-83482142D01*
X16454819Y-83482142D02*
X16454819Y-83577380D01*
X16454819Y-83577380D02*
X16407200Y-83720237D01*
X16407200Y-83720237D02*
X16311961Y-83815475D01*
X16311961Y-83815475D02*
X16216723Y-83863094D01*
X16216723Y-83863094D02*
X16026247Y-83910713D01*
X16026247Y-83910713D02*
X15883390Y-83910713D01*
X15883390Y-83910713D02*
X15692914Y-83863094D01*
X15692914Y-83863094D02*
X15597676Y-83815475D01*
X15597676Y-83815475D02*
X15502438Y-83720237D01*
X15502438Y-83720237D02*
X15454819Y-83577380D01*
X15454819Y-83577380D02*
X15454819Y-83482142D01*
X15454819Y-83482142D02*
X15502438Y-83339285D01*
X15502438Y-83339285D02*
X15550057Y-83291666D01*
X15788152Y-82434523D02*
X16454819Y-82434523D01*
X15407200Y-82672618D02*
X16121485Y-82910713D01*
X16121485Y-82910713D02*
X16121485Y-82291666D01*
X39661666Y-83477319D02*
X39661666Y-84191604D01*
X39661666Y-84191604D02*
X39614047Y-84334461D01*
X39614047Y-84334461D02*
X39518809Y-84429700D01*
X39518809Y-84429700D02*
X39375952Y-84477319D01*
X39375952Y-84477319D02*
X39280714Y-84477319D01*
X40090238Y-83572557D02*
X40137857Y-83524938D01*
X40137857Y-83524938D02*
X40233095Y-83477319D01*
X40233095Y-83477319D02*
X40471190Y-83477319D01*
X40471190Y-83477319D02*
X40566428Y-83524938D01*
X40566428Y-83524938D02*
X40614047Y-83572557D01*
X40614047Y-83572557D02*
X40661666Y-83667795D01*
X40661666Y-83667795D02*
X40661666Y-83763033D01*
X40661666Y-83763033D02*
X40614047Y-83905890D01*
X40614047Y-83905890D02*
X40042619Y-84477319D01*
X40042619Y-84477319D02*
X40661666Y-84477319D01*
X23363095Y-70104819D02*
X23363095Y-70914342D01*
X23363095Y-70914342D02*
X23410714Y-71009580D01*
X23410714Y-71009580D02*
X23458333Y-71057200D01*
X23458333Y-71057200D02*
X23553571Y-71104819D01*
X23553571Y-71104819D02*
X23744047Y-71104819D01*
X23744047Y-71104819D02*
X23839285Y-71057200D01*
X23839285Y-71057200D02*
X23886904Y-71009580D01*
X23886904Y-71009580D02*
X23934523Y-70914342D01*
X23934523Y-70914342D02*
X23934523Y-70104819D01*
X24315476Y-70104819D02*
X24982142Y-70104819D01*
X24982142Y-70104819D02*
X24553571Y-71104819D01*
X24454819Y-47238094D02*
X23454819Y-47238094D01*
X23454819Y-47238094D02*
X23454819Y-46999999D01*
X23454819Y-46999999D02*
X23502438Y-46857142D01*
X23502438Y-46857142D02*
X23597676Y-46761904D01*
X23597676Y-46761904D02*
X23692914Y-46714285D01*
X23692914Y-46714285D02*
X23883390Y-46666666D01*
X23883390Y-46666666D02*
X24026247Y-46666666D01*
X24026247Y-46666666D02*
X24216723Y-46714285D01*
X24216723Y-46714285D02*
X24311961Y-46761904D01*
X24311961Y-46761904D02*
X24407200Y-46857142D01*
X24407200Y-46857142D02*
X24454819Y-46999999D01*
X24454819Y-46999999D02*
X24454819Y-47238094D01*
X23454819Y-46333332D02*
X23454819Y-45714285D01*
X23454819Y-45714285D02*
X23835771Y-46047618D01*
X23835771Y-46047618D02*
X23835771Y-45904761D01*
X23835771Y-45904761D02*
X23883390Y-45809523D01*
X23883390Y-45809523D02*
X23931009Y-45761904D01*
X23931009Y-45761904D02*
X24026247Y-45714285D01*
X24026247Y-45714285D02*
X24264342Y-45714285D01*
X24264342Y-45714285D02*
X24359580Y-45761904D01*
X24359580Y-45761904D02*
X24407200Y-45809523D01*
X24407200Y-45809523D02*
X24454819Y-45904761D01*
X24454819Y-45904761D02*
X24454819Y-46190475D01*
X24454819Y-46190475D02*
X24407200Y-46285713D01*
X24407200Y-46285713D02*
X24359580Y-46333332D01*
X52454819Y-55642857D02*
X51978628Y-55976190D01*
X52454819Y-56214285D02*
X51454819Y-56214285D01*
X51454819Y-56214285D02*
X51454819Y-55833333D01*
X51454819Y-55833333D02*
X51502438Y-55738095D01*
X51502438Y-55738095D02*
X51550057Y-55690476D01*
X51550057Y-55690476D02*
X51645295Y-55642857D01*
X51645295Y-55642857D02*
X51788152Y-55642857D01*
X51788152Y-55642857D02*
X51883390Y-55690476D01*
X51883390Y-55690476D02*
X51931009Y-55738095D01*
X51931009Y-55738095D02*
X51978628Y-55833333D01*
X51978628Y-55833333D02*
X51978628Y-56214285D01*
X52454819Y-54690476D02*
X52454819Y-55261904D01*
X52454819Y-54976190D02*
X51454819Y-54976190D01*
X51454819Y-54976190D02*
X51597676Y-55071428D01*
X51597676Y-55071428D02*
X51692914Y-55166666D01*
X51692914Y-55166666D02*
X51740533Y-55261904D01*
X51454819Y-54357142D02*
X51454819Y-53738095D01*
X51454819Y-53738095D02*
X51835771Y-54071428D01*
X51835771Y-54071428D02*
X51835771Y-53928571D01*
X51835771Y-53928571D02*
X51883390Y-53833333D01*
X51883390Y-53833333D02*
X51931009Y-53785714D01*
X51931009Y-53785714D02*
X52026247Y-53738095D01*
X52026247Y-53738095D02*
X52264342Y-53738095D01*
X52264342Y-53738095D02*
X52359580Y-53785714D01*
X52359580Y-53785714D02*
X52407200Y-53833333D01*
X52407200Y-53833333D02*
X52454819Y-53928571D01*
X52454819Y-53928571D02*
X52454819Y-54214285D01*
X52454819Y-54214285D02*
X52407200Y-54309523D01*
X52407200Y-54309523D02*
X52359580Y-54357142D01*
X63333333Y-43524819D02*
X63000000Y-43048628D01*
X62761905Y-43524819D02*
X62761905Y-42524819D01*
X62761905Y-42524819D02*
X63142857Y-42524819D01*
X63142857Y-42524819D02*
X63238095Y-42572438D01*
X63238095Y-42572438D02*
X63285714Y-42620057D01*
X63285714Y-42620057D02*
X63333333Y-42715295D01*
X63333333Y-42715295D02*
X63333333Y-42858152D01*
X63333333Y-42858152D02*
X63285714Y-42953390D01*
X63285714Y-42953390D02*
X63238095Y-43001009D01*
X63238095Y-43001009D02*
X63142857Y-43048628D01*
X63142857Y-43048628D02*
X62761905Y-43048628D01*
X63809524Y-43524819D02*
X64000000Y-43524819D01*
X64000000Y-43524819D02*
X64095238Y-43477200D01*
X64095238Y-43477200D02*
X64142857Y-43429580D01*
X64142857Y-43429580D02*
X64238095Y-43286723D01*
X64238095Y-43286723D02*
X64285714Y-43096247D01*
X64285714Y-43096247D02*
X64285714Y-42715295D01*
X64285714Y-42715295D02*
X64238095Y-42620057D01*
X64238095Y-42620057D02*
X64190476Y-42572438D01*
X64190476Y-42572438D02*
X64095238Y-42524819D01*
X64095238Y-42524819D02*
X63904762Y-42524819D01*
X63904762Y-42524819D02*
X63809524Y-42572438D01*
X63809524Y-42572438D02*
X63761905Y-42620057D01*
X63761905Y-42620057D02*
X63714286Y-42715295D01*
X63714286Y-42715295D02*
X63714286Y-42953390D01*
X63714286Y-42953390D02*
X63761905Y-43048628D01*
X63761905Y-43048628D02*
X63809524Y-43096247D01*
X63809524Y-43096247D02*
X63904762Y-43143866D01*
X63904762Y-43143866D02*
X64095238Y-43143866D01*
X64095238Y-43143866D02*
X64190476Y-43096247D01*
X64190476Y-43096247D02*
X64238095Y-43048628D01*
X64238095Y-43048628D02*
X64285714Y-42953390D01*
X75607142Y-24544580D02*
X75559523Y-24592200D01*
X75559523Y-24592200D02*
X75416666Y-24639819D01*
X75416666Y-24639819D02*
X75321428Y-24639819D01*
X75321428Y-24639819D02*
X75178571Y-24592200D01*
X75178571Y-24592200D02*
X75083333Y-24496961D01*
X75083333Y-24496961D02*
X75035714Y-24401723D01*
X75035714Y-24401723D02*
X74988095Y-24211247D01*
X74988095Y-24211247D02*
X74988095Y-24068390D01*
X74988095Y-24068390D02*
X75035714Y-23877914D01*
X75035714Y-23877914D02*
X75083333Y-23782676D01*
X75083333Y-23782676D02*
X75178571Y-23687438D01*
X75178571Y-23687438D02*
X75321428Y-23639819D01*
X75321428Y-23639819D02*
X75416666Y-23639819D01*
X75416666Y-23639819D02*
X75559523Y-23687438D01*
X75559523Y-23687438D02*
X75607142Y-23735057D01*
X76559523Y-24639819D02*
X75988095Y-24639819D01*
X76273809Y-24639819D02*
X76273809Y-23639819D01*
X76273809Y-23639819D02*
X76178571Y-23782676D01*
X76178571Y-23782676D02*
X76083333Y-23877914D01*
X76083333Y-23877914D02*
X75988095Y-23925533D01*
X76892857Y-23639819D02*
X77511904Y-23639819D01*
X77511904Y-23639819D02*
X77178571Y-24020771D01*
X77178571Y-24020771D02*
X77321428Y-24020771D01*
X77321428Y-24020771D02*
X77416666Y-24068390D01*
X77416666Y-24068390D02*
X77464285Y-24116009D01*
X77464285Y-24116009D02*
X77511904Y-24211247D01*
X77511904Y-24211247D02*
X77511904Y-24449342D01*
X77511904Y-24449342D02*
X77464285Y-24544580D01*
X77464285Y-24544580D02*
X77416666Y-24592200D01*
X77416666Y-24592200D02*
X77321428Y-24639819D01*
X77321428Y-24639819D02*
X77035714Y-24639819D01*
X77035714Y-24639819D02*
X76940476Y-24592200D01*
X76940476Y-24592200D02*
X76892857Y-24544580D01*
X76919819Y-77166666D02*
X76443628Y-77499999D01*
X76919819Y-77738094D02*
X75919819Y-77738094D01*
X75919819Y-77738094D02*
X75919819Y-77357142D01*
X75919819Y-77357142D02*
X75967438Y-77261904D01*
X75967438Y-77261904D02*
X76015057Y-77214285D01*
X76015057Y-77214285D02*
X76110295Y-77166666D01*
X76110295Y-77166666D02*
X76253152Y-77166666D01*
X76253152Y-77166666D02*
X76348390Y-77214285D01*
X76348390Y-77214285D02*
X76396009Y-77261904D01*
X76396009Y-77261904D02*
X76443628Y-77357142D01*
X76443628Y-77357142D02*
X76443628Y-77738094D01*
X75919819Y-76833332D02*
X75919819Y-76214285D01*
X75919819Y-76214285D02*
X76300771Y-76547618D01*
X76300771Y-76547618D02*
X76300771Y-76404761D01*
X76300771Y-76404761D02*
X76348390Y-76309523D01*
X76348390Y-76309523D02*
X76396009Y-76261904D01*
X76396009Y-76261904D02*
X76491247Y-76214285D01*
X76491247Y-76214285D02*
X76729342Y-76214285D01*
X76729342Y-76214285D02*
X76824580Y-76261904D01*
X76824580Y-76261904D02*
X76872200Y-76309523D01*
X76872200Y-76309523D02*
X76919819Y-76404761D01*
X76919819Y-76404761D02*
X76919819Y-76690475D01*
X76919819Y-76690475D02*
X76872200Y-76785713D01*
X76872200Y-76785713D02*
X76824580Y-76833332D01*
X93357142Y-32859580D02*
X93309523Y-32907200D01*
X93309523Y-32907200D02*
X93166666Y-32954819D01*
X93166666Y-32954819D02*
X93071428Y-32954819D01*
X93071428Y-32954819D02*
X92928571Y-32907200D01*
X92928571Y-32907200D02*
X92833333Y-32811961D01*
X92833333Y-32811961D02*
X92785714Y-32716723D01*
X92785714Y-32716723D02*
X92738095Y-32526247D01*
X92738095Y-32526247D02*
X92738095Y-32383390D01*
X92738095Y-32383390D02*
X92785714Y-32192914D01*
X92785714Y-32192914D02*
X92833333Y-32097676D01*
X92833333Y-32097676D02*
X92928571Y-32002438D01*
X92928571Y-32002438D02*
X93071428Y-31954819D01*
X93071428Y-31954819D02*
X93166666Y-31954819D01*
X93166666Y-31954819D02*
X93309523Y-32002438D01*
X93309523Y-32002438D02*
X93357142Y-32050057D01*
X94309523Y-32954819D02*
X93738095Y-32954819D01*
X94023809Y-32954819D02*
X94023809Y-31954819D01*
X94023809Y-31954819D02*
X93928571Y-32097676D01*
X93928571Y-32097676D02*
X93833333Y-32192914D01*
X93833333Y-32192914D02*
X93738095Y-32240533D01*
X94928571Y-31954819D02*
X95023809Y-31954819D01*
X95023809Y-31954819D02*
X95119047Y-32002438D01*
X95119047Y-32002438D02*
X95166666Y-32050057D01*
X95166666Y-32050057D02*
X95214285Y-32145295D01*
X95214285Y-32145295D02*
X95261904Y-32335771D01*
X95261904Y-32335771D02*
X95261904Y-32573866D01*
X95261904Y-32573866D02*
X95214285Y-32764342D01*
X95214285Y-32764342D02*
X95166666Y-32859580D01*
X95166666Y-32859580D02*
X95119047Y-32907200D01*
X95119047Y-32907200D02*
X95023809Y-32954819D01*
X95023809Y-32954819D02*
X94928571Y-32954819D01*
X94928571Y-32954819D02*
X94833333Y-32907200D01*
X94833333Y-32907200D02*
X94785714Y-32859580D01*
X94785714Y-32859580D02*
X94738095Y-32764342D01*
X94738095Y-32764342D02*
X94690476Y-32573866D01*
X94690476Y-32573866D02*
X94690476Y-32335771D01*
X94690476Y-32335771D02*
X94738095Y-32145295D01*
X94738095Y-32145295D02*
X94785714Y-32050057D01*
X94785714Y-32050057D02*
X94833333Y-32002438D01*
X94833333Y-32002438D02*
X94928571Y-31954819D01*
X75083333Y-42034580D02*
X75035714Y-42082200D01*
X75035714Y-42082200D02*
X74892857Y-42129819D01*
X74892857Y-42129819D02*
X74797619Y-42129819D01*
X74797619Y-42129819D02*
X74654762Y-42082200D01*
X74654762Y-42082200D02*
X74559524Y-41986961D01*
X74559524Y-41986961D02*
X74511905Y-41891723D01*
X74511905Y-41891723D02*
X74464286Y-41701247D01*
X74464286Y-41701247D02*
X74464286Y-41558390D01*
X74464286Y-41558390D02*
X74511905Y-41367914D01*
X74511905Y-41367914D02*
X74559524Y-41272676D01*
X74559524Y-41272676D02*
X74654762Y-41177438D01*
X74654762Y-41177438D02*
X74797619Y-41129819D01*
X74797619Y-41129819D02*
X74892857Y-41129819D01*
X74892857Y-41129819D02*
X75035714Y-41177438D01*
X75035714Y-41177438D02*
X75083333Y-41225057D01*
X75654762Y-41558390D02*
X75559524Y-41510771D01*
X75559524Y-41510771D02*
X75511905Y-41463152D01*
X75511905Y-41463152D02*
X75464286Y-41367914D01*
X75464286Y-41367914D02*
X75464286Y-41320295D01*
X75464286Y-41320295D02*
X75511905Y-41225057D01*
X75511905Y-41225057D02*
X75559524Y-41177438D01*
X75559524Y-41177438D02*
X75654762Y-41129819D01*
X75654762Y-41129819D02*
X75845238Y-41129819D01*
X75845238Y-41129819D02*
X75940476Y-41177438D01*
X75940476Y-41177438D02*
X75988095Y-41225057D01*
X75988095Y-41225057D02*
X76035714Y-41320295D01*
X76035714Y-41320295D02*
X76035714Y-41367914D01*
X76035714Y-41367914D02*
X75988095Y-41463152D01*
X75988095Y-41463152D02*
X75940476Y-41510771D01*
X75940476Y-41510771D02*
X75845238Y-41558390D01*
X75845238Y-41558390D02*
X75654762Y-41558390D01*
X75654762Y-41558390D02*
X75559524Y-41606009D01*
X75559524Y-41606009D02*
X75511905Y-41653628D01*
X75511905Y-41653628D02*
X75464286Y-41748866D01*
X75464286Y-41748866D02*
X75464286Y-41939342D01*
X75464286Y-41939342D02*
X75511905Y-42034580D01*
X75511905Y-42034580D02*
X75559524Y-42082200D01*
X75559524Y-42082200D02*
X75654762Y-42129819D01*
X75654762Y-42129819D02*
X75845238Y-42129819D01*
X75845238Y-42129819D02*
X75940476Y-42082200D01*
X75940476Y-42082200D02*
X75988095Y-42034580D01*
X75988095Y-42034580D02*
X76035714Y-41939342D01*
X76035714Y-41939342D02*
X76035714Y-41748866D01*
X76035714Y-41748866D02*
X75988095Y-41653628D01*
X75988095Y-41653628D02*
X75940476Y-41606009D01*
X75940476Y-41606009D02*
X75845238Y-41558390D01*
X90583333Y-28034580D02*
X90535714Y-28082200D01*
X90535714Y-28082200D02*
X90392857Y-28129819D01*
X90392857Y-28129819D02*
X90297619Y-28129819D01*
X90297619Y-28129819D02*
X90154762Y-28082200D01*
X90154762Y-28082200D02*
X90059524Y-27986961D01*
X90059524Y-27986961D02*
X90011905Y-27891723D01*
X90011905Y-27891723D02*
X89964286Y-27701247D01*
X89964286Y-27701247D02*
X89964286Y-27558390D01*
X89964286Y-27558390D02*
X90011905Y-27367914D01*
X90011905Y-27367914D02*
X90059524Y-27272676D01*
X90059524Y-27272676D02*
X90154762Y-27177438D01*
X90154762Y-27177438D02*
X90297619Y-27129819D01*
X90297619Y-27129819D02*
X90392857Y-27129819D01*
X90392857Y-27129819D02*
X90535714Y-27177438D01*
X90535714Y-27177438D02*
X90583333Y-27225057D01*
X91488095Y-27129819D02*
X91011905Y-27129819D01*
X91011905Y-27129819D02*
X90964286Y-27606009D01*
X90964286Y-27606009D02*
X91011905Y-27558390D01*
X91011905Y-27558390D02*
X91107143Y-27510771D01*
X91107143Y-27510771D02*
X91345238Y-27510771D01*
X91345238Y-27510771D02*
X91440476Y-27558390D01*
X91440476Y-27558390D02*
X91488095Y-27606009D01*
X91488095Y-27606009D02*
X91535714Y-27701247D01*
X91535714Y-27701247D02*
X91535714Y-27939342D01*
X91535714Y-27939342D02*
X91488095Y-28034580D01*
X91488095Y-28034580D02*
X91440476Y-28082200D01*
X91440476Y-28082200D02*
X91345238Y-28129819D01*
X91345238Y-28129819D02*
X91107143Y-28129819D01*
X91107143Y-28129819D02*
X91011905Y-28082200D01*
X91011905Y-28082200D02*
X90964286Y-28034580D01*
X59884819Y-33142857D02*
X59408628Y-33476190D01*
X59884819Y-33714285D02*
X58884819Y-33714285D01*
X58884819Y-33714285D02*
X58884819Y-33333333D01*
X58884819Y-33333333D02*
X58932438Y-33238095D01*
X58932438Y-33238095D02*
X58980057Y-33190476D01*
X58980057Y-33190476D02*
X59075295Y-33142857D01*
X59075295Y-33142857D02*
X59218152Y-33142857D01*
X59218152Y-33142857D02*
X59313390Y-33190476D01*
X59313390Y-33190476D02*
X59361009Y-33238095D01*
X59361009Y-33238095D02*
X59408628Y-33333333D01*
X59408628Y-33333333D02*
X59408628Y-33714285D01*
X58980057Y-32761904D02*
X58932438Y-32714285D01*
X58932438Y-32714285D02*
X58884819Y-32619047D01*
X58884819Y-32619047D02*
X58884819Y-32380952D01*
X58884819Y-32380952D02*
X58932438Y-32285714D01*
X58932438Y-32285714D02*
X58980057Y-32238095D01*
X58980057Y-32238095D02*
X59075295Y-32190476D01*
X59075295Y-32190476D02*
X59170533Y-32190476D01*
X59170533Y-32190476D02*
X59313390Y-32238095D01*
X59313390Y-32238095D02*
X59884819Y-32809523D01*
X59884819Y-32809523D02*
X59884819Y-32190476D01*
X58884819Y-31285714D02*
X58884819Y-31761904D01*
X58884819Y-31761904D02*
X59361009Y-31809523D01*
X59361009Y-31809523D02*
X59313390Y-31761904D01*
X59313390Y-31761904D02*
X59265771Y-31666666D01*
X59265771Y-31666666D02*
X59265771Y-31428571D01*
X59265771Y-31428571D02*
X59313390Y-31333333D01*
X59313390Y-31333333D02*
X59361009Y-31285714D01*
X59361009Y-31285714D02*
X59456247Y-31238095D01*
X59456247Y-31238095D02*
X59694342Y-31238095D01*
X59694342Y-31238095D02*
X59789580Y-31285714D01*
X59789580Y-31285714D02*
X59837200Y-31333333D01*
X59837200Y-31333333D02*
X59884819Y-31428571D01*
X59884819Y-31428571D02*
X59884819Y-31666666D01*
X59884819Y-31666666D02*
X59837200Y-31761904D01*
X59837200Y-31761904D02*
X59789580Y-31809523D01*
X76857142Y-82454819D02*
X76523809Y-81978628D01*
X76285714Y-82454819D02*
X76285714Y-81454819D01*
X76285714Y-81454819D02*
X76666666Y-81454819D01*
X76666666Y-81454819D02*
X76761904Y-81502438D01*
X76761904Y-81502438D02*
X76809523Y-81550057D01*
X76809523Y-81550057D02*
X76857142Y-81645295D01*
X76857142Y-81645295D02*
X76857142Y-81788152D01*
X76857142Y-81788152D02*
X76809523Y-81883390D01*
X76809523Y-81883390D02*
X76761904Y-81931009D01*
X76761904Y-81931009D02*
X76666666Y-81978628D01*
X76666666Y-81978628D02*
X76285714Y-81978628D01*
X77809523Y-82454819D02*
X77238095Y-82454819D01*
X77523809Y-82454819D02*
X77523809Y-81454819D01*
X77523809Y-81454819D02*
X77428571Y-81597676D01*
X77428571Y-81597676D02*
X77333333Y-81692914D01*
X77333333Y-81692914D02*
X77238095Y-81740533D01*
X78714285Y-81454819D02*
X78238095Y-81454819D01*
X78238095Y-81454819D02*
X78190476Y-81931009D01*
X78190476Y-81931009D02*
X78238095Y-81883390D01*
X78238095Y-81883390D02*
X78333333Y-81835771D01*
X78333333Y-81835771D02*
X78571428Y-81835771D01*
X78571428Y-81835771D02*
X78666666Y-81883390D01*
X78666666Y-81883390D02*
X78714285Y-81931009D01*
X78714285Y-81931009D02*
X78761904Y-82026247D01*
X78761904Y-82026247D02*
X78761904Y-82264342D01*
X78761904Y-82264342D02*
X78714285Y-82359580D01*
X78714285Y-82359580D02*
X78666666Y-82407200D01*
X78666666Y-82407200D02*
X78571428Y-82454819D01*
X78571428Y-82454819D02*
X78333333Y-82454819D01*
X78333333Y-82454819D02*
X78238095Y-82407200D01*
X78238095Y-82407200D02*
X78190476Y-82359580D01*
X18954819Y-46642857D02*
X18478628Y-46976190D01*
X18954819Y-47214285D02*
X17954819Y-47214285D01*
X17954819Y-47214285D02*
X17954819Y-46833333D01*
X17954819Y-46833333D02*
X18002438Y-46738095D01*
X18002438Y-46738095D02*
X18050057Y-46690476D01*
X18050057Y-46690476D02*
X18145295Y-46642857D01*
X18145295Y-46642857D02*
X18288152Y-46642857D01*
X18288152Y-46642857D02*
X18383390Y-46690476D01*
X18383390Y-46690476D02*
X18431009Y-46738095D01*
X18431009Y-46738095D02*
X18478628Y-46833333D01*
X18478628Y-46833333D02*
X18478628Y-47214285D01*
X18954819Y-45690476D02*
X18954819Y-46261904D01*
X18954819Y-45976190D02*
X17954819Y-45976190D01*
X17954819Y-45976190D02*
X18097676Y-46071428D01*
X18097676Y-46071428D02*
X18192914Y-46166666D01*
X18192914Y-46166666D02*
X18240533Y-46261904D01*
X17954819Y-45357142D02*
X17954819Y-44690476D01*
X17954819Y-44690476D02*
X18954819Y-45119047D01*
X80968333Y-83954819D02*
X80635000Y-83478628D01*
X80396905Y-83954819D02*
X80396905Y-82954819D01*
X80396905Y-82954819D02*
X80777857Y-82954819D01*
X80777857Y-82954819D02*
X80873095Y-83002438D01*
X80873095Y-83002438D02*
X80920714Y-83050057D01*
X80920714Y-83050057D02*
X80968333Y-83145295D01*
X80968333Y-83145295D02*
X80968333Y-83288152D01*
X80968333Y-83288152D02*
X80920714Y-83383390D01*
X80920714Y-83383390D02*
X80873095Y-83431009D01*
X80873095Y-83431009D02*
X80777857Y-83478628D01*
X80777857Y-83478628D02*
X80396905Y-83478628D01*
X81873095Y-82954819D02*
X81396905Y-82954819D01*
X81396905Y-82954819D02*
X81349286Y-83431009D01*
X81349286Y-83431009D02*
X81396905Y-83383390D01*
X81396905Y-83383390D02*
X81492143Y-83335771D01*
X81492143Y-83335771D02*
X81730238Y-83335771D01*
X81730238Y-83335771D02*
X81825476Y-83383390D01*
X81825476Y-83383390D02*
X81873095Y-83431009D01*
X81873095Y-83431009D02*
X81920714Y-83526247D01*
X81920714Y-83526247D02*
X81920714Y-83764342D01*
X81920714Y-83764342D02*
X81873095Y-83859580D01*
X81873095Y-83859580D02*
X81825476Y-83907200D01*
X81825476Y-83907200D02*
X81730238Y-83954819D01*
X81730238Y-83954819D02*
X81492143Y-83954819D01*
X81492143Y-83954819D02*
X81396905Y-83907200D01*
X81396905Y-83907200D02*
X81349286Y-83859580D01*
X66454819Y-35761904D02*
X67264342Y-35761904D01*
X67264342Y-35761904D02*
X67359580Y-35714285D01*
X67359580Y-35714285D02*
X67407200Y-35666666D01*
X67407200Y-35666666D02*
X67454819Y-35571428D01*
X67454819Y-35571428D02*
X67454819Y-35380952D01*
X67454819Y-35380952D02*
X67407200Y-35285714D01*
X67407200Y-35285714D02*
X67359580Y-35238095D01*
X67359580Y-35238095D02*
X67264342Y-35190476D01*
X67264342Y-35190476D02*
X66454819Y-35190476D01*
X66454819Y-34238095D02*
X66454819Y-34714285D01*
X66454819Y-34714285D02*
X66931009Y-34761904D01*
X66931009Y-34761904D02*
X66883390Y-34714285D01*
X66883390Y-34714285D02*
X66835771Y-34619047D01*
X66835771Y-34619047D02*
X66835771Y-34380952D01*
X66835771Y-34380952D02*
X66883390Y-34285714D01*
X66883390Y-34285714D02*
X66931009Y-34238095D01*
X66931009Y-34238095D02*
X67026247Y-34190476D01*
X67026247Y-34190476D02*
X67264342Y-34190476D01*
X67264342Y-34190476D02*
X67359580Y-34238095D01*
X67359580Y-34238095D02*
X67407200Y-34285714D01*
X67407200Y-34285714D02*
X67454819Y-34380952D01*
X67454819Y-34380952D02*
X67454819Y-34619047D01*
X67454819Y-34619047D02*
X67407200Y-34714285D01*
X67407200Y-34714285D02*
X67359580Y-34761904D01*
X79107142Y-30534580D02*
X79059523Y-30582200D01*
X79059523Y-30582200D02*
X78916666Y-30629819D01*
X78916666Y-30629819D02*
X78821428Y-30629819D01*
X78821428Y-30629819D02*
X78678571Y-30582200D01*
X78678571Y-30582200D02*
X78583333Y-30486961D01*
X78583333Y-30486961D02*
X78535714Y-30391723D01*
X78535714Y-30391723D02*
X78488095Y-30201247D01*
X78488095Y-30201247D02*
X78488095Y-30058390D01*
X78488095Y-30058390D02*
X78535714Y-29867914D01*
X78535714Y-29867914D02*
X78583333Y-29772676D01*
X78583333Y-29772676D02*
X78678571Y-29677438D01*
X78678571Y-29677438D02*
X78821428Y-29629819D01*
X78821428Y-29629819D02*
X78916666Y-29629819D01*
X78916666Y-29629819D02*
X79059523Y-29677438D01*
X79059523Y-29677438D02*
X79107142Y-29725057D01*
X80059523Y-30629819D02*
X79488095Y-30629819D01*
X79773809Y-30629819D02*
X79773809Y-29629819D01*
X79773809Y-29629819D02*
X79678571Y-29772676D01*
X79678571Y-29772676D02*
X79583333Y-29867914D01*
X79583333Y-29867914D02*
X79488095Y-29915533D01*
X80916666Y-29963152D02*
X80916666Y-30629819D01*
X80678571Y-29582200D02*
X80440476Y-30296485D01*
X80440476Y-30296485D02*
X81059523Y-30296485D01*
X60857142Y-66954819D02*
X60523809Y-66478628D01*
X60285714Y-66954819D02*
X60285714Y-65954819D01*
X60285714Y-65954819D02*
X60666666Y-65954819D01*
X60666666Y-65954819D02*
X60761904Y-66002438D01*
X60761904Y-66002438D02*
X60809523Y-66050057D01*
X60809523Y-66050057D02*
X60857142Y-66145295D01*
X60857142Y-66145295D02*
X60857142Y-66288152D01*
X60857142Y-66288152D02*
X60809523Y-66383390D01*
X60809523Y-66383390D02*
X60761904Y-66431009D01*
X60761904Y-66431009D02*
X60666666Y-66478628D01*
X60666666Y-66478628D02*
X60285714Y-66478628D01*
X61238095Y-66050057D02*
X61285714Y-66002438D01*
X61285714Y-66002438D02*
X61380952Y-65954819D01*
X61380952Y-65954819D02*
X61619047Y-65954819D01*
X61619047Y-65954819D02*
X61714285Y-66002438D01*
X61714285Y-66002438D02*
X61761904Y-66050057D01*
X61761904Y-66050057D02*
X61809523Y-66145295D01*
X61809523Y-66145295D02*
X61809523Y-66240533D01*
X61809523Y-66240533D02*
X61761904Y-66383390D01*
X61761904Y-66383390D02*
X61190476Y-66954819D01*
X61190476Y-66954819D02*
X61809523Y-66954819D01*
X62761904Y-66954819D02*
X62190476Y-66954819D01*
X62476190Y-66954819D02*
X62476190Y-65954819D01*
X62476190Y-65954819D02*
X62380952Y-66097676D01*
X62380952Y-66097676D02*
X62285714Y-66192914D01*
X62285714Y-66192914D02*
X62190476Y-66240533D01*
X75179580Y-29317857D02*
X75227200Y-29365476D01*
X75227200Y-29365476D02*
X75274819Y-29508333D01*
X75274819Y-29508333D02*
X75274819Y-29603571D01*
X75274819Y-29603571D02*
X75227200Y-29746428D01*
X75227200Y-29746428D02*
X75131961Y-29841666D01*
X75131961Y-29841666D02*
X75036723Y-29889285D01*
X75036723Y-29889285D02*
X74846247Y-29936904D01*
X74846247Y-29936904D02*
X74703390Y-29936904D01*
X74703390Y-29936904D02*
X74512914Y-29889285D01*
X74512914Y-29889285D02*
X74417676Y-29841666D01*
X74417676Y-29841666D02*
X74322438Y-29746428D01*
X74322438Y-29746428D02*
X74274819Y-29603571D01*
X74274819Y-29603571D02*
X74274819Y-29508333D01*
X74274819Y-29508333D02*
X74322438Y-29365476D01*
X74322438Y-29365476D02*
X74370057Y-29317857D01*
X75274819Y-28365476D02*
X75274819Y-28936904D01*
X75274819Y-28651190D02*
X74274819Y-28651190D01*
X74274819Y-28651190D02*
X74417676Y-28746428D01*
X74417676Y-28746428D02*
X74512914Y-28841666D01*
X74512914Y-28841666D02*
X74560533Y-28936904D01*
X74274819Y-27460714D02*
X74274819Y-27936904D01*
X74274819Y-27936904D02*
X74751009Y-27984523D01*
X74751009Y-27984523D02*
X74703390Y-27936904D01*
X74703390Y-27936904D02*
X74655771Y-27841666D01*
X74655771Y-27841666D02*
X74655771Y-27603571D01*
X74655771Y-27603571D02*
X74703390Y-27508333D01*
X74703390Y-27508333D02*
X74751009Y-27460714D01*
X74751009Y-27460714D02*
X74846247Y-27413095D01*
X74846247Y-27413095D02*
X75084342Y-27413095D01*
X75084342Y-27413095D02*
X75179580Y-27460714D01*
X75179580Y-27460714D02*
X75227200Y-27508333D01*
X75227200Y-27508333D02*
X75274819Y-27603571D01*
X75274819Y-27603571D02*
X75274819Y-27841666D01*
X75274819Y-27841666D02*
X75227200Y-27936904D01*
X75227200Y-27936904D02*
X75179580Y-27984523D01*
X35761905Y-76454819D02*
X35761905Y-75454819D01*
X35761905Y-75454819D02*
X36000000Y-75454819D01*
X36000000Y-75454819D02*
X36142857Y-75502438D01*
X36142857Y-75502438D02*
X36238095Y-75597676D01*
X36238095Y-75597676D02*
X36285714Y-75692914D01*
X36285714Y-75692914D02*
X36333333Y-75883390D01*
X36333333Y-75883390D02*
X36333333Y-76026247D01*
X36333333Y-76026247D02*
X36285714Y-76216723D01*
X36285714Y-76216723D02*
X36238095Y-76311961D01*
X36238095Y-76311961D02*
X36142857Y-76407200D01*
X36142857Y-76407200D02*
X36000000Y-76454819D01*
X36000000Y-76454819D02*
X35761905Y-76454819D01*
X36714286Y-75550057D02*
X36761905Y-75502438D01*
X36761905Y-75502438D02*
X36857143Y-75454819D01*
X36857143Y-75454819D02*
X37095238Y-75454819D01*
X37095238Y-75454819D02*
X37190476Y-75502438D01*
X37190476Y-75502438D02*
X37238095Y-75550057D01*
X37238095Y-75550057D02*
X37285714Y-75645295D01*
X37285714Y-75645295D02*
X37285714Y-75740533D01*
X37285714Y-75740533D02*
X37238095Y-75883390D01*
X37238095Y-75883390D02*
X36666667Y-76454819D01*
X36666667Y-76454819D02*
X37285714Y-76454819D01*
X74109580Y-43166666D02*
X74157200Y-43214285D01*
X74157200Y-43214285D02*
X74204819Y-43357142D01*
X74204819Y-43357142D02*
X74204819Y-43452380D01*
X74204819Y-43452380D02*
X74157200Y-43595237D01*
X74157200Y-43595237D02*
X74061961Y-43690475D01*
X74061961Y-43690475D02*
X73966723Y-43738094D01*
X73966723Y-43738094D02*
X73776247Y-43785713D01*
X73776247Y-43785713D02*
X73633390Y-43785713D01*
X73633390Y-43785713D02*
X73442914Y-43738094D01*
X73442914Y-43738094D02*
X73347676Y-43690475D01*
X73347676Y-43690475D02*
X73252438Y-43595237D01*
X73252438Y-43595237D02*
X73204819Y-43452380D01*
X73204819Y-43452380D02*
X73204819Y-43357142D01*
X73204819Y-43357142D02*
X73252438Y-43214285D01*
X73252438Y-43214285D02*
X73300057Y-43166666D01*
X73204819Y-42833332D02*
X73204819Y-42214285D01*
X73204819Y-42214285D02*
X73585771Y-42547618D01*
X73585771Y-42547618D02*
X73585771Y-42404761D01*
X73585771Y-42404761D02*
X73633390Y-42309523D01*
X73633390Y-42309523D02*
X73681009Y-42261904D01*
X73681009Y-42261904D02*
X73776247Y-42214285D01*
X73776247Y-42214285D02*
X74014342Y-42214285D01*
X74014342Y-42214285D02*
X74109580Y-42261904D01*
X74109580Y-42261904D02*
X74157200Y-42309523D01*
X74157200Y-42309523D02*
X74204819Y-42404761D01*
X74204819Y-42404761D02*
X74204819Y-42690475D01*
X74204819Y-42690475D02*
X74157200Y-42785713D01*
X74157200Y-42785713D02*
X74109580Y-42833332D01*
X59857142Y-26884819D02*
X59523809Y-26408628D01*
X59285714Y-26884819D02*
X59285714Y-25884819D01*
X59285714Y-25884819D02*
X59666666Y-25884819D01*
X59666666Y-25884819D02*
X59761904Y-25932438D01*
X59761904Y-25932438D02*
X59809523Y-25980057D01*
X59809523Y-25980057D02*
X59857142Y-26075295D01*
X59857142Y-26075295D02*
X59857142Y-26218152D01*
X59857142Y-26218152D02*
X59809523Y-26313390D01*
X59809523Y-26313390D02*
X59761904Y-26361009D01*
X59761904Y-26361009D02*
X59666666Y-26408628D01*
X59666666Y-26408628D02*
X59285714Y-26408628D01*
X60809523Y-26884819D02*
X60238095Y-26884819D01*
X60523809Y-26884819D02*
X60523809Y-25884819D01*
X60523809Y-25884819D02*
X60428571Y-26027676D01*
X60428571Y-26027676D02*
X60333333Y-26122914D01*
X60333333Y-26122914D02*
X60238095Y-26170533D01*
X61666666Y-25884819D02*
X61476190Y-25884819D01*
X61476190Y-25884819D02*
X61380952Y-25932438D01*
X61380952Y-25932438D02*
X61333333Y-25980057D01*
X61333333Y-25980057D02*
X61238095Y-26122914D01*
X61238095Y-26122914D02*
X61190476Y-26313390D01*
X61190476Y-26313390D02*
X61190476Y-26694342D01*
X61190476Y-26694342D02*
X61238095Y-26789580D01*
X61238095Y-26789580D02*
X61285714Y-26837200D01*
X61285714Y-26837200D02*
X61380952Y-26884819D01*
X61380952Y-26884819D02*
X61571428Y-26884819D01*
X61571428Y-26884819D02*
X61666666Y-26837200D01*
X61666666Y-26837200D02*
X61714285Y-26789580D01*
X61714285Y-26789580D02*
X61761904Y-26694342D01*
X61761904Y-26694342D02*
X61761904Y-26456247D01*
X61761904Y-26456247D02*
X61714285Y-26361009D01*
X61714285Y-26361009D02*
X61666666Y-26313390D01*
X61666666Y-26313390D02*
X61571428Y-26265771D01*
X61571428Y-26265771D02*
X61380952Y-26265771D01*
X61380952Y-26265771D02*
X61285714Y-26313390D01*
X61285714Y-26313390D02*
X61238095Y-26361009D01*
X61238095Y-26361009D02*
X61190476Y-26456247D01*
X78833333Y-27454819D02*
X78500000Y-26978628D01*
X78261905Y-27454819D02*
X78261905Y-26454819D01*
X78261905Y-26454819D02*
X78642857Y-26454819D01*
X78642857Y-26454819D02*
X78738095Y-26502438D01*
X78738095Y-26502438D02*
X78785714Y-26550057D01*
X78785714Y-26550057D02*
X78833333Y-26645295D01*
X78833333Y-26645295D02*
X78833333Y-26788152D01*
X78833333Y-26788152D02*
X78785714Y-26883390D01*
X78785714Y-26883390D02*
X78738095Y-26931009D01*
X78738095Y-26931009D02*
X78642857Y-26978628D01*
X78642857Y-26978628D02*
X78261905Y-26978628D01*
X79690476Y-26454819D02*
X79500000Y-26454819D01*
X79500000Y-26454819D02*
X79404762Y-26502438D01*
X79404762Y-26502438D02*
X79357143Y-26550057D01*
X79357143Y-26550057D02*
X79261905Y-26692914D01*
X79261905Y-26692914D02*
X79214286Y-26883390D01*
X79214286Y-26883390D02*
X79214286Y-27264342D01*
X79214286Y-27264342D02*
X79261905Y-27359580D01*
X79261905Y-27359580D02*
X79309524Y-27407200D01*
X79309524Y-27407200D02*
X79404762Y-27454819D01*
X79404762Y-27454819D02*
X79595238Y-27454819D01*
X79595238Y-27454819D02*
X79690476Y-27407200D01*
X79690476Y-27407200D02*
X79738095Y-27359580D01*
X79738095Y-27359580D02*
X79785714Y-27264342D01*
X79785714Y-27264342D02*
X79785714Y-27026247D01*
X79785714Y-27026247D02*
X79738095Y-26931009D01*
X79738095Y-26931009D02*
X79690476Y-26883390D01*
X79690476Y-26883390D02*
X79595238Y-26835771D01*
X79595238Y-26835771D02*
X79404762Y-26835771D01*
X79404762Y-26835771D02*
X79309524Y-26883390D01*
X79309524Y-26883390D02*
X79261905Y-26931009D01*
X79261905Y-26931009D02*
X79214286Y-27026247D01*
X63857142Y-26884819D02*
X63523809Y-26408628D01*
X63285714Y-26884819D02*
X63285714Y-25884819D01*
X63285714Y-25884819D02*
X63666666Y-25884819D01*
X63666666Y-25884819D02*
X63761904Y-25932438D01*
X63761904Y-25932438D02*
X63809523Y-25980057D01*
X63809523Y-25980057D02*
X63857142Y-26075295D01*
X63857142Y-26075295D02*
X63857142Y-26218152D01*
X63857142Y-26218152D02*
X63809523Y-26313390D01*
X63809523Y-26313390D02*
X63761904Y-26361009D01*
X63761904Y-26361009D02*
X63666666Y-26408628D01*
X63666666Y-26408628D02*
X63285714Y-26408628D01*
X64238095Y-25980057D02*
X64285714Y-25932438D01*
X64285714Y-25932438D02*
X64380952Y-25884819D01*
X64380952Y-25884819D02*
X64619047Y-25884819D01*
X64619047Y-25884819D02*
X64714285Y-25932438D01*
X64714285Y-25932438D02*
X64761904Y-25980057D01*
X64761904Y-25980057D02*
X64809523Y-26075295D01*
X64809523Y-26075295D02*
X64809523Y-26170533D01*
X64809523Y-26170533D02*
X64761904Y-26313390D01*
X64761904Y-26313390D02*
X64190476Y-26884819D01*
X64190476Y-26884819D02*
X64809523Y-26884819D01*
X65666666Y-25884819D02*
X65476190Y-25884819D01*
X65476190Y-25884819D02*
X65380952Y-25932438D01*
X65380952Y-25932438D02*
X65333333Y-25980057D01*
X65333333Y-25980057D02*
X65238095Y-26122914D01*
X65238095Y-26122914D02*
X65190476Y-26313390D01*
X65190476Y-26313390D02*
X65190476Y-26694342D01*
X65190476Y-26694342D02*
X65238095Y-26789580D01*
X65238095Y-26789580D02*
X65285714Y-26837200D01*
X65285714Y-26837200D02*
X65380952Y-26884819D01*
X65380952Y-26884819D02*
X65571428Y-26884819D01*
X65571428Y-26884819D02*
X65666666Y-26837200D01*
X65666666Y-26837200D02*
X65714285Y-26789580D01*
X65714285Y-26789580D02*
X65761904Y-26694342D01*
X65761904Y-26694342D02*
X65761904Y-26456247D01*
X65761904Y-26456247D02*
X65714285Y-26361009D01*
X65714285Y-26361009D02*
X65666666Y-26313390D01*
X65666666Y-26313390D02*
X65571428Y-26265771D01*
X65571428Y-26265771D02*
X65380952Y-26265771D01*
X65380952Y-26265771D02*
X65285714Y-26313390D01*
X65285714Y-26313390D02*
X65238095Y-26361009D01*
X65238095Y-26361009D02*
X65190476Y-26456247D01*
X92357142Y-29859580D02*
X92309523Y-29907200D01*
X92309523Y-29907200D02*
X92166666Y-29954819D01*
X92166666Y-29954819D02*
X92071428Y-29954819D01*
X92071428Y-29954819D02*
X91928571Y-29907200D01*
X91928571Y-29907200D02*
X91833333Y-29811961D01*
X91833333Y-29811961D02*
X91785714Y-29716723D01*
X91785714Y-29716723D02*
X91738095Y-29526247D01*
X91738095Y-29526247D02*
X91738095Y-29383390D01*
X91738095Y-29383390D02*
X91785714Y-29192914D01*
X91785714Y-29192914D02*
X91833333Y-29097676D01*
X91833333Y-29097676D02*
X91928571Y-29002438D01*
X91928571Y-29002438D02*
X92071428Y-28954819D01*
X92071428Y-28954819D02*
X92166666Y-28954819D01*
X92166666Y-28954819D02*
X92309523Y-29002438D01*
X92309523Y-29002438D02*
X92357142Y-29050057D01*
X93309523Y-29954819D02*
X92738095Y-29954819D01*
X93023809Y-29954819D02*
X93023809Y-28954819D01*
X93023809Y-28954819D02*
X92928571Y-29097676D01*
X92928571Y-29097676D02*
X92833333Y-29192914D01*
X92833333Y-29192914D02*
X92738095Y-29240533D01*
X94261904Y-29954819D02*
X93690476Y-29954819D01*
X93976190Y-29954819D02*
X93976190Y-28954819D01*
X93976190Y-28954819D02*
X93880952Y-29097676D01*
X93880952Y-29097676D02*
X93785714Y-29192914D01*
X93785714Y-29192914D02*
X93690476Y-29240533D01*
X63238095Y-63954819D02*
X63238095Y-64764342D01*
X63238095Y-64764342D02*
X63285714Y-64859580D01*
X63285714Y-64859580D02*
X63333333Y-64907200D01*
X63333333Y-64907200D02*
X63428571Y-64954819D01*
X63428571Y-64954819D02*
X63619047Y-64954819D01*
X63619047Y-64954819D02*
X63714285Y-64907200D01*
X63714285Y-64907200D02*
X63761904Y-64859580D01*
X63761904Y-64859580D02*
X63809523Y-64764342D01*
X63809523Y-64764342D02*
X63809523Y-63954819D01*
X64333333Y-64954819D02*
X64523809Y-64954819D01*
X64523809Y-64954819D02*
X64619047Y-64907200D01*
X64619047Y-64907200D02*
X64666666Y-64859580D01*
X64666666Y-64859580D02*
X64761904Y-64716723D01*
X64761904Y-64716723D02*
X64809523Y-64526247D01*
X64809523Y-64526247D02*
X64809523Y-64145295D01*
X64809523Y-64145295D02*
X64761904Y-64050057D01*
X64761904Y-64050057D02*
X64714285Y-64002438D01*
X64714285Y-64002438D02*
X64619047Y-63954819D01*
X64619047Y-63954819D02*
X64428571Y-63954819D01*
X64428571Y-63954819D02*
X64333333Y-64002438D01*
X64333333Y-64002438D02*
X64285714Y-64050057D01*
X64285714Y-64050057D02*
X64238095Y-64145295D01*
X64238095Y-64145295D02*
X64238095Y-64383390D01*
X64238095Y-64383390D02*
X64285714Y-64478628D01*
X64285714Y-64478628D02*
X64333333Y-64526247D01*
X64333333Y-64526247D02*
X64428571Y-64573866D01*
X64428571Y-64573866D02*
X64619047Y-64573866D01*
X64619047Y-64573866D02*
X64714285Y-64526247D01*
X64714285Y-64526247D02*
X64761904Y-64478628D01*
X64761904Y-64478628D02*
X64809523Y-64383390D01*
X18454819Y-54666666D02*
X17978628Y-54999999D01*
X18454819Y-55238094D02*
X17454819Y-55238094D01*
X17454819Y-55238094D02*
X17454819Y-54857142D01*
X17454819Y-54857142D02*
X17502438Y-54761904D01*
X17502438Y-54761904D02*
X17550057Y-54714285D01*
X17550057Y-54714285D02*
X17645295Y-54666666D01*
X17645295Y-54666666D02*
X17788152Y-54666666D01*
X17788152Y-54666666D02*
X17883390Y-54714285D01*
X17883390Y-54714285D02*
X17931009Y-54761904D01*
X17931009Y-54761904D02*
X17978628Y-54857142D01*
X17978628Y-54857142D02*
X17978628Y-55238094D01*
X17788152Y-53809523D02*
X18454819Y-53809523D01*
X17407200Y-54047618D02*
X18121485Y-54285713D01*
X18121485Y-54285713D02*
X18121485Y-53666666D01*
X49024819Y-59142857D02*
X48548628Y-59476190D01*
X49024819Y-59714285D02*
X48024819Y-59714285D01*
X48024819Y-59714285D02*
X48024819Y-59333333D01*
X48024819Y-59333333D02*
X48072438Y-59238095D01*
X48072438Y-59238095D02*
X48120057Y-59190476D01*
X48120057Y-59190476D02*
X48215295Y-59142857D01*
X48215295Y-59142857D02*
X48358152Y-59142857D01*
X48358152Y-59142857D02*
X48453390Y-59190476D01*
X48453390Y-59190476D02*
X48501009Y-59238095D01*
X48501009Y-59238095D02*
X48548628Y-59333333D01*
X48548628Y-59333333D02*
X48548628Y-59714285D01*
X49024819Y-58190476D02*
X49024819Y-58761904D01*
X49024819Y-58476190D02*
X48024819Y-58476190D01*
X48024819Y-58476190D02*
X48167676Y-58571428D01*
X48167676Y-58571428D02*
X48262914Y-58666666D01*
X48262914Y-58666666D02*
X48310533Y-58761904D01*
X48120057Y-57809523D02*
X48072438Y-57761904D01*
X48072438Y-57761904D02*
X48024819Y-57666666D01*
X48024819Y-57666666D02*
X48024819Y-57428571D01*
X48024819Y-57428571D02*
X48072438Y-57333333D01*
X48072438Y-57333333D02*
X48120057Y-57285714D01*
X48120057Y-57285714D02*
X48215295Y-57238095D01*
X48215295Y-57238095D02*
X48310533Y-57238095D01*
X48310533Y-57238095D02*
X48453390Y-57285714D01*
X48453390Y-57285714D02*
X49024819Y-57857142D01*
X49024819Y-57857142D02*
X49024819Y-57238095D01*
X67954819Y-56642857D02*
X67478628Y-56976190D01*
X67954819Y-57214285D02*
X66954819Y-57214285D01*
X66954819Y-57214285D02*
X66954819Y-56833333D01*
X66954819Y-56833333D02*
X67002438Y-56738095D01*
X67002438Y-56738095D02*
X67050057Y-56690476D01*
X67050057Y-56690476D02*
X67145295Y-56642857D01*
X67145295Y-56642857D02*
X67288152Y-56642857D01*
X67288152Y-56642857D02*
X67383390Y-56690476D01*
X67383390Y-56690476D02*
X67431009Y-56738095D01*
X67431009Y-56738095D02*
X67478628Y-56833333D01*
X67478628Y-56833333D02*
X67478628Y-57214285D01*
X67954819Y-55690476D02*
X67954819Y-56261904D01*
X67954819Y-55976190D02*
X66954819Y-55976190D01*
X66954819Y-55976190D02*
X67097676Y-56071428D01*
X67097676Y-56071428D02*
X67192914Y-56166666D01*
X67192914Y-56166666D02*
X67240533Y-56261904D01*
X67954819Y-55214285D02*
X67954819Y-55023809D01*
X67954819Y-55023809D02*
X67907200Y-54928571D01*
X67907200Y-54928571D02*
X67859580Y-54880952D01*
X67859580Y-54880952D02*
X67716723Y-54785714D01*
X67716723Y-54785714D02*
X67526247Y-54738095D01*
X67526247Y-54738095D02*
X67145295Y-54738095D01*
X67145295Y-54738095D02*
X67050057Y-54785714D01*
X67050057Y-54785714D02*
X67002438Y-54833333D01*
X67002438Y-54833333D02*
X66954819Y-54928571D01*
X66954819Y-54928571D02*
X66954819Y-55119047D01*
X66954819Y-55119047D02*
X67002438Y-55214285D01*
X67002438Y-55214285D02*
X67050057Y-55261904D01*
X67050057Y-55261904D02*
X67145295Y-55309523D01*
X67145295Y-55309523D02*
X67383390Y-55309523D01*
X67383390Y-55309523D02*
X67478628Y-55261904D01*
X67478628Y-55261904D02*
X67526247Y-55214285D01*
X67526247Y-55214285D02*
X67573866Y-55119047D01*
X67573866Y-55119047D02*
X67573866Y-54928571D01*
X67573866Y-54928571D02*
X67526247Y-54833333D01*
X67526247Y-54833333D02*
X67478628Y-54785714D01*
X67478628Y-54785714D02*
X67383390Y-54738095D01*
X73833333Y-68859580D02*
X73785714Y-68907200D01*
X73785714Y-68907200D02*
X73642857Y-68954819D01*
X73642857Y-68954819D02*
X73547619Y-68954819D01*
X73547619Y-68954819D02*
X73404762Y-68907200D01*
X73404762Y-68907200D02*
X73309524Y-68811961D01*
X73309524Y-68811961D02*
X73261905Y-68716723D01*
X73261905Y-68716723D02*
X73214286Y-68526247D01*
X73214286Y-68526247D02*
X73214286Y-68383390D01*
X73214286Y-68383390D02*
X73261905Y-68192914D01*
X73261905Y-68192914D02*
X73309524Y-68097676D01*
X73309524Y-68097676D02*
X73404762Y-68002438D01*
X73404762Y-68002438D02*
X73547619Y-67954819D01*
X73547619Y-67954819D02*
X73642857Y-67954819D01*
X73642857Y-67954819D02*
X73785714Y-68002438D01*
X73785714Y-68002438D02*
X73833333Y-68050057D01*
X74785714Y-68954819D02*
X74214286Y-68954819D01*
X74500000Y-68954819D02*
X74500000Y-67954819D01*
X74500000Y-67954819D02*
X74404762Y-68097676D01*
X74404762Y-68097676D02*
X74309524Y-68192914D01*
X74309524Y-68192914D02*
X74214286Y-68240533D01*
X70263095Y-58454819D02*
X70263095Y-59264342D01*
X70263095Y-59264342D02*
X70310714Y-59359580D01*
X70310714Y-59359580D02*
X70358333Y-59407200D01*
X70358333Y-59407200D02*
X70453571Y-59454819D01*
X70453571Y-59454819D02*
X70644047Y-59454819D01*
X70644047Y-59454819D02*
X70739285Y-59407200D01*
X70739285Y-59407200D02*
X70786904Y-59359580D01*
X70786904Y-59359580D02*
X70834523Y-59264342D01*
X70834523Y-59264342D02*
X70834523Y-58454819D01*
X71739285Y-58788152D02*
X71739285Y-59454819D01*
X71501190Y-58407200D02*
X71263095Y-59121485D01*
X71263095Y-59121485D02*
X71882142Y-59121485D01*
X56524819Y-36642857D02*
X56048628Y-36976190D01*
X56524819Y-37214285D02*
X55524819Y-37214285D01*
X55524819Y-37214285D02*
X55524819Y-36833333D01*
X55524819Y-36833333D02*
X55572438Y-36738095D01*
X55572438Y-36738095D02*
X55620057Y-36690476D01*
X55620057Y-36690476D02*
X55715295Y-36642857D01*
X55715295Y-36642857D02*
X55858152Y-36642857D01*
X55858152Y-36642857D02*
X55953390Y-36690476D01*
X55953390Y-36690476D02*
X56001009Y-36738095D01*
X56001009Y-36738095D02*
X56048628Y-36833333D01*
X56048628Y-36833333D02*
X56048628Y-37214285D01*
X55620057Y-36261904D02*
X55572438Y-36214285D01*
X55572438Y-36214285D02*
X55524819Y-36119047D01*
X55524819Y-36119047D02*
X55524819Y-35880952D01*
X55524819Y-35880952D02*
X55572438Y-35785714D01*
X55572438Y-35785714D02*
X55620057Y-35738095D01*
X55620057Y-35738095D02*
X55715295Y-35690476D01*
X55715295Y-35690476D02*
X55810533Y-35690476D01*
X55810533Y-35690476D02*
X55953390Y-35738095D01*
X55953390Y-35738095D02*
X56524819Y-36309523D01*
X56524819Y-36309523D02*
X56524819Y-35690476D01*
X55524819Y-35357142D02*
X55524819Y-34738095D01*
X55524819Y-34738095D02*
X55905771Y-35071428D01*
X55905771Y-35071428D02*
X55905771Y-34928571D01*
X55905771Y-34928571D02*
X55953390Y-34833333D01*
X55953390Y-34833333D02*
X56001009Y-34785714D01*
X56001009Y-34785714D02*
X56096247Y-34738095D01*
X56096247Y-34738095D02*
X56334342Y-34738095D01*
X56334342Y-34738095D02*
X56429580Y-34785714D01*
X56429580Y-34785714D02*
X56477200Y-34833333D01*
X56477200Y-34833333D02*
X56524819Y-34928571D01*
X56524819Y-34928571D02*
X56524819Y-35214285D01*
X56524819Y-35214285D02*
X56477200Y-35309523D01*
X56477200Y-35309523D02*
X56429580Y-35357142D01*
X96583333Y-36129819D02*
X96250000Y-35653628D01*
X96011905Y-36129819D02*
X96011905Y-35129819D01*
X96011905Y-35129819D02*
X96392857Y-35129819D01*
X96392857Y-35129819D02*
X96488095Y-35177438D01*
X96488095Y-35177438D02*
X96535714Y-35225057D01*
X96535714Y-35225057D02*
X96583333Y-35320295D01*
X96583333Y-35320295D02*
X96583333Y-35463152D01*
X96583333Y-35463152D02*
X96535714Y-35558390D01*
X96535714Y-35558390D02*
X96488095Y-35606009D01*
X96488095Y-35606009D02*
X96392857Y-35653628D01*
X96392857Y-35653628D02*
X96011905Y-35653628D01*
X96916667Y-35129819D02*
X97583333Y-35129819D01*
X97583333Y-35129819D02*
X97154762Y-36129819D01*
X88983333Y-48859580D02*
X88935714Y-48907200D01*
X88935714Y-48907200D02*
X88792857Y-48954819D01*
X88792857Y-48954819D02*
X88697619Y-48954819D01*
X88697619Y-48954819D02*
X88554762Y-48907200D01*
X88554762Y-48907200D02*
X88459524Y-48811961D01*
X88459524Y-48811961D02*
X88411905Y-48716723D01*
X88411905Y-48716723D02*
X88364286Y-48526247D01*
X88364286Y-48526247D02*
X88364286Y-48383390D01*
X88364286Y-48383390D02*
X88411905Y-48192914D01*
X88411905Y-48192914D02*
X88459524Y-48097676D01*
X88459524Y-48097676D02*
X88554762Y-48002438D01*
X88554762Y-48002438D02*
X88697619Y-47954819D01*
X88697619Y-47954819D02*
X88792857Y-47954819D01*
X88792857Y-47954819D02*
X88935714Y-48002438D01*
X88935714Y-48002438D02*
X88983333Y-48050057D01*
X89459524Y-48954819D02*
X89650000Y-48954819D01*
X89650000Y-48954819D02*
X89745238Y-48907200D01*
X89745238Y-48907200D02*
X89792857Y-48859580D01*
X89792857Y-48859580D02*
X89888095Y-48716723D01*
X89888095Y-48716723D02*
X89935714Y-48526247D01*
X89935714Y-48526247D02*
X89935714Y-48145295D01*
X89935714Y-48145295D02*
X89888095Y-48050057D01*
X89888095Y-48050057D02*
X89840476Y-48002438D01*
X89840476Y-48002438D02*
X89745238Y-47954819D01*
X89745238Y-47954819D02*
X89554762Y-47954819D01*
X89554762Y-47954819D02*
X89459524Y-48002438D01*
X89459524Y-48002438D02*
X89411905Y-48050057D01*
X89411905Y-48050057D02*
X89364286Y-48145295D01*
X89364286Y-48145295D02*
X89364286Y-48383390D01*
X89364286Y-48383390D02*
X89411905Y-48478628D01*
X89411905Y-48478628D02*
X89459524Y-48526247D01*
X89459524Y-48526247D02*
X89554762Y-48573866D01*
X89554762Y-48573866D02*
X89745238Y-48573866D01*
X89745238Y-48573866D02*
X89840476Y-48526247D01*
X89840476Y-48526247D02*
X89888095Y-48478628D01*
X89888095Y-48478628D02*
X89935714Y-48383390D01*
X86253809Y-22153628D02*
X86253809Y-22629819D01*
X85920476Y-21629819D02*
X86253809Y-22153628D01*
X86253809Y-22153628D02*
X86587142Y-21629819D01*
X86872857Y-21725057D02*
X86920476Y-21677438D01*
X86920476Y-21677438D02*
X87015714Y-21629819D01*
X87015714Y-21629819D02*
X87253809Y-21629819D01*
X87253809Y-21629819D02*
X87349047Y-21677438D01*
X87349047Y-21677438D02*
X87396666Y-21725057D01*
X87396666Y-21725057D02*
X87444285Y-21820295D01*
X87444285Y-21820295D02*
X87444285Y-21915533D01*
X87444285Y-21915533D02*
X87396666Y-22058390D01*
X87396666Y-22058390D02*
X86825238Y-22629819D01*
X86825238Y-22629819D02*
X87444285Y-22629819D01*
X85454819Y-74642857D02*
X84978628Y-74976190D01*
X85454819Y-75214285D02*
X84454819Y-75214285D01*
X84454819Y-75214285D02*
X84454819Y-74833333D01*
X84454819Y-74833333D02*
X84502438Y-74738095D01*
X84502438Y-74738095D02*
X84550057Y-74690476D01*
X84550057Y-74690476D02*
X84645295Y-74642857D01*
X84645295Y-74642857D02*
X84788152Y-74642857D01*
X84788152Y-74642857D02*
X84883390Y-74690476D01*
X84883390Y-74690476D02*
X84931009Y-74738095D01*
X84931009Y-74738095D02*
X84978628Y-74833333D01*
X84978628Y-74833333D02*
X84978628Y-75214285D01*
X85454819Y-73690476D02*
X85454819Y-74261904D01*
X85454819Y-73976190D02*
X84454819Y-73976190D01*
X84454819Y-73976190D02*
X84597676Y-74071428D01*
X84597676Y-74071428D02*
X84692914Y-74166666D01*
X84692914Y-74166666D02*
X84740533Y-74261904D01*
X85454819Y-72738095D02*
X85454819Y-73309523D01*
X85454819Y-73023809D02*
X84454819Y-73023809D01*
X84454819Y-73023809D02*
X84597676Y-73119047D01*
X84597676Y-73119047D02*
X84692914Y-73214285D01*
X84692914Y-73214285D02*
X84740533Y-73309523D01*
X75083333Y-35675160D02*
X75035714Y-35722780D01*
X75035714Y-35722780D02*
X74892857Y-35770399D01*
X74892857Y-35770399D02*
X74797619Y-35770399D01*
X74797619Y-35770399D02*
X74654762Y-35722780D01*
X74654762Y-35722780D02*
X74559524Y-35627541D01*
X74559524Y-35627541D02*
X74511905Y-35532303D01*
X74511905Y-35532303D02*
X74464286Y-35341827D01*
X74464286Y-35341827D02*
X74464286Y-35198970D01*
X74464286Y-35198970D02*
X74511905Y-35008494D01*
X74511905Y-35008494D02*
X74559524Y-34913256D01*
X74559524Y-34913256D02*
X74654762Y-34818018D01*
X74654762Y-34818018D02*
X74797619Y-34770399D01*
X74797619Y-34770399D02*
X74892857Y-34770399D01*
X74892857Y-34770399D02*
X75035714Y-34818018D01*
X75035714Y-34818018D02*
X75083333Y-34865637D01*
X75416667Y-34770399D02*
X76083333Y-34770399D01*
X76083333Y-34770399D02*
X75654762Y-35770399D01*
X61938095Y-59354819D02*
X61938095Y-60164342D01*
X61938095Y-60164342D02*
X61985714Y-60259580D01*
X61985714Y-60259580D02*
X62033333Y-60307200D01*
X62033333Y-60307200D02*
X62128571Y-60354819D01*
X62128571Y-60354819D02*
X62319047Y-60354819D01*
X62319047Y-60354819D02*
X62414285Y-60307200D01*
X62414285Y-60307200D02*
X62461904Y-60259580D01*
X62461904Y-60259580D02*
X62509523Y-60164342D01*
X62509523Y-60164342D02*
X62509523Y-59354819D01*
X63128571Y-59783390D02*
X63033333Y-59735771D01*
X63033333Y-59735771D02*
X62985714Y-59688152D01*
X62985714Y-59688152D02*
X62938095Y-59592914D01*
X62938095Y-59592914D02*
X62938095Y-59545295D01*
X62938095Y-59545295D02*
X62985714Y-59450057D01*
X62985714Y-59450057D02*
X63033333Y-59402438D01*
X63033333Y-59402438D02*
X63128571Y-59354819D01*
X63128571Y-59354819D02*
X63319047Y-59354819D01*
X63319047Y-59354819D02*
X63414285Y-59402438D01*
X63414285Y-59402438D02*
X63461904Y-59450057D01*
X63461904Y-59450057D02*
X63509523Y-59545295D01*
X63509523Y-59545295D02*
X63509523Y-59592914D01*
X63509523Y-59592914D02*
X63461904Y-59688152D01*
X63461904Y-59688152D02*
X63414285Y-59735771D01*
X63414285Y-59735771D02*
X63319047Y-59783390D01*
X63319047Y-59783390D02*
X63128571Y-59783390D01*
X63128571Y-59783390D02*
X63033333Y-59831009D01*
X63033333Y-59831009D02*
X62985714Y-59878628D01*
X62985714Y-59878628D02*
X62938095Y-59973866D01*
X62938095Y-59973866D02*
X62938095Y-60164342D01*
X62938095Y-60164342D02*
X62985714Y-60259580D01*
X62985714Y-60259580D02*
X63033333Y-60307200D01*
X63033333Y-60307200D02*
X63128571Y-60354819D01*
X63128571Y-60354819D02*
X63319047Y-60354819D01*
X63319047Y-60354819D02*
X63414285Y-60307200D01*
X63414285Y-60307200D02*
X63461904Y-60259580D01*
X63461904Y-60259580D02*
X63509523Y-60164342D01*
X63509523Y-60164342D02*
X63509523Y-59973866D01*
X63509523Y-59973866D02*
X63461904Y-59878628D01*
X63461904Y-59878628D02*
X63414285Y-59831009D01*
X63414285Y-59831009D02*
X63319047Y-59783390D01*
X82583333Y-28034580D02*
X82535714Y-28082200D01*
X82535714Y-28082200D02*
X82392857Y-28129819D01*
X82392857Y-28129819D02*
X82297619Y-28129819D01*
X82297619Y-28129819D02*
X82154762Y-28082200D01*
X82154762Y-28082200D02*
X82059524Y-27986961D01*
X82059524Y-27986961D02*
X82011905Y-27891723D01*
X82011905Y-27891723D02*
X81964286Y-27701247D01*
X81964286Y-27701247D02*
X81964286Y-27558390D01*
X81964286Y-27558390D02*
X82011905Y-27367914D01*
X82011905Y-27367914D02*
X82059524Y-27272676D01*
X82059524Y-27272676D02*
X82154762Y-27177438D01*
X82154762Y-27177438D02*
X82297619Y-27129819D01*
X82297619Y-27129819D02*
X82392857Y-27129819D01*
X82392857Y-27129819D02*
X82535714Y-27177438D01*
X82535714Y-27177438D02*
X82583333Y-27225057D01*
X83440476Y-27129819D02*
X83250000Y-27129819D01*
X83250000Y-27129819D02*
X83154762Y-27177438D01*
X83154762Y-27177438D02*
X83107143Y-27225057D01*
X83107143Y-27225057D02*
X83011905Y-27367914D01*
X83011905Y-27367914D02*
X82964286Y-27558390D01*
X82964286Y-27558390D02*
X82964286Y-27939342D01*
X82964286Y-27939342D02*
X83011905Y-28034580D01*
X83011905Y-28034580D02*
X83059524Y-28082200D01*
X83059524Y-28082200D02*
X83154762Y-28129819D01*
X83154762Y-28129819D02*
X83345238Y-28129819D01*
X83345238Y-28129819D02*
X83440476Y-28082200D01*
X83440476Y-28082200D02*
X83488095Y-28034580D01*
X83488095Y-28034580D02*
X83535714Y-27939342D01*
X83535714Y-27939342D02*
X83535714Y-27701247D01*
X83535714Y-27701247D02*
X83488095Y-27606009D01*
X83488095Y-27606009D02*
X83440476Y-27558390D01*
X83440476Y-27558390D02*
X83345238Y-27510771D01*
X83345238Y-27510771D02*
X83154762Y-27510771D01*
X83154762Y-27510771D02*
X83059524Y-27558390D01*
X83059524Y-27558390D02*
X83011905Y-27606009D01*
X83011905Y-27606009D02*
X82964286Y-27701247D01*
X35854819Y-63166666D02*
X35854819Y-63642856D01*
X35854819Y-63642856D02*
X34854819Y-63642856D01*
X35854819Y-62309523D02*
X35854819Y-62880951D01*
X35854819Y-62595237D02*
X34854819Y-62595237D01*
X34854819Y-62595237D02*
X34997676Y-62690475D01*
X34997676Y-62690475D02*
X35092914Y-62785713D01*
X35092914Y-62785713D02*
X35140533Y-62880951D01*
X47991071Y-70104819D02*
X47657738Y-69628628D01*
X47419643Y-70104819D02*
X47419643Y-69104819D01*
X47419643Y-69104819D02*
X47800595Y-69104819D01*
X47800595Y-69104819D02*
X47895833Y-69152438D01*
X47895833Y-69152438D02*
X47943452Y-69200057D01*
X47943452Y-69200057D02*
X47991071Y-69295295D01*
X47991071Y-69295295D02*
X47991071Y-69438152D01*
X47991071Y-69438152D02*
X47943452Y-69533390D01*
X47943452Y-69533390D02*
X47895833Y-69581009D01*
X47895833Y-69581009D02*
X47800595Y-69628628D01*
X47800595Y-69628628D02*
X47419643Y-69628628D01*
X48895833Y-70104819D02*
X48419643Y-70104819D01*
X48419643Y-70104819D02*
X48419643Y-69104819D01*
X49752976Y-70104819D02*
X49181548Y-70104819D01*
X49467262Y-70104819D02*
X49467262Y-69104819D01*
X49467262Y-69104819D02*
X49372024Y-69247676D01*
X49372024Y-69247676D02*
X49276786Y-69342914D01*
X49276786Y-69342914D02*
X49181548Y-69390533D01*
X61209888Y-39978628D02*
X61209888Y-40454819D01*
X60876555Y-39454819D02*
X61209888Y-39978628D01*
X61209888Y-39978628D02*
X61543221Y-39454819D01*
X62400364Y-40454819D02*
X61828936Y-40454819D01*
X62114650Y-40454819D02*
X62114650Y-39454819D01*
X62114650Y-39454819D02*
X62019412Y-39597676D01*
X62019412Y-39597676D02*
X61924174Y-39692914D01*
X61924174Y-39692914D02*
X61828936Y-39740533D01*
X67833333Y-27524819D02*
X67500000Y-27048628D01*
X67261905Y-27524819D02*
X67261905Y-26524819D01*
X67261905Y-26524819D02*
X67642857Y-26524819D01*
X67642857Y-26524819D02*
X67738095Y-26572438D01*
X67738095Y-26572438D02*
X67785714Y-26620057D01*
X67785714Y-26620057D02*
X67833333Y-26715295D01*
X67833333Y-26715295D02*
X67833333Y-26858152D01*
X67833333Y-26858152D02*
X67785714Y-26953390D01*
X67785714Y-26953390D02*
X67738095Y-27001009D01*
X67738095Y-27001009D02*
X67642857Y-27048628D01*
X67642857Y-27048628D02*
X67261905Y-27048628D01*
X68214286Y-26620057D02*
X68261905Y-26572438D01*
X68261905Y-26572438D02*
X68357143Y-26524819D01*
X68357143Y-26524819D02*
X68595238Y-26524819D01*
X68595238Y-26524819D02*
X68690476Y-26572438D01*
X68690476Y-26572438D02*
X68738095Y-26620057D01*
X68738095Y-26620057D02*
X68785714Y-26715295D01*
X68785714Y-26715295D02*
X68785714Y-26810533D01*
X68785714Y-26810533D02*
X68738095Y-26953390D01*
X68738095Y-26953390D02*
X68166667Y-27524819D01*
X68166667Y-27524819D02*
X68785714Y-27524819D01*
X59333333Y-52859580D02*
X59285714Y-52907200D01*
X59285714Y-52907200D02*
X59142857Y-52954819D01*
X59142857Y-52954819D02*
X59047619Y-52954819D01*
X59047619Y-52954819D02*
X58904762Y-52907200D01*
X58904762Y-52907200D02*
X58809524Y-52811961D01*
X58809524Y-52811961D02*
X58761905Y-52716723D01*
X58761905Y-52716723D02*
X58714286Y-52526247D01*
X58714286Y-52526247D02*
X58714286Y-52383390D01*
X58714286Y-52383390D02*
X58761905Y-52192914D01*
X58761905Y-52192914D02*
X58809524Y-52097676D01*
X58809524Y-52097676D02*
X58904762Y-52002438D01*
X58904762Y-52002438D02*
X59047619Y-51954819D01*
X59047619Y-51954819D02*
X59142857Y-51954819D01*
X59142857Y-51954819D02*
X59285714Y-52002438D01*
X59285714Y-52002438D02*
X59333333Y-52050057D01*
X59714286Y-52050057D02*
X59761905Y-52002438D01*
X59761905Y-52002438D02*
X59857143Y-51954819D01*
X59857143Y-51954819D02*
X60095238Y-51954819D01*
X60095238Y-51954819D02*
X60190476Y-52002438D01*
X60190476Y-52002438D02*
X60238095Y-52050057D01*
X60238095Y-52050057D02*
X60285714Y-52145295D01*
X60285714Y-52145295D02*
X60285714Y-52240533D01*
X60285714Y-52240533D02*
X60238095Y-52383390D01*
X60238095Y-52383390D02*
X59666667Y-52954819D01*
X59666667Y-52954819D02*
X60285714Y-52954819D01*
X53261905Y-65954819D02*
X53261905Y-64954819D01*
X53261905Y-64954819D02*
X53500000Y-64954819D01*
X53500000Y-64954819D02*
X53642857Y-65002438D01*
X53642857Y-65002438D02*
X53738095Y-65097676D01*
X53738095Y-65097676D02*
X53785714Y-65192914D01*
X53785714Y-65192914D02*
X53833333Y-65383390D01*
X53833333Y-65383390D02*
X53833333Y-65526247D01*
X53833333Y-65526247D02*
X53785714Y-65716723D01*
X53785714Y-65716723D02*
X53738095Y-65811961D01*
X53738095Y-65811961D02*
X53642857Y-65907200D01*
X53642857Y-65907200D02*
X53500000Y-65954819D01*
X53500000Y-65954819D02*
X53261905Y-65954819D01*
X54738095Y-64954819D02*
X54261905Y-64954819D01*
X54261905Y-64954819D02*
X54214286Y-65431009D01*
X54214286Y-65431009D02*
X54261905Y-65383390D01*
X54261905Y-65383390D02*
X54357143Y-65335771D01*
X54357143Y-65335771D02*
X54595238Y-65335771D01*
X54595238Y-65335771D02*
X54690476Y-65383390D01*
X54690476Y-65383390D02*
X54738095Y-65431009D01*
X54738095Y-65431009D02*
X54785714Y-65526247D01*
X54785714Y-65526247D02*
X54785714Y-65764342D01*
X54785714Y-65764342D02*
X54738095Y-65859580D01*
X54738095Y-65859580D02*
X54690476Y-65907200D01*
X54690476Y-65907200D02*
X54595238Y-65954819D01*
X54595238Y-65954819D02*
X54357143Y-65954819D01*
X54357143Y-65954819D02*
X54261905Y-65907200D01*
X54261905Y-65907200D02*
X54214286Y-65859580D01*
X76954819Y-80261904D02*
X77764342Y-80261904D01*
X77764342Y-80261904D02*
X77859580Y-80214285D01*
X77859580Y-80214285D02*
X77907200Y-80166666D01*
X77907200Y-80166666D02*
X77954819Y-80071428D01*
X77954819Y-80071428D02*
X77954819Y-79880952D01*
X77954819Y-79880952D02*
X77907200Y-79785714D01*
X77907200Y-79785714D02*
X77859580Y-79738095D01*
X77859580Y-79738095D02*
X77764342Y-79690476D01*
X77764342Y-79690476D02*
X76954819Y-79690476D01*
X77050057Y-79261904D02*
X77002438Y-79214285D01*
X77002438Y-79214285D02*
X76954819Y-79119047D01*
X76954819Y-79119047D02*
X76954819Y-78880952D01*
X76954819Y-78880952D02*
X77002438Y-78785714D01*
X77002438Y-78785714D02*
X77050057Y-78738095D01*
X77050057Y-78738095D02*
X77145295Y-78690476D01*
X77145295Y-78690476D02*
X77240533Y-78690476D01*
X77240533Y-78690476D02*
X77383390Y-78738095D01*
X77383390Y-78738095D02*
X77954819Y-79309523D01*
X77954819Y-79309523D02*
X77954819Y-78690476D01*
X62859580Y-62642857D02*
X62907200Y-62690476D01*
X62907200Y-62690476D02*
X62954819Y-62833333D01*
X62954819Y-62833333D02*
X62954819Y-62928571D01*
X62954819Y-62928571D02*
X62907200Y-63071428D01*
X62907200Y-63071428D02*
X62811961Y-63166666D01*
X62811961Y-63166666D02*
X62716723Y-63214285D01*
X62716723Y-63214285D02*
X62526247Y-63261904D01*
X62526247Y-63261904D02*
X62383390Y-63261904D01*
X62383390Y-63261904D02*
X62192914Y-63214285D01*
X62192914Y-63214285D02*
X62097676Y-63166666D01*
X62097676Y-63166666D02*
X62002438Y-63071428D01*
X62002438Y-63071428D02*
X61954819Y-62928571D01*
X61954819Y-62928571D02*
X61954819Y-62833333D01*
X61954819Y-62833333D02*
X62002438Y-62690476D01*
X62002438Y-62690476D02*
X62050057Y-62642857D01*
X62050057Y-62261904D02*
X62002438Y-62214285D01*
X62002438Y-62214285D02*
X61954819Y-62119047D01*
X61954819Y-62119047D02*
X61954819Y-61880952D01*
X61954819Y-61880952D02*
X62002438Y-61785714D01*
X62002438Y-61785714D02*
X62050057Y-61738095D01*
X62050057Y-61738095D02*
X62145295Y-61690476D01*
X62145295Y-61690476D02*
X62240533Y-61690476D01*
X62240533Y-61690476D02*
X62383390Y-61738095D01*
X62383390Y-61738095D02*
X62954819Y-62309523D01*
X62954819Y-62309523D02*
X62954819Y-61690476D01*
X62954819Y-60738095D02*
X62954819Y-61309523D01*
X62954819Y-61023809D02*
X61954819Y-61023809D01*
X61954819Y-61023809D02*
X62097676Y-61119047D01*
X62097676Y-61119047D02*
X62192914Y-61214285D01*
X62192914Y-61214285D02*
X62240533Y-61309523D01*
X58148386Y-83683964D02*
X58148386Y-84398249D01*
X58148386Y-84398249D02*
X58100767Y-84541106D01*
X58100767Y-84541106D02*
X58005529Y-84636345D01*
X58005529Y-84636345D02*
X57862672Y-84683964D01*
X57862672Y-84683964D02*
X57767434Y-84683964D01*
X59148386Y-84683964D02*
X58576958Y-84683964D01*
X58862672Y-84683964D02*
X58862672Y-83683964D01*
X58862672Y-83683964D02*
X58767434Y-83826821D01*
X58767434Y-83826821D02*
X58672196Y-83922059D01*
X58672196Y-83922059D02*
X58576958Y-83969678D01*
X49050057Y-61595238D02*
X49002438Y-61690476D01*
X49002438Y-61690476D02*
X48907200Y-61785714D01*
X48907200Y-61785714D02*
X48764342Y-61928571D01*
X48764342Y-61928571D02*
X48716723Y-62023809D01*
X48716723Y-62023809D02*
X48716723Y-62119047D01*
X48954819Y-62071428D02*
X48907200Y-62166666D01*
X48907200Y-62166666D02*
X48811961Y-62261904D01*
X48811961Y-62261904D02*
X48621485Y-62309523D01*
X48621485Y-62309523D02*
X48288152Y-62309523D01*
X48288152Y-62309523D02*
X48097676Y-62261904D01*
X48097676Y-62261904D02*
X48002438Y-62166666D01*
X48002438Y-62166666D02*
X47954819Y-62071428D01*
X47954819Y-62071428D02*
X47954819Y-61880952D01*
X47954819Y-61880952D02*
X48002438Y-61785714D01*
X48002438Y-61785714D02*
X48097676Y-61690476D01*
X48097676Y-61690476D02*
X48288152Y-61642857D01*
X48288152Y-61642857D02*
X48621485Y-61642857D01*
X48621485Y-61642857D02*
X48811961Y-61690476D01*
X48811961Y-61690476D02*
X48907200Y-61785714D01*
X48907200Y-61785714D02*
X48954819Y-61880952D01*
X48954819Y-61880952D02*
X48954819Y-62071428D01*
X48954819Y-60690476D02*
X48954819Y-61261904D01*
X48954819Y-60976190D02*
X47954819Y-60976190D01*
X47954819Y-60976190D02*
X48097676Y-61071428D01*
X48097676Y-61071428D02*
X48192914Y-61166666D01*
X48192914Y-61166666D02*
X48240533Y-61261904D01*
X85994580Y-81642857D02*
X86042200Y-81690476D01*
X86042200Y-81690476D02*
X86089819Y-81833333D01*
X86089819Y-81833333D02*
X86089819Y-81928571D01*
X86089819Y-81928571D02*
X86042200Y-82071428D01*
X86042200Y-82071428D02*
X85946961Y-82166666D01*
X85946961Y-82166666D02*
X85851723Y-82214285D01*
X85851723Y-82214285D02*
X85661247Y-82261904D01*
X85661247Y-82261904D02*
X85518390Y-82261904D01*
X85518390Y-82261904D02*
X85327914Y-82214285D01*
X85327914Y-82214285D02*
X85232676Y-82166666D01*
X85232676Y-82166666D02*
X85137438Y-82071428D01*
X85137438Y-82071428D02*
X85089819Y-81928571D01*
X85089819Y-81928571D02*
X85089819Y-81833333D01*
X85089819Y-81833333D02*
X85137438Y-81690476D01*
X85137438Y-81690476D02*
X85185057Y-81642857D01*
X86089819Y-80690476D02*
X86089819Y-81261904D01*
X86089819Y-80976190D02*
X85089819Y-80976190D01*
X85089819Y-80976190D02*
X85232676Y-81071428D01*
X85232676Y-81071428D02*
X85327914Y-81166666D01*
X85327914Y-81166666D02*
X85375533Y-81261904D01*
X85185057Y-80309523D02*
X85137438Y-80261904D01*
X85137438Y-80261904D02*
X85089819Y-80166666D01*
X85089819Y-80166666D02*
X85089819Y-79928571D01*
X85089819Y-79928571D02*
X85137438Y-79833333D01*
X85137438Y-79833333D02*
X85185057Y-79785714D01*
X85185057Y-79785714D02*
X85280295Y-79738095D01*
X85280295Y-79738095D02*
X85375533Y-79738095D01*
X85375533Y-79738095D02*
X85518390Y-79785714D01*
X85518390Y-79785714D02*
X86089819Y-80357142D01*
X86089819Y-80357142D02*
X86089819Y-79738095D01*
X67833333Y-32384819D02*
X67500000Y-31908628D01*
X67261905Y-32384819D02*
X67261905Y-31384819D01*
X67261905Y-31384819D02*
X67642857Y-31384819D01*
X67642857Y-31384819D02*
X67738095Y-31432438D01*
X67738095Y-31432438D02*
X67785714Y-31480057D01*
X67785714Y-31480057D02*
X67833333Y-31575295D01*
X67833333Y-31575295D02*
X67833333Y-31718152D01*
X67833333Y-31718152D02*
X67785714Y-31813390D01*
X67785714Y-31813390D02*
X67738095Y-31861009D01*
X67738095Y-31861009D02*
X67642857Y-31908628D01*
X67642857Y-31908628D02*
X67261905Y-31908628D01*
X68404762Y-31813390D02*
X68309524Y-31765771D01*
X68309524Y-31765771D02*
X68261905Y-31718152D01*
X68261905Y-31718152D02*
X68214286Y-31622914D01*
X68214286Y-31622914D02*
X68214286Y-31575295D01*
X68214286Y-31575295D02*
X68261905Y-31480057D01*
X68261905Y-31480057D02*
X68309524Y-31432438D01*
X68309524Y-31432438D02*
X68404762Y-31384819D01*
X68404762Y-31384819D02*
X68595238Y-31384819D01*
X68595238Y-31384819D02*
X68690476Y-31432438D01*
X68690476Y-31432438D02*
X68738095Y-31480057D01*
X68738095Y-31480057D02*
X68785714Y-31575295D01*
X68785714Y-31575295D02*
X68785714Y-31622914D01*
X68785714Y-31622914D02*
X68738095Y-31718152D01*
X68738095Y-31718152D02*
X68690476Y-31765771D01*
X68690476Y-31765771D02*
X68595238Y-31813390D01*
X68595238Y-31813390D02*
X68404762Y-31813390D01*
X68404762Y-31813390D02*
X68309524Y-31861009D01*
X68309524Y-31861009D02*
X68261905Y-31908628D01*
X68261905Y-31908628D02*
X68214286Y-32003866D01*
X68214286Y-32003866D02*
X68214286Y-32194342D01*
X68214286Y-32194342D02*
X68261905Y-32289580D01*
X68261905Y-32289580D02*
X68309524Y-32337200D01*
X68309524Y-32337200D02*
X68404762Y-32384819D01*
X68404762Y-32384819D02*
X68595238Y-32384819D01*
X68595238Y-32384819D02*
X68690476Y-32337200D01*
X68690476Y-32337200D02*
X68738095Y-32289580D01*
X68738095Y-32289580D02*
X68785714Y-32194342D01*
X68785714Y-32194342D02*
X68785714Y-32003866D01*
X68785714Y-32003866D02*
X68738095Y-31908628D01*
X68738095Y-31908628D02*
X68690476Y-31861009D01*
X68690476Y-31861009D02*
X68595238Y-31813390D01*
X109166666Y-23954819D02*
X109166666Y-24669104D01*
X109166666Y-24669104D02*
X109119047Y-24811961D01*
X109119047Y-24811961D02*
X109023809Y-24907200D01*
X109023809Y-24907200D02*
X108880952Y-24954819D01*
X108880952Y-24954819D02*
X108785714Y-24954819D01*
X110071428Y-24288152D02*
X110071428Y-24954819D01*
X109833333Y-23907200D02*
X109595238Y-24621485D01*
X109595238Y-24621485D02*
X110214285Y-24621485D01*
X24104819Y-55238094D02*
X23104819Y-55238094D01*
X23104819Y-55238094D02*
X23104819Y-54999999D01*
X23104819Y-54999999D02*
X23152438Y-54857142D01*
X23152438Y-54857142D02*
X23247676Y-54761904D01*
X23247676Y-54761904D02*
X23342914Y-54714285D01*
X23342914Y-54714285D02*
X23533390Y-54666666D01*
X23533390Y-54666666D02*
X23676247Y-54666666D01*
X23676247Y-54666666D02*
X23866723Y-54714285D01*
X23866723Y-54714285D02*
X23961961Y-54761904D01*
X23961961Y-54761904D02*
X24057200Y-54857142D01*
X24057200Y-54857142D02*
X24104819Y-54999999D01*
X24104819Y-54999999D02*
X24104819Y-55238094D01*
X24104819Y-53714285D02*
X24104819Y-54285713D01*
X24104819Y-53999999D02*
X23104819Y-53999999D01*
X23104819Y-53999999D02*
X23247676Y-54095237D01*
X23247676Y-54095237D02*
X23342914Y-54190475D01*
X23342914Y-54190475D02*
X23390533Y-54285713D01*
X80936666Y-71554819D02*
X80936666Y-72269104D01*
X80936666Y-72269104D02*
X80889047Y-72411961D01*
X80889047Y-72411961D02*
X80793809Y-72507200D01*
X80793809Y-72507200D02*
X80650952Y-72554819D01*
X80650952Y-72554819D02*
X80555714Y-72554819D01*
X81889047Y-71554819D02*
X81412857Y-71554819D01*
X81412857Y-71554819D02*
X81365238Y-72031009D01*
X81365238Y-72031009D02*
X81412857Y-71983390D01*
X81412857Y-71983390D02*
X81508095Y-71935771D01*
X81508095Y-71935771D02*
X81746190Y-71935771D01*
X81746190Y-71935771D02*
X81841428Y-71983390D01*
X81841428Y-71983390D02*
X81889047Y-72031009D01*
X81889047Y-72031009D02*
X81936666Y-72126247D01*
X81936666Y-72126247D02*
X81936666Y-72364342D01*
X81936666Y-72364342D02*
X81889047Y-72459580D01*
X81889047Y-72459580D02*
X81841428Y-72507200D01*
X81841428Y-72507200D02*
X81746190Y-72554819D01*
X81746190Y-72554819D02*
X81508095Y-72554819D01*
X81508095Y-72554819D02*
X81412857Y-72507200D01*
X81412857Y-72507200D02*
X81365238Y-72459580D01*
X32357142Y-46859580D02*
X32309523Y-46907200D01*
X32309523Y-46907200D02*
X32166666Y-46954819D01*
X32166666Y-46954819D02*
X32071428Y-46954819D01*
X32071428Y-46954819D02*
X31928571Y-46907200D01*
X31928571Y-46907200D02*
X31833333Y-46811961D01*
X31833333Y-46811961D02*
X31785714Y-46716723D01*
X31785714Y-46716723D02*
X31738095Y-46526247D01*
X31738095Y-46526247D02*
X31738095Y-46383390D01*
X31738095Y-46383390D02*
X31785714Y-46192914D01*
X31785714Y-46192914D02*
X31833333Y-46097676D01*
X31833333Y-46097676D02*
X31928571Y-46002438D01*
X31928571Y-46002438D02*
X32071428Y-45954819D01*
X32071428Y-45954819D02*
X32166666Y-45954819D01*
X32166666Y-45954819D02*
X32309523Y-46002438D01*
X32309523Y-46002438D02*
X32357142Y-46050057D01*
X33309523Y-46954819D02*
X32738095Y-46954819D01*
X33023809Y-46954819D02*
X33023809Y-45954819D01*
X33023809Y-45954819D02*
X32928571Y-46097676D01*
X32928571Y-46097676D02*
X32833333Y-46192914D01*
X32833333Y-46192914D02*
X32738095Y-46240533D01*
X33642857Y-45954819D02*
X34309523Y-45954819D01*
X34309523Y-45954819D02*
X33880952Y-46954819D01*
X54857142Y-64359580D02*
X54809523Y-64407200D01*
X54809523Y-64407200D02*
X54666666Y-64454819D01*
X54666666Y-64454819D02*
X54571428Y-64454819D01*
X54571428Y-64454819D02*
X54428571Y-64407200D01*
X54428571Y-64407200D02*
X54333333Y-64311961D01*
X54333333Y-64311961D02*
X54285714Y-64216723D01*
X54285714Y-64216723D02*
X54238095Y-64026247D01*
X54238095Y-64026247D02*
X54238095Y-63883390D01*
X54238095Y-63883390D02*
X54285714Y-63692914D01*
X54285714Y-63692914D02*
X54333333Y-63597676D01*
X54333333Y-63597676D02*
X54428571Y-63502438D01*
X54428571Y-63502438D02*
X54571428Y-63454819D01*
X54571428Y-63454819D02*
X54666666Y-63454819D01*
X54666666Y-63454819D02*
X54809523Y-63502438D01*
X54809523Y-63502438D02*
X54857142Y-63550057D01*
X55809523Y-64454819D02*
X55238095Y-64454819D01*
X55523809Y-64454819D02*
X55523809Y-63454819D01*
X55523809Y-63454819D02*
X55428571Y-63597676D01*
X55428571Y-63597676D02*
X55333333Y-63692914D01*
X55333333Y-63692914D02*
X55238095Y-63740533D01*
X56285714Y-64454819D02*
X56476190Y-64454819D01*
X56476190Y-64454819D02*
X56571428Y-64407200D01*
X56571428Y-64407200D02*
X56619047Y-64359580D01*
X56619047Y-64359580D02*
X56714285Y-64216723D01*
X56714285Y-64216723D02*
X56761904Y-64026247D01*
X56761904Y-64026247D02*
X56761904Y-63645295D01*
X56761904Y-63645295D02*
X56714285Y-63550057D01*
X56714285Y-63550057D02*
X56666666Y-63502438D01*
X56666666Y-63502438D02*
X56571428Y-63454819D01*
X56571428Y-63454819D02*
X56380952Y-63454819D01*
X56380952Y-63454819D02*
X56285714Y-63502438D01*
X56285714Y-63502438D02*
X56238095Y-63550057D01*
X56238095Y-63550057D02*
X56190476Y-63645295D01*
X56190476Y-63645295D02*
X56190476Y-63883390D01*
X56190476Y-63883390D02*
X56238095Y-63978628D01*
X56238095Y-63978628D02*
X56285714Y-64026247D01*
X56285714Y-64026247D02*
X56380952Y-64073866D01*
X56380952Y-64073866D02*
X56571428Y-64073866D01*
X56571428Y-64073866D02*
X56666666Y-64026247D01*
X56666666Y-64026247D02*
X56714285Y-63978628D01*
X56714285Y-63978628D02*
X56761904Y-63883390D01*
X24454819Y-51238094D02*
X23454819Y-51238094D01*
X23454819Y-51238094D02*
X23454819Y-50999999D01*
X23454819Y-50999999D02*
X23502438Y-50857142D01*
X23502438Y-50857142D02*
X23597676Y-50761904D01*
X23597676Y-50761904D02*
X23692914Y-50714285D01*
X23692914Y-50714285D02*
X23883390Y-50666666D01*
X23883390Y-50666666D02*
X24026247Y-50666666D01*
X24026247Y-50666666D02*
X24216723Y-50714285D01*
X24216723Y-50714285D02*
X24311961Y-50761904D01*
X24311961Y-50761904D02*
X24407200Y-50857142D01*
X24407200Y-50857142D02*
X24454819Y-50999999D01*
X24454819Y-50999999D02*
X24454819Y-51238094D01*
X23788152Y-49809523D02*
X24454819Y-49809523D01*
X23407200Y-50047618D02*
X24121485Y-50285713D01*
X24121485Y-50285713D02*
X24121485Y-49666666D01*
X30857142Y-57209580D02*
X30809523Y-57257200D01*
X30809523Y-57257200D02*
X30666666Y-57304819D01*
X30666666Y-57304819D02*
X30571428Y-57304819D01*
X30571428Y-57304819D02*
X30428571Y-57257200D01*
X30428571Y-57257200D02*
X30333333Y-57161961D01*
X30333333Y-57161961D02*
X30285714Y-57066723D01*
X30285714Y-57066723D02*
X30238095Y-56876247D01*
X30238095Y-56876247D02*
X30238095Y-56733390D01*
X30238095Y-56733390D02*
X30285714Y-56542914D01*
X30285714Y-56542914D02*
X30333333Y-56447676D01*
X30333333Y-56447676D02*
X30428571Y-56352438D01*
X30428571Y-56352438D02*
X30571428Y-56304819D01*
X30571428Y-56304819D02*
X30666666Y-56304819D01*
X30666666Y-56304819D02*
X30809523Y-56352438D01*
X30809523Y-56352438D02*
X30857142Y-56400057D01*
X31809523Y-57304819D02*
X31238095Y-57304819D01*
X31523809Y-57304819D02*
X31523809Y-56304819D01*
X31523809Y-56304819D02*
X31428571Y-56447676D01*
X31428571Y-56447676D02*
X31333333Y-56542914D01*
X31333333Y-56542914D02*
X31238095Y-56590533D01*
X32666666Y-56304819D02*
X32476190Y-56304819D01*
X32476190Y-56304819D02*
X32380952Y-56352438D01*
X32380952Y-56352438D02*
X32333333Y-56400057D01*
X32333333Y-56400057D02*
X32238095Y-56542914D01*
X32238095Y-56542914D02*
X32190476Y-56733390D01*
X32190476Y-56733390D02*
X32190476Y-57114342D01*
X32190476Y-57114342D02*
X32238095Y-57209580D01*
X32238095Y-57209580D02*
X32285714Y-57257200D01*
X32285714Y-57257200D02*
X32380952Y-57304819D01*
X32380952Y-57304819D02*
X32571428Y-57304819D01*
X32571428Y-57304819D02*
X32666666Y-57257200D01*
X32666666Y-57257200D02*
X32714285Y-57209580D01*
X32714285Y-57209580D02*
X32761904Y-57114342D01*
X32761904Y-57114342D02*
X32761904Y-56876247D01*
X32761904Y-56876247D02*
X32714285Y-56781009D01*
X32714285Y-56781009D02*
X32666666Y-56733390D01*
X32666666Y-56733390D02*
X32571428Y-56685771D01*
X32571428Y-56685771D02*
X32380952Y-56685771D01*
X32380952Y-56685771D02*
X32285714Y-56733390D01*
X32285714Y-56733390D02*
X32238095Y-56781009D01*
X32238095Y-56781009D02*
X32190476Y-56876247D01*
X92166666Y-83954819D02*
X92166666Y-84669104D01*
X92166666Y-84669104D02*
X92119047Y-84811961D01*
X92119047Y-84811961D02*
X92023809Y-84907200D01*
X92023809Y-84907200D02*
X91880952Y-84954819D01*
X91880952Y-84954819D02*
X91785714Y-84954819D01*
X92547619Y-83954819D02*
X93166666Y-83954819D01*
X93166666Y-83954819D02*
X92833333Y-84335771D01*
X92833333Y-84335771D02*
X92976190Y-84335771D01*
X92976190Y-84335771D02*
X93071428Y-84383390D01*
X93071428Y-84383390D02*
X93119047Y-84431009D01*
X93119047Y-84431009D02*
X93166666Y-84526247D01*
X93166666Y-84526247D02*
X93166666Y-84764342D01*
X93166666Y-84764342D02*
X93119047Y-84859580D01*
X93119047Y-84859580D02*
X93071428Y-84907200D01*
X93071428Y-84907200D02*
X92976190Y-84954819D01*
X92976190Y-84954819D02*
X92690476Y-84954819D01*
X92690476Y-84954819D02*
X92595238Y-84907200D01*
X92595238Y-84907200D02*
X92547619Y-84859580D01*
X87454819Y-78642857D02*
X86978628Y-78976190D01*
X87454819Y-79214285D02*
X86454819Y-79214285D01*
X86454819Y-79214285D02*
X86454819Y-78833333D01*
X86454819Y-78833333D02*
X86502438Y-78738095D01*
X86502438Y-78738095D02*
X86550057Y-78690476D01*
X86550057Y-78690476D02*
X86645295Y-78642857D01*
X86645295Y-78642857D02*
X86788152Y-78642857D01*
X86788152Y-78642857D02*
X86883390Y-78690476D01*
X86883390Y-78690476D02*
X86931009Y-78738095D01*
X86931009Y-78738095D02*
X86978628Y-78833333D01*
X86978628Y-78833333D02*
X86978628Y-79214285D01*
X87454819Y-77690476D02*
X87454819Y-78261904D01*
X87454819Y-77976190D02*
X86454819Y-77976190D01*
X86454819Y-77976190D02*
X86597676Y-78071428D01*
X86597676Y-78071428D02*
X86692914Y-78166666D01*
X86692914Y-78166666D02*
X86740533Y-78261904D01*
X86454819Y-77071428D02*
X86454819Y-76976190D01*
X86454819Y-76976190D02*
X86502438Y-76880952D01*
X86502438Y-76880952D02*
X86550057Y-76833333D01*
X86550057Y-76833333D02*
X86645295Y-76785714D01*
X86645295Y-76785714D02*
X86835771Y-76738095D01*
X86835771Y-76738095D02*
X87073866Y-76738095D01*
X87073866Y-76738095D02*
X87264342Y-76785714D01*
X87264342Y-76785714D02*
X87359580Y-76833333D01*
X87359580Y-76833333D02*
X87407200Y-76880952D01*
X87407200Y-76880952D02*
X87454819Y-76976190D01*
X87454819Y-76976190D02*
X87454819Y-77071428D01*
X87454819Y-77071428D02*
X87407200Y-77166666D01*
X87407200Y-77166666D02*
X87359580Y-77214285D01*
X87359580Y-77214285D02*
X87264342Y-77261904D01*
X87264342Y-77261904D02*
X87073866Y-77309523D01*
X87073866Y-77309523D02*
X86835771Y-77309523D01*
X86835771Y-77309523D02*
X86645295Y-77261904D01*
X86645295Y-77261904D02*
X86550057Y-77214285D01*
X86550057Y-77214285D02*
X86502438Y-77166666D01*
X86502438Y-77166666D02*
X86454819Y-77071428D01*
X84992142Y-83929819D02*
X84658809Y-83453628D01*
X84420714Y-83929819D02*
X84420714Y-82929819D01*
X84420714Y-82929819D02*
X84801666Y-82929819D01*
X84801666Y-82929819D02*
X84896904Y-82977438D01*
X84896904Y-82977438D02*
X84944523Y-83025057D01*
X84944523Y-83025057D02*
X84992142Y-83120295D01*
X84992142Y-83120295D02*
X84992142Y-83263152D01*
X84992142Y-83263152D02*
X84944523Y-83358390D01*
X84944523Y-83358390D02*
X84896904Y-83406009D01*
X84896904Y-83406009D02*
X84801666Y-83453628D01*
X84801666Y-83453628D02*
X84420714Y-83453628D01*
X85944523Y-83929819D02*
X85373095Y-83929819D01*
X85658809Y-83929819D02*
X85658809Y-82929819D01*
X85658809Y-82929819D02*
X85563571Y-83072676D01*
X85563571Y-83072676D02*
X85468333Y-83167914D01*
X85468333Y-83167914D02*
X85373095Y-83215533D01*
X86801666Y-83263152D02*
X86801666Y-83929819D01*
X86563571Y-82882200D02*
X86325476Y-83596485D01*
X86325476Y-83596485D02*
X86944523Y-83596485D01*
X60524819Y-50261904D02*
X61334342Y-50261904D01*
X61334342Y-50261904D02*
X61429580Y-50214285D01*
X61429580Y-50214285D02*
X61477200Y-50166666D01*
X61477200Y-50166666D02*
X61524819Y-50071428D01*
X61524819Y-50071428D02*
X61524819Y-49880952D01*
X61524819Y-49880952D02*
X61477200Y-49785714D01*
X61477200Y-49785714D02*
X61429580Y-49738095D01*
X61429580Y-49738095D02*
X61334342Y-49690476D01*
X61334342Y-49690476D02*
X60524819Y-49690476D01*
X61524819Y-48690476D02*
X61524819Y-49261904D01*
X61524819Y-48976190D02*
X60524819Y-48976190D01*
X60524819Y-48976190D02*
X60667676Y-49071428D01*
X60667676Y-49071428D02*
X60762914Y-49166666D01*
X60762914Y-49166666D02*
X60810533Y-49261904D01*
X27357142Y-34484580D02*
X27309523Y-34532200D01*
X27309523Y-34532200D02*
X27166666Y-34579819D01*
X27166666Y-34579819D02*
X27071428Y-34579819D01*
X27071428Y-34579819D02*
X26928571Y-34532200D01*
X26928571Y-34532200D02*
X26833333Y-34436961D01*
X26833333Y-34436961D02*
X26785714Y-34341723D01*
X26785714Y-34341723D02*
X26738095Y-34151247D01*
X26738095Y-34151247D02*
X26738095Y-34008390D01*
X26738095Y-34008390D02*
X26785714Y-33817914D01*
X26785714Y-33817914D02*
X26833333Y-33722676D01*
X26833333Y-33722676D02*
X26928571Y-33627438D01*
X26928571Y-33627438D02*
X27071428Y-33579819D01*
X27071428Y-33579819D02*
X27166666Y-33579819D01*
X27166666Y-33579819D02*
X27309523Y-33627438D01*
X27309523Y-33627438D02*
X27357142Y-33675057D01*
X28309523Y-34579819D02*
X27738095Y-34579819D01*
X28023809Y-34579819D02*
X28023809Y-33579819D01*
X28023809Y-33579819D02*
X27928571Y-33722676D01*
X27928571Y-33722676D02*
X27833333Y-33817914D01*
X27833333Y-33817914D02*
X27738095Y-33865533D01*
X28880952Y-34008390D02*
X28785714Y-33960771D01*
X28785714Y-33960771D02*
X28738095Y-33913152D01*
X28738095Y-33913152D02*
X28690476Y-33817914D01*
X28690476Y-33817914D02*
X28690476Y-33770295D01*
X28690476Y-33770295D02*
X28738095Y-33675057D01*
X28738095Y-33675057D02*
X28785714Y-33627438D01*
X28785714Y-33627438D02*
X28880952Y-33579819D01*
X28880952Y-33579819D02*
X29071428Y-33579819D01*
X29071428Y-33579819D02*
X29166666Y-33627438D01*
X29166666Y-33627438D02*
X29214285Y-33675057D01*
X29214285Y-33675057D02*
X29261904Y-33770295D01*
X29261904Y-33770295D02*
X29261904Y-33817914D01*
X29261904Y-33817914D02*
X29214285Y-33913152D01*
X29214285Y-33913152D02*
X29166666Y-33960771D01*
X29166666Y-33960771D02*
X29071428Y-34008390D01*
X29071428Y-34008390D02*
X28880952Y-34008390D01*
X28880952Y-34008390D02*
X28785714Y-34056009D01*
X28785714Y-34056009D02*
X28738095Y-34103628D01*
X28738095Y-34103628D02*
X28690476Y-34198866D01*
X28690476Y-34198866D02*
X28690476Y-34389342D01*
X28690476Y-34389342D02*
X28738095Y-34484580D01*
X28738095Y-34484580D02*
X28785714Y-34532200D01*
X28785714Y-34532200D02*
X28880952Y-34579819D01*
X28880952Y-34579819D02*
X29071428Y-34579819D01*
X29071428Y-34579819D02*
X29166666Y-34532200D01*
X29166666Y-34532200D02*
X29214285Y-34484580D01*
X29214285Y-34484580D02*
X29261904Y-34389342D01*
X29261904Y-34389342D02*
X29261904Y-34198866D01*
X29261904Y-34198866D02*
X29214285Y-34103628D01*
X29214285Y-34103628D02*
X29166666Y-34056009D01*
X29166666Y-34056009D02*
X29071428Y-34008390D01*
X92104819Y-38936904D02*
X92914342Y-38936904D01*
X92914342Y-38936904D02*
X93009580Y-38889285D01*
X93009580Y-38889285D02*
X93057200Y-38841666D01*
X93057200Y-38841666D02*
X93104819Y-38746428D01*
X93104819Y-38746428D02*
X93104819Y-38555952D01*
X93104819Y-38555952D02*
X93057200Y-38460714D01*
X93057200Y-38460714D02*
X93009580Y-38413095D01*
X93009580Y-38413095D02*
X92914342Y-38365476D01*
X92914342Y-38365476D02*
X92104819Y-38365476D01*
X92104819Y-37984523D02*
X92104819Y-37365476D01*
X92104819Y-37365476D02*
X92485771Y-37698809D01*
X92485771Y-37698809D02*
X92485771Y-37555952D01*
X92485771Y-37555952D02*
X92533390Y-37460714D01*
X92533390Y-37460714D02*
X92581009Y-37413095D01*
X92581009Y-37413095D02*
X92676247Y-37365476D01*
X92676247Y-37365476D02*
X92914342Y-37365476D01*
X92914342Y-37365476D02*
X93009580Y-37413095D01*
X93009580Y-37413095D02*
X93057200Y-37460714D01*
X93057200Y-37460714D02*
X93104819Y-37555952D01*
X93104819Y-37555952D02*
X93104819Y-37841666D01*
X93104819Y-37841666D02*
X93057200Y-37936904D01*
X93057200Y-37936904D02*
X93009580Y-37984523D01*
X61761905Y-18454819D02*
X61761905Y-17454819D01*
X61761905Y-17454819D02*
X62000000Y-17454819D01*
X62000000Y-17454819D02*
X62142857Y-17502438D01*
X62142857Y-17502438D02*
X62238095Y-17597676D01*
X62238095Y-17597676D02*
X62285714Y-17692914D01*
X62285714Y-17692914D02*
X62333333Y-17883390D01*
X62333333Y-17883390D02*
X62333333Y-18026247D01*
X62333333Y-18026247D02*
X62285714Y-18216723D01*
X62285714Y-18216723D02*
X62238095Y-18311961D01*
X62238095Y-18311961D02*
X62142857Y-18407200D01*
X62142857Y-18407200D02*
X62000000Y-18454819D01*
X62000000Y-18454819D02*
X61761905Y-18454819D01*
X63190476Y-17454819D02*
X63000000Y-17454819D01*
X63000000Y-17454819D02*
X62904762Y-17502438D01*
X62904762Y-17502438D02*
X62857143Y-17550057D01*
X62857143Y-17550057D02*
X62761905Y-17692914D01*
X62761905Y-17692914D02*
X62714286Y-17883390D01*
X62714286Y-17883390D02*
X62714286Y-18264342D01*
X62714286Y-18264342D02*
X62761905Y-18359580D01*
X62761905Y-18359580D02*
X62809524Y-18407200D01*
X62809524Y-18407200D02*
X62904762Y-18454819D01*
X62904762Y-18454819D02*
X63095238Y-18454819D01*
X63095238Y-18454819D02*
X63190476Y-18407200D01*
X63190476Y-18407200D02*
X63238095Y-18359580D01*
X63238095Y-18359580D02*
X63285714Y-18264342D01*
X63285714Y-18264342D02*
X63285714Y-18026247D01*
X63285714Y-18026247D02*
X63238095Y-17931009D01*
X63238095Y-17931009D02*
X63190476Y-17883390D01*
X63190476Y-17883390D02*
X63095238Y-17835771D01*
X63095238Y-17835771D02*
X62904762Y-17835771D01*
X62904762Y-17835771D02*
X62809524Y-17883390D01*
X62809524Y-17883390D02*
X62761905Y-17931009D01*
X62761905Y-17931009D02*
X62714286Y-18026247D01*
X18454819Y-50791666D02*
X17978628Y-51124999D01*
X18454819Y-51363094D02*
X17454819Y-51363094D01*
X17454819Y-51363094D02*
X17454819Y-50982142D01*
X17454819Y-50982142D02*
X17502438Y-50886904D01*
X17502438Y-50886904D02*
X17550057Y-50839285D01*
X17550057Y-50839285D02*
X17645295Y-50791666D01*
X17645295Y-50791666D02*
X17788152Y-50791666D01*
X17788152Y-50791666D02*
X17883390Y-50839285D01*
X17883390Y-50839285D02*
X17931009Y-50886904D01*
X17931009Y-50886904D02*
X17978628Y-50982142D01*
X17978628Y-50982142D02*
X17978628Y-51363094D01*
X18454819Y-49839285D02*
X18454819Y-50410713D01*
X18454819Y-50124999D02*
X17454819Y-50124999D01*
X17454819Y-50124999D02*
X17597676Y-50220237D01*
X17597676Y-50220237D02*
X17692914Y-50315475D01*
X17692914Y-50315475D02*
X17740533Y-50410713D01*
D10*
%TO.C,BT1*%
X31238752Y-31945483D02*
X33980431Y-31945483D01*
X31238752Y-31945483D02*
X31239227Y-23999591D01*
X31239227Y-23999591D02*
X33980431Y-23999591D01*
X55968500Y-28000000D02*
G75*
G02*
X33603500Y-28000000I-11182500J0D01*
G01*
X33603500Y-28000000D02*
G75*
G02*
X55968500Y-28000000I11182500J0D01*
G01*
D12*
%TO.C,R18*%
X62153641Y-27120000D02*
X61846359Y-27120000D01*
X62153641Y-27880000D02*
X61846359Y-27880000D01*
%TO.C,D7*%
X41010000Y-70350000D02*
X35500000Y-70350000D01*
X41010000Y-73650000D02*
X35500000Y-73650000D01*
X41010000Y-73650000D02*
X41010000Y-70350000D01*
%TO.C,U6*%
X26650000Y-38090000D02*
X30410000Y-38090000D01*
X26650000Y-44910000D02*
X30410000Y-44910000D01*
X30410000Y-38090000D02*
X30410000Y-39350000D01*
X30410000Y-44910000D02*
X30410000Y-43650000D01*
X25370000Y-38190000D02*
X25130000Y-37860000D01*
X25610000Y-37860000D01*
X25370000Y-38190000D01*
G36*
X25370000Y-38190000D02*
G01*
X25130000Y-37860000D01*
X25610000Y-37860000D01*
X25370000Y-38190000D01*
G37*
D13*
%TO.C,C4*%
X17250000Y-72250000D02*
X17250000Y-77680000D01*
X17250000Y-80320000D02*
X17250000Y-85750000D01*
X17250000Y-85750000D02*
X28550000Y-85750000D01*
X28550000Y-72250000D02*
X17250000Y-72250000D01*
X28550000Y-85750000D02*
X30750000Y-83550000D01*
X30750000Y-74450000D02*
X28550000Y-72250000D01*
X30750000Y-77680000D02*
X30750000Y-74450000D01*
X30750000Y-83550000D02*
X30750000Y-80320000D01*
D14*
X32000000Y-81100000D02*
G75*
G02*
X31800000Y-81100000I-100000J0D01*
G01*
X31800000Y-81100000D02*
G75*
G02*
X32000000Y-81100000I100000J0D01*
G01*
D12*
%TO.C,J2*%
X33805000Y-85112500D02*
X33805000Y-97332500D01*
X33805000Y-94032500D02*
X46185000Y-94032500D01*
X33805000Y-95832500D02*
X33805000Y-94032500D01*
X33805000Y-97332500D02*
X46185000Y-97332500D01*
X36455000Y-97332500D02*
X38455000Y-97332500D01*
X36705000Y-95832500D02*
X36455000Y-97332500D01*
X37155000Y-84312500D02*
X37755000Y-84312500D01*
X37455000Y-84912500D02*
X37155000Y-84312500D01*
X37755000Y-84312500D02*
X37455000Y-84912500D01*
X38205000Y-95832500D02*
X36705000Y-95832500D01*
X38455000Y-97332500D02*
X38205000Y-95832500D01*
X41535000Y-97332500D02*
X43535000Y-97332500D01*
X41785000Y-95832500D02*
X41535000Y-97332500D01*
X43285000Y-95832500D02*
X41785000Y-95832500D01*
X43535000Y-97332500D02*
X43285000Y-95832500D01*
X46185000Y-85112500D02*
X33805000Y-85112500D01*
X46185000Y-94032500D02*
X46185000Y-95832500D01*
X46185000Y-95832500D02*
X33805000Y-95832500D01*
X46185000Y-97332500D02*
X46185000Y-85112500D01*
%TO.C,U7*%
X27585000Y-58800000D02*
X28950000Y-58800000D01*
X27585000Y-69200000D02*
X28950000Y-69200000D01*
X28950000Y-58800000D02*
X28950000Y-59750000D01*
X28950000Y-69200000D02*
X28950000Y-68250000D01*
X32115000Y-68680000D02*
X31435000Y-68680000D01*
X31775000Y-68210000D01*
X32115000Y-68680000D01*
G36*
X32115000Y-68680000D02*
G01*
X31435000Y-68680000D01*
X31775000Y-68210000D01*
X32115000Y-68680000D01*
G37*
%TO.C,D3*%
X21040000Y-44377500D02*
X21040000Y-47062500D01*
X22960000Y-44377500D02*
X21040000Y-44377500D01*
X22960000Y-47062500D02*
X22960000Y-44377500D01*
%TO.C,R13*%
X51477500Y-58737258D02*
X51477500Y-58262742D01*
X52522500Y-58737258D02*
X52522500Y-58262742D01*
%TO.C,R9*%
X63262742Y-43977500D02*
X63737258Y-43977500D01*
X63262742Y-45022500D02*
X63737258Y-45022500D01*
%TO.C,C13*%
X79715580Y-23665000D02*
X79434420Y-23665000D01*
X79715580Y-24685000D02*
X79434420Y-24685000D01*
%TO.C,R3*%
X77255000Y-77153641D02*
X77255000Y-76846359D01*
X78015000Y-77153641D02*
X78015000Y-76846359D01*
%TO.C,C10*%
X92740000Y-34815580D02*
X92740000Y-34534420D01*
X93760000Y-34815580D02*
X93760000Y-34534420D01*
%TO.C,C8*%
X76740000Y-41534420D02*
X76740000Y-41815580D01*
X77760000Y-41534420D02*
X77760000Y-41815580D01*
%TO.C,C5*%
X88390580Y-27165000D02*
X88109420Y-27165000D01*
X88390580Y-28185000D02*
X88109420Y-28185000D01*
%TO.C,R25*%
X57477500Y-32262742D02*
X57477500Y-32737258D01*
X58522500Y-32262742D02*
X58522500Y-32737258D01*
%TO.C,R15*%
X78981359Y-83095000D02*
X79288641Y-83095000D01*
X78981359Y-83855000D02*
X79288641Y-83855000D01*
%TO.C,R17*%
X19477500Y-45762742D02*
X19477500Y-46237258D01*
X20522500Y-45762742D02*
X20522500Y-46237258D01*
%TO.C,R5*%
X80880276Y-81477500D02*
X81389724Y-81477500D01*
X80880276Y-82522500D02*
X81389724Y-82522500D01*
%TO.C,U5*%
X60440000Y-33000000D02*
X60440000Y-31050000D01*
X60440000Y-33000000D02*
X60440000Y-34950000D01*
X65560000Y-33000000D02*
X65560000Y-31050000D01*
X65560000Y-33000000D02*
X65560000Y-34950000D01*
X60535000Y-35700000D02*
X60205000Y-35940000D01*
X60205000Y-35460000D01*
X60535000Y-35700000D01*
G36*
X60535000Y-35700000D02*
G01*
X60205000Y-35940000D01*
X60205000Y-35460000D01*
X60535000Y-35700000D01*
G37*
%TO.C,C14*%
X82609420Y-29665000D02*
X82890580Y-29665000D01*
X82609420Y-30685000D02*
X82890580Y-30685000D01*
%TO.C,R21*%
X64822936Y-66290000D02*
X69177064Y-66290000D01*
X64822936Y-69710000D02*
X69177064Y-69710000D01*
%TO.C,C15*%
X75740000Y-28815580D02*
X75740000Y-28534420D01*
X76760000Y-28815580D02*
X76760000Y-28534420D01*
%TO.C,D2*%
X32840000Y-76850000D02*
X32840000Y-81150000D01*
X32840000Y-76850000D02*
X38650000Y-76850000D01*
X32840000Y-81150000D02*
X38650000Y-81150000D01*
%TO.C,C3*%
X71045000Y-40680000D02*
X71045000Y-44600000D01*
X72955000Y-40680000D02*
X71045000Y-40680000D01*
X72955000Y-44600000D02*
X72955000Y-40680000D01*
%TO.C,R16*%
X60737258Y-24477500D02*
X60262742Y-24477500D01*
X60737258Y-25522500D02*
X60262742Y-25522500D01*
%TO.C,R6*%
X79337742Y-25152500D02*
X79812258Y-25152500D01*
X79337742Y-26197500D02*
X79812258Y-26197500D01*
%TO.C,R26*%
X64737258Y-24477500D02*
X64262742Y-24477500D01*
X64737258Y-25522500D02*
X64262742Y-25522500D01*
%TO.C,C11*%
X90390580Y-30165000D02*
X90109420Y-30165000D01*
X90390580Y-31185000D02*
X90109420Y-31185000D01*
%TO.C,U9*%
X64890000Y-62000000D02*
X64890000Y-60500000D01*
X64890000Y-62000000D02*
X64890000Y-63500000D01*
X68110000Y-62000000D02*
X68110000Y-60500000D01*
X68110000Y-62000000D02*
X68110000Y-63500000D01*
X68240000Y-60027500D02*
X67910000Y-59787500D01*
X68240000Y-59547500D01*
X68240000Y-60027500D01*
G36*
X68240000Y-60027500D02*
G01*
X67910000Y-59787500D01*
X68240000Y-59547500D01*
X68240000Y-60027500D01*
G37*
%TO.C,R4*%
X18977500Y-54262742D02*
X18977500Y-54737258D01*
X20022500Y-54262742D02*
X20022500Y-54737258D01*
%TO.C,R12*%
X49477500Y-58737258D02*
X49477500Y-58262742D01*
X50522500Y-58737258D02*
X50522500Y-58262742D01*
%TO.C,R19*%
X64977500Y-55737258D02*
X64977500Y-55262742D01*
X66022500Y-55737258D02*
X66022500Y-55262742D01*
%TO.C,C1*%
X74140580Y-66490000D02*
X73859420Y-66490000D01*
X74140580Y-67510000D02*
X73859420Y-67510000D01*
%TO.C,U4*%
X72525000Y-59940000D02*
X70575000Y-59940000D01*
X72525000Y-59940000D02*
X74475000Y-59940000D01*
X72525000Y-65060000D02*
X70575000Y-65060000D01*
X72525000Y-65060000D02*
X74475000Y-65060000D01*
X69825000Y-60035000D02*
X69585000Y-59705000D01*
X70065000Y-59705000D01*
X69825000Y-60035000D01*
G36*
X69825000Y-60035000D02*
G01*
X69585000Y-59705000D01*
X70065000Y-59705000D01*
X69825000Y-60035000D01*
G37*
%TO.C,R23*%
X56977500Y-36237258D02*
X56977500Y-35762742D01*
X58022500Y-36237258D02*
X58022500Y-35762742D01*
%TO.C,R7*%
X94870000Y-35828641D02*
X94870000Y-35521359D01*
X95630000Y-35828641D02*
X95630000Y-35521359D01*
%TO.C,C9*%
X88859420Y-45990000D02*
X89140580Y-45990000D01*
X88859420Y-47010000D02*
X89140580Y-47010000D01*
%TO.C,Y2*%
X83990000Y-26535000D02*
X89860000Y-26535000D01*
X89860000Y-22815000D02*
X83990000Y-22815000D01*
X89860000Y-26535000D02*
X89860000Y-22815000D01*
%TO.C,R11*%
X84120000Y-76653641D02*
X84120000Y-76346359D01*
X84880000Y-76653641D02*
X84880000Y-76346359D01*
%TO.C,C7*%
X76740000Y-35034420D02*
X76740000Y-35315580D01*
X77760000Y-35034420D02*
X77760000Y-35315580D01*
%TO.C,U8*%
X62700000Y-54950000D02*
X55300000Y-54950000D01*
X62700000Y-59050000D02*
X55300000Y-59050000D01*
X63990000Y-59255000D02*
X63510000Y-59255000D01*
X63750000Y-58925000D01*
X63990000Y-59255000D01*
G36*
X63990000Y-59255000D02*
G01*
X63510000Y-59255000D01*
X63750000Y-58925000D01*
X63990000Y-59255000D01*
G37*
%TO.C,C6*%
X85109420Y-27165000D02*
X85390580Y-27165000D01*
X85109420Y-28185000D02*
X85390580Y-28185000D01*
%TO.C,L1*%
X36240000Y-57740000D02*
X39890000Y-57740000D01*
X36240000Y-68260000D02*
X36240000Y-57740000D01*
X39890000Y-68260000D02*
X36240000Y-68260000D01*
X43110000Y-57740000D02*
X46760000Y-57740000D01*
X46760000Y-57740000D02*
X46760000Y-68260000D01*
X46760000Y-68260000D02*
X43110000Y-68260000D01*
%TO.C,RL1*%
X46422500Y-83677500D02*
X46422500Y-81337500D01*
X46662500Y-70437500D02*
X46662500Y-83437500D01*
X46662500Y-83437500D02*
X75462500Y-83437500D01*
X48462500Y-76587500D02*
X48462500Y-77287500D01*
X48462500Y-77287500D02*
X49662500Y-77287500D01*
X48762500Y-83677500D02*
X46422500Y-83677500D01*
X49262500Y-77287500D02*
X48862500Y-76587500D01*
X49662500Y-76587500D02*
X48462500Y-76587500D01*
X49662500Y-77287500D02*
X49662500Y-76587500D01*
X75462500Y-70437500D02*
X46662500Y-70437500D01*
X75462500Y-83437500D02*
X75462500Y-70437500D01*
%TO.C,Y1*%
X62361079Y-37125000D02*
X61011079Y-37125000D01*
X62361079Y-38875000D02*
X61011079Y-38875000D01*
%TO.C,R2*%
X67762742Y-27977500D02*
X68237258Y-27977500D01*
X67762742Y-29022500D02*
X68237258Y-29022500D01*
%TO.C,C2*%
X60640000Y-52392164D02*
X60640000Y-52607836D01*
X61360000Y-52392164D02*
X61360000Y-52607836D01*
%TO.C,D5*%
X50490000Y-66350000D02*
X50490000Y-69650000D01*
X50490000Y-66350000D02*
X56000000Y-66350000D01*
X50490000Y-69650000D02*
X56000000Y-69650000D01*
%TO.C,U2*%
X78575000Y-77000000D02*
X78575000Y-75050000D01*
X78575000Y-77000000D02*
X78575000Y-78950000D01*
X83695000Y-77000000D02*
X83695000Y-75050000D01*
X83695000Y-77000000D02*
X83695000Y-78950000D01*
X83930000Y-74540000D02*
X83600000Y-74300000D01*
X83930000Y-74060000D01*
X83930000Y-74540000D01*
G36*
X83930000Y-74540000D02*
G01*
X83600000Y-74300000D01*
X83930000Y-74060000D01*
X83930000Y-74540000D01*
G37*
%TO.C,C21*%
X63640000Y-61892164D02*
X63640000Y-62107836D01*
X64360000Y-61892164D02*
X64360000Y-62107836D01*
%TO.C,J1*%
X57831720Y-85119145D02*
X57831720Y-97339145D01*
X57831720Y-94039145D02*
X75291720Y-94039145D01*
X57831720Y-95839145D02*
X57831720Y-94039145D01*
X57831720Y-97339145D02*
X75291720Y-97339145D01*
X60481720Y-97339145D02*
X62481720Y-97339145D01*
X60731720Y-95839145D02*
X60481720Y-97339145D01*
X61181720Y-84319145D02*
X61781720Y-84319145D01*
X61481720Y-84919145D02*
X61181720Y-84319145D01*
X61781720Y-84319145D02*
X61481720Y-84919145D01*
X62231720Y-95839145D02*
X60731720Y-95839145D01*
X62481720Y-97339145D02*
X62231720Y-95839145D01*
X65561720Y-97339145D02*
X67561720Y-97339145D01*
X65811720Y-95839145D02*
X65561720Y-97339145D01*
X67311720Y-95839145D02*
X65811720Y-95839145D01*
X67561720Y-97339145D02*
X67311720Y-95839145D01*
X70641720Y-97339145D02*
X72641720Y-97339145D01*
X70891720Y-95839145D02*
X70641720Y-97339145D01*
X72391720Y-95839145D02*
X70891720Y-95839145D01*
X72641720Y-97339145D02*
X72391720Y-95839145D01*
X75291720Y-85119145D02*
X57831720Y-85119145D01*
X75291720Y-94039145D02*
X75291720Y-95839145D01*
X75291720Y-95839145D02*
X57831720Y-95839145D01*
X75291720Y-97339145D02*
X75291720Y-85119145D01*
%TO.C,Q1*%
X49440000Y-62500000D02*
X49440000Y-61850000D01*
X49440000Y-62500000D02*
X49440000Y-63150000D01*
X52560000Y-62500000D02*
X52560000Y-61850000D01*
X52560000Y-62500000D02*
X52560000Y-63150000D01*
X52840000Y-61577500D02*
X52510000Y-61337500D01*
X52840000Y-61097500D01*
X52840000Y-61577500D01*
G36*
X52840000Y-61577500D02*
G01*
X52510000Y-61337500D01*
X52840000Y-61097500D01*
X52840000Y-61577500D01*
G37*
%TO.C,C12*%
X84140000Y-78892164D02*
X84140000Y-79107836D01*
X84860000Y-78892164D02*
X84860000Y-79107836D01*
%TO.C,R8*%
X68237258Y-29977500D02*
X67762742Y-29977500D01*
X68237258Y-31022500D02*
X67762742Y-31022500D01*
%TO.C,J4*%
X108120000Y-25500000D02*
X109500000Y-25500000D01*
X108120000Y-26880000D02*
X108120000Y-25500000D01*
X108120000Y-28150000D02*
X108120000Y-38420000D01*
X108120000Y-28150000D02*
X110880000Y-28150000D01*
X108120000Y-38420000D02*
X110880000Y-38420000D01*
X110880000Y-28150000D02*
X110880000Y-38420000D01*
%TO.C,D1*%
X21040000Y-52815000D02*
X21040000Y-55500000D01*
X22960000Y-52815000D02*
X21040000Y-52815000D01*
X22960000Y-55500000D02*
X22960000Y-52815000D01*
%TO.C,J5*%
X76710000Y-48090000D02*
X85830000Y-48090000D01*
X76710000Y-71210000D02*
X76710000Y-48090000D01*
X78020000Y-49390000D02*
X84520000Y-49390000D01*
X78020000Y-69910000D02*
X78020000Y-49390000D01*
X84520000Y-49390000D02*
X84520000Y-57600000D01*
X84520000Y-57600000D02*
X85830000Y-57600000D01*
X84520000Y-61700000D02*
X84520000Y-69910000D01*
X84520000Y-69910000D02*
X78020000Y-69910000D01*
X85830000Y-48090000D02*
X85830000Y-71210000D01*
X85830000Y-61700000D02*
X84520000Y-61700000D01*
X85830000Y-71210000D02*
X76710000Y-71210000D01*
X86220000Y-66000000D02*
X87220000Y-66500000D01*
X87220000Y-65500000D02*
X86220000Y-66000000D01*
X87220000Y-66500000D02*
X87220000Y-65500000D01*
%TO.C,C17*%
X26680000Y-45670000D02*
X26680000Y-47580000D01*
X26680000Y-47580000D02*
X30600000Y-47580000D01*
X30600000Y-45670000D02*
X26680000Y-45670000D01*
%TO.C,C19*%
X53990000Y-61640580D02*
X53990000Y-61359420D01*
X55010000Y-61640580D02*
X55010000Y-61359420D01*
%TO.C,D4*%
X21040000Y-48877500D02*
X21040000Y-51562500D01*
X22960000Y-48877500D02*
X21040000Y-48877500D01*
X22960000Y-51562500D02*
X22960000Y-48877500D01*
%TO.C,C16*%
X28090000Y-49090000D02*
X28090000Y-51440000D01*
X28090000Y-55910000D02*
X28090000Y-53560000D01*
X33845563Y-49090000D02*
X28090000Y-49090000D01*
X33845563Y-55910000D02*
X28090000Y-55910000D01*
X34910000Y-50154437D02*
X33845563Y-49090000D01*
X34910000Y-50154437D02*
X34910000Y-51440000D01*
X34910000Y-54845563D02*
X33845563Y-55910000D01*
X34910000Y-54845563D02*
X34910000Y-53560000D01*
X35543750Y-54741250D02*
X35543750Y-53953750D01*
X35937500Y-54347500D02*
X35150000Y-54347500D01*
%TO.C,J3*%
X76265000Y-85112500D02*
X76265000Y-97332500D01*
X76265000Y-94032500D02*
X93725000Y-94032500D01*
X76265000Y-95832500D02*
X76265000Y-94032500D01*
X76265000Y-97332500D02*
X93725000Y-97332500D01*
X78915000Y-97332500D02*
X80915000Y-97332500D01*
X79165000Y-95832500D02*
X78915000Y-97332500D01*
X79615000Y-84312500D02*
X80215000Y-84312500D01*
X79915000Y-84912500D02*
X79615000Y-84312500D01*
X80215000Y-84312500D02*
X79915000Y-84912500D01*
X80665000Y-95832500D02*
X79165000Y-95832500D01*
X80915000Y-97332500D02*
X80665000Y-95832500D01*
X83995000Y-97332500D02*
X85995000Y-97332500D01*
X84245000Y-95832500D02*
X83995000Y-97332500D01*
X85745000Y-95832500D02*
X84245000Y-95832500D01*
X85995000Y-97332500D02*
X85745000Y-95832500D01*
X89075000Y-97332500D02*
X91075000Y-97332500D01*
X89325000Y-95832500D02*
X89075000Y-97332500D01*
X90825000Y-95832500D02*
X89325000Y-95832500D01*
X91075000Y-97332500D02*
X90825000Y-95832500D01*
X93725000Y-85112500D02*
X76265000Y-85112500D01*
X93725000Y-94032500D02*
X93725000Y-95832500D01*
X93725000Y-95832500D02*
X76265000Y-95832500D01*
X93725000Y-97332500D02*
X93725000Y-85112500D01*
%TO.C,R10*%
X85255000Y-77846359D02*
X85255000Y-78153641D01*
X86015000Y-77846359D02*
X86015000Y-78153641D01*
%TO.C,R14*%
X83288641Y-83095000D02*
X82981359Y-83095000D01*
X83288641Y-83855000D02*
X82981359Y-83855000D01*
%TO.C,U1*%
X61910000Y-49500000D02*
X61910000Y-47620000D01*
X61910000Y-49500000D02*
X61910000Y-51380000D01*
X67090000Y-49500000D02*
X67090000Y-47620000D01*
X67090000Y-49500000D02*
X67090000Y-51380000D01*
X62010000Y-52202500D02*
X61680000Y-52442500D01*
X61680000Y-51962500D01*
X62010000Y-52202500D01*
G36*
X62010000Y-52202500D02*
G01*
X61680000Y-52442500D01*
X61680000Y-51962500D01*
X62010000Y-52202500D01*
G37*
%TO.C,C18*%
X27400000Y-37080000D02*
X31320000Y-37080000D01*
X31320000Y-35170000D02*
X27400000Y-35170000D01*
X31320000Y-37080000D02*
X31320000Y-35170000D01*
%TO.C,U3*%
X80140000Y-33065000D02*
X81090000Y-33065000D01*
X80140000Y-34015000D02*
X80140000Y-33065000D01*
X80140000Y-42335000D02*
X80140000Y-43285000D01*
X80140000Y-43285000D02*
X81090000Y-43285000D01*
X90360000Y-33065000D02*
X89410000Y-33065000D01*
X90360000Y-34015000D02*
X90360000Y-33065000D01*
X90360000Y-42335000D02*
X90360000Y-43285000D01*
X90360000Y-43285000D02*
X89410000Y-43285000D01*
X89880000Y-32790000D02*
X89410000Y-32450000D01*
X89880000Y-32110000D01*
X89880000Y-32790000D01*
G36*
X89880000Y-32790000D02*
G01*
X89410000Y-32450000D01*
X89880000Y-32110000D01*
X89880000Y-32790000D01*
G37*
%TO.C,D6*%
X60140000Y-19000000D02*
X60140000Y-21000000D01*
X60140000Y-19000000D02*
X64150000Y-19000000D01*
X60140000Y-21000000D02*
X64150000Y-21000000D01*
%TO.C,R1*%
X19252500Y-50387742D02*
X19252500Y-50862258D01*
X20297500Y-50387742D02*
X20297500Y-50862258D01*
%TD*%
%LPC*%
D15*
%TO.C,BT1*%
X32500100Y-28000000D03*
D16*
X52500000Y-28000000D03*
%TD*%
D17*
%TO.C,R18*%
X62510000Y-27500000D03*
X61490000Y-27500000D03*
%TD*%
D18*
%TO.C,D7*%
X39500000Y-72000000D03*
X35500000Y-72000000D03*
%TD*%
D19*
%TO.C,U6*%
X25350000Y-39200000D03*
X25350000Y-41500000D03*
D20*
X31650000Y-41500000D03*
D19*
X25350000Y-43800000D03*
%TD*%
D21*
%TO.C,C4*%
X28850000Y-79000000D03*
X19150000Y-79000000D03*
%TD*%
D22*
%TO.C,J2*%
X37455000Y-87222500D03*
D23*
X42535000Y-87222500D03*
%TD*%
D24*
%TO.C,U7*%
X31775000Y-67400000D03*
X31775000Y-65700000D03*
X31775000Y-64000000D03*
D25*
X22625000Y-64000000D03*
D24*
X31775000Y-62300000D03*
X31775000Y-60600000D03*
%TD*%
D26*
%TO.C,D3*%
X22000000Y-45125000D03*
X22000000Y-47000000D03*
%TD*%
D27*
%TO.C,R13*%
X52000000Y-59325000D03*
X52000000Y-57675000D03*
%TD*%
D28*
%TO.C,R9*%
X62675000Y-44500000D03*
X64325000Y-44500000D03*
%TD*%
D29*
%TO.C,C13*%
X80350000Y-24175000D03*
X78800000Y-24175000D03*
%TD*%
D30*
%TO.C,R3*%
X77635000Y-77510000D03*
X77635000Y-76490000D03*
%TD*%
D31*
%TO.C,REF\u002A\u002A*%
X99000000Y-20500000D03*
%TD*%
D32*
%TO.C,C10*%
X93250000Y-35450000D03*
X93250000Y-33900000D03*
%TD*%
D33*
%TO.C,C8*%
X77250000Y-40900000D03*
X77250000Y-42450000D03*
%TD*%
D29*
%TO.C,C5*%
X89025000Y-27675000D03*
X87475000Y-27675000D03*
%TD*%
D34*
%TO.C,R25*%
X58000000Y-31675000D03*
X58000000Y-33325000D03*
%TD*%
D35*
%TO.C,R15*%
X78625000Y-83475000D03*
X79645000Y-83475000D03*
%TD*%
D34*
%TO.C,R17*%
X20000000Y-45175000D03*
X20000000Y-46825000D03*
%TD*%
D36*
%TO.C,R5*%
X80222500Y-82000000D03*
X82047500Y-82000000D03*
%TD*%
D37*
%TO.C,U5*%
X61095000Y-35475000D03*
X62365000Y-35475000D03*
X63635000Y-35475000D03*
X64905000Y-35475000D03*
X64905000Y-30525000D03*
X63635000Y-30525000D03*
X62365000Y-30525000D03*
X61095000Y-30525000D03*
%TD*%
D38*
%TO.C,C14*%
X81975000Y-30175000D03*
X83525000Y-30175000D03*
%TD*%
D39*
%TO.C,R21*%
X64037500Y-68000000D03*
X69962500Y-68000000D03*
%TD*%
D32*
%TO.C,C15*%
X76250000Y-29450000D03*
X76250000Y-27900000D03*
%TD*%
D40*
%TO.C,D2*%
X34350000Y-79000000D03*
X38650000Y-79000000D03*
%TD*%
D41*
%TO.C,C3*%
X72000000Y-41647500D03*
X72000000Y-44352500D03*
%TD*%
D42*
%TO.C,R16*%
X61325000Y-25000000D03*
X59675000Y-25000000D03*
%TD*%
D28*
%TO.C,R6*%
X78750000Y-25675000D03*
X80400000Y-25675000D03*
%TD*%
D42*
%TO.C,R26*%
X65325000Y-25000000D03*
X63675000Y-25000000D03*
%TD*%
D29*
%TO.C,C11*%
X91025000Y-30675000D03*
X89475000Y-30675000D03*
%TD*%
D43*
%TO.C,U9*%
X67500000Y-59800000D03*
X67000000Y-59800000D03*
X66500000Y-59800000D03*
X66000000Y-59800000D03*
X65500000Y-59800000D03*
X65500000Y-64200000D03*
X66000000Y-64200000D03*
X66500000Y-64200000D03*
X67000000Y-64200000D03*
X67500000Y-64200000D03*
%TD*%
D34*
%TO.C,R4*%
X19500000Y-53675000D03*
X19500000Y-55325000D03*
%TD*%
D27*
%TO.C,R12*%
X50000000Y-59325000D03*
X50000000Y-57675000D03*
%TD*%
%TO.C,R19*%
X65500000Y-56325000D03*
X65500000Y-54675000D03*
%TD*%
D29*
%TO.C,C1*%
X74775000Y-67000000D03*
X73225000Y-67000000D03*
%TD*%
D44*
%TO.C,U4*%
X70050000Y-60595000D03*
X70050000Y-61865000D03*
X70050000Y-63135000D03*
X70050000Y-64405000D03*
X75000000Y-64405000D03*
X75000000Y-63135000D03*
X75000000Y-61865000D03*
X75000000Y-60595000D03*
%TD*%
D27*
%TO.C,R23*%
X57500000Y-36825000D03*
X57500000Y-35175000D03*
%TD*%
D30*
%TO.C,R7*%
X95250000Y-36185000D03*
X95250000Y-35165000D03*
%TD*%
D38*
%TO.C,C9*%
X88225000Y-46500000D03*
X89775000Y-46500000D03*
%TD*%
D45*
%TO.C,Y2*%
X88600000Y-24675000D03*
X84900000Y-24675000D03*
%TD*%
D30*
%TO.C,R11*%
X84500000Y-77010000D03*
X84500000Y-75990000D03*
%TD*%
D33*
%TO.C,C7*%
X77250000Y-34400000D03*
X77250000Y-35950000D03*
%TD*%
D46*
%TO.C,U8*%
X63750000Y-58270000D03*
X63750000Y-57000000D03*
X63750000Y-55730000D03*
X54250000Y-55730000D03*
X54250000Y-57000000D03*
X54250000Y-58270000D03*
%TD*%
D38*
%TO.C,C6*%
X84475000Y-27675000D03*
X86025000Y-27675000D03*
%TD*%
D47*
%TO.C,L1*%
X41500000Y-67125000D03*
X41500000Y-58875000D03*
%TD*%
D48*
%TO.C,RL1*%
X49062500Y-80687500D03*
D49*
X64062500Y-80687500D03*
X69062500Y-80687500D03*
X74062500Y-80687500D03*
X74062500Y-73187500D03*
X69062500Y-73187500D03*
X64062500Y-73187500D03*
X49062500Y-73187500D03*
%TD*%
D50*
%TO.C,Y1*%
X60436079Y-38000000D03*
X62936079Y-38000000D03*
%TD*%
D28*
%TO.C,R2*%
X67175000Y-28500000D03*
X68825000Y-28500000D03*
%TD*%
D51*
%TO.C,C2*%
X61000000Y-52020000D03*
X61000000Y-52980000D03*
%TD*%
D52*
%TO.C,D5*%
X52000000Y-68000000D03*
X56000000Y-68000000D03*
%TD*%
D53*
%TO.C,U2*%
X83040000Y-74525000D03*
X81770000Y-74525000D03*
X80500000Y-74525000D03*
X79230000Y-74525000D03*
X79230000Y-79475000D03*
X80500000Y-79475000D03*
X81770000Y-79475000D03*
X83040000Y-79475000D03*
%TD*%
D51*
%TO.C,C21*%
X64000000Y-61520000D03*
X64000000Y-62480000D03*
%TD*%
D22*
%TO.C,J1*%
X61481720Y-87229145D03*
D23*
X66561720Y-87229145D03*
X71641720Y-87229145D03*
%TD*%
D54*
%TO.C,Q1*%
X51950000Y-61562500D03*
X50050000Y-61562500D03*
X51000000Y-63437500D03*
%TD*%
D51*
%TO.C,C12*%
X84500000Y-78520000D03*
X84500000Y-79480000D03*
%TD*%
D31*
%TO.C,REF\u002A\u002A*%
X29000000Y-20500000D03*
%TD*%
D42*
%TO.C,R8*%
X68825000Y-30500000D03*
X67175000Y-30500000D03*
%TD*%
D55*
%TO.C,J4*%
X109500000Y-26880000D03*
D56*
X109500000Y-29420000D03*
X109500000Y-31960000D03*
X109500000Y-34500000D03*
X109500000Y-37040000D03*
%TD*%
D26*
%TO.C,D1*%
X22000000Y-53562500D03*
X22000000Y-55437500D03*
%TD*%
D57*
%TO.C,J5*%
X82540000Y-66000000D03*
D56*
X80000000Y-66000000D03*
X82540000Y-63460000D03*
X80000000Y-63460000D03*
X82540000Y-60920000D03*
X80000000Y-60920000D03*
X82540000Y-58380000D03*
X80000000Y-58380000D03*
X82540000Y-55840000D03*
X80000000Y-55840000D03*
X82540000Y-53300000D03*
X80000000Y-53300000D03*
%TD*%
D58*
%TO.C,C17*%
X27647500Y-46625000D03*
X30352500Y-46625000D03*
%TD*%
D32*
%TO.C,C19*%
X54500000Y-62275000D03*
X54500000Y-60725000D03*
%TD*%
D26*
%TO.C,D4*%
X22000000Y-49625000D03*
X22000000Y-51500000D03*
%TD*%
D31*
%TO.C,REF\u002A\u002A*%
X99000000Y-90500000D03*
%TD*%
D59*
%TO.C,C16*%
X34200000Y-52500000D03*
X28800000Y-52500000D03*
%TD*%
D22*
%TO.C,J3*%
X79915000Y-87222500D03*
D23*
X84995000Y-87222500D03*
X90075000Y-87222500D03*
%TD*%
D60*
%TO.C,R10*%
X85635000Y-77490000D03*
X85635000Y-78510000D03*
%TD*%
D17*
%TO.C,R14*%
X83645000Y-83475000D03*
X82625000Y-83475000D03*
%TD*%
D61*
%TO.C,U1*%
X62595000Y-52037500D03*
X63865000Y-52037500D03*
X65135000Y-52037500D03*
X66405000Y-52037500D03*
X66405000Y-46962500D03*
X65135000Y-46962500D03*
X63865000Y-46962500D03*
X62595000Y-46962500D03*
%TD*%
D31*
%TO.C,REF\u002A\u002A*%
X29000000Y-90500000D03*
%TD*%
D62*
%TO.C,C18*%
X30352500Y-36125000D03*
X27647500Y-36125000D03*
%TD*%
D63*
%TO.C,U3*%
X89000000Y-32500000D03*
X88500000Y-32500000D03*
X88000000Y-32500000D03*
X87500000Y-32500000D03*
X87000000Y-32500000D03*
X86500000Y-32500000D03*
X86000000Y-32500000D03*
X85500000Y-32500000D03*
X85000000Y-32500000D03*
X84500000Y-32500000D03*
X84000000Y-32500000D03*
X83500000Y-32500000D03*
X83000000Y-32500000D03*
X82500000Y-32500000D03*
X82000000Y-32500000D03*
X81500000Y-32500000D03*
D64*
X79575000Y-34425000D03*
X79575000Y-34925000D03*
X79575000Y-35425000D03*
X79575000Y-35925000D03*
X79575000Y-36425000D03*
X79575000Y-36925000D03*
X79575000Y-37425000D03*
X79575000Y-37925000D03*
X79575000Y-38425000D03*
X79575000Y-38925000D03*
X79575000Y-39425000D03*
X79575000Y-39925000D03*
X79575000Y-40425000D03*
X79575000Y-40925000D03*
X79575000Y-41425000D03*
X79575000Y-41925000D03*
D63*
X81500000Y-43850000D03*
X82000000Y-43850000D03*
X82500000Y-43850000D03*
X83000000Y-43850000D03*
X83500000Y-43850000D03*
X84000000Y-43850000D03*
X84500000Y-43850000D03*
X85000000Y-43850000D03*
X85500000Y-43850000D03*
X86000000Y-43850000D03*
X86500000Y-43850000D03*
X87000000Y-43850000D03*
X87500000Y-43850000D03*
X88000000Y-43850000D03*
X88500000Y-43850000D03*
X89000000Y-43850000D03*
D64*
X90925000Y-41925000D03*
X90925000Y-41425000D03*
X90925000Y-40925000D03*
X90925000Y-40425000D03*
X90925000Y-39925000D03*
X90925000Y-39425000D03*
X90925000Y-38925000D03*
X90925000Y-38425000D03*
X90925000Y-37925000D03*
X90925000Y-37425000D03*
X90925000Y-36925000D03*
X90925000Y-36425000D03*
X90925000Y-35925000D03*
X90925000Y-35425000D03*
X90925000Y-34925000D03*
X90925000Y-34425000D03*
%TD*%
D65*
%TO.C,D6*%
X60850000Y-20000000D03*
X64150000Y-20000000D03*
%TD*%
D34*
%TO.C,R1*%
X19775000Y-49800000D03*
X19775000Y-51450000D03*
%TD*%
%LPD*%
M02*
