M48
; DRILL file {KiCad 9.0.3} date 2025-08-27T11:54:35+0300
; FORMAT={-:-/ absolute / inch / decimal}
; #@! TF.CreationDate,2025-08-27T11:54:35+03:00
; #@! TF.GenerationSoftware,Kicad,Pcbnew,9.0.3
; #@! TF.FileFunction,Plated,1,2,PTH
FMAT,2
INCH
; #@! TA.AperFunction,Plated,PTH,ViaDrill
T1C0.0118
; #@! TA.AperFunction,Plated,PTH,ComponentDrill
T2C0.0394
; #@! TA.AperFunction,Plated,PTH,ComponentDrill
T3C0.0441
; #@! TA.AperFunction,Plated,PTH,ComponentDrill
T4C0.0551
; #@! TA.AperFunction,Plated,PTH,ComponentDrill
T5C0.0591
%
G90
G05
T1
X0.9646Y-2.9134
X0.9843Y-3.2874
X1.2598Y-1.8307
X1.2992Y-3.3661
X1.3976Y-1.9291
X1.4173Y-2.2244
X1.4764Y-1.4764
X1.5551Y-2.0079
X1.5748Y-1.2598
X1.6732Y-2.5394
X1.6929Y-3.0709
X1.8307Y-1.3189
X1.8307Y-1.5748
X1.9685Y-1.9882
X1.9882Y-2.8346
X2.0866Y-3.5827
X2.1063Y-1.8504
X2.126Y-2.8346
X2.185Y-1.7913
X2.2244Y-2.0079
X2.2314Y-1.2767
X2.2441Y-3.0709
X2.2638Y-2.7953
X2.27Y-1.6304
X2.313Y-2.4114
X2.3228Y-0.9055
X2.3228Y-1.122
X2.3425Y-1.437
X2.3622Y-2.4803
X2.3819Y-2.185
X2.3819Y-2.2835
X2.4035Y-1.2735
X2.4213Y-2.3622
X2.4213Y-2.9331
X2.4213Y-3.248
X2.4402Y-2.4598
X2.4409Y-2.5591
X2.4606Y-2.1457
X2.4774Y-1.6835
X2.5197Y-2.5
X2.5394Y-1.063
X2.5529Y-1.3297
X2.5718Y-1.6732
X2.5718Y-1.752
X2.5984Y-2.4803
X2.6053Y-2.126
X2.6181Y-3.0315
X2.6378Y-2.6575
X2.6391Y-1.6732
X2.6591Y-1.5822
X2.672Y-1.3346
X2.7165Y-2.3228
X2.7165Y-2.5787
X2.7559Y-1.752
X2.7559Y-2.2244
X2.7953Y-1.437
X2.7953Y-2.126
X2.815Y-3.248
X2.8346Y-1.8504
X2.8543Y-2.2244
X2.8543Y-2.5984
X2.874Y-1.3583
X2.874Y-1.5354
X2.874Y-2.4409
X2.874Y-2.7362
X2.9578Y-2.1063
X2.9724Y-2.3228
X2.9774Y-2.0276
X2.9921Y-2.6772
X3.0099Y-3.3071
X3.0315Y-1.5157
X3.0512Y-1.063
X3.0512Y-1.7913
X3.1102Y-1.063
X3.1178Y-2.827
X3.1594Y-2.8839
X3.2087Y-2.7953
X3.2874Y-1.4961
X3.3071Y-1.3386
X3.3268Y-1.3947
X3.3661Y-1.5945
X3.3858Y-1.3583
X3.4252Y-1.122
X3.4252Y-1.4981
X3.4744Y-1.6437
X3.5039Y-1.5157
X3.5433Y-2.0079
X3.622Y-1.9094
X3.6417Y-1.6556
X3.6811Y-2.6772
X3.7402Y-1.0236
X3.7992Y-1.378
X3.8189Y-3.1102
X3.878Y-1.0433
X3.8976Y-0.9646
X3.9173Y-1.1024
X3.937Y-1.1811
X3.937Y-2.9134
X3.9567Y-1.378
X3.9567Y-2.4409
X3.9764Y-1.2205
X3.9961Y-1.2598
X4.0354Y-3.0709
X4.0748Y-1.3386
X4.1142Y-1.5157
X4.1929Y-1.6929
X4.1929Y-1.8307
X4.2126Y-2.7756
T2
X3.1496Y-2.0984
X3.1496Y-2.1984
X3.1496Y-2.2984
X3.1496Y-2.3984
X3.1496Y-2.4984
X3.1496Y-2.5984
X3.2496Y-2.0984
X3.2496Y-2.1984
X3.2496Y-2.2984
X3.2496Y-2.3984
X3.2496Y-2.4984
X3.2496Y-2.5984
X4.311Y-1.0583
X4.311Y-1.1583
X4.311Y-1.2583
X4.311Y-1.3583
X4.311Y-1.4583
T3
X1.2795Y-1.1024
X2.0669Y-1.1024
T4
X1.4746Y-3.434
X1.6746Y-3.434
X2.4205Y-3.4342
X2.6205Y-3.4342
X2.8205Y-3.4342
X3.1463Y-3.434
X3.3463Y-3.434
X3.5463Y-3.434
T5
X1.9316Y-2.8814
X1.9316Y-3.1767
X2.5221Y-2.8814
X2.5221Y-3.1767
X2.719Y-2.8814
X2.719Y-3.1767
X2.9158Y-2.8814
X2.9158Y-3.1767
M30
